<?xml version="1.0" encoding="utf-8"?>
<!-- Generator: Adobe Illustrator 19.0.0, SVG Export Plug-In . SVG Version: 6.00 Build 0)  -->
<svg version="1.1" id="Layer_1" xmlns="http://www.w3.org/2000/svg" xmlns:xlink="http://www.w3.org/1999/xlink" x="0px" y="0px"
	 viewBox="0 0 612 792" style="enable-background:new 0 0 612 792;" xml:space="preserve">
<g id="XMLID_2_">
	<path id="XMLID_4_" d="M509.8,629.3c0,4-1.6,8-5.2,10.8L315.7,789.4c-4.8,4-12.1,4-17.3,0L109.6,640.1c-6-4.8-6.8-13.2-2-19.2
		c4.8-6,13.3-6.8,19.3-2.4L307.3,761l180.4-142.5c6-4.8,14.5-3.6,19.3,2.4C509,623.3,509.8,626.1,509.8,629.3z"/>
	<path id="XMLID_3_" d="M321,13.6v764.6c0,7.6-6,13.6-13.7,13.6c-7.6,0-13.7-6-13.7-13.6V13.6c0-7.6,6-13.6,13.7-13.6
		C314.9,0,321,6.4,321,13.6z"/>
</g>
</svg>
