<?xml version="1.0" encoding="utf-8"?>
<!-- Generator: Adobe Illustrator 19.0.0, SVG Export Plug-In . SVG Version: 6.00 Build 0)  -->
<svg version="1.1" id="Layer_1" xmlns="http://www.w3.org/2000/svg" xmlns:xlink="http://www.w3.org/1999/xlink" x="0px" y="0px"
	 viewBox="-333 5 612 792" style="enable-background:new -333 5 612 792;" xml:space="preserve">
<style type="text/css">
	.st0{fill:#102F41;}
	.st1{fill:#F1E4C4;}
	.st2{fill:#FAAF3D;}
</style>
<path id="XMLID_39_" class="st0" d="M199.2,629c0,24.7-20.2,45-45,45h-362.4c-24.7,0-45-20.2-45-45V173c0-24.7,20.2-45,45-45h362.4
	c24.7,0,45,20.3,45,45V629z"/>
<path id="XMLID_38_" class="st1" d="M155.7,285.4c0,10.3-8.4,18.7-18.7,18.7h-327.9c-10.3,0-18.7-8.4-18.7-18.7v-71.7
	c0-10.3,8.4-18.7,18.7-18.7H137c10.3,0,18.7,8.4,18.7,18.7V285.4z"/>
<path id="XMLID_37_" class="st2" d="M-129.4,415.3c0,6.9-5.6,12.5-12.5,12.5h-45.9c-6.9,0-12.5-5.6-12.5-12.5v-45.9
	c0-6.9,5.6-12.5,12.5-12.5h45.9c6.9,0,12.5,5.6,12.5,12.5V415.3z"/>
<path id="XMLID_36_" class="st2" d="M-37.5,415.3c0,6.9-5.6,12.5-12.5,12.5h-45.9c-6.9,0-12.5-5.6-12.5-12.5v-45.9
	c0-6.9,5.6-12.5,12.5-12.5H-50c6.9,0,12.5,5.6,12.5,12.5V415.3z"/>
<path id="XMLID_35_" class="st2" d="M54.4,415.3c0,6.9-5.6,12.5-12.5,12.5H-4c-6.9,0-12.5-5.6-12.5-12.5v-45.9
	c0-6.9,5.6-12.5,12.5-12.5h45.9c6.9,0,12.5,5.6,12.5,12.5V415.3z"/>
<path id="XMLID_33_" class="st2" d="M146.3,415.3c0,6.9-5.6,12.5-12.5,12.5H87.9c-6.9,0-12.5-5.6-12.5-12.5v-45.9
	c0-6.9,5.6-12.5,12.5-12.5h45.9c6.9,0,12.5,5.6,12.5,12.5V415.3z"/>
<path id="XMLID_7_" class="st2" d="M-129.4,501.4c0,6.9-5.6,12.5-12.5,12.5h-45.9c-6.9,0-12.5-5.6-12.5-12.5v-45.9
	c0-6.9,5.6-12.5,12.5-12.5h45.9c6.9,0,12.5,5.6,12.5,12.5V501.4z"/>
<path id="XMLID_6_" class="st2" d="M-37.5,501.4c0,6.9-5.6,12.5-12.5,12.5h-45.9c-6.9,0-12.5-5.6-12.5-12.5v-45.9
	c0-6.9,5.6-12.5,12.5-12.5H-50c6.9,0,12.5,5.6,12.5,12.5V501.4z"/>
<path id="XMLID_5_" class="st2" d="M54.4,501.4c0,6.9-5.6,12.5-12.5,12.5H-4c-6.9,0-12.5-5.6-12.5-12.5v-45.9
	c0-6.9,5.6-12.5,12.5-12.5h45.9c6.9,0,12.5,5.6,12.5,12.5V501.4z"/>
<path id="XMLID_4_" class="st2" d="M-37.5,587.6c0,6.9-12.9,12.5-28.7,12.5h-105.4c-15.8,0-28.7-5.6-28.7-12.5v-45.9
	c0-6.9,12.9-12.5,28.7-12.5h105.4c15.8,0,28.7,5.6,28.7,12.5V587.6z"/>
<path id="XMLID_2_" class="st2" d="M146.3,587.6c0,6.9-12.9,12.5-28.7,12.5H12.2c-15.8,0-28.7-5.6-28.7-12.5v-45.9
	c0-6.9,12.9-12.5,28.7-12.5h105.4c15.8,0,28.7,5.6,28.7,12.5V587.6z"/>
<path id="XMLID_1_" class="st2" d="M146.3,501.4c0,6.9-5.6,12.5-12.5,12.5H87.9c-6.9,0-12.5-5.6-12.5-12.5v-45.9
	c0-6.9,5.6-12.5,12.5-12.5h45.9c6.9,0,12.5,5.6,12.5,12.5V501.4z"/>
</svg>
