<?xml version="1.0" encoding="utf-8"?>
<!-- Generator: Adobe Illustrator 19.0.0, SVG Export Plug-In . SVG Version: 6.00 Build 0)  -->
<svg version="1.1" id="Layer_1" xmlns="http://www.w3.org/2000/svg" xmlns:xlink="http://www.w3.org/1999/xlink" x="0px" y="0px"
	 viewBox="-258 125.4 441.4 311.6" style="enable-background:new -258 125.4 441.4 311.6;" xml:space="preserve">
<style type="text/css">
	.st0{fill:#31234C;}
	.st1{fill:#62528E;}
	.st2{fill:#AEB0B2;}
	.st3{clip-path:url(#SVGID_2_);fill:#554789;}
	.st4{fill:#FFFFFF;}
	.st5{fill:#525354;}
</style>
<path id="XMLID_55_" class="st0" d="M170.5,414.3c0,6.2-5.1,11.3-11.4,11.3h-395.4c-6.3,0-11.4-5-11.4-11.3V165.4
	c0-6.2,5.1-11.3,11.4-11.3h395.4c6.3,0,11.4,5,11.4,11.3V414.3z"/>
<path id="XMLID_54_" class="st1" d="M170,404.9c0,6.2-5.1,11.3-11.4,11.3h-394.4c-6.3,0-11.4-5-11.4-11.3V156
	c0-6.2,5.1-11.3,11.4-11.3h394.4c6.3,0,11.4,5,11.4,11.3V404.9z"/>
<rect id="XMLID_53_" x="-222.9" y="152.3" class="st2" width="182.2" height="250.6"/>
<rect id="XMLID_52_" x="-40.7" y="152.3" class="st2" width="182.2" height="250.6"/>
<g id="XMLID_114_">
	<g>
		<defs>
			<path id="SVGID_1_" d="M170,405.3c0,6.2-5.1,11.3-11.4,11.3h-394.4c-6.3,0-11.4-5-11.4-11.3V156.4c0-6.2,5.1-11.3,11.4-11.3
				h394.4c6.3,0,11.4,5,11.4,11.3V405.3z"/>
		</defs>
		<clipPath id="SVGID_2_">
			<use xlink:href="#SVGID_1_"  style="overflow:visible;"/>
		</clipPath>
		<rect id="XMLID_51_" x="-41.1" y="141.3" class="st3" width="248.5" height="296.8"/>
	</g>
</g>
<rect id="XMLID_49_" x="-226.9" y="152.3" class="st2" width="186.8" height="250.6"/>
<g id="XMLID_2_">
	<g id="XMLID_82_">
		<path id="XMLID_124_" d="M-166.8,161.7c0.8-2.4,1.2-3.6,2-6c0.9-0.1,1.3-0.1,2.2-0.1c-1.8,4.8-2.7,7.2-4.4,12
			c-0.8,0.1-1.3,0.1-2.1,0.2c-0.1-2.2-0.1-3.3-0.2-5.4c0-0.4,0-1.1,0.1-2.2c-0.1,0.5-0.3,1.2-0.6,2.2c-0.8,2.2-1.2,3.4-2.1,5.6
			c-0.9,0.1-1.4,0.1-2.3,0.2c-0.1-4.7-0.2-7-0.3-11.7c1-0.1,1.5-0.1,2.5-0.2c0,2.3,0,3.5,0,5.8c0,0.4-0.1,1.1-0.2,2.3
			c0.1-0.6,0.3-1.4,0.6-2.4c0.9-2.4,1.3-3.6,2.2-6c0.7-0.1,1.1-0.1,1.8-0.1c0.1,2.3,0.1,3.5,0.2,5.8c0,0.4,0,1.1-0.2,2.3
			C-167.3,163.4-167.1,162.7-166.8,161.7z"/>
		<path id="XMLID_121_" d="M-157.7,163.7c-1.5,0.1-2.2,0.1-3.7,0.2c0,0.2,0,0.3,0,0.4c0,0.6,0.3,0.9,1,0.9c0.6,0,1.4-0.3,2.4-0.7
			c-0.2,0.9-0.2,1.4-0.4,2.3c-1.1,0.4-2.1,0.6-3,0.6s-1.5-0.1-1.9-0.4c-0.5-0.4-0.8-1.1-0.8-2.1c0-0.5,0.1-1.1,0.2-1.7
			c0.3-1.7,0.7-2.8,1.3-3.5s1.5-1.1,2.8-1.1c1.8-0.1,2.7,0.5,2.7,1.9c0,0.2,0,0.5-0.1,0.7C-157.4,162.1-157.5,162.7-157.7,163.7z
			 M-159.8,162c0.1-0.6,0.2-1,0.2-1.2c0-0.3-0.1-0.5-0.4-0.4c-0.2,0-0.4,0.1-0.5,0.3c-0.1,0.2-0.2,0.7-0.4,1.4
			C-160.5,162.1-160.3,162.1-159.8,162z"/>
		<path id="XMLID_119_" d="M-153.6,164.8c0.4,0,0.6,0,1,0c-0.1,0.9-0.2,1.3-0.4,2.1c-1.5,0-2.2,0.1-3.7,0.1c0.7-3.9,1-5.8,1.7-9.7
			c-0.4,0-0.6,0-1,0c0.1-0.9,0.2-1.3,0.4-2.1c1.5-0.1,2.2-0.1,3.7-0.1C-152.6,159-152.9,160.9-153.6,164.8z"/>
		<path id="XMLID_117_" d="M-145.4,158.6c-0.2,0.9-0.2,1.4-0.4,2.3c-0.5-0.3-1-0.4-1.5-0.4c-0.4,0-0.7,0.1-0.9,0.3
			c-0.2,0.3-0.5,0.9-0.6,1.7c-0.1,0.5-0.1,0.8-0.1,1.1c0,0.4,0.1,0.7,0.2,0.8c0.1,0.1,0.3,0.1,0.6,0.1c0.5,0,1-0.2,1.6-0.5
			c-0.2,0.9-0.3,1.4-0.4,2.3c-0.7,0.3-1.5,0.4-2.4,0.4c-0.9,0-1.5-0.1-1.8-0.4c-0.5-0.4-0.7-1.1-0.7-2c0-0.5,0.1-1.1,0.2-1.8
			c0.3-1.8,0.8-3,1.5-3.7c0.5-0.5,1.2-0.7,2.2-0.7C-147,158.2-146.2,158.3-145.4,158.6z"/>
		<path id="XMLID_113_" d="M-138.5,162.5c-0.3,1.6-0.7,2.8-1.3,3.4c-0.6,0.6-1.5,1-2.7,0.9c-1,0-1.7-0.2-2.2-0.6
			c-0.5-0.4-0.7-1.1-0.7-2.1c0-0.5,0.1-1,0.2-1.7c0.3-1.7,0.7-2.8,1.3-3.5c0.6-0.6,1.5-1,2.7-1c1,0,1.7,0.2,2.2,0.6s0.7,1.2,0.7,2.2
			C-138.3,161.4-138.4,161.9-138.5,162.5z M-141.4,160.1c-0.2,0-0.4,0.1-0.5,0.4c-0.1,0.3-0.3,1-0.5,2c-0.2,1-0.3,1.6-0.3,1.9
			s0.1,0.5,0.4,0.5c0.2,0,0.4-0.1,0.5-0.4s0.3-0.9,0.5-2c0.2-1,0.3-1.6,0.3-1.9S-141.1,160.1-141.4,160.1z"/>
		<path id="XMLID_111_" d="M-130.5,167c0.4-2.3,0.6-3.4,1-5.7c0.1-0.3,0-0.5-0.2-0.5c-0.1,0-0.3,0.1-0.6,0.3
			c-0.1,0.1-0.1,0.1-0.2,0.1c-0.4,2.3-0.6,3.5-1,5.8c-1.1,0-1.6-0.1-2.7-0.1c0.4-2.3,0.6-3.4,1-5.7c0.1-0.3,0-0.5-0.2-0.5
			c-0.1,0-0.4,0.1-0.6,0.3c-0.1,0.1-0.1,0.1-0.2,0.2c-0.4,2.3-0.6,3.5-1,5.8c-1.1,0-1.6,0-2.7-0.1c0.4-2.4,0.6-3.7,1.1-6.1
			c0.2-1.1,0.3-1.9,0.2-2.4c0.6,0,0.9,0,1.4,0c0.3,0.2,0.6,0.5,0.8,1c1-0.7,1.9-1,2.5-1c0.8,0,1.3,0.4,1.4,1
			c0.9-0.6,1.6-0.8,2.2-0.8c1,0,1.5,0.6,1.5,1.6c0,0.3,0,0.7-0.1,1.1c-0.3,1.5-0.4,2.3-0.7,3.8c0.4,0,0.6,0,1,0.1
			c-0.1,0.8-0.2,1.3-0.4,2.1C-128.3,167.1-129.1,167.1-130.5,167z"/>
		<path id="XMLID_108_" d="M-119.4,164.4c-1.5-0.1-2.2-0.2-3.7-0.3c0,0.2,0,0.3,0,0.4c0,0.6,0.3,1,1,1c0.6,0,1.4-0.1,2.4-0.5
			c-0.2,0.9-0.2,1.3-0.4,2.2c-1.1,0.2-2.1,0.3-3,0.3c-0.9-0.1-1.5-0.3-1.9-0.6c-0.5-0.5-0.8-1.2-0.8-2.2c0-0.5,0.1-1.1,0.2-1.7
			c0.3-1.6,0.7-2.7,1.3-3.4c0.6-0.6,1.5-0.9,2.8-0.8c1.8,0.1,2.7,0.9,2.7,2.2c0,0.2,0,0.5-0.1,0.7
			C-119.2,162.8-119.3,163.3-119.4,164.4z M-121.6,162.4c0.1-0.6,0.2-1,0.2-1.2c0-0.3-0.1-0.5-0.4-0.5c-0.2,0-0.4,0.1-0.5,0.3
			c-0.1,0.2-0.2,0.6-0.4,1.4C-122.3,162.4-122,162.4-121.6,162.4z"/>
		<path id="XMLID_105_" d="M-116.4,165.3c0.4,0,0.6,0.2,0.9,0.4c0.2,0.2,0.3,0.5,0.3,0.9c0,0.4-0.2,0.8-0.5,1.1s-0.7,0.4-1.2,0.4
			c-0.4,0-0.6-0.2-0.9-0.4c-0.2-0.2-0.3-0.5-0.3-0.9c0-0.4,0.2-0.8,0.5-1.1C-117.2,165.4-116.8,165.2-116.4,165.3z M-116.2,156.2
			c1.1,0.1,1.6,0.1,2.7,0.2c-0.6,3.1-1,4.7-1.6,7.9c-1-0.1-1.4-0.1-2.4-0.2C-116.9,161-116.7,159.4-116.2,156.2z"/>
	</g>
</g>
<path id="XMLID_48_" class="st4" d="M-38.9,152.3l5.6,250.3c-117.8-4-196-2.6-196-2.6l-3.9-252.3
	C-233.3,147.7-170.9,146.2-38.9,152.3z"/>
<path id="XMLID_1_" class="st4" d="M-41.8,151.8l5.5,248.4c-117.8-3.9-196-2.6-196-2.6l-3.9-250.3
	C-236.2,147.3-173.8,145.7-41.8,151.8z"/>
<rect id="XMLID_45_" x="-41.2" y="152.3" class="st2" width="186.8" height="250.6"/>
<g>
	<g>
		<path class="st5" d="M-164.6,177.4c0,4,0,5.9,0,9.9c-0.8,0.1-1.2,0.1-2,0.2c0-4,0-5.9,0-9.9c-0.8,0.1-1.2,0.1-2.1,0.2
			c0-0.7,0-1.1,0-1.8c2.4-0.2,3.7-0.3,6.1-0.5c0,0.7,0,1.1,0,1.8C-163.4,177.3-163.8,177.3-164.6,177.4z"/>
		<path class="st5" d="M-159.9,179.1c0.5-0.6,1.1-0.9,1.8-0.9c0.6,0,1.1,0.2,1.3,0.6c0.2,0.4,0.3,1,0.3,1.8c0,2.5,0,3.7,0,6.2
			c-0.8,0-1.2,0-2,0.1c0-2.5,0-3.7,0-6.2c0-0.5-0.1-0.8-0.4-0.8c-0.2,0-0.5,0.2-0.8,0.6c-0.1,0.1-0.2,0.2-0.3,0.3c0,2.4,0,3.7,0,6.1
			c-0.8,0-1.2,0.1-2,0.1c0-4.7,0-7,0-11.7c0.8-0.1,1.2-0.1,2-0.1C-159.9,176.8-159.9,177.6-159.9,179.1z"/>
		<path class="st5" d="M-149.8,184.6c0,0.7,0,1,0,1.7c-1,0.4-1.8,0.6-2.4,0.6c-0.9,0-1.6-0.2-2-0.8c-0.5-0.7-0.7-1.8-0.7-3.6
			c0-1.6,0.2-2.8,0.7-3.5c0.4-0.7,1.2-1,2.2-1c0.8,0,1.5,0.2,1.8,0.6c0.4,0.4,0.6,1.1,0.6,2.1c0,0.7,0,1.1,0,1.9c-1.3,0-2,0-3.4,0.1
			c0,0.7,0,1.1,0.1,1.4c0.1,0.6,0.3,0.9,0.6,1.1c0.2,0.1,0.4,0.2,0.7,0.2C-151.1,185.2-150.4,185-149.8,184.6z M-151.4,181.1
			c0-0.5,0-0.9-0.1-1c-0.1-0.4-0.3-0.6-0.7-0.6c-0.3,0-0.5,0.1-0.7,0.4c-0.1,0.2-0.2,0.7-0.2,1.3
			C-152.3,181.2-152,181.2-151.4,181.1C-151.4,181.1-151.4,181.1-151.4,181.1z"/>
		<path class="st5" d="M-142.6,184.8c1.1,0,1.6,0,2.7,0.1c0,0.7,0,1.1,0,1.8c-1.9-0.1-2.8-0.1-4.7-0.1c0-4.7,0-7,0-11.7
			c1.8,0,2.7,0,4.6,0.1c0,0.7,0,1.1,0,1.8c-1,0-1.5,0-2.6-0.1c0,1.1,0,1.7,0,2.8c1,0,1.4,0,2.4,0.1c0,0.7,0,1.1,0,1.8
			c-1,0-1.4,0-2.4-0.1C-142.6,182.8-142.6,183.5-142.6,184.8z"/>
		<path class="st5" d="M-136.4,179.3c0.1-0.1,0.2-0.2,0.3-0.3c0.6-0.5,1.2-0.8,1.8-0.7c0.6,0,1.1,0.3,1.3,0.7c0.2,0.4,0.3,1,0.3,1.9
			c0,2.5,0,3.7,0,6.2c-0.8,0-1.2-0.1-2-0.1c0-2.5,0-3.7,0-6.2c0-0.5-0.1-0.8-0.4-0.8c-0.2,0-0.5,0.2-0.8,0.5
			c-0.1,0.2-0.2,0.2-0.4,0.4c0,2.4,0,3.6,0,6c-0.8,0-1.2-0.1-2-0.1c0-2.4,0-3.7,0-6.1c0-1.1-0.1-1.9-0.2-2.4c0.5,0,0.7,0,1.2,0
			C-136.9,178.5-136.6,178.9-136.4,179.3z"/>
		<path class="st5" d="M-127.5,179.5c0-1.5,0-2.3,0-3.8c0.8,0.1,1.2,0.1,2,0.2c0,3.7,0,5.6,0,9.4c0,1.1,0.1,1.9,0.2,2.4
			c-0.5,0-0.7-0.1-1.2-0.1c-0.3-0.2-0.5-0.5-0.7-0.9c-0.6,0.6-1.3,0.9-1.8,0.9c-0.7-0.1-1.2-0.4-1.5-1c-0.4-0.7-0.5-1.9-0.5-3.5
			s0.2-2.8,0.5-3.4c0.3-0.6,0.8-0.9,1.5-0.8C-128.6,178.7-128.1,179-127.5,179.5z M-127.5,185.2c0-1.6,0-2.4,0-4
			c-0.1-0.1-0.1-0.2-0.2-0.3c-0.3-0.4-0.5-0.5-0.7-0.6c-0.2,0-0.4,0.1-0.4,0.3c-0.1,0.4-0.2,1.2-0.2,2.4c0,1.2,0.1,2,0.2,2.4
			c0.1,0.3,0.2,0.4,0.4,0.4c0.2,0,0.5-0.1,0.7-0.4C-127.7,185.4-127.6,185.3-127.5,185.2z"/>
	</g>
</g>
<g>
	<g>
		<path class="st5" d="M-208.3,225.6c0,3,0,4.5,0,7.6c-0.6,0.1-0.9,0.1-1.5,0.1c0-3,0-4.5,0-7.6c-0.6,0.1-0.9,0.1-1.6,0.1
			c0-0.6,0-0.8,0-1.4c1.9-0.2,2.8-0.3,4.7-0.4c0,0.6,0,0.8,0,1.4C-207.3,225.5-207.6,225.5-208.3,225.6z"/>
		<path class="st5" d="M-204.6,226.8c0.4-0.5,0.9-0.7,1.3-0.7c0.5,0,0.8,0.1,1,0.4c0.2,0.3,0.3,0.8,0.3,1.4c0,1.9,0,2.8,0,4.7
			c-0.6,0-0.9,0.1-1.5,0.1c0-1.9,0-2.8,0-4.7c0-0.4-0.1-0.6-0.3-0.6c-0.2,0-0.4,0.2-0.6,0.5c-0.1,0.1-0.1,0.2-0.2,0.3
			c0,1.9,0,2.8,0,4.7c-0.6,0.1-0.9,0.1-1.5,0.1c0-3.6,0-5.4,0-9c0.6-0.1,0.9-0.1,1.5-0.1C-204.6,225-204.6,225.6-204.6,226.8z"/>
		<path class="st5" d="M-198.5,227.6c0-0.4-0.2-0.7-0.7-0.6c-0.5,0-1.1,0.3-1.7,0.7c0-0.6,0-0.8,0-1.4c0.7-0.3,1.3-0.5,1.9-0.6
			c0.7-0.1,1.2,0.1,1.5,0.4c0.3,0.3,0.5,0.8,0.5,1.6c0,1.1,0,1.6,0,2.7c0,0.9,0,1.5,0.1,1.8c-0.4,0-0.5,0-0.9,0.1
			c-0.2-0.1-0.3-0.3-0.5-0.5c0,0.1-0.1,0.1-0.1,0.1c-0.3,0.4-0.7,0.6-1.3,0.7c-1,0.1-1.5-0.5-1.5-1.8c0-0.7,0.2-1.2,0.5-1.6
			c0.4-0.4,0.9-0.7,1.6-0.7c0.2,0,0.3,0,0.5,0C-198.5,228-198.5,227.9-198.5,227.6z M-198.5,230.8c0-0.5,0-0.8,0-1.3
			c-0.1,0-0.2,0-0.4,0c-0.6,0-0.9,0.4-0.9,1.1c0,0.5,0.2,0.8,0.5,0.8c0.2,0,0.4-0.2,0.6-0.5C-198.5,230.9-198.5,230.9-198.5,230.8z"
			/>
		<path class="st5" d="M-194.3,226.2c0.1-0.1,0.2-0.2,0.3-0.3c0.4-0.4,0.9-0.7,1.3-0.7c0.5,0,0.8,0.1,1,0.4c0.2,0.3,0.3,0.8,0.3,1.4
			c0,1.9,0,2.8,0,4.7c-0.6,0-0.9,0.1-1.5,0.1c0-1.9,0-2.8,0-4.7c0-0.4-0.1-0.6-0.3-0.6c-0.2,0-0.4,0.2-0.6,0.5
			c-0.1,0.1-0.2,0.2-0.3,0.3c0,1.8,0,2.7,0,4.6c-0.6,0-0.9,0.1-1.5,0.1c0-1.9,0-2.8,0-4.7c0-0.8,0-1.4-0.1-1.8c0.4,0,0.5,0,0.9-0.1
			C-194.6,225.7-194.4,225.9-194.3,226.2z"/>
		<path class="st5" d="M-188.7,229.5c0,0.9,0,1.3,0,2.1c-0.6,0-0.9,0.1-1.4,0.1c0-3.6,0-5.4,0-9c0.6,0,0.9-0.1,1.4-0.1
			c0,1.6,0,2.4,0,4.1c0,0.3,0,0.6,0,0.9c0.1-0.2,0.3-0.6,0.7-1.2c0.4-0.6,0.6-0.9,1-1.5c0.6,0,0.9-0.1,1.4-0.1c-0.7,1-1,1.5-1.7,2.6
			c0.6,1.6,0.9,2.4,1.5,3.9c-0.6,0-0.9,0.1-1.5,0.1c-0.4-1.1-0.6-1.6-1-2.7C-188.4,229.1-188.5,229.2-188.7,229.5z"/>
		<path class="st5" d="M-180.2,229.3c0-1.9,0-2.8,0-4.7c0.6,0,0.9,0,1.5-0.1c0,2.8,0,4.2,0,7c0,0.7-0.2,1.3-0.5,1.6
			c-0.3,0.3-0.8,0.5-1.5,0.6c-0.5,0-1.1-0.1-1.8-0.3c0-0.5,0-0.8,0-1.4c0.6,0.3,1.1,0.5,1.6,0.5c0.5,0,0.8-0.3,0.8-0.8
			c0-0.4,0-0.7,0-1.1c0,0,0,0,0,0c-0.4,0.4-0.9,0.7-1.3,0.7c-0.5,0-0.8-0.1-1-0.5c-0.2-0.3-0.3-0.8-0.3-1.4c0-1.9,0-2.8,0-4.7
			c0.6,0,0.9,0,1.5-0.1c0,1.9,0,2.8,0,4.7c0,0.4,0.1,0.6,0.3,0.6c0.2,0,0.4-0.2,0.6-0.5C-180.3,229.4-180.2,229.4-180.2,229.3z"/>
		<path class="st5" d="M-173.2,227.5c0,1.2-0.2,2.1-0.5,2.6c-0.3,0.5-0.9,0.8-1.7,0.8c-0.8,0-1.3-0.2-1.7-0.7
			c-0.3-0.5-0.5-1.4-0.5-2.6s0.2-2.1,0.5-2.6c0.3-0.5,0.9-0.8,1.7-0.8c0.8,0,1.3,0.2,1.7,0.7C-173.3,225.4-173.2,226.3-173.2,227.5z
			 M-175.3,225.4c-0.4,0-0.6,0.3-0.6,1c0,0.1,0,0.5,0,1.3s0,1.3,0,1.3c0.1,0.6,0.3,0.9,0.6,0.9c0.4,0,0.6-0.3,0.6-1
			c0-0.1,0-0.5,0-1.3s0-1.3,0-1.3C-174.7,225.7-174.9,225.4-175.3,225.4z"/>
		<path class="st5" d="M-169.4,228.8c0-1.9,0-2.8,0-4.7c0.6,0,0.9,0,1.5-0.1c0,1.9,0,2.8,0,4.7c0,0.8,0,1.4,0.1,1.8
			c-0.4,0-0.5,0-0.9,0c-0.2-0.1-0.4-0.4-0.5-0.7c-0.1,0.1-0.1,0.1-0.2,0.2c-0.4,0.4-0.9,0.7-1.3,0.7c-0.5,0-0.8-0.1-1-0.5
			c-0.2-0.3-0.3-0.8-0.3-1.4c0-1.9,0-2.8,0-4.7c0.6,0,0.9,0,1.5-0.1c0,1.9,0,2.8,0,4.7c0,0.4,0.1,0.6,0.3,0.6c0.2,0,0.4-0.2,0.6-0.5
			C-169.5,229-169.4,228.9-169.4,228.8z"/>
		<path class="st5" d="M-162.3,223.9c0.6,0,0.9,0,1.5,0c0,0.5,0,0.7,0,1.2c-0.6,0-0.9,0-1.5,0c0,2.1,0,3.2,0,5.3c-0.6,0-0.9,0-1.5,0
			c0-2.1,0-3.2,0-5.3c-0.3,0-0.5,0-0.9,0c0-0.5,0-0.7,0-1.2c0.3,0,0.5,0,0.9,0c0-0.3,0-0.4,0-0.7c0-0.7,0.2-1.2,0.5-1.5
			c0.3-0.2,0.8-0.4,1.5-0.4c0.4,0,0.8,0,1.1,0.1c0,0.5,0,0.7,0,1.2c-0.3-0.1-0.6-0.1-0.9-0.1s-0.6,0.2-0.6,0.7
			C-162.3,223.5-162.3,223.6-162.3,223.9z"/>
		<path class="st5" d="M-156.2,227c0,1.2-0.2,2.1-0.5,2.6c-0.3,0.5-0.9,0.8-1.7,0.8c-0.8,0-1.3-0.2-1.7-0.7
			c-0.3-0.5-0.5-1.4-0.5-2.6s0.2-2.1,0.5-2.6c0.3-0.5,0.9-0.8,1.7-0.8c0.8,0,1.3,0.2,1.7,0.7C-156.3,224.9-156.2,225.8-156.2,227z
			 M-158.3,224.8c-0.4,0-0.6,0.3-0.6,1c0,0.1,0,0.5,0,1.3s0,1.3,0,1.3c0.1,0.6,0.3,0.9,0.6,0.9c0.4,0,0.6-0.3,0.6-1
			c0-0.1,0-0.5,0-1.3s0-1.3,0-1.3C-157.8,225.1-158,224.8-158.3,224.8z"/>
		<path class="st5" d="M-153.5,224.8c0.2-0.2,0.4-0.4,0.6-0.6c0.4-0.4,0.7-0.6,1.1-0.6c0,0.7,0,1.1,0,1.9c-0.1-0.1-0.3-0.1-0.4-0.1
			c-0.2,0-0.5,0.1-0.8,0.4c-0.2,0.1-0.2,0.2-0.4,0.4c0,1.6,0,2.5,0,4.1c-0.6,0-0.9,0-1.5,0c0-1.9,0-2.8,0-4.7c0-0.8,0-1.4-0.1-1.8
			c0.4,0,0.5,0,0.9,0C-153.8,223.9-153.6,224.3-153.5,224.8z"/>
		<path class="st5" d="M-146.2,228.3c0-1.9,0-2.8,0-4.7c0.6,0,0.9,0,1.5,0c0,1.9,0,2.8,0,4.7c0,0.8,0,1.4,0.1,1.8
			c-0.4,0-0.5,0-0.9,0c-0.2-0.1-0.4-0.4-0.5-0.7c-0.1,0.1-0.1,0.1-0.2,0.2c-0.4,0.4-0.9,0.6-1.3,0.6c-0.5,0-0.8-0.2-1-0.5
			c-0.2-0.3-0.3-0.8-0.3-1.4c0-1.9,0-2.8,0-4.7c0.6,0,0.9,0,1.5,0c0,1.9,0,2.8,0,4.7c0,0.4,0.1,0.6,0.3,0.6c0.2,0,0.4-0.1,0.6-0.4
			C-146.3,228.4-146.3,228.4-146.2,228.3z"/>
		<path class="st5" d="M-140.2,223.8c0,0.5,0,0.8,0,1.3c-0.6-0.3-1.1-0.5-1.6-0.5c-0.4,0-0.6,0.2-0.6,0.7c0,0.4,0.2,0.7,0.6,0.7
			c1.4,0,2,0.7,2,2.1c0,1.4-0.7,2.1-2.1,2.1c-0.6,0-1.1-0.1-1.6-0.3c0-0.5,0-0.8,0-1.3c0.6,0.3,1.1,0.4,1.6,0.4
			c0.5,0,0.8-0.3,0.8-0.8c0-0.5-0.3-0.7-0.8-0.7c-0.6,0-1-0.1-1.3-0.4c-0.4-0.3-0.6-0.9-0.6-1.7c0-1.3,0.6-1.9,1.9-1.9
			C-141.3,223.5-140.8,223.6-140.2,223.8z"/>
		<path class="st5" d="M-137.1,223.6c0,2.6,0,3.9,0,6.5c-0.6,0-0.9,0-1.5,0c0-2.1,0-3.2,0-5.3c-0.3,0-0.4,0-0.7,0c0-0.5,0-0.7,0-1.2
			C-138.4,223.6-138,223.6-137.1,223.6z M-137.9,221c0.2,0,0.5,0.1,0.6,0.3c0.2,0.2,0.3,0.4,0.3,0.6c0,0.2-0.1,0.5-0.3,0.6
			s-0.4,0.3-0.6,0.3c-0.2,0-0.4-0.1-0.6-0.3c-0.2-0.2-0.3-0.4-0.3-0.6c0-0.3,0.1-0.5,0.3-0.6C-138.3,221.1-138.1,221-137.9,221z"/>
		<path class="st5" d="M-134.3,224.4c0.1-0.1,0.2-0.1,0.3-0.2c0.4-0.4,0.9-0.6,1.3-0.6c0.5,0,0.8,0.2,1,0.5c0.2,0.3,0.3,0.8,0.3,1.4
			c0,1.9,0,2.8,0,4.7c-0.6,0-0.9,0-1.5,0c0-1.9,0-2.8,0-4.7c0-0.4-0.1-0.6-0.3-0.6c-0.2,0-0.4,0.1-0.6,0.4c-0.1,0.1-0.2,0.2-0.3,0.3
			c0,1.8,0,2.7,0,4.6c-0.6,0-0.9,0-1.5,0c0-1.9,0-2.8,0-4.7c0-0.8,0-1.4-0.1-1.8c0.4,0,0.5,0,0.9,0
			C-134.6,223.8-134.4,224-134.3,224.4z"/>
		<path class="st5" d="M-126,230.8c0,0.7-0.2,1.3-0.5,1.6c-0.3,0.3-0.9,0.5-1.5,0.5c-0.5,0-1.1-0.2-1.8-0.4c0-0.5,0-0.8,0-1.4
			c0.6,0.4,1.1,0.6,1.6,0.6c0.5,0,0.8-0.3,0.8-0.8c0-0.4,0-0.6,0-1c-0.4,0.4-0.8,0.5-1.2,0.5c-0.5,0-0.9-0.3-1.2-0.7
			c-0.3-0.5-0.4-1.4-0.4-2.7c0-1.2,0.1-2.1,0.4-2.7c0.2-0.5,0.6-0.7,1.2-0.7c0.4,0,0.9,0.3,1.4,0.8c0.1-0.3,0.3-0.5,0.5-0.6
			c0.4,0,0.5,0,0.9,0c-0.1,0.4-0.1,1-0.1,1.8C-126,227.7-126,228.7-126,230.8z M-127.5,225.4c-0.1-0.1-0.1-0.1-0.2-0.2
			c-0.2-0.3-0.4-0.4-0.6-0.4c-0.2,0-0.3,0.1-0.3,0.3c-0.1,0.3-0.2,0.9-0.2,1.9s0.1,1.6,0.2,1.8c0.1,0.2,0.2,0.3,0.3,0.3
			c0.2,0,0.4-0.1,0.6-0.4c0.1-0.1,0.1-0.1,0.2-0.2C-127.5,227.3-127.5,226.7-127.5,225.4z"/>
		<path class="st5" d="M-119.4,230.2c-0.3,0.2-0.7,0.2-1.3,0.2c-0.5,0-0.9-0.1-1.1-0.4c-0.2-0.2-0.2-0.7-0.2-1.4c0-1.5,0-2.2,0-3.6
			c-0.3,0-0.5,0-0.9,0c0-0.5,0-0.7,0-1.2c0.3,0,0.5,0,0.9,0c0-0.6,0-0.9,0-1.5c0.6,0,0.9,0,1.5,0c0,0.6,0,0.9,0,1.5
			c0.5,0,0.7,0,1.1,0c0,0.5,0,0.7,0,1.2c-0.5,0-0.7,0-1.1,0c0,1.5,0,2.2,0,3.6c0,0.2,0,0.4,0.1,0.4c0.1,0.1,0.2,0.1,0.5,0.1
			c0.2,0,0.4,0,0.6-0.1C-119.4,229.6-119.4,229.8-119.4,230.2z"/>
		<path class="st5" d="M-117.1,224.5c0.4-0.4,0.9-0.6,1.3-0.6c0.5,0,0.8,0.2,1,0.5c0.2,0.3,0.3,0.8,0.3,1.4c0,1.9,0,2.8,0,4.7
			c-0.6,0-0.9,0-1.5-0.1c0-1.9,0-2.8,0-4.7c0-0.4-0.1-0.6-0.3-0.6c-0.2,0-0.4,0.1-0.6,0.4c-0.1,0.1-0.1,0.1-0.2,0.2
			c0,1.9,0,2.8,0,4.7c-0.6,0-0.9,0-1.5,0c0-3.6,0-5.4,0-9c0.6,0,0.9,0,1.5,0C-117.1,222.7-117.1,223.3-117.1,224.5z"/>
		<path class="st5" d="M-111.4,224.2c0,2.6,0,3.9,0,6.5c-0.6,0-0.9,0-1.5-0.1c0-2.1,0-3.2,0-5.3c-0.3,0-0.4,0-0.7,0
			c0-0.5,0-0.7,0-1.2C-112.7,224.1-112.3,224.2-111.4,224.2z M-112.2,221.6c0.2,0,0.5,0.1,0.6,0.3c0.2,0.2,0.3,0.4,0.3,0.6
			c0,0.2-0.1,0.4-0.3,0.6c-0.2,0.2-0.4,0.2-0.6,0.2c-0.2,0-0.4-0.1-0.6-0.3c-0.2-0.2-0.3-0.4-0.3-0.6c0-0.3,0.1-0.5,0.3-0.6
			C-112.6,221.6-112.4,221.6-112.2,221.6z"/>
		<path class="st5" d="M-106.8,224.6c0,0.5,0,0.8,0,1.3c-0.6-0.3-1.1-0.5-1.6-0.5c-0.4,0-0.6,0.2-0.6,0.7c0,0.4,0.2,0.7,0.6,0.7
			c1.4,0.1,2,0.8,2,2.2c0,1.4-0.7,2-2.1,2c-0.6,0-1.1-0.1-1.6-0.4c0-0.5,0-0.8,0-1.3c0.6,0.3,1.1,0.4,1.6,0.5c0.5,0,0.8-0.2,0.8-0.8
			c0-0.5-0.3-0.7-0.8-0.7c-0.6,0-1-0.2-1.3-0.4c-0.4-0.3-0.6-0.9-0.6-1.7c0-1.3,0.6-1.9,1.9-1.8
			C-107.9,224.2-107.4,224.3-106.8,224.6z"/>
		<path class="st5" d="M-100.9,226.5c0-0.4-0.2-0.7-0.7-0.7c-0.5,0-1.1,0.1-1.7,0.5c0-0.6,0-0.8,0-1.4c0.7-0.2,1.3-0.3,1.9-0.3
			c0.7,0,1.2,0.2,1.5,0.6c0.3,0.3,0.5,0.9,0.5,1.6c0,1.1,0,1.6,0,2.7c0,0.9,0,1.5,0.1,1.8c-0.4,0-0.5,0-0.9,0
			c-0.2-0.1-0.3-0.3-0.5-0.6c0,0-0.1,0.1-0.1,0.1c-0.3,0.4-0.7,0.5-1.3,0.5c-1-0.1-1.5-0.7-1.5-2c0-0.7,0.2-1.2,0.5-1.6
			c0.4-0.4,0.9-0.6,1.6-0.5c0.2,0,0.3,0,0.5,0C-100.9,226.9-100.9,226.8-100.9,226.5z M-100.9,229.7c0-0.5,0-0.8,0-1.3
			c-0.1,0-0.2,0-0.4,0c-0.6,0-0.9,0.3-0.9,1c0,0.5,0.2,0.8,0.5,0.8c0.2,0,0.4-0.1,0.6-0.4C-100.9,229.7-100.9,229.7-100.9,229.7z"/>
		<path class="st5" d="M-96.5,231c0,1.2,0,1.7,0,2.9c-0.6,0-0.9-0.1-1.5-0.1c0-2.9,0-4.3,0-7.2c0-0.8,0-1.4-0.1-1.8
			c0.4,0,0.5,0,0.9,0.1c0.2,0.1,0.4,0.4,0.5,0.7c0.5-0.5,1-0.7,1.4-0.7c0.5,0,0.9,0.3,1.2,0.8c0.3,0.6,0.4,1.5,0.4,2.7
			c0,1.2-0.1,2.1-0.4,2.6c-0.2,0.5-0.6,0.7-1.2,0.6C-95.7,231.6-96.1,231.4-96.5,231z M-96.5,229.7c0.1,0.1,0.1,0.1,0.2,0.2
			c0.2,0.3,0.4,0.4,0.6,0.4c0.2,0,0.3-0.1,0.3-0.3c0.1-0.3,0.2-0.9,0.2-1.8s-0.1-1.6-0.2-1.9c-0.1-0.2-0.2-0.3-0.3-0.3
			c-0.2,0-0.4,0.1-0.6,0.3c-0.1,0.1-0.1,0.1-0.2,0.2C-96.5,227.9-96.5,228.5-96.5,229.7z"/>
		<path class="st5" d="M-91,231.4c0,1.2,0,1.7,0,2.9c-0.6,0-0.9-0.1-1.5-0.1c0-2.9,0-4.3,0-7.2c0-0.8,0-1.4-0.1-1.8
			c0.4,0,0.5,0,0.9,0.1c0.2,0.1,0.4,0.4,0.5,0.7c0.5-0.5,1-0.7,1.4-0.7c0.5,0,0.9,0.3,1.2,0.8c0.3,0.6,0.4,1.5,0.4,2.7
			s-0.1,2.1-0.4,2.6c-0.2,0.5-0.6,0.7-1.2,0.6C-90.2,232-90.6,231.8-91,231.4z M-91,230.1c0.1,0.1,0.1,0.1,0.2,0.2
			c0.2,0.3,0.4,0.4,0.6,0.4c0.2,0,0.3-0.1,0.3-0.3c0.1-0.3,0.2-0.9,0.2-1.8c0-0.9-0.1-1.6-0.2-1.9c-0.1-0.2-0.2-0.3-0.3-0.3
			c-0.2,0-0.4,0.1-0.6,0.3c-0.1,0.1-0.1,0.1-0.2,0.2C-91,228.2-91,228.8-91,230.1z"/>
		<path class="st5" d="M-86.2,230.2c0.3,0,0.5,0.1,0.7,0.4c0.2,0.2,0.3,0.5,0.3,0.7s-0.1,0.5-0.3,0.7s-0.4,0.3-0.7,0.2
			c-0.3,0-0.5-0.1-0.7-0.4c-0.2-0.2-0.3-0.5-0.3-0.7s0.1-0.5,0.3-0.7C-86.7,230.3-86.5,230.2-86.2,230.2z"/>
		<path class="st5" d="M-208.8,244.8c0,1.6,0,2.4,0,4c-0.6,0.1-0.9,0.1-1.5,0.1c0-3.6,0-5.4,0-9c0.6-0.1,0.9-0.1,1.5-0.1
			c0,1.4,0,2.1,0,3.5c0.6-0.1,0.9-0.1,1.6-0.1c0-1.4,0-2.1,0-3.5c0.6-0.1,0.9-0.1,1.5-0.1c0,3.6,0,5.4,0,9c-0.6,0.1-0.9,0.1-1.5,0.1
			c0-1.6,0-2.4,0-4C-207.9,244.7-208.2,244.7-208.8,244.8z"/>
		<path class="st5" d="M-199.9,244.8c0,1.2-0.2,2.1-0.5,2.7c-0.3,0.5-0.9,0.8-1.6,0.9c-0.8,0.1-1.3-0.1-1.7-0.6
			c-0.3-0.5-0.5-1.3-0.5-2.6c0-1.2,0.2-2.1,0.5-2.7c0.3-0.5,0.9-0.8,1.7-0.9c0.8-0.1,1.3,0.1,1.6,0.6
			C-200.1,242.7-199.9,243.5-199.9,244.8z M-202.1,242.7c-0.4,0-0.6,0.4-0.6,1c0,0.1,0,0.5,0,1.3s0,1.3,0,1.3
			c0.1,0.6,0.3,0.9,0.6,0.9c0.4,0,0.6-0.4,0.6-1c0-0.1,0-0.5,0-1.3s0-1.3,0-1.3C-201.5,243-201.7,242.7-202.1,242.7z"/>
		<path class="st5" d="M-197.2,247.4c0,1.2,0,1.7,0,2.9c-0.6,0-0.9,0.1-1.5,0.1c0-2.9,0-4.3,0-7.2c0-0.8,0-1.4-0.1-1.8
			c0.4,0,0.5,0,0.9-0.1c0.2,0.1,0.4,0.3,0.5,0.6c0.5-0.5,1-0.8,1.4-0.9c0.5,0,0.9,0.2,1.2,0.6c0.3,0.5,0.4,1.4,0.4,2.6
			s-0.1,2.1-0.4,2.7c-0.2,0.5-0.6,0.8-1.2,0.8C-196.4,247.9-196.8,247.7-197.2,247.4z M-197.2,246.1c0.1,0.1,0.1,0.1,0.2,0.2
			c0.2,0.2,0.4,0.3,0.6,0.3c0.2,0,0.3-0.1,0.3-0.3c0.1-0.3,0.2-0.9,0.2-1.9s-0.1-1.6-0.2-1.8c-0.1-0.2-0.2-0.3-0.3-0.3
			c-0.2,0-0.4,0.2-0.6,0.4c-0.1,0.1-0.1,0.1-0.2,0.2C-197.2,244.3-197.2,244.9-197.2,246.1z"/>
		<path class="st5" d="M-189.4,245.7c0,0.5,0,0.8,0,1.3c-0.7,0.3-1.3,0.5-1.8,0.5c-0.7,0-1.2-0.1-1.5-0.5c-0.4-0.5-0.6-1.4-0.6-2.7
			c0-1.2,0.2-2.1,0.5-2.7c0.3-0.5,0.9-0.8,1.7-0.9c0.6,0,1.1,0.1,1.4,0.4s0.4,0.8,0.4,1.6c0,0.6,0,0.9,0,1.4c-1,0.1-1.5,0.1-2.6,0.2
			c0,0.5,0,0.9,0,1c0.1,0.4,0.2,0.7,0.4,0.8c0.1,0.1,0.3,0.1,0.5,0.1C-190.4,246.2-189.9,246-189.4,245.7z M-190.6,243.1
			c0-0.4,0-0.7,0-0.8c-0.1-0.3-0.2-0.4-0.5-0.4c-0.2,0-0.4,0.1-0.5,0.3c-0.1,0.2-0.1,0.5-0.2,1
			C-191.4,243.2-191.1,243.2-190.6,243.1C-190.6,243.1-190.6,243.1-190.6,243.1z"/>
		<path class="st5" d="M-182.8,246.7c-0.3,0.2-0.7,0.3-1.3,0.3c-0.5,0-0.9-0.1-1.1-0.3c-0.2-0.2-0.2-0.7-0.2-1.4c0-1.5,0-2.2,0-3.6
			c-0.3,0-0.5,0-0.9,0.1c0-0.5,0-0.7,0-1.2c0.3,0,0.5,0,0.9-0.1c0-0.6,0-0.9,0-1.5c0.6,0,0.9-0.1,1.5-0.1c0,0.6,0,0.9,0,1.5
			c0.5,0,0.7,0,1.1-0.1c0,0.5,0,0.7,0,1.2c-0.5,0-0.7,0-1.1,0.1c0,1.5,0,2.2,0,3.6c0,0.2,0,0.3,0.1,0.4c0.1,0.1,0.2,0.1,0.4,0.1
			c0.2,0,0.4-0.1,0.6-0.1C-182.8,246-182.8,246.2-182.8,246.7z"/>
		<path class="st5" d="M-180.5,240.7c0.4-0.4,0.9-0.7,1.3-0.7c0.5,0,0.8,0.1,1,0.5c0.2,0.3,0.3,0.8,0.3,1.4c0,1.9,0,2.8,0,4.7
			c-0.6,0-0.9,0-1.5,0.1c0-1.9,0-2.8,0-4.7c0-0.4-0.1-0.6-0.3-0.6c-0.2,0-0.4,0.2-0.6,0.5c-0.1,0.1-0.1,0.1-0.2,0.2
			c0,1.9,0,2.8,0,4.7c-0.6,0-0.9,0-1.5,0.1c0-3.6,0-5.4,0-9c0.6,0,0.9,0,1.5-0.1C-180.5,239-180.5,239.6-180.5,240.7z"/>
		<path class="st5" d="M-174.8,240c0,2.6,0,3.9,0,6.5c-0.6,0-0.9,0-1.5,0.1c0-2.1,0-3.2,0-5.3c-0.3,0-0.4,0-0.7,0c0-0.5,0-0.7,0-1.2
			C-176.1,240-175.7,240-174.8,240z M-175.6,237.4c0.2,0,0.5,0.1,0.6,0.2c0.2,0.2,0.3,0.4,0.3,0.6c0,0.2-0.1,0.5-0.3,0.6
			c-0.2,0.2-0.4,0.3-0.6,0.3c-0.2,0-0.4-0.1-0.6-0.2c-0.2-0.2-0.3-0.4-0.3-0.6c0-0.3,0.1-0.5,0.3-0.6
			C-176.1,237.5-175.9,237.4-175.6,237.4z"/>
		<path class="st5" d="M-170.2,240c0,0.5,0,0.8,0,1.3c-0.6-0.3-1.1-0.4-1.6-0.4c-0.4,0-0.6,0.3-0.6,0.7c0,0.4,0.2,0.7,0.6,0.6
			c1.4-0.1,2,0.6,2,2c0,1.4-0.7,2.1-2.1,2.1c-0.6,0-1.1-0.1-1.6-0.2c0-0.5,0-0.8,0-1.3c0.6,0.2,1.1,0.3,1.6,0.3
			c0.5,0,0.8-0.3,0.8-0.9c0-0.5-0.3-0.7-0.8-0.7c-0.6,0-1-0.1-1.3-0.3c-0.4-0.3-0.6-0.9-0.6-1.7c0-1.3,0.6-1.9,1.9-2
			C-171.3,239.7-170.8,239.8-170.2,240z"/>
		<path class="st5" d="M-164.8,239.6c0,2.6,0,3.9,0,6.5c-0.6,0-0.9,0-1.5,0c0-2.1,0-3.2,0-5.3c-0.3,0-0.4,0-0.7,0c0-0.5,0-0.7,0-1.2
			C-166.1,239.6-165.7,239.6-164.8,239.6z M-165.6,237c0.2,0,0.5,0.1,0.6,0.2c0.2,0.2,0.3,0.4,0.3,0.6c0,0.2-0.1,0.5-0.3,0.6
			s-0.4,0.3-0.6,0.3c-0.2,0-0.4-0.1-0.6-0.2c-0.2-0.2-0.3-0.4-0.3-0.6c0-0.3,0.1-0.5,0.3-0.6C-166,237.1-165.8,237-165.6,237z"/>
		<path class="st5" d="M-162,240.2c0.1-0.1,0.2-0.2,0.3-0.3c0.4-0.4,0.9-0.6,1.3-0.7c0.5,0,0.8,0.2,1,0.5c0.2,0.3,0.3,0.8,0.3,1.4
			c0,1.9,0,2.8,0,4.7c-0.6,0-0.9,0-1.5,0c0-1.9,0-2.8,0-4.7c0-0.4-0.1-0.6-0.3-0.6c-0.2,0-0.4,0.2-0.6,0.4c-0.1,0.1-0.2,0.2-0.3,0.3
			c0,1.8,0,2.7,0,4.6c-0.6,0-0.9,0-1.5,0c0-1.9,0-2.8,0-4.7c0-0.8,0-1.4-0.1-1.8c0.4,0,0.5,0,0.9,0
			C-162.3,239.7-162.1,239.9-162,240.2z"/>
		<path class="st5" d="M-156,239.4c0.6,0,0.9,0,1.5,0c0,0.5,0,0.7,0,1.2c-0.6,0-0.9,0-1.5,0c0,2.1,0,3.2,0,5.3c-0.6,0-0.9,0-1.5,0
			c0-2.1,0-3.2,0-5.3c-0.3,0-0.5,0-0.9,0c0-0.5,0-0.7,0-1.2c0.3,0,0.5,0,0.9,0c0-0.3,0-0.4,0-0.7c0-0.7,0.2-1.2,0.5-1.5
			c0.3-0.2,0.8-0.4,1.5-0.4c0.4,0,0.8,0,1.1,0.1c0,0.5,0,0.7,0,1.2c-0.3-0.1-0.6-0.1-0.9-0.1c-0.4,0-0.6,0.2-0.6,0.7
			C-156,239-156,239.1-156,239.4z"/>
		<path class="st5" d="M-149.8,242.5c0,1.2-0.2,2.1-0.5,2.6c-0.3,0.5-0.9,0.8-1.7,0.8c-0.8,0-1.3-0.2-1.7-0.7
			c-0.3-0.5-0.5-1.4-0.5-2.6s0.2-2.1,0.5-2.6c0.3-0.5,0.9-0.8,1.7-0.8c0.8,0,1.3,0.2,1.7,0.7C-150,240.4-149.8,241.3-149.8,242.5z
			 M-152,240.3c-0.4,0-0.6,0.3-0.6,0.9c0,0.1,0,0.5,0,1.3s0,1.3,0,1.3c0.1,0.6,0.3,0.9,0.6,0.9s0.6-0.3,0.6-0.9c0-0.1,0-0.5,0-1.3
			s0-1.3,0-1.3C-151.4,240.6-151.6,240.3-152,240.3z"/>
		<path class="st5" d="M-147.2,240.3c0.2-0.2,0.4-0.4,0.6-0.6c0.4-0.4,0.7-0.6,1.1-0.6c0,0.7,0,1.1,0,1.9c-0.1-0.1-0.3-0.1-0.4-0.1
			c-0.2,0-0.5,0.1-0.8,0.4c-0.2,0.1-0.2,0.2-0.4,0.4c0,1.6,0,2.5,0,4.1c-0.6,0-0.9,0-1.5,0c0-1.9,0-2.8,0-4.7c0-0.8,0-1.4-0.1-1.8
			c0.4,0,0.5,0,0.9,0C-147.5,239.4-147.3,239.8-147.2,240.3z"/>
		<path class="st5" d="M-140.9,239.9c0,0,0.1-0.1,0.1-0.1c0.5-0.5,0.9-0.7,1.3-0.7c0.5,0,0.8,0.2,1,0.5c0.2,0.3,0.3,0.8,0.3,1.4
			c0,1.9,0,2.8,0,4.7c-0.6,0-0.9,0-1.5,0c0-1.9,0-2.8,0-4.7c0-0.4-0.1-0.6-0.3-0.6c-0.2,0-0.4,0.1-0.6,0.4c-0.1,0.1-0.1,0.1-0.1,0.2
			c0,1.9,0,2.8,0,4.7c-0.6,0-0.9,0-1.5,0c0-1.9,0-2.8,0-4.7c0-0.4-0.1-0.6-0.3-0.6c-0.2,0-0.4,0.1-0.6,0.4c-0.1,0.1-0.1,0.1-0.1,0.2
			c0,1.9,0,2.8,0,4.7c-0.6,0-0.9,0-1.5,0c0-1.9,0-2.8,0-4.7c0-0.8,0-1.4-0.1-1.8c0.4,0,0.5,0,0.9,0c0.2,0.1,0.4,0.4,0.5,0.7
			c0.1-0.1,0.1-0.1,0.1-0.1c0.5-0.5,0.9-0.7,1.3-0.7C-141.4,239.1-141,239.3-140.9,239.9z"/>
		<path class="st5" d="M-134.6,241c0-0.4-0.2-0.7-0.7-0.7c-0.5,0-1.1,0.2-1.7,0.6c0-0.6,0-0.8,0-1.4c0.7-0.3,1.3-0.4,1.9-0.4
			c0.7,0,1.2,0.2,1.5,0.5c0.3,0.3,0.5,0.9,0.5,1.6c0,1.1,0,1.6,0,2.7c0,0.9,0,1.5,0.1,1.8c-0.4,0-0.5,0-0.9,0
			c-0.2-0.1-0.3-0.3-0.5-0.6c0,0.1-0.1,0.1-0.1,0.1c-0.3,0.4-0.7,0.6-1.3,0.6c-1,0-1.5-0.6-1.5-1.9c0-0.7,0.2-1.2,0.5-1.6
			c0.4-0.4,0.9-0.6,1.6-0.6c0.2,0,0.3,0,0.5,0C-134.6,241.5-134.6,241.3-134.6,241z M-134.6,244.2c0-0.5,0-0.8,0-1.3
			c-0.1,0-0.2,0-0.4,0c-0.6,0-0.9,0.3-0.9,1c0,0.5,0.2,0.8,0.5,0.8c0.2,0,0.4-0.1,0.6-0.4C-134.7,244.3-134.6,244.3-134.6,244.2z"/>
		<path class="st5" d="M-128.8,245.6c-0.3,0.2-0.7,0.2-1.3,0.2c-0.5,0-0.9-0.1-1.1-0.4c-0.2-0.2-0.2-0.7-0.2-1.4c0-1.5,0-2.2,0-3.6
			c-0.3,0-0.5,0-0.9,0c0-0.5,0-0.7,0-1.2c0.3,0,0.5,0,0.9,0c0-0.6,0-0.9,0-1.5c0.6,0,0.9,0,1.5,0c0,0.6,0,0.9,0,1.5
			c0.5,0,0.7,0,1.1,0c0,0.5,0,0.7,0,1.2c-0.5,0-0.7,0-1.1,0c0,1.5,0,2.2,0,3.6c0,0.2,0,0.4,0.1,0.4c0.1,0.1,0.2,0.1,0.5,0.1
			c0.2,0,0.4,0,0.6-0.1C-128.8,245-128.8,245.2-128.8,245.6z"/>
		<path class="st5" d="M-126.3,239.4c0,2.6,0,3.9,0,6.5c-0.6,0-0.9,0-1.5,0c0-2.1,0-3.2,0-5.3c-0.3,0-0.4,0-0.7,0c0-0.5,0-0.7,0-1.2
			C-127.6,239.3-127.2,239.3-126.3,239.4z M-127.1,236.7c0.2,0,0.5,0.1,0.6,0.3c0.2,0.2,0.3,0.4,0.3,0.6c0,0.2-0.1,0.4-0.3,0.6
			c-0.2,0.2-0.4,0.3-0.6,0.2c-0.2,0-0.4-0.1-0.6-0.3c-0.2-0.2-0.3-0.4-0.3-0.6c0-0.3,0.1-0.5,0.3-0.6
			C-127.5,236.8-127.3,236.7-127.1,236.7z"/>
		<path class="st5" d="M-120.7,242.7c0,1.2-0.2,2.1-0.5,2.6c-0.3,0.5-0.9,0.7-1.7,0.7c-0.8,0-1.3-0.3-1.7-0.8
			c-0.3-0.5-0.5-1.4-0.5-2.6s0.2-2.1,0.5-2.6c0.3-0.5,0.9-0.7,1.7-0.7c0.8,0,1.3,0.3,1.7,0.8C-120.8,240.6-120.7,241.5-120.7,242.7z
			 M-122.8,240.4c-0.4,0-0.6,0.3-0.6,0.9c0,0.1,0,0.5,0,1.3s0,1.3,0,1.3c0.1,0.6,0.3,0.9,0.6,1c0.4,0,0.6-0.3,0.6-0.9
			c0-0.1,0-0.5,0-1.3s0-1.3,0-1.3C-122.2,240.7-122.5,240.4-122.8,240.4z"/>
		<path class="st5" d="M-118.1,240.3c0.1-0.1,0.2-0.1,0.3-0.2c0.4-0.4,0.9-0.6,1.3-0.6c0.5,0,0.8,0.2,1,0.5c0.2,0.3,0.3,0.8,0.3,1.4
			c0,1.9,0,2.8,0,4.7c-0.6,0-0.9,0-1.5-0.1c0-1.9,0-2.8,0-4.7c0-0.4-0.1-0.6-0.3-0.6c-0.2,0-0.4,0.1-0.6,0.4
			c-0.1,0.1-0.2,0.2-0.3,0.3c0,1.8,0,2.7,0,4.6c-0.6,0-0.9,0-1.5,0c0-1.9,0-2.8,0-4.7c0-0.8,0-1.4-0.1-1.8c0.4,0,0.5,0,0.9,0
			C-118.4,239.7-118.2,239.9-118.1,240.3z"/>
		<path class="st5" d="M-108.2,240.2c0,0.6,0,0.9,0,1.5c-0.4-0.3-0.8-0.5-1.2-0.5c-0.3,0-0.5,0.1-0.6,0.3c-0.2,0.3-0.2,0.8-0.2,1.7
			c0,0.8,0.1,1.4,0.2,1.7c0.1,0.2,0.3,0.3,0.6,0.3c0.4,0,0.8-0.1,1.2-0.4c0,0.6,0,0.9,0,1.5c-0.5,0.2-1.1,0.3-1.6,0.2
			c-0.7,0-1.1-0.2-1.4-0.6c-0.4-0.5-0.5-1.4-0.5-2.8c0-1.4,0.2-2.3,0.6-2.7c0.3-0.4,0.7-0.5,1.4-0.5
			C-109.3,239.8-108.8,239.9-108.2,240.2z"/>
		<path class="st5" d="M-105.7,237.6c0,3.6,0,5.4,0,9c-0.6,0-0.9,0-1.5-0.1c0-3.1,0-4.7,0-7.8c-0.3,0-0.4,0-0.7,0c0-0.5,0-0.7,0-1.2
			C-106.9,237.5-106.5,237.5-105.7,237.6z"/>
		<path class="st5" d="M-101.9,242c0-0.4-0.2-0.7-0.7-0.7c-0.5,0-1.1,0.1-1.7,0.5c0-0.6,0-0.8,0-1.4c0.7-0.2,1.3-0.4,1.9-0.3
			c0.7,0,1.2,0.2,1.5,0.6c0.3,0.3,0.5,0.9,0.5,1.6c0,1.1,0,1.6,0,2.7c0,0.9,0,1.5,0.1,1.8c-0.4,0-0.5,0-0.9,0
			c-0.2-0.1-0.3-0.3-0.5-0.6c0,0-0.1,0.1-0.1,0.1c-0.3,0.4-0.7,0.5-1.3,0.5c-1-0.1-1.5-0.7-1.5-2c0-0.7,0.2-1.2,0.5-1.6
			c0.4-0.4,0.9-0.6,1.6-0.5c0.2,0,0.3,0,0.5,0C-101.9,242.5-101.9,242.3-101.9,242z M-101.9,245.2c0-0.5,0-0.8,0-1.3
			c-0.1,0-0.2,0-0.4,0c-0.6,0-0.9,0.3-0.9,1c0,0.5,0.2,0.8,0.5,0.8c0.2,0,0.4-0.1,0.6-0.4C-102,245.3-102,245.3-101.9,245.2z"/>
		<path class="st5" d="M-97.6,241.5c0.2-0.2,0.4-0.3,0.6-0.6c0.4-0.4,0.7-0.5,1.1-0.5c0,0.7,0,1.1,0,1.9c-0.1-0.1-0.3-0.1-0.4-0.1
			c-0.2,0-0.5,0.1-0.8,0.3c-0.2,0.1-0.2,0.2-0.4,0.3c0,1.6,0,2.5,0,4.1c-0.6,0-0.9-0.1-1.5-0.1c0-1.9,0-2.8,0-4.7
			c0-0.8,0-1.4-0.1-1.8c0.4,0,0.5,0,0.9,0.1C-98,240.6-97.7,241-97.6,241.5z"/>
		<path class="st5" d="M-93.5,240.7c0,2.6,0,3.9,0,6.5c-0.6,0-0.9-0.1-1.5-0.1c0-2.1,0-3.2,0-5.3c-0.3,0-0.4,0-0.7,0
			c0-0.5,0-0.7,0-1.2C-94.8,240.6-94.4,240.7-93.5,240.7z M-94.3,238.1c0.2,0,0.5,0.1,0.6,0.3c0.2,0.2,0.3,0.4,0.3,0.6
			c0,0.2-0.1,0.4-0.3,0.6c-0.2,0.2-0.4,0.2-0.6,0.2c-0.2,0-0.4-0.1-0.6-0.3c-0.2-0.2-0.3-0.4-0.3-0.6c0-0.3,0.1-0.5,0.3-0.6
			C-94.7,238.1-94.5,238.1-94.3,238.1z"/>
		<path class="st5" d="M-90.2,240.9c0.6,0,0.9,0.1,1.5,0.1c0,0.5,0,0.7,0,1.2c-0.6,0-0.9-0.1-1.5-0.1c0,2.1,0,3.2,0,5.3
			c-0.6,0-0.9-0.1-1.5-0.1c0-2.1,0-3.2,0-5.3c-0.3,0-0.5,0-0.9-0.1c0-0.5,0-0.7,0-1.2c0.3,0,0.5,0,0.9,0.1c0-0.3,0-0.4,0-0.7
			c0-0.7,0.2-1.2,0.5-1.5c0.3-0.2,0.8-0.3,1.5-0.2c0.4,0,0.7,0.1,1.1,0.2c0,0.5,0,0.7,0,1.2c-0.3-0.1-0.6-0.2-0.9-0.2
			s-0.6,0.2-0.6,0.6C-90.2,240.5-90.2,240.7-90.2,240.9z"/>
		<path class="st5" d="M-86.6,241.2c0,2.6,0,3.9,0,6.5c-0.6,0-0.9-0.1-1.5-0.1c0-2.1,0-3.2,0-5.3c-0.3,0-0.4,0-0.7,0
			c0-0.5,0-0.7,0-1.2C-88,241.1-87.5,241.1-86.6,241.2z M-87.4,238.5c0.2,0,0.5,0.1,0.6,0.3c0.2,0.2,0.3,0.4,0.3,0.6
			c0,0.2-0.1,0.4-0.3,0.6c-0.2,0.2-0.4,0.2-0.6,0.2c-0.2,0-0.4-0.1-0.6-0.3c-0.2-0.2-0.3-0.4-0.3-0.6c0-0.3,0.1-0.5,0.3-0.6
			C-87.9,238.6-87.7,238.5-87.4,238.5z"/>
		<path class="st5" d="M-81.4,246.5c0,0.5,0,0.8,0,1.3c-0.7,0.2-1.3,0.3-1.8,0.3c-0.7-0.1-1.2-0.3-1.5-0.7c-0.4-0.5-0.6-1.5-0.6-2.8
			c0-1.2,0.2-2.1,0.5-2.6c0.3-0.5,0.9-0.7,1.7-0.6c0.6,0,1.1,0.2,1.4,0.6s0.4,0.9,0.4,1.6c0,0.6,0,0.9,0,1.4c-1-0.1-1.5-0.1-2.6-0.2
			c0,0.5,0,0.9,0,1c0.1,0.4,0.2,0.7,0.4,0.9c0.1,0.1,0.3,0.2,0.5,0.2C-82.4,246.9-81.9,246.8-81.4,246.5z M-82.6,243.7
			c0-0.4,0-0.7,0-0.8c-0.1-0.3-0.2-0.5-0.5-0.5c-0.2,0-0.4,0.1-0.5,0.2c-0.1,0.2-0.1,0.5-0.2,1C-83.3,243.7-83.1,243.7-82.6,243.7
			C-82.6,243.7-82.6,243.7-82.6,243.7z"/>
		<path class="st5" d="M-77.4,242.3c0-1.2,0-1.7,0-2.9c0.6,0.1,0.9,0.1,1.5,0.1c0,2.9,0,4.3,0,7.2c0,0.8,0,1.4,0.1,1.8
			c-0.4,0-0.5,0-0.9-0.1c-0.2-0.1-0.4-0.4-0.5-0.7c-0.5,0.5-1,0.7-1.4,0.6c-0.5,0-0.9-0.3-1.2-0.8c-0.3-0.6-0.4-1.5-0.4-2.7
			s0.1-2.1,0.4-2.6c0.2-0.5,0.6-0.7,1.2-0.6C-78.2,241.7-77.8,241.9-77.4,242.3z M-77.4,246.7c0-1.2,0-1.9,0-3.1
			c-0.1-0.1-0.1-0.1-0.2-0.2c-0.2-0.3-0.4-0.4-0.6-0.4c-0.2,0-0.3,0.1-0.3,0.3c-0.1,0.3-0.2,0.9-0.2,1.8s0.1,1.6,0.2,1.9
			c0.1,0.2,0.2,0.3,0.3,0.3c0.2,0,0.4-0.1,0.6-0.3C-77.5,246.8-77.5,246.8-77.4,246.7z"/>
		<path class="st5" d="M-207.2,258c0,0.6,0,0.9,0,1.5c-0.4-0.2-0.8-0.4-1.2-0.3c-0.3,0-0.5,0.1-0.6,0.3c-0.2,0.3-0.2,0.9-0.2,1.7
			c0,0.8,0.1,1.4,0.2,1.7c0.1,0.2,0.3,0.3,0.6,0.2c0.4,0,0.8-0.2,1.2-0.5c0,0.6,0,0.9,0,1.5c-0.5,0.3-1.1,0.4-1.6,0.5
			c-0.7,0.1-1.1-0.1-1.4-0.4c-0.4-0.5-0.5-1.4-0.5-2.7c0-1.4,0.2-2.3,0.6-2.8c0.3-0.4,0.7-0.6,1.4-0.7
			C-208.3,257.8-207.8,257.8-207.2,258z"/>
		<path class="st5" d="M-202.2,260.6c0,1.2-0.2,2.1-0.5,2.7c-0.3,0.5-0.9,0.8-1.6,0.9c-0.8,0.1-1.3-0.1-1.7-0.6
			c-0.3-0.5-0.5-1.3-0.5-2.6s0.2-2.1,0.5-2.7c0.3-0.5,0.9-0.8,1.7-0.9c0.8-0.1,1.3,0.1,1.6,0.6
			C-202.3,258.5-202.2,259.3-202.2,260.6z M-204.3,258.5c-0.4,0-0.6,0.4-0.6,1c0,0.1,0,0.5,0,1.3c0,0.8,0,1.3,0,1.3
			c0.1,0.6,0.3,0.9,0.6,0.9s0.6-0.4,0.6-1c0-0.1,0-0.5,0-1.3s0-1.3,0-1.3C-203.7,258.7-203.9,258.4-204.3,258.5z"/>
		<path class="st5" d="M-197,257.6c0,0,0.1-0.1,0.1-0.1c0.4-0.5,0.9-0.7,1.3-0.8c0.5,0,0.8,0.1,1,0.4c0.2,0.3,0.3,0.8,0.3,1.4
			c0,1.9,0,2.8,0,4.7c-0.6,0-0.9,0.1-1.5,0.1c0-1.9,0-2.8,0-4.7c0-0.4-0.1-0.6-0.3-0.6c-0.2,0-0.4,0.2-0.6,0.5
			c-0.1,0.1-0.1,0.1-0.1,0.2c0,1.9,0,2.8,0,4.7c-0.6,0-0.9,0.1-1.5,0.1c0-1.9,0-2.8,0-4.7c0-0.4-0.1-0.6-0.3-0.6
			c-0.2,0-0.4,0.2-0.6,0.5c-0.1,0.1-0.1,0.1-0.1,0.2c0,1.9,0,2.8,0,4.7c-0.6,0-0.9,0.1-1.5,0.1c0-1.9,0-2.8,0-4.7
			c0-0.8,0-1.4-0.1-1.8c0.4,0,0.5,0,0.9-0.1c0.2,0.1,0.4,0.3,0.5,0.6c0.1-0.1,0.1-0.1,0.1-0.2c0.5-0.5,0.9-0.7,1.3-0.8
			C-197.5,256.8-197.2,257.1-197,257.6z"/>
		<path class="st5" d="M-189.1,257c0,0,0.1-0.1,0.1-0.1c0.5-0.5,0.9-0.7,1.3-0.8c0.5,0,0.8,0.1,1,0.4c0.2,0.3,0.3,0.8,0.3,1.4
			c0,1.9,0,2.8,0,4.7c-0.6,0-0.9,0.1-1.5,0.1c0-1.9,0-2.8,0-4.7c0-0.4-0.1-0.6-0.3-0.6c-0.2,0-0.4,0.2-0.6,0.5
			c-0.1,0.1-0.1,0.1-0.1,0.2c0,1.9,0,2.8,0,4.7c-0.6,0-0.9,0.1-1.5,0.1c0-1.9,0-2.8,0-4.7c0-0.4-0.1-0.6-0.3-0.6
			c-0.2,0-0.4,0.2-0.6,0.5c-0.1,0.1-0.1,0.1-0.1,0.2c0,1.9,0,2.8,0,4.7c-0.6,0-0.9,0.1-1.5,0.1c0-1.9,0-2.8,0-4.7
			c0-0.8,0-1.4-0.1-1.8c0.4,0,0.5,0,0.9-0.1c0.2,0.1,0.4,0.3,0.5,0.7c0.1-0.1,0.1-0.1,0.1-0.2c0.5-0.5,0.9-0.7,1.3-0.8
			C-189.6,256.3-189.2,256.5-189.1,257z"/>
		<path class="st5" d="M-180.9,259.1c0,1.2-0.2,2.1-0.5,2.7c-0.3,0.5-0.9,0.8-1.7,0.8c-0.8,0-1.3-0.2-1.7-0.7
			c-0.3-0.5-0.5-1.3-0.5-2.6s0.2-2.1,0.5-2.7c0.3-0.5,0.9-0.8,1.7-0.8c0.8,0,1.3,0.2,1.7,0.7C-181.1,257-180.9,257.9-180.9,259.1z
			 M-183,257c-0.4,0-0.6,0.3-0.6,1c0,0.1,0,0.5,0,1.3s0,1.3,0,1.3c0.1,0.6,0.3,0.9,0.6,0.9c0.4,0,0.6-0.3,0.6-1c0-0.1,0-0.5,0-1.3
			s0-1.3,0-1.3C-182.5,257.3-182.7,257-183,257z"/>
		<path class="st5" d="M-178.3,256.5c0.1-0.1,0.2-0.2,0.3-0.3c0.4-0.4,0.9-0.7,1.3-0.7c0.5,0,0.8,0.1,1,0.5c0.2,0.3,0.3,0.8,0.3,1.4
			c0,1.9,0,2.8,0,4.7c-0.6,0-0.9,0-1.5,0.1c0-1.9,0-2.8,0-4.7c0-0.4-0.1-0.6-0.3-0.6c-0.2,0-0.4,0.2-0.6,0.5
			c-0.1,0.1-0.2,0.2-0.3,0.3c0,1.8,0,2.7,0,4.6c-0.6,0-0.9,0-1.5,0.1c0-1.9,0-2.8,0-4.7c0-0.8,0-1.4-0.1-1.8c0.4,0,0.5,0,0.9,0
			C-178.7,255.9-178.5,256.1-178.3,256.5z"/>
		<path class="st5" d="M-169.2,255.8c0-1.2,0-1.7,0-2.9c0.6,0,0.9,0,1.5-0.1c0,2.9,0,4.3,0,7.2c0,0.8,0,1.4,0.1,1.8
			c-0.4,0-0.5,0-0.9,0c-0.2-0.1-0.4-0.3-0.5-0.6c-0.5,0.5-1,0.8-1.4,0.8c-0.5,0-0.9-0.2-1.2-0.7c-0.3-0.5-0.4-1.4-0.4-2.6
			s0.1-2.1,0.4-2.7c0.2-0.5,0.6-0.7,1.2-0.8C-170,255.2-169.6,255.4-169.2,255.8z M-169.2,260.1c0-1.2,0-1.9,0-3.1
			c-0.1-0.1-0.1-0.1-0.2-0.2c-0.2-0.2-0.4-0.4-0.6-0.4c-0.2,0-0.3,0.1-0.3,0.3c-0.1,0.3-0.2,0.9-0.2,1.9s0.1,1.6,0.2,1.8
			c0.1,0.2,0.2,0.3,0.3,0.3c0.2,0,0.4-0.1,0.6-0.4C-169.3,260.3-169.3,260.2-169.2,260.1z"/>
		<path class="st5" d="M-164.6,255.2c0,2.6,0,3.9,0,6.5c-0.6,0-0.9,0-1.5,0c0-2.1,0-3.2,0-5.3c-0.3,0-0.4,0-0.7,0c0-0.5,0-0.7,0-1.2
			C-165.9,255.2-165.5,255.2-164.6,255.2z M-165.4,252.6c0.2,0,0.5,0.1,0.6,0.2s0.3,0.4,0.3,0.6c0,0.2-0.1,0.5-0.3,0.6
			s-0.4,0.3-0.6,0.3c-0.2,0-0.4-0.1-0.6-0.2c-0.2-0.2-0.3-0.4-0.3-0.6c0-0.3,0.1-0.5,0.3-0.6C-165.8,252.7-165.6,252.6-165.4,252.6z
			"/>
		<path class="st5" d="M-159.3,259.9c0,0.5,0,0.8,0,1.3c-0.7,0.3-1.3,0.5-1.8,0.5c-0.7,0-1.2-0.2-1.5-0.6c-0.4-0.5-0.6-1.4-0.6-2.7
			c0-1.2,0.2-2.1,0.5-2.6c0.3-0.5,0.9-0.8,1.7-0.8c0.6,0,1.1,0.1,1.4,0.4s0.4,0.8,0.4,1.6c0,0.6,0,0.9,0,1.4c-1,0-1.5,0-2.6,0.1
			c0,0.5,0,0.9,0,1c0.1,0.4,0.2,0.7,0.4,0.8c0.1,0.1,0.3,0.1,0.5,0.1C-160.3,260.5-159.8,260.3-159.3,259.9z M-160.6,257.3
			c0-0.4,0-0.7,0-0.8c-0.1-0.3-0.2-0.4-0.5-0.4c-0.2,0-0.4,0.1-0.5,0.3c-0.1,0.2-0.1,0.5-0.2,1C-161.3,257.4-161,257.4-160.6,257.3
			C-160.6,257.3-160.6,257.3-160.6,257.3z"/>
		<path class="st5" d="M-155.1,261.2c-0.3,0.2-0.7,0.3-1.3,0.3c-0.5,0-0.9-0.1-1.1-0.3c-0.2-0.2-0.2-0.7-0.2-1.4c0-1.5,0-2.2,0-3.6
			c-0.3,0-0.5,0-0.9,0c0-0.5,0-0.7,0-1.2c0.3,0,0.5,0,0.9,0c0-0.6,0-0.9,0-1.5c0.6,0,0.9,0,1.5,0c0,0.6,0,0.9,0,1.5
			c0.5,0,0.7,0,1.1,0c0,0.5,0,0.7,0,1.2c-0.5,0-0.7,0-1.1,0c0,1.5,0,2.2,0,3.6c0,0.2,0,0.3,0.1,0.4c0.1,0.1,0.2,0.1,0.5,0.1
			c0.2,0,0.4,0,0.6-0.1C-155.1,260.6-155.1,260.8-155.1,261.2z"/>
		<path class="st5" d="M-152.5,254.9c0,2.6,0,3.9,0,6.5c-0.6,0-0.9,0-1.5,0c0-2.1,0-3.2,0-5.3c-0.3,0-0.4,0-0.7,0c0-0.5,0-0.7,0-1.2
			C-153.8,254.9-153.4,254.9-152.5,254.9z M-153.3,252.3c0.2,0,0.5,0.1,0.6,0.2c0.2,0.2,0.3,0.4,0.3,0.6c0,0.2-0.1,0.5-0.3,0.6
			c-0.2,0.2-0.4,0.3-0.6,0.3c-0.2,0-0.4-0.1-0.6-0.2c-0.2-0.2-0.3-0.4-0.3-0.6c0-0.3,0.1-0.5,0.3-0.6
			C-153.8,252.4-153.5,252.3-153.3,252.3z"/>
		<path class="st5" d="M-149.7,255.6c0.1-0.1,0.2-0.2,0.3-0.3c0.4-0.4,0.9-0.6,1.3-0.6c0.5,0,0.8,0.2,1,0.5c0.2,0.3,0.3,0.8,0.3,1.4
			c0,1.9,0,2.8,0,4.7c-0.6,0-0.9,0-1.5,0c0-1.9,0-2.8,0-4.7c0-0.4-0.1-0.6-0.3-0.6c-0.2,0-0.4,0.1-0.6,0.4c-0.1,0.1-0.2,0.2-0.3,0.3
			c0,1.8,0,2.7,0,4.6c-0.6,0-0.9,0-1.5,0c0-1.9,0-2.8,0-4.7c0-0.8,0-1.4-0.1-1.8c0.4,0,0.5,0,0.9,0
			C-150,255-149.9,255.2-149.7,255.6z"/>
		<path class="st5" d="M-141.4,261.8c0,0.7-0.2,1.3-0.5,1.6c-0.3,0.3-0.9,0.5-1.5,0.5c-0.5,0-1.1-0.1-1.8-0.4c0-0.5,0-0.8,0-1.4
			c0.6,0.4,1.1,0.6,1.6,0.6c0.5,0,0.8-0.3,0.8-0.8c0-0.4,0-0.6,0-1c-0.4,0.4-0.8,0.6-1.2,0.6c-0.5,0-0.9-0.2-1.2-0.7
			c-0.3-0.5-0.4-1.4-0.4-2.7s0.1-2.1,0.4-2.7c0.2-0.5,0.6-0.7,1.2-0.7c0.4,0,0.9,0.3,1.4,0.8c0.1-0.3,0.3-0.5,0.5-0.6
			c0.4,0,0.5,0,0.9,0c-0.1,0.4-0.1,1-0.1,1.8C-141.4,258.7-141.4,259.7-141.4,261.8z M-142.9,256.5c-0.1-0.1-0.1-0.1-0.2-0.2
			c-0.2-0.3-0.4-0.4-0.6-0.4c-0.2,0-0.3,0.1-0.3,0.3c-0.1,0.3-0.2,0.9-0.2,1.9s0.1,1.6,0.2,1.8c0.1,0.2,0.2,0.3,0.3,0.3
			c0.2,0,0.4-0.1,0.6-0.4c0.1-0.1,0.1-0.1,0.2-0.2C-142.9,258.4-142.9,257.8-142.9,256.5z"/>
		<path class="st5" d="M-133.8,255.5c0,0,0.1-0.1,0.1-0.1c0.5-0.4,0.9-0.7,1.3-0.7c0.5,0,0.8,0.2,1,0.5c0.2,0.3,0.3,0.8,0.3,1.4
			c0,1.9,0,2.8,0,4.7c-0.6,0-0.9,0-1.5,0c0-1.9,0-2.8,0-4.7c0-0.4-0.1-0.6-0.3-0.6c-0.2,0-0.4,0.1-0.6,0.4c-0.1,0.1-0.1,0.1-0.1,0.2
			c0,1.9,0,2.8,0,4.7c-0.6,0-0.9,0-1.5,0c0-1.9,0-2.8,0-4.7c0-0.4-0.1-0.6-0.3-0.6c-0.2,0-0.4,0.1-0.6,0.4c-0.1,0.1-0.1,0.1-0.1,0.2
			c0,1.9,0,2.8,0,4.7c-0.6,0-0.9,0-1.5,0c0-1.9,0-2.8,0-4.7c0-0.8,0-1.4-0.1-1.8c0.4,0,0.5,0,0.9,0c0.2,0.1,0.4,0.4,0.5,0.7
			c0.1-0.1,0.1-0.1,0.1-0.1c0.5-0.4,0.9-0.7,1.3-0.7C-134.3,254.7-133.9,255-133.8,255.5z"/>
		<path class="st5" d="M-128,254.9c0,2.6,0,3.9,0,6.5c-0.6,0-0.9,0-1.5,0c0-2.1,0-3.2,0-5.3c-0.3,0-0.4,0-0.7,0c0-0.5,0-0.7,0-1.2
			C-129.3,254.9-128.9,254.9-128,254.9z M-128.8,252.3c0.2,0,0.5,0.1,0.6,0.3s0.3,0.4,0.3,0.6c0,0.2-0.1,0.4-0.3,0.6
			s-0.4,0.3-0.6,0.2c-0.2,0-0.4-0.1-0.6-0.3c-0.2-0.2-0.3-0.4-0.3-0.6c0-0.3,0.1-0.5,0.3-0.6C-129.2,252.4-129,252.3-128.8,252.3z"
			/>
		<path class="st5" d="M-123.4,255.2c0,0.5,0,0.8,0,1.3c-0.6-0.3-1.1-0.5-1.6-0.5c-0.4,0-0.6,0.2-0.6,0.7c0,0.4,0.2,0.7,0.6,0.7
			c1.4,0,2,0.8,2,2.2c0,1.4-0.7,2-2.1,2c-0.6,0-1.1-0.1-1.6-0.3c0-0.5,0-0.8,0-1.3c0.6,0.3,1.1,0.4,1.6,0.4c0.5,0,0.8-0.3,0.8-0.8
			c0-0.5-0.3-0.7-0.8-0.7c-0.6,0-1-0.2-1.3-0.4c-0.4-0.3-0.6-0.9-0.6-1.7c0-1.3,0.6-1.9,1.9-1.9C-124.5,254.9-124,255-123.4,255.2z"
			/>
		<path class="st5" d="M-118.7,255.4c0,0.6,0,0.9,0,1.5c-0.4-0.3-0.8-0.5-1.2-0.5c-0.3,0-0.5,0.1-0.6,0.3c-0.2,0.3-0.2,0.8-0.2,1.7
			c0,0.8,0.1,1.4,0.2,1.7c0.1,0.2,0.3,0.3,0.6,0.3c0.4,0,0.8-0.1,1.2-0.4c0,0.6,0,0.9,0,1.5c-0.5,0.2-1.1,0.3-1.6,0.3
			c-0.7,0-1.1-0.2-1.4-0.6c-0.4-0.5-0.5-1.4-0.5-2.8c0-1.4,0.2-2.3,0.6-2.8c0.3-0.4,0.7-0.5,1.4-0.5
			C-119.8,255-119.2,255.2-118.7,255.4z"/>
		<path class="st5" d="M-113.6,258.6c0,1.2-0.2,2.1-0.5,2.6c-0.3,0.5-0.9,0.7-1.7,0.7c-0.8,0-1.3-0.3-1.7-0.8
			c-0.3-0.5-0.5-1.4-0.5-2.6s0.2-2.1,0.5-2.6c0.3-0.5,0.9-0.7,1.7-0.7c0.8,0,1.3,0.3,1.7,0.8C-113.8,256.4-113.6,257.3-113.6,258.6z
			 M-115.7,256.2c-0.4,0-0.6,0.3-0.6,0.9c0,0.1,0,0.5,0,1.3s0,1.3,0,1.3c0.1,0.6,0.3,0.9,0.6,1s0.6-0.3,0.6-0.9c0-0.1,0-0.5,0-1.3
			s0-1.3,0-1.3C-115.2,256.6-115.4,256.2-115.7,256.2z"/>
		<path class="st5" d="M-111,256.2c0.1-0.1,0.2-0.1,0.3-0.2c0.4-0.4,0.9-0.6,1.3-0.6c0.5,0,0.8,0.2,1,0.6c0.2,0.3,0.3,0.8,0.3,1.4
			c0,1.9,0,2.8,0,4.7c-0.6,0-0.9,0-1.5-0.1c0-1.9,0-2.8,0-4.7c0-0.4-0.1-0.6-0.3-0.6c-0.2,0-0.4,0.1-0.6,0.4
			c-0.1,0.1-0.2,0.2-0.3,0.3c0,1.8,0,2.7,0,4.6c-0.6,0-0.9,0-1.5-0.1c0-1.9,0-2.8,0-4.7c0-0.8,0-1.4-0.1-1.8c0.4,0,0.5,0,0.9,0
			C-111.4,255.5-111.2,255.8-111,256.2z"/>
		<path class="st5" d="M-103.5,256c0,0.6,0,0.9,0,1.5c-0.4-0.3-0.8-0.5-1.2-0.5c-0.3,0-0.5,0.1-0.6,0.3c-0.2,0.3-0.2,0.8-0.2,1.7
			c0,0.8,0.1,1.4,0.2,1.7c0.1,0.2,0.3,0.3,0.6,0.3c0.4,0,0.8-0.1,1.2-0.4c0,0.6,0,0.9,0,1.5c-0.5,0.2-1.1,0.3-1.6,0.2
			c-0.7,0-1.1-0.2-1.4-0.6c-0.4-0.5-0.5-1.4-0.5-2.8c0-1.4,0.2-2.3,0.6-2.7c0.3-0.4,0.7-0.5,1.4-0.5
			C-104.6,255.6-104.1,255.8-103.5,256z"/>
		<path class="st5" d="M-98.8,260.9c0,0.5,0,0.8,0,1.3c-0.7,0.2-1.3,0.3-1.8,0.3c-0.7,0-1.2-0.3-1.5-0.7c-0.4-0.5-0.6-1.5-0.6-2.8
			c0-1.2,0.2-2.1,0.5-2.6c0.3-0.5,0.9-0.7,1.7-0.7c0.6,0,1.1,0.2,1.4,0.6c0.3,0.3,0.4,0.9,0.4,1.6c0,0.6,0,0.9,0,1.4
			c-1-0.1-1.5-0.1-2.6-0.1c0,0.5,0,0.9,0,1c0.1,0.4,0.2,0.7,0.4,0.9c0.1,0.1,0.3,0.1,0.5,0.2C-99.8,261.3-99.3,261.2-98.8,260.9z
			 M-100,258.1c0-0.4,0-0.7,0-0.8c-0.1-0.3-0.2-0.5-0.5-0.5c-0.2,0-0.4,0.1-0.5,0.2c-0.1,0.2-0.1,0.5-0.2,1
			C-100.7,258.2-100.5,258.2-100,258.1C-100,258.2-100,258.2-100,258.1z"/>
		<path class="st5" d="M-95.9,262.2c0,1.2,0,1.7,0,2.9c-0.6,0-0.9-0.1-1.5-0.1c0-2.9,0-4.3,0-7.2c0-0.8,0-1.4-0.1-1.8
			c0.4,0,0.5,0,0.9,0.1c0.2,0.1,0.4,0.4,0.5,0.7c0.5-0.5,1-0.7,1.4-0.7c0.5,0,0.9,0.3,1.2,0.8c0.3,0.6,0.4,1.5,0.4,2.7
			s-0.1,2.1-0.4,2.6c-0.2,0.5-0.6,0.7-1.2,0.6C-95.1,262.8-95.5,262.6-95.9,262.2z M-95.9,261c0.1,0.1,0.1,0.1,0.2,0.2
			c0.2,0.3,0.4,0.4,0.6,0.4c0.2,0,0.3-0.1,0.3-0.3c0.1-0.3,0.2-0.9,0.2-1.8s-0.1-1.6-0.2-1.9c-0.1-0.2-0.2-0.3-0.3-0.3
			c-0.2,0-0.4,0.1-0.6,0.3c-0.1,0.1-0.1,0.1-0.2,0.2C-95.9,259.1-95.9,259.7-95.9,261z"/>
		<path class="st5" d="M-89,262.9c-0.3,0.2-0.7,0.2-1.3,0.2c-0.5,0-0.9-0.2-1.1-0.4c-0.2-0.2-0.2-0.7-0.2-1.5c0-1.5,0-2.2,0-3.6
			c-0.3,0-0.5,0-0.9-0.1c0-0.5,0-0.7,0-1.2c0.3,0,0.5,0,0.9,0.1c0-0.6,0-0.9,0-1.5c0.6,0,0.9,0.1,1.5,0.1c0,0.6,0,0.9,0,1.5
			c0.5,0,0.7,0,1.1,0.1c0,0.5,0,0.7,0,1.2c-0.5,0-0.7,0-1.1-0.1c0,1.5,0,2.2,0,3.6c0,0.2,0,0.4,0.1,0.4c0.1,0.1,0.2,0.1,0.4,0.1
			c0.2,0,0.4,0,0.6-0.1C-89,262.3-89,262.5-89,262.9z"/>
		<path class="st5" d="M-86.5,256.8c0,2.6,0,3.9,0,6.5c-0.6,0-0.9-0.1-1.5-0.1c0-2.1,0-3.2,0-5.3c-0.3,0-0.4,0-0.7,0
			c0-0.5,0-0.7,0-1.2C-87.8,256.7-87.4,256.7-86.5,256.8z M-87.3,254.1c0.2,0,0.5,0.1,0.6,0.3c0.2,0.2,0.3,0.4,0.3,0.6
			c0,0.2-0.1,0.4-0.3,0.6c-0.2,0.2-0.4,0.2-0.6,0.2c-0.2,0-0.4-0.1-0.6-0.3c-0.2-0.2-0.3-0.4-0.3-0.6c0-0.3,0.1-0.5,0.3-0.6
			C-87.7,254.2-87.5,254.1-87.3,254.1z"/>
		<path class="st5" d="M-80.9,260.5c0,1.2-0.2,2.1-0.5,2.6c-0.3,0.5-0.9,0.7-1.6,0.6c-0.8-0.1-1.3-0.4-1.7-0.9
			c-0.3-0.5-0.5-1.4-0.5-2.7s0.2-2.1,0.5-2.6c0.3-0.5,0.9-0.7,1.7-0.6c0.8,0.1,1.3,0.4,1.6,0.9C-81,258.3-80.9,259.2-80.9,260.5z
			 M-83,258c-0.4,0-0.6,0.3-0.6,0.9c0,0.1,0,0.5,0,1.3s0,1.3,0,1.3c0.1,0.6,0.3,1,0.6,1s0.6-0.3,0.6-0.9c0-0.1,0-0.5,0-1.3
			s0-1.3,0-1.3C-82.4,258.4-82.7,258.1-83,258z"/>
		<path class="st5" d="M-78.3,258.2c0.1-0.1,0.2-0.1,0.3-0.2c0.4-0.4,0.9-0.5,1.3-0.5c0.5,0,0.8,0.2,1,0.6c0.2,0.3,0.3,0.8,0.3,1.4
			c0,1.9,0,2.8,0,4.7c-0.6-0.1-0.9-0.1-1.5-0.1c0-1.9,0-2.8,0-4.7c0-0.4-0.1-0.6-0.3-0.6c-0.2,0-0.4,0.1-0.6,0.4
			c-0.1,0.1-0.2,0.2-0.3,0.3c0,1.8,0,2.7,0,4.6c-0.6-0.1-0.9-0.1-1.5-0.1c0-1.9,0-2.8,0-4.7c0-0.8,0-1.4-0.1-1.8
			c0.4,0,0.5,0,0.9,0.1C-78.6,257.6-78.4,257.8-78.3,258.2z"/>
		<path class="st5" d="M-71,258.3c0,0.5,0,0.8,0,1.3c-0.6-0.4-1.1-0.6-1.6-0.6c-0.4,0-0.6,0.2-0.6,0.6c0,0.4,0.2,0.7,0.6,0.7
			c1.3,0.1,2,0.9,2,2.3c0,1.4-0.7,2-2,1.9c-0.6-0.1-1.1-0.2-1.6-0.4c0-0.5,0-0.8,0-1.3c0.6,0.3,1.1,0.5,1.6,0.5
			c0.5,0,0.8-0.2,0.8-0.8c0-0.5-0.3-0.7-0.8-0.8c-0.6-0.1-1-0.2-1.3-0.5c-0.4-0.4-0.6-0.9-0.6-1.7c0-1.3,0.6-1.9,1.9-1.7
			C-72.1,257.9-71.6,258-71,258.3z"/>
		<path class="st5" d="M-208.3,275.2c0-0.4-0.2-0.6-0.7-0.6c-0.5,0-1.1,0.3-1.7,0.7c0-0.6,0-0.8,0-1.4c0.7-0.3,1.3-0.5,1.9-0.6
			c0.7-0.1,1.2,0.1,1.5,0.3c0.3,0.3,0.5,0.8,0.5,1.6c0,1.1,0,1.6,0,2.7c0,0.9,0,1.5,0.1,1.8c-0.4,0-0.5,0-0.9,0.1
			c-0.2-0.1-0.3-0.3-0.5-0.5c0,0.1-0.1,0.1-0.1,0.1c-0.3,0.4-0.7,0.7-1.3,0.7c-1,0.1-1.5-0.5-1.5-1.8c0-0.7,0.2-1.2,0.5-1.6
			c0.4-0.4,0.9-0.7,1.6-0.8c0.2,0,0.3,0,0.5,0C-208.3,275.7-208.3,275.5-208.3,275.2z M-208.3,278.4c0-0.5,0-0.8,0-1.3
			c-0.1,0-0.2,0-0.4,0c-0.6,0.1-0.9,0.4-0.9,1.1c0,0.5,0.2,0.8,0.5,0.8c0.2,0,0.4-0.2,0.6-0.5C-208.4,278.5-208.4,278.5-208.3,278.4
			z"/>
		<path class="st5" d="M-204.1,273.8c0.1-0.1,0.2-0.2,0.3-0.3c0.4-0.5,0.9-0.7,1.3-0.7c0.5,0,0.8,0.1,1,0.4c0.2,0.3,0.3,0.8,0.3,1.4
			c0,1.9,0,2.8,0,4.7c-0.6,0-0.9,0.1-1.5,0.1c0-1.9,0-2.8,0-4.7c0-0.4-0.1-0.6-0.3-0.6c-0.2,0-0.4,0.2-0.6,0.5
			c-0.1,0.1-0.2,0.2-0.3,0.3c0,1.8,0,2.7,0,4.6c-0.6,0.1-0.9,0.1-1.5,0.1c0-1.9,0-2.8,0-4.7c0-0.8,0-1.4-0.1-1.8
			c0.4,0,0.5,0,0.9-0.1C-204.5,273.2-204.3,273.5-204.1,273.8z"/>
		<path class="st5" d="M-197.4,273c0-1.2,0-1.7,0-2.9c0.6,0,0.9-0.1,1.5-0.1c0,2.9,0,4.3,0,7.2c0,0.8,0,1.4,0.1,1.8
			c-0.4,0-0.5,0-0.9,0.1c-0.2-0.1-0.4-0.3-0.5-0.6c-0.5,0.5-1,0.8-1.4,0.9c-0.5,0-0.9-0.2-1.2-0.6c-0.3-0.5-0.4-1.4-0.4-2.6
			s0.1-2.1,0.4-2.7c0.2-0.5,0.6-0.8,1.2-0.8C-198.2,272.5-197.8,272.6-197.4,273z M-197.4,277.3c0-1.2,0-1.9,0-3.1
			c-0.1-0.1-0.1-0.1-0.2-0.2c-0.2-0.2-0.4-0.3-0.6-0.3c-0.2,0-0.3,0.1-0.3,0.3c-0.1,0.3-0.2,0.9-0.2,1.9s0.1,1.6,0.2,1.8
			c0.1,0.2,0.2,0.3,0.3,0.3c0.2,0,0.4-0.2,0.6-0.4C-197.5,277.5-197.4,277.4-197.4,277.3z"/>
		<path class="st5" d="M-188.2,272.6c0,0,0.1-0.1,0.1-0.1c0.5-0.5,0.9-0.7,1.3-0.8c0.5,0,0.8,0.1,1,0.4c0.2,0.3,0.3,0.8,0.3,1.4
			c0,1.9,0,2.8,0,4.7c-0.6,0-0.9,0.1-1.5,0.1c0-1.9,0-2.8,0-4.7c0-0.4-0.1-0.6-0.3-0.6c-0.2,0-0.4,0.2-0.6,0.5
			c-0.1,0.1-0.1,0.1-0.1,0.2c0,1.9,0,2.8,0,4.7c-0.6,0-0.9,0.1-1.5,0.1c0-1.9,0-2.8,0-4.7c0-0.4-0.1-0.6-0.3-0.6
			c-0.2,0-0.4,0.2-0.6,0.5c-0.1,0.1-0.1,0.1-0.1,0.2c0,1.9,0,2.8,0,4.7c-0.6,0-0.9,0.1-1.5,0.1c0-1.9,0-2.8,0-4.7
			c0-0.8,0-1.4-0.1-1.8c0.4,0,0.5,0,0.9-0.1c0.2,0.1,0.4,0.3,0.5,0.7c0.1-0.1,0.1-0.1,0.1-0.2c0.5-0.5,0.9-0.7,1.3-0.8
			C-188.8,271.8-188.4,272-188.2,272.6z"/>
		<path class="st5" d="M-182,273.3c0-0.4-0.2-0.7-0.7-0.6c-0.5,0-1.1,0.3-1.7,0.7c0-0.6,0-0.8,0-1.4c0.7-0.3,1.3-0.5,1.9-0.5
			c0.7,0,1.2,0.1,1.5,0.4c0.3,0.3,0.5,0.8,0.5,1.6c0,1.1,0,1.6,0,2.7c0,0.9,0,1.5,0.1,1.8c-0.4,0-0.5,0-0.9,0
			c-0.2-0.1-0.3-0.3-0.5-0.6c0,0.1-0.1,0.1-0.1,0.1c-0.3,0.4-0.7,0.6-1.3,0.7c-1,0.1-1.5-0.5-1.5-1.8c0-0.7,0.2-1.2,0.5-1.6
			c0.4-0.4,0.9-0.7,1.6-0.7c0.2,0,0.3,0,0.5,0C-182,273.8-182,273.6-182,273.3z M-182,276.5c0-0.5,0-0.8,0-1.3c-0.1,0-0.2,0-0.4,0
			c-0.6,0-0.9,0.4-0.9,1.1c0,0.5,0.2,0.8,0.5,0.8c0.2,0,0.4-0.2,0.6-0.4C-182.1,276.6-182,276.6-182,276.5z"/>
		<path class="st5" d="M-176.5,271.7c0-1.2,0-1.7,0-2.9c0.6,0,0.9,0,1.5-0.1c0,2.9,0,4.3,0,7.2c0,0.8,0,1.4,0.1,1.8
			c-0.4,0-0.5,0-0.9,0c-0.2-0.1-0.4-0.3-0.5-0.6c-0.5,0.5-1,0.8-1.4,0.8c-0.5,0-0.9-0.2-1.2-0.7c-0.3-0.5-0.4-1.4-0.4-2.6
			c0-1.2,0.1-2.1,0.4-2.7c0.2-0.5,0.6-0.7,1.2-0.8C-177.3,271.2-176.9,271.3-176.5,271.7z M-176.5,276c0-1.2,0-1.9,0-3.1
			c-0.1-0.1-0.1-0.1-0.2-0.2c-0.2-0.2-0.4-0.4-0.6-0.3c-0.2,0-0.3,0.1-0.3,0.3c-0.1,0.3-0.2,0.9-0.2,1.9s0.1,1.6,0.2,1.8
			c0.1,0.2,0.2,0.3,0.3,0.3c0.2,0,0.4-0.1,0.6-0.4C-176.6,276.2-176.6,276.1-176.5,276z"/>
		<path class="st5" d="M-169.8,275.9c0,0.5,0,0.8,0,1.3c-0.7,0.3-1.3,0.5-1.8,0.5c-0.7,0-1.2-0.2-1.5-0.6c-0.4-0.5-0.6-1.4-0.6-2.7
			c0-1.2,0.2-2.1,0.5-2.6c0.3-0.5,0.9-0.8,1.7-0.8c0.6,0,1.1,0.1,1.4,0.4c0.3,0.3,0.4,0.8,0.4,1.6c0,0.6,0,0.9,0,1.4
			c-1,0-1.5,0.1-2.6,0.1c0,0.5,0,0.9,0,1c0.1,0.4,0.2,0.7,0.4,0.8c0.1,0.1,0.3,0.1,0.5,0.1C-170.8,276.4-170.3,276.2-169.8,275.9z
			 M-171.1,273.2c0-0.4,0-0.7,0-0.8c-0.1-0.3-0.2-0.4-0.5-0.4c-0.2,0-0.4,0.1-0.5,0.3c-0.1,0.2-0.1,0.5-0.2,1
			C-171.8,273.3-171.5,273.3-171.1,273.2C-171.1,273.3-171.1,273.2-171.1,273.2z"/>
		<path class="st5" d="M-163.5,275.4c0-1.9,0-2.8,0-4.7c0.6,0,0.9,0,1.5,0c0,2.8,0,4.2,0,7c0,0.7-0.2,1.3-0.5,1.6
			c-0.3,0.3-0.9,0.5-1.5,0.5c-0.5,0-1.1-0.1-1.8-0.4c0-0.5,0-0.8,0-1.4c0.6,0.4,1.1,0.5,1.6,0.5c0.5,0,0.8-0.3,0.8-0.8
			c0-0.4,0-0.7,0-1.1c0,0,0,0,0,0c-0.4,0.4-0.9,0.7-1.3,0.7c-0.5,0-0.8-0.1-1-0.5c-0.2-0.3-0.3-0.8-0.3-1.4c0-1.9,0-2.8,0-4.7
			c0.6,0,0.9,0,1.5,0c0,1.9,0,2.8,0,4.7c0,0.4,0.1,0.6,0.3,0.6c0.2,0,0.4-0.2,0.6-0.4C-163.7,275.6-163.6,275.5-163.5,275.4z"/>
		<path class="st5" d="M-156.5,273.8c0,1.2-0.2,2.1-0.5,2.6c-0.3,0.5-0.9,0.8-1.7,0.8c-0.8,0-1.3-0.2-1.7-0.7
			c-0.3-0.5-0.5-1.4-0.5-2.6s0.2-2.1,0.5-2.6c0.3-0.5,0.9-0.8,1.7-0.8c0.8,0,1.3,0.2,1.7,0.7C-156.7,271.7-156.5,272.6-156.5,273.8z
			 M-158.7,271.6c-0.4,0-0.6,0.3-0.6,1c0,0.1,0,0.5,0,1.3s0,1.3,0,1.3c0.1,0.6,0.3,0.9,0.6,0.9c0.4,0,0.6-0.3,0.6-1
			c0-0.1,0-0.5,0-1.3s0-1.3,0-1.3C-158.1,271.9-158.3,271.6-158.7,271.6z"/>
		<path class="st5" d="M-152.7,275.2c0-1.9,0-2.8,0-4.7c0.6,0,0.9,0,1.5,0c0,1.9,0,2.8,0,4.7c0,0.8,0,1.4,0.1,1.8
			c-0.4,0-0.5,0-0.9,0c-0.2-0.1-0.4-0.4-0.5-0.7c-0.1,0.1-0.1,0.1-0.2,0.2c-0.4,0.4-0.9,0.6-1.3,0.6c-0.5,0-0.8-0.2-1-0.5
			c-0.2-0.3-0.3-0.8-0.3-1.4c0-1.9,0-2.8,0-4.7c0.6,0,0.9,0,1.5,0c0,1.9,0,2.8,0,4.7c0,0.4,0.1,0.6,0.3,0.6c0.2,0,0.4-0.1,0.6-0.4
			C-152.8,275.3-152.8,275.3-152.7,275.2z"/>
		<path class="st5" d="M-143.6,271.1c0,0,0.1-0.1,0.1-0.1c0.5-0.5,0.9-0.7,1.3-0.7c0.5,0,0.8,0.2,1,0.5c0.2,0.3,0.3,0.8,0.3,1.4
			c0,1.9,0,2.8,0,4.7c-0.6,0-0.9,0-1.5,0c0-1.9,0-2.8,0-4.7c0-0.4-0.1-0.6-0.3-0.6c-0.2,0-0.4,0.1-0.6,0.4c-0.1,0.1-0.1,0.1-0.1,0.2
			c0,1.9,0,2.8,0,4.7c-0.6,0-0.9,0-1.5,0c0-1.9,0-2.8,0-4.7c0-0.4-0.1-0.6-0.3-0.6c-0.2,0-0.4,0.1-0.6,0.4c-0.1,0.1-0.1,0.1-0.1,0.2
			c0,1.9,0,2.8,0,4.7c-0.6,0-0.9,0-1.5,0c0-1.9,0-2.8,0-4.7c0-0.8,0-1.4-0.1-1.8c0.4,0,0.5,0,0.9,0c0.2,0.1,0.4,0.4,0.5,0.7
			c0.1-0.1,0.1-0.1,0.1-0.1c0.5-0.5,0.9-0.7,1.3-0.7C-144.1,270.3-143.8,270.5-143.6,271.1z"/>
		<path class="st5" d="M-135.4,273.7c0,1.2-0.2,2.1-0.5,2.6c-0.3,0.5-0.9,0.7-1.7,0.7c-0.8,0-1.3-0.3-1.7-0.8
			c-0.3-0.5-0.5-1.4-0.5-2.6c0-1.2,0.2-2.1,0.5-2.6c0.3-0.5,0.9-0.8,1.7-0.7c0.8,0,1.3,0.3,1.7,0.8
			C-135.6,271.6-135.4,272.4-135.4,273.7z M-137.6,271.4c-0.4,0-0.6,0.3-0.6,0.9c0,0.1,0,0.5,0,1.3s0,1.3,0,1.3
			c0.1,0.6,0.3,0.9,0.6,0.9s0.6-0.3,0.6-0.9c0-0.1,0-0.5,0-1.3c0-0.8,0-1.3,0-1.3C-137,271.7-137.2,271.4-137.6,271.4z"/>
		<path class="st5" d="M-132.8,271.5c0.2-0.2,0.4-0.4,0.6-0.6c0.4-0.4,0.7-0.6,1.1-0.6c0,0.7,0,1.1,0,1.9c-0.1-0.1-0.3-0.1-0.4-0.1
			c-0.2,0-0.5,0.1-0.8,0.4c-0.2,0.1-0.2,0.2-0.4,0.3c0,1.6,0,2.5,0,4.1c-0.6,0-0.9,0-1.5,0c0-1.9,0-2.8,0-4.7c0-0.8,0-1.4-0.1-1.8
			c0.4,0,0.5,0,0.9,0C-133.1,270.6-132.9,271-132.8,271.5z"/>
		<path class="st5" d="M-126.6,275.5c0,0.5,0,0.8,0,1.3c-0.7,0.3-1.3,0.4-1.8,0.4c-0.7,0-1.2-0.2-1.5-0.6c-0.4-0.5-0.6-1.4-0.6-2.8
			c0-1.2,0.2-2.1,0.5-2.6c0.3-0.5,0.9-0.7,1.7-0.7c0.6,0,1.1,0.2,1.4,0.5c0.3,0.3,0.4,0.9,0.4,1.6c0,0.6,0,0.9,0,1.4
			c-1,0-1.5,0-2.6,0c0,0.5,0,0.9,0,1c0.1,0.4,0.2,0.7,0.4,0.9c0.1,0.1,0.3,0.1,0.5,0.1C-127.6,275.9-127.1,275.8-126.6,275.5z
			 M-127.8,272.7c0-0.4,0-0.7,0-0.8c-0.1-0.3-0.2-0.4-0.5-0.5c-0.2,0-0.4,0.1-0.5,0.3c-0.1,0.2-0.1,0.5-0.2,1
			C-128.5,272.8-128.3,272.8-127.8,272.7C-127.8,272.8-127.8,272.8-127.8,272.7z"/>
		<path class="st5" d="M-120.6,272.5c0-0.4-0.2-0.7-0.7-0.7c-0.5,0-1.1,0.2-1.7,0.5c0-0.6,0-0.8,0-1.4c0.7-0.3,1.3-0.4,1.9-0.4
			c0.7,0,1.2,0.2,1.5,0.5c0.3,0.3,0.5,0.9,0.5,1.6c0,1.1,0,1.6,0,2.7c0,0.9,0,1.5,0.1,1.8c-0.4,0-0.5,0-0.9,0
			c-0.2-0.1-0.3-0.3-0.5-0.6c0,0.1-0.1,0.1-0.1,0.1c-0.3,0.4-0.7,0.6-1.3,0.6c-1,0-1.5-0.7-1.5-1.9c0-0.7,0.2-1.2,0.5-1.6
			c0.4-0.4,0.9-0.6,1.6-0.6c0.2,0,0.3,0,0.5,0C-120.6,272.9-120.6,272.8-120.6,272.5z M-120.6,275.7c0-0.5,0-0.8,0-1.3
			c-0.1,0-0.2,0-0.4,0c-0.6,0-0.9,0.3-0.9,1c0,0.5,0.2,0.8,0.5,0.8c0.2,0,0.4-0.1,0.6-0.4C-120.7,275.7-120.7,275.7-120.6,275.7z"/>
		<path class="st5" d="M-113.3,275.5c0-0.3,0.1-0.9,0.2-1.6c0.3-1.2,0.4-1.7,0.6-2.9c0.5,0,0.7,0,1.2,0c-0.6,2.6-0.9,3.9-1.6,6.4
			c-0.5,0-0.7,0-1.1,0c-0.2-1-0.3-1.5-0.5-2.5c-0.1-0.6-0.2-1.3-0.3-2c0,0.3-0.1,1-0.3,2c-0.2,1-0.3,1.5-0.6,2.5c-0.5,0-0.7,0-1.1,0
			c-0.6-2.6-0.9-3.9-1.6-6.5c0.5,0,0.8,0,1.4,0c0.3,1.2,0.4,1.8,0.6,2.9c0.1,0.4,0.2,0.9,0.2,1.6c0-0.3,0.1-0.9,0.2-1.6
			c0.3-1.1,0.4-1.7,0.6-2.9c0.4,0,0.7,0,1.1,0c0.3,1.2,0.4,1.7,0.6,2.9C-113.5,274.2-113.4,274.8-113.3,275.5z"/>
		<path class="st5" d="M-108.3,272.9c0-0.4-0.2-0.7-0.7-0.7c-0.5,0-1.1,0.1-1.7,0.5c0-0.6,0-0.8,0-1.4c0.7-0.2,1.3-0.4,1.9-0.3
			c0.7,0,1.2,0.2,1.5,0.5c0.3,0.3,0.5,0.9,0.5,1.6c0,1.1,0,1.6,0,2.7c0,0.9,0,1.5,0.1,1.8c-0.4,0-0.5,0-0.9,0
			c-0.2-0.1-0.3-0.3-0.5-0.6c0,0.1-0.1,0.1-0.1,0.1c-0.3,0.4-0.7,0.6-1.3,0.5c-1,0-1.5-0.7-1.5-2c0-0.7,0.2-1.2,0.5-1.6
			c0.4-0.4,0.9-0.6,1.6-0.5c0.2,0,0.3,0,0.5,0C-108.3,273.4-108.3,273.2-108.3,272.9z M-108.3,276.1c0-0.5,0-0.8,0-1.3
			c-0.1,0-0.2,0-0.4,0c-0.6,0-0.9,0.3-0.9,1c0,0.5,0.2,0.8,0.5,0.8c0.2,0,0.4-0.1,0.6-0.4C-108.3,276.2-108.3,276.2-108.3,276.1z"/>
		<path class="st5" d="M-104,272.4c0.2-0.2,0.4-0.3,0.6-0.6c0.4-0.4,0.7-0.5,1.1-0.5c0,0.7,0,1.1,0,1.9c-0.1-0.1-0.3-0.1-0.4-0.1
			c-0.2,0-0.5,0.1-0.8,0.3c-0.2,0.1-0.2,0.2-0.4,0.3c0,1.6,0,2.5,0,4.1c-0.6,0-0.9,0-1.5-0.1c0-1.9,0-2.8,0-4.7c0-0.8,0-1.4-0.1-1.8
			c0.4,0,0.5,0,0.9,0C-104.3,271.5-104.1,271.9-104,272.4z"/>
		<path class="st5" d="M-97.8,276.6c0,0.5,0,0.8,0,1.3c-0.7,0.2-1.3,0.3-1.8,0.3c-0.7,0-1.2-0.3-1.5-0.7c-0.4-0.5-0.6-1.5-0.6-2.8
			c0-1.2,0.2-2.1,0.5-2.6c0.3-0.5,0.9-0.7,1.7-0.7c0.6,0,1.1,0.2,1.4,0.6c0.3,0.3,0.4,0.9,0.4,1.6c0,0.6,0,0.9,0,1.4
			c-1-0.1-1.5-0.1-2.6-0.1c0,0.5,0,0.9,0,1c0.1,0.4,0.2,0.7,0.4,0.9c0.1,0.1,0.3,0.1,0.5,0.2C-98.8,277-98.3,276.9-97.8,276.6z
			 M-99,273.8c0-0.4,0-0.7,0-0.8c-0.1-0.3-0.2-0.5-0.5-0.5c-0.2,0-0.4,0.1-0.5,0.2c-0.1,0.2-0.1,0.5-0.2,1
			C-99.8,273.8-99.5,273.8-99,273.8C-99,273.8-99,273.8-99,273.8z"/>
		<path class="st5" d="M-89.9,275.4c0,1.2-0.2,2.1-0.5,2.6c-0.3,0.5-0.9,0.7-1.6,0.6c-0.8-0.1-1.3-0.3-1.7-0.9
			c-0.3-0.5-0.5-1.4-0.5-2.7s0.2-2.1,0.5-2.6c0.3-0.5,0.9-0.7,1.7-0.6c0.8,0.1,1.3,0.3,1.6,0.9C-90.1,273.3-89.9,274.2-89.9,275.4z
			 M-92.1,273c-0.4,0-0.6,0.3-0.6,0.9c0,0.1,0,0.5,0,1.3s0,1.3,0,1.3c0.1,0.6,0.3,1,0.6,1s0.6-0.3,0.6-0.9c0-0.1,0-0.5,0-1.3
			s0-1.3,0-1.3C-91.5,273.3-91.7,273-92.1,273z"/>
		<path class="st5" d="M-86.9,272.4c0.6,0,0.9,0.1,1.5,0.1c0,0.5,0,0.7,0,1.2c-0.6,0-0.9-0.1-1.5-0.1c0,2.1,0,3.2,0,5.3
			c-0.6,0-0.9-0.1-1.5-0.1c0-2.1,0-3.2,0-5.3c-0.3,0-0.5,0-0.9-0.1c0-0.5,0-0.7,0-1.2c0.3,0,0.5,0,0.9,0.1c0-0.3,0-0.4,0-0.7
			c0-0.7,0.2-1.2,0.5-1.4c0.3-0.2,0.8-0.3,1.5-0.2c0.4,0,0.7,0.1,1.1,0.2c0,0.5,0,0.7,0,1.2c-0.3-0.1-0.6-0.2-0.9-0.2
			s-0.6,0.2-0.6,0.6C-86.9,272-86.9,272.1-86.9,272.4z"/>
		<path class="st5" d="M-208,293.7c0-1.9,0-2.8,0-4.7c0.6-0.1,0.9-0.1,1.5-0.1c0,2.8,0,4.2,0,7c0,0.7-0.2,1.3-0.5,1.6
			c-0.3,0.4-0.8,0.6-1.5,0.6c-0.5,0-1.1,0-1.8-0.2c0-0.5,0-0.8,0-1.4c0.6,0.3,1.1,0.5,1.6,0.4c0.5,0,0.8-0.3,0.8-0.9
			c0-0.4,0-0.7,0-1.1c0,0,0,0,0,0c-0.4,0.5-0.9,0.7-1.3,0.7c-0.5,0-0.8-0.1-1-0.4c-0.2-0.3-0.3-0.7-0.3-1.4c0-1.9,0-2.8,0-4.7
			c0.6-0.1,0.9-0.1,1.5-0.1c0,1.9,0,2.8,0,4.7c0,0.4,0.1,0.6,0.3,0.6c0.2,0,0.4-0.2,0.6-0.5C-208.1,293.8-208.1,293.8-208,293.7z"/>
		<path class="st5" d="M-201,291.7c0,1.2-0.2,2.1-0.5,2.7c-0.3,0.5-0.9,0.8-1.6,0.9c-0.8,0.1-1.3-0.1-1.7-0.6
			c-0.3-0.5-0.5-1.3-0.5-2.6s0.2-2.1,0.5-2.7c0.3-0.5,0.9-0.8,1.7-0.9c0.8-0.1,1.3,0.1,1.6,0.6C-201.2,289.6-201,290.4-201,291.7z
			 M-203.2,289.6c-0.4,0-0.6,0.4-0.6,1c0,0.1,0,0.5,0,1.3s0,1.3,0,1.3c0.1,0.6,0.3,0.9,0.6,0.9s0.6-0.4,0.6-1c0-0.1,0-0.5,0-1.3
			s0-1.3,0-1.3C-202.6,289.8-202.8,289.6-203.2,289.6z"/>
		<path class="st5" d="M-197.2,292.8c0-1.9,0-2.8,0-4.7c0.6,0,0.9-0.1,1.5-0.1c0,1.9,0,2.8,0,4.7c0,0.8,0,1.4,0.1,1.8
			c-0.4,0-0.5,0-0.9,0.1c-0.2-0.1-0.4-0.3-0.5-0.6c-0.1,0.1-0.1,0.1-0.2,0.2c-0.4,0.4-0.9,0.7-1.3,0.7c-0.5,0-0.8-0.1-1-0.4
			c-0.2-0.3-0.3-0.8-0.3-1.4c0-1.9,0-2.8,0-4.7c0.6,0,0.9-0.1,1.5-0.1c0,1.9,0,2.8,0,4.7c0,0.4,0.1,0.6,0.3,0.6
			c0.2,0,0.4-0.2,0.6-0.5C-197.3,292.9-197.3,292.9-197.2,292.8z"/>
		<path class="st5" d="M-192.9,288.9c0.2-0.3,0.4-0.4,0.6-0.7c0.4-0.4,0.7-0.6,1.1-0.6c0,0.7,0,1.1,0,1.9c-0.1,0-0.3-0.1-0.4-0.1
			c-0.2,0-0.5,0.2-0.8,0.4c-0.2,0.2-0.2,0.2-0.4,0.4c0,1.6,0,2.5,0,4.1c-0.6,0-0.9,0.1-1.5,0.1c0-1.9,0-2.8,0-4.7
			c0-0.8,0-1.4-0.1-1.8c0.4,0,0.5,0,0.9-0.1C-193.3,288-193,288.4-192.9,288.9z"/>
		<path class="st5" d="M-186.4,287.4c0.6,0,0.9-0.1,1.5-0.1c0,0.5,0,0.7,0,1.2c-0.6,0-0.9,0.1-1.5,0.1c0,2.1,0,3.2,0,5.3
			c-0.6,0-0.9,0.1-1.5,0.1c0-2.1,0-3.2,0-5.3c-0.3,0-0.5,0-0.9,0.1c0-0.5,0-0.7,0-1.2c0.3,0,0.5,0,0.9-0.1c0-0.3,0-0.4,0-0.7
			c0-0.7,0.2-1.2,0.5-1.5c0.3-0.2,0.8-0.4,1.5-0.4c0.4,0,0.7,0,1.1,0.1c0,0.5,0,0.7,0,1.2c-0.3-0.1-0.6-0.1-0.9-0.1
			c-0.4,0-0.6,0.3-0.6,0.7C-186.4,287-186.4,287.1-186.4,287.4z"/>
		<path class="st5" d="M-180.2,290.3c0,1.2-0.2,2.1-0.5,2.7c-0.3,0.5-0.9,0.8-1.7,0.8c-0.8,0-1.3-0.2-1.7-0.7
			c-0.3-0.5-0.5-1.3-0.5-2.6s0.2-2.1,0.5-2.7c0.3-0.5,0.9-0.8,1.7-0.8c0.8,0,1.3,0.2,1.7,0.7C-180.4,288.2-180.2,289-180.2,290.3z
			 M-182.4,288.1c-0.4,0-0.6,0.3-0.6,1c0,0.1,0,0.5,0,1.3s0,1.3,0,1.3c0.1,0.6,0.3,0.9,0.6,0.9c0.4,0,0.6-0.3,0.6-1
			c0-0.1,0-0.5,0-1.3s0-1.3,0-1.3C-181.8,288.4-182,288.1-182.4,288.1z"/>
		<path class="st5" d="M-174.9,290c0,1.2-0.2,2.1-0.5,2.6c-0.3,0.5-0.9,0.8-1.7,0.8c-0.8,0-1.3-0.2-1.7-0.7
			c-0.3-0.5-0.5-1.4-0.5-2.6s0.2-2.1,0.5-2.7c0.3-0.5,0.9-0.8,1.7-0.8c0.8,0,1.3,0.2,1.7,0.7C-175,287.9-174.9,288.8-174.9,290z
			 M-177,287.9c-0.4,0-0.6,0.3-0.6,1c0,0.1,0,0.5,0,1.3c0,0.8,0,1.3,0,1.3c0.1,0.6,0.3,0.9,0.6,0.9c0.4,0,0.6-0.3,0.6-1
			c0-0.1,0-0.5,0-1.3s0-1.3,0-1.3C-176.4,288.1-176.7,287.8-177,287.9z"/>
		<path class="st5" d="M-171,287c0-1.2,0-1.7,0-2.9c0.6,0,0.9,0,1.5-0.1c0,2.9,0,4.3,0,7.1c0,0.8,0,1.4,0.1,1.8c-0.4,0-0.5,0-0.9,0
			c-0.2-0.1-0.4-0.3-0.5-0.6c-0.5,0.5-1,0.8-1.4,0.8c-0.5,0-0.9-0.2-1.2-0.7c-0.3-0.5-0.4-1.4-0.4-2.6s0.1-2.1,0.4-2.7
			c0.2-0.5,0.6-0.7,1.2-0.8C-171.8,286.5-171.4,286.7-171,287z M-171,291.4c0-1.2,0-1.9,0-3.1c-0.1-0.1-0.1-0.1-0.2-0.2
			c-0.2-0.2-0.4-0.4-0.6-0.4c-0.2,0-0.3,0.1-0.3,0.3c-0.1,0.3-0.2,0.9-0.2,1.9c0,0.9,0.1,1.6,0.2,1.8c0.1,0.2,0.2,0.3,0.3,0.3
			c0.2,0,0.4-0.1,0.6-0.4C-171.1,291.5-171.1,291.5-171,291.4z"/>
		<path class="st5" d="M-162.4,286.6c0,0.6,0,0.9,0,1.5c-0.4-0.3-0.8-0.4-1.2-0.4c-0.3,0-0.5,0.1-0.6,0.3c-0.2,0.3-0.2,0.8-0.2,1.7
			c0,0.8,0.1,1.4,0.2,1.7c0.1,0.2,0.3,0.3,0.6,0.3c0.4,0,0.8-0.2,1.2-0.5c0,0.6,0,0.9,0,1.5c-0.5,0.2-1.1,0.3-1.6,0.4
			c-0.7,0-1.1-0.2-1.4-0.5c-0.4-0.5-0.5-1.4-0.5-2.7c0-1.4,0.2-2.3,0.6-2.8c0.3-0.4,0.7-0.6,1.4-0.6
			C-163.5,286.3-163,286.4-162.4,286.6z"/>
		<path class="st5" d="M-160,286.7c0.4-0.4,0.9-0.6,1.3-0.7c0.5,0,0.8,0.2,1,0.5c0.2,0.3,0.3,0.8,0.3,1.4c0,1.9,0,2.8,0,4.7
			c-0.6,0-0.9,0-1.5,0c0-1.9,0-2.8,0-4.7c0-0.4-0.1-0.6-0.3-0.6c-0.2,0-0.4,0.2-0.6,0.4c-0.1,0.1-0.1,0.1-0.2,0.2c0,1.9,0,2.8,0,4.7
			c-0.6,0-0.9,0-1.5,0c0-3.6,0-5.4,0-9c0.6,0,0.9,0,1.5,0C-160,285-160,285.6-160,286.7z"/>
		<path class="st5" d="M-151.9,289.3c0,1.2-0.2,2.1-0.5,2.6c-0.3,0.5-0.9,0.8-1.7,0.8c-0.8,0-1.3-0.2-1.7-0.7
			c-0.3-0.5-0.5-1.4-0.5-2.6c0-1.2,0.2-2.1,0.5-2.6c0.3-0.5,0.9-0.8,1.7-0.8c0.8,0,1.3,0.2,1.7,0.7
			C-152.1,287.2-151.9,288.1-151.9,289.3z M-154.1,287.1c-0.4,0-0.6,0.3-0.6,0.9c0,0.1,0,0.5,0,1.3s0,1.3,0,1.3
			c0.1,0.6,0.3,0.9,0.6,0.9c0.4,0,0.6-0.3,0.6-0.9c0-0.1,0-0.5,0-1.3s0-1.3,0-1.3C-153.5,287.4-153.7,287.1-154.1,287.1z"/>
		<path class="st5" d="M-149,286.1c0,2.6,0,3.9,0,6.5c-0.6,0-0.9,0-1.5,0c0-2.1,0-3.2,0-5.3c-0.3,0-0.4,0-0.7,0c0-0.5,0-0.7,0-1.2
			C-150.3,286.1-149.8,286.1-149,286.1z M-149.7,283.5c0.2,0,0.5,0.1,0.6,0.2c0.2,0.2,0.3,0.4,0.3,0.6c0,0.2-0.1,0.5-0.3,0.6
			c-0.2,0.2-0.4,0.3-0.6,0.3c-0.2,0-0.4-0.1-0.6-0.3c-0.2-0.2-0.3-0.4-0.3-0.6c0-0.3,0.1-0.5,0.3-0.6
			C-150.2,283.5-150,283.5-149.7,283.5z"/>
		<path class="st5" d="M-144.1,286.3c0,0.6,0,0.9,0,1.5c-0.4-0.3-0.8-0.4-1.2-0.4c-0.3,0-0.5,0.1-0.6,0.3c-0.2,0.3-0.2,0.8-0.2,1.7
			c0,0.8,0.1,1.4,0.2,1.7c0.1,0.2,0.3,0.3,0.6,0.3c0.4,0,0.8-0.1,1.2-0.4c0,0.6,0,0.9,0,1.5c-0.5,0.2-1.1,0.3-1.6,0.3
			c-0.7,0-1.1-0.2-1.4-0.6c-0.4-0.5-0.5-1.4-0.5-2.7c0-1.4,0.2-2.3,0.6-2.8c0.3-0.4,0.7-0.6,1.4-0.6
			C-145.2,286-144.7,286.1-144.1,286.3z"/>
		<path class="st5" d="M-139.4,290.9c0,0.5,0,0.8,0,1.3c-0.7,0.3-1.3,0.4-1.8,0.4c-0.7,0-1.2-0.2-1.5-0.6c-0.4-0.5-0.6-1.4-0.6-2.8
			c0-1.2,0.2-2.1,0.5-2.6c0.3-0.5,0.9-0.8,1.7-0.8c0.6,0,1.1,0.2,1.4,0.5c0.3,0.3,0.4,0.9,0.4,1.6c0,0.6,0,0.9,0,1.4
			c-1,0-1.5,0-2.6,0c0,0.5,0,0.9,0,1c0.1,0.4,0.2,0.7,0.4,0.8c0.1,0.1,0.3,0.1,0.5,0.1C-140.4,291.4-139.9,291.2-139.4,290.9z
			 M-140.6,288.2c0-0.4,0-0.7,0-0.8c-0.1-0.3-0.2-0.4-0.5-0.4c-0.2,0-0.4,0.1-0.5,0.3c-0.1,0.2-0.1,0.5-0.2,1
			C-141.3,288.3-141.1,288.3-140.6,288.2C-140.6,288.3-140.6,288.2-140.6,288.2z"/>
		<path class="st5" d="M-134.9,286.2c0,0.5,0,0.8,0,1.3c-0.6-0.3-1.1-0.5-1.6-0.5c-0.4,0-0.6,0.2-0.6,0.7c0,0.4,0.2,0.7,0.6,0.7
			c1.4,0,2,0.7,2,2.1c0,1.4-0.7,2.1-2.1,2.1c-0.6,0-1.1-0.1-1.6-0.3c0-0.5,0-0.8,0-1.3c0.6,0.3,1.1,0.4,1.6,0.4
			c0.5,0,0.8-0.3,0.8-0.8c0-0.5-0.3-0.7-0.8-0.7c-0.6,0-1-0.1-1.3-0.4c-0.4-0.3-0.6-0.9-0.6-1.7c0-1.3,0.6-1.9,1.9-1.9
			C-136,285.9-135.4,286-134.9,286.2z"/>
		<path class="st5" d="M-132.4,292.7c-0.3,0-0.5-0.1-0.7-0.3c-0.2-0.2-0.3-0.4-0.3-0.7c0-0.3,0.1-0.5,0.3-0.7
			c0.2-0.2,0.4-0.3,0.7-0.3c0.3,0,0.5,0.1,0.7,0.3c0.2,0.2,0.3,0.4,0.3,0.7c0,0.3-0.1,0.5-0.3,0.7
			C-131.9,292.6-132.1,292.7-132.4,292.7z M-133.2,283.6c0.6,0,0.9,0,1.5,0c0,2.5,0,3.7,0,6.2c-0.6,0-0.9,0-1.5,0
			C-133.2,287.3-133.2,286.1-133.2,283.6z"/>
	</g>
</g>
</svg>
