<?xml version="1.0" encoding="utf-8"?>
<!-- Generator: Adobe Illustrator 19.0.0, SVG Export Plug-In . SVG Version: 6.00 Build 0)  -->
<svg version="1.1" id="Layer_1" xmlns="http://www.w3.org/2000/svg" xmlns:xlink="http://www.w3.org/1999/xlink" x="0px" y="0px"
	 viewBox="-258 125.4 441.4 311.6" style="enable-background:new -258 125.4 441.4 311.6;" xml:space="preserve">
<style type="text/css">
	.st0{fill:#31234C;}
	.st1{fill:#62528E;}
	.st2{fill:#AEB0B2;}
	.st3{clip-path:url(#SVGID_2_);fill:#554789;}
	.st4{fill:#FFFFFF;}
	.st5{fill:#525354;}
	.st6{font-family:'SolexRegular';}
	.st7{font-size:7px;}
	.st8{font-size:4px;}
	.st9{font-family:'SolexBlack';}
	.st10{font-size:8px;}
</style>
<path id="XMLID_55_" class="st0" d="M171.8,408.8c0,6.2-5.1,11.3-11.4,11.3H-235c-6.3,0-11.4-5-11.4-11.3V159.9
	c0-6.2,5.1-11.3,11.4-11.3h395.4c6.3,0,11.4,5,11.4,11.3L171.8,408.8L171.8,408.8z"/>
<path id="XMLID_54_" class="st1" d="M171.3,399.4c0,6.2-5.1,11.3-11.4,11.3h-394.4c-6.3,0-11.4-5-11.4-11.3V150.5
	c0-6.2,5.1-11.3,11.4-11.3h394.4c6.3,0,11.4,5,11.4,11.3V399.4z"/>
<rect id="XMLID_53_" x="-221.6" y="146.8" class="st2" width="182.2" height="250.6"/>
<rect id="XMLID_52_" x="-39.4" y="146.8" class="st2" width="182.2" height="250.6"/>
<g id="XMLID_114_">
	<g>
		<g>
			<g>
				<g>
					<g>
						<defs>
							<path id="SVGID_1_" d="M171.3,399.8c0,6.2-5.1,11.3-11.4,11.3h-394.4c-6.3,0-11.4-5-11.4-11.3V150.9
								c0-6.2,5.1-11.3,11.4-11.3h394.4c6.3,0,11.4,5,11.4,11.3V399.8z"/>
						</defs>
						<clipPath id="SVGID_2_">
							<use xlink:href="#SVGID_1_"  style="overflow:visible;"/>
						</clipPath>
						<rect id="XMLID_51_" x="-39.8" y="135.8" class="st3" width="248.5" height="296.8"/>
					</g>
				</g>
			</g>
		</g>
	</g>
</g>
<rect id="XMLID_49_" x="-225.6" y="146.8" class="st2" width="186.8" height="250.6"/>
<g id="XMLID_2_">
	<g id="XMLID_82_">
		<path id="XMLID_124_" d="M-165.5,156.2c0.8-2.4,1.2-3.6,2-6c0.9-0.1,1.3-0.1,2.2-0.1c-1.8,4.8-2.7,7.2-4.4,12
			c-0.8,0.1-1.3,0.1-2.1,0.2c-0.1-2.2-0.1-3.3-0.2-5.4c0-0.4,0-1.1,0.1-2.2c-0.1,0.5-0.3,1.2-0.6,2.2c-0.8,2.2-1.2,3.4-2.1,5.6
			c-0.9,0.1-1.4,0.1-2.3,0.2c-0.1-4.7-0.2-7-0.3-11.7c1-0.1,1.5-0.1,2.5-0.2c0,2.3,0,3.5,0,5.8c0,0.4-0.1,1.1-0.2,2.3
			c0.1-0.6,0.3-1.4,0.6-2.4c0.9-2.4,1.3-3.6,2.2-6c0.7-0.1,1.1-0.1,1.8-0.1c0.1,2.3,0.1,3.5,0.2,5.8c0,0.4,0,1.1-0.2,2.3
			C-166,157.9-165.8,157.2-165.5,156.2z"/>
		<path id="XMLID_121_" d="M-156.4,158.2c-1.5,0.1-2.2,0.1-3.7,0.2c0,0.2,0,0.3,0,0.4c0,0.6,0.3,0.9,1,0.9c0.6,0,1.4-0.3,2.4-0.7
			c-0.2,0.9-0.2,1.4-0.4,2.3c-1.1,0.4-2.1,0.6-3,0.6s-1.5-0.1-1.9-0.4c-0.5-0.4-0.8-1.1-0.8-2.1c0-0.5,0.1-1.1,0.2-1.7
			c0.3-1.7,0.7-2.8,1.3-3.5s1.5-1.1,2.8-1.1c1.8-0.1,2.7,0.5,2.7,1.9c0,0.2,0,0.5-0.1,0.7C-156.1,156.6-156.2,157.2-156.4,158.2z
			 M-158.5,156.5c0.1-0.6,0.2-1,0.2-1.2c0-0.3-0.1-0.5-0.4-0.4c-0.2,0-0.4,0.1-0.5,0.3s-0.2,0.7-0.4,1.4
			C-159.2,156.6-159,156.6-158.5,156.5z"/>
		<path id="XMLID_119_" d="M-152.3,159.3c0.4,0,0.6,0,1,0c-0.1,0.9-0.2,1.3-0.4,2.1c-1.5,0-2.2,0.1-3.7,0.1c0.7-3.9,1-5.8,1.7-9.7
			c-0.4,0-0.6,0-1,0c0.1-0.9,0.2-1.3,0.4-2.1c1.5-0.1,2.2-0.1,3.7-0.1C-151.3,153.5-151.6,155.4-152.3,159.3z"/>
		<path id="XMLID_117_" d="M-144.1,153.1c-0.2,0.9-0.2,1.4-0.4,2.3c-0.5-0.3-1-0.4-1.5-0.4c-0.4,0-0.7,0.1-0.9,0.3
			c-0.2,0.3-0.5,0.9-0.6,1.7c-0.1,0.5-0.1,0.8-0.1,1.1c0,0.4,0.1,0.7,0.2,0.8c0.1,0.1,0.3,0.1,0.6,0.1c0.5,0,1-0.2,1.6-0.5
			c-0.2,0.9-0.3,1.4-0.4,2.3c-0.7,0.3-1.5,0.4-2.4,0.4s-1.5-0.1-1.8-0.4c-0.5-0.4-0.7-1.1-0.7-2c0-0.5,0.1-1.1,0.2-1.8
			c0.3-1.8,0.8-3,1.5-3.7c0.5-0.5,1.2-0.7,2.2-0.7C-145.7,152.6-144.9,152.8-144.1,153.1z"/>
		<path id="XMLID_113_" d="M-137.2,157c-0.3,1.6-0.7,2.8-1.3,3.4c-0.6,0.6-1.5,1-2.7,0.9c-1,0-1.7-0.2-2.2-0.6
			c-0.5-0.4-0.7-1.1-0.7-2.1c0-0.5,0.1-1,0.2-1.7c0.3-1.7,0.7-2.8,1.3-3.5c0.6-0.6,1.5-1,2.7-1c1,0,1.7,0.2,2.2,0.6s0.7,1.2,0.7,2.2
			C-137,155.9-137.1,156.4-137.2,157z M-140.1,154.6c-0.2,0-0.4,0.1-0.5,0.4c-0.1,0.3-0.3,1-0.5,2s-0.3,1.6-0.3,1.9s0.1,0.5,0.4,0.5
			c0.2,0,0.4-0.1,0.5-0.4s0.3-0.9,0.5-2c0.2-1,0.3-1.6,0.3-1.9S-139.8,154.6-140.1,154.6z"/>
		<path id="XMLID_111_" d="M-129.2,161.5c0.4-2.3,0.6-3.4,1-5.7c0.1-0.3,0-0.5-0.2-0.5c-0.1,0-0.3,0.1-0.6,0.3
			c-0.1,0.1-0.1,0.1-0.2,0.1c-0.4,2.3-0.6,3.5-1,5.8c-1.1,0-1.6-0.1-2.7-0.1c0.4-2.3,0.6-3.4,1-5.7c0.1-0.3,0-0.5-0.2-0.5
			c-0.1,0-0.4,0.1-0.6,0.3c-0.1,0.1-0.1,0.1-0.2,0.2c-0.4,2.3-0.6,3.5-1,5.8c-1.1,0-1.6,0-2.7-0.1c0.4-2.4,0.6-3.7,1.1-6.1
			c0.2-1.1,0.3-1.9,0.2-2.4c0.6,0,0.9,0,1.4,0c0.3,0.2,0.6,0.5,0.8,1c1-0.7,1.9-1,2.5-1c0.8,0,1.3,0.4,1.4,1
			c0.9-0.6,1.6-0.8,2.2-0.8c1,0,1.5,0.6,1.5,1.6c0,0.3,0,0.7-0.1,1.1c-0.3,1.5-0.4,2.3-0.7,3.8c0.4,0,0.6,0,1,0.1
			c-0.1,0.8-0.2,1.3-0.4,2.1C-127,161.6-127.8,161.6-129.2,161.5z"/>
		<path id="XMLID_108_" d="M-118.1,158.9c-1.5-0.1-2.2-0.2-3.7-0.3c0,0.2,0,0.3,0,0.4c0,0.6,0.3,1,1,1c0.6,0,1.4-0.1,2.4-0.5
			c-0.2,0.9-0.2,1.3-0.4,2.2c-1.1,0.2-2.1,0.3-3,0.3c-0.9-0.1-1.5-0.3-1.9-0.6c-0.5-0.5-0.8-1.2-0.8-2.2c0-0.5,0.1-1.1,0.2-1.7
			c0.3-1.6,0.7-2.7,1.3-3.4c0.6-0.6,1.5-0.9,2.8-0.8c1.8,0.1,2.7,0.9,2.7,2.2c0,0.2,0,0.5-0.1,0.7
			C-117.9,157.3-118,157.8-118.1,158.9z M-120.3,156.9c0.1-0.6,0.2-1,0.2-1.2c0-0.3-0.1-0.5-0.4-0.5c-0.2,0-0.4,0.1-0.5,0.3
			s-0.2,0.6-0.4,1.4C-121,156.9-120.7,156.9-120.3,156.9z"/>
		<path id="XMLID_105_" d="M-115.1,159.8c0.4,0,0.6,0.2,0.9,0.4c0.2,0.2,0.3,0.5,0.3,0.9s-0.2,0.8-0.5,1.1s-0.7,0.4-1.2,0.4
			c-0.4,0-0.6-0.2-0.9-0.4c-0.2-0.2-0.3-0.5-0.3-0.9s0.2-0.8,0.5-1.1C-115.9,159.9-115.5,159.6-115.1,159.8z M-114.9,150.6
			c1.1,0.1,1.6,0.1,2.7,0.2c-0.6,3.1-1,4.7-1.6,7.9c-1-0.1-1.4-0.1-2.4-0.2C-115.6,155.5-115.4,153.9-114.9,150.6z"/>
	</g>
</g>
<path id="XMLID_48_" class="st4" d="M-37.6,146.8l5.6,250.3c-117.8-4-196-2.6-196-2.6l-3.9-252.3C-232,142.2-169.6,140.6-37.6,146.8
	z"/>
<path id="XMLID_1_" class="st4" d="M-44,146.3l5.5,248.4c-117.8-3.9-196-2.6-196-2.6l-3.9-250.3C-238.4,141.8-176,140.2-44,146.3z"
	/>
<rect id="XMLID_45_" x="-39.9" y="146.8" class="st2" width="186.8" height="250.6"/>
<g>
	<g>
		<path class="st5" d="M-163.3,171.9c0,4,0,5.9,0,9.9c-0.8,0.1-1.2,0.1-2,0.2c0-4,0-5.9,0-9.9c-0.8,0.1-1.2,0.1-2.1,0.2
			c0-0.7,0-1.1,0-1.8c2.4-0.2,3.7-0.3,6.1-0.5c0,0.7,0,1.1,0,1.8C-162.1,171.8-162.5,171.8-163.3,171.9z"/>
		<path class="st5" d="M-158.6,173.6c0.5-0.6,1.1-0.9,1.8-0.9c0.6,0,1.1,0.2,1.3,0.6c0.2,0.4,0.3,1,0.3,1.8c0,2.5,0,3.7,0,6.2
			c-0.8,0-1.2,0-2,0.1c0-2.5,0-3.7,0-6.2c0-0.5-0.1-0.8-0.4-0.8c-0.2,0-0.5,0.2-0.8,0.6c-0.1,0.1-0.2,0.2-0.3,0.3c0,2.4,0,3.7,0,6.1
			c-0.8,0-1.2,0.1-2,0.1c0-4.7,0-7,0-11.7c0.8-0.1,1.2-0.1,2-0.1C-158.6,171.3-158.6,172.1-158.6,173.6z"/>
		<path class="st5" d="M-148.5,179.1c0,0.7,0,1,0,1.7c-1,0.4-1.8,0.6-2.4,0.6c-0.9,0-1.6-0.2-2-0.8c-0.5-0.7-0.7-1.8-0.7-3.6
			c0-1.6,0.2-2.8,0.7-3.5c0.4-0.7,1.2-1,2.2-1c0.8,0,1.5,0.2,1.8,0.6c0.4,0.4,0.6,1.1,0.6,2.1c0,0.7,0,1.1,0,1.9c-1.3,0-2,0-3.4,0.1
			c0,0.7,0,1.1,0.1,1.4c0.1,0.6,0.3,0.9,0.6,1.1c0.2,0.1,0.4,0.2,0.7,0.2C-149.8,179.6-149.1,179.5-148.5,179.1z M-150.1,175.6
			c0-0.5,0-0.9-0.1-1c-0.1-0.4-0.3-0.6-0.7-0.6c-0.3,0-0.5,0.1-0.7,0.4c-0.1,0.2-0.2,0.7-0.2,1.3
			C-151,175.6-150.7,175.6-150.1,175.6L-150.1,175.6z"/>
		<path class="st5" d="M-141.3,179.3c1.1,0,1.6,0,2.7,0.1c0,0.7,0,1.1,0,1.8c-1.9-0.1-2.8-0.1-4.7-0.1c0-4.7,0-7,0-11.7
			c1.8,0,2.7,0,4.6,0.1c0,0.7,0,1.1,0,1.8c-1,0-1.5,0-2.6-0.1c0,1.1,0,1.7,0,2.8c1,0,1.4,0,2.4,0.1c0,0.7,0,1.1,0,1.8
			c-1,0-1.4,0-2.4-0.1C-141.3,177.3-141.3,178-141.3,179.3z"/>
		<path class="st5" d="M-135.1,173.8c0.1-0.1,0.2-0.2,0.3-0.3c0.6-0.5,1.2-0.8,1.8-0.7c0.6,0,1.1,0.3,1.3,0.7s0.3,1,0.3,1.9
			c0,2.5,0,3.7,0,6.2c-0.8,0-1.2-0.1-2-0.1c0-2.5,0-3.7,0-6.2c0-0.5-0.1-0.8-0.4-0.8c-0.2,0-0.5,0.2-0.8,0.5
			c-0.1,0.2-0.2,0.2-0.4,0.4c0,2.4,0,3.6,0,6c-0.8,0-1.2-0.1-2-0.1c0-2.4,0-3.7,0-6.1c0-1.1-0.1-1.9-0.2-2.4c0.5,0,0.7,0,1.2,0
			C-135.6,173-135.3,173.4-135.1,173.8z"/>
		<path class="st5" d="M-126.2,174c0-1.5,0-2.3,0-3.8c0.8,0.1,1.2,0.1,2,0.2c0,3.7,0,5.6,0,9.4c0,1.1,0.1,1.9,0.2,2.4
			c-0.5,0-0.7-0.1-1.2-0.1c-0.3-0.2-0.5-0.5-0.7-0.9c-0.6,0.6-1.3,0.9-1.8,0.9c-0.7-0.1-1.2-0.4-1.5-1c-0.4-0.7-0.5-1.9-0.5-3.5
			s0.2-2.8,0.5-3.4c0.3-0.6,0.8-0.9,1.5-0.8C-127.3,173.2-126.8,173.5-126.2,174z M-126.2,179.6c0-1.6,0-2.4,0-4
			c-0.1-0.1-0.1-0.2-0.2-0.3c-0.3-0.4-0.5-0.5-0.7-0.6c-0.2,0-0.4,0.1-0.4,0.3c-0.1,0.4-0.2,1.2-0.2,2.4s0.1,2,0.2,2.4
			c0.1,0.3,0.2,0.4,0.4,0.4s0.5-0.1,0.7-0.4C-126.4,179.9-126.3,179.8-126.2,179.6z"/>
	</g>
</g>
<g>
	<g>
		<path class="st5" d="M-207,220.1c0,3,0,4.5,0,7.6c-0.6,0.1-0.9,0.1-1.5,0.1c0-3,0-4.5,0-7.6c-0.6,0.1-0.9,0.1-1.6,0.1
			c0-0.6,0-0.8,0-1.4c1.9-0.2,2.8-0.3,4.7-0.4c0,0.6,0,0.8,0,1.4C-206,220-206.3,220-207,220.1z"/>
		<path class="st5" d="M-203.3,221.3c0.4-0.5,0.9-0.7,1.3-0.7c0.5,0,0.8,0.1,1,0.4c0.2,0.3,0.3,0.8,0.3,1.4c0,1.9,0,2.8,0,4.7
			c-0.6,0-0.9,0.1-1.5,0.1c0-1.9,0-2.8,0-4.7c0-0.4-0.1-0.6-0.3-0.6s-0.4,0.2-0.6,0.5c-0.1,0.1-0.1,0.2-0.2,0.3c0,1.9,0,2.8,0,4.7
			c-0.6,0.1-0.9,0.1-1.5,0.1c0-3.6,0-5.4,0-9c0.6-0.1,0.9-0.1,1.5-0.1C-203.3,219.5-203.3,220.1-203.3,221.3z"/>
		<path class="st5" d="M-197.2,222.1c0-0.4-0.2-0.7-0.7-0.6c-0.5,0-1.1,0.3-1.7,0.7c0-0.6,0-0.8,0-1.4c0.7-0.3,1.3-0.5,1.9-0.6
			c0.7-0.1,1.2,0.1,1.5,0.4c0.3,0.3,0.5,0.8,0.5,1.6c0,1.1,0,1.6,0,2.7c0,0.9,0,1.5,0.1,1.8c-0.4,0-0.5,0-0.9,0.1
			c-0.2-0.1-0.3-0.3-0.5-0.5c0,0.1-0.1,0.1-0.1,0.1c-0.3,0.4-0.7,0.6-1.3,0.7c-1,0.1-1.5-0.5-1.5-1.8c0-0.7,0.2-1.2,0.5-1.6
			c0.4-0.4,0.9-0.7,1.6-0.7c0.2,0,0.3,0,0.5,0C-197.2,222.5-197.2,222.4-197.2,222.1z M-197.2,225.3c0-0.5,0-0.8,0-1.3
			c-0.1,0-0.2,0-0.4,0c-0.6,0-0.9,0.4-0.9,1.1c0,0.5,0.2,0.8,0.5,0.8c0.2,0,0.4-0.2,0.6-0.5C-197.2,225.4-197.2,225.4-197.2,225.3z"
			/>
		<path class="st5" d="M-193,220.6c0.1-0.1,0.2-0.2,0.3-0.3c0.4-0.4,0.9-0.7,1.3-0.7c0.5,0,0.8,0.1,1,0.4c0.2,0.3,0.3,0.8,0.3,1.4
			c0,1.9,0,2.8,0,4.7c-0.6,0-0.9,0.1-1.5,0.1c0-1.9,0-2.8,0-4.7c0-0.4-0.1-0.6-0.3-0.6s-0.4,0.2-0.6,0.5c-0.1,0.1-0.2,0.2-0.3,0.3
			c0,1.8,0,2.7,0,4.6c-0.6,0-0.9,0.1-1.5,0.1c0-1.9,0-2.8,0-4.7c0-0.8,0-1.4-0.1-1.8c0.4,0,0.5,0,0.9-0.1
			C-193.3,220.2-193.1,220.4-193,220.6z"/>
		<path class="st5" d="M-187.4,224c0,0.9,0,1.3,0,2.1c-0.6,0-0.9,0.1-1.4,0.1c0-3.6,0-5.4,0-9c0.6,0,0.9-0.1,1.4-0.1
			c0,1.6,0,2.4,0,4.1c0,0.3,0,0.6,0,0.9c0.1-0.2,0.3-0.6,0.7-1.2c0.4-0.6,0.6-0.9,1-1.5c0.6,0,0.9-0.1,1.4-0.1c-0.7,1-1,1.5-1.7,2.6
			c0.6,1.6,0.9,2.4,1.5,3.9c-0.6,0-0.9,0.1-1.5,0.1c-0.4-1.1-0.6-1.6-1-2.7C-187.1,223.6-187.2,223.6-187.4,224z"/>
		<path class="st5" d="M-178.9,223.8c0-1.9,0-2.8,0-4.7c0.6,0,0.9,0,1.5-0.1c0,2.8,0,4.2,0,7c0,0.7-0.2,1.3-0.5,1.6
			s-0.8,0.5-1.5,0.6c-0.5,0-1.1-0.1-1.8-0.3c0-0.5,0-0.8,0-1.4c0.6,0.3,1.1,0.5,1.6,0.5s0.8-0.3,0.8-0.8c0-0.4,0-0.7,0-1.1l0,0
			c-0.4,0.4-0.9,0.7-1.3,0.7c-0.5,0-0.8-0.1-1-0.5c-0.2-0.3-0.3-0.8-0.3-1.4c0-1.9,0-2.8,0-4.7c0.6,0,0.9,0,1.5-0.1
			c0,1.9,0,2.8,0,4.7c0,0.4,0.1,0.6,0.3,0.6s0.4-0.2,0.6-0.5C-179,223.9-178.9,223.9-178.9,223.8z"/>
		<path class="st5" d="M-171.9,222c0,1.2-0.2,2.1-0.5,2.6s-0.9,0.8-1.7,0.8s-1.3-0.2-1.7-0.7c-0.3-0.5-0.5-1.4-0.5-2.6
			s0.2-2.1,0.5-2.6s0.9-0.8,1.7-0.8s1.3,0.2,1.7,0.7S-171.9,220.8-171.9,222z M-174,219.9c-0.4,0-0.6,0.3-0.6,1c0,0.1,0,0.5,0,1.3
			s0,1.3,0,1.3c0.1,0.6,0.3,0.9,0.6,0.9c0.4,0,0.6-0.3,0.6-1c0-0.1,0-0.5,0-1.3s0-1.3,0-1.3C-173.4,220.2-173.6,219.9-174,219.9z"/>
		<path class="st5" d="M-168.1,223.3c0-1.9,0-2.8,0-4.7c0.6,0,0.9,0,1.5-0.1c0,1.9,0,2.8,0,4.7c0,0.8,0,1.4,0.1,1.8
			c-0.4,0-0.5,0-0.9,0c-0.2-0.1-0.4-0.4-0.5-0.7c-0.1,0.1-0.1,0.1-0.2,0.2c-0.4,0.4-0.9,0.7-1.3,0.7c-0.5,0-0.8-0.1-1-0.5
			c-0.2-0.3-0.3-0.8-0.3-1.4c0-1.9,0-2.8,0-4.7c0.6,0,0.9,0,1.5-0.1c0,1.9,0,2.8,0,4.7c0,0.4,0.1,0.6,0.3,0.6s0.4-0.2,0.6-0.5
			C-168.2,223.5-168.1,223.4-168.1,223.3z"/>
		<path class="st5" d="M-161,218.4c0.6,0,0.9,0,1.5,0c0,0.5,0,0.7,0,1.2c-0.6,0-0.9,0-1.5,0c0,2.1,0,3.2,0,5.3c-0.6,0-0.9,0-1.5,0
			c0-2.1,0-3.2,0-5.3c-0.3,0-0.5,0-0.9,0c0-0.5,0-0.7,0-1.2c0.3,0,0.5,0,0.9,0c0-0.3,0-0.4,0-0.7c0-0.7,0.2-1.2,0.5-1.5
			c0.3-0.2,0.8-0.4,1.5-0.4c0.4,0,0.8,0,1.1,0.1c0,0.5,0,0.7,0,1.2c-0.3-0.1-0.6-0.1-0.9-0.1s-0.6,0.2-0.6,0.7
			C-161,218-161,218.1-161,218.4z"/>
		<path class="st5" d="M-154.9,221.5c0,1.2-0.2,2.1-0.5,2.6s-0.9,0.8-1.7,0.8s-1.3-0.2-1.7-0.7c-0.3-0.5-0.5-1.4-0.5-2.6
			s0.2-2.1,0.5-2.6s0.9-0.8,1.7-0.8s1.3,0.2,1.7,0.7S-154.9,220.3-154.9,221.5z M-157,219.3c-0.4,0-0.6,0.3-0.6,1c0,0.1,0,0.5,0,1.3
			s0,1.3,0,1.3c0.1,0.6,0.3,0.9,0.6,0.9c0.4,0,0.6-0.3,0.6-1c0-0.1,0-0.5,0-1.3s0-1.3,0-1.3C-156.5,219.6-156.7,219.3-157,219.3z"/>
		<path class="st5" d="M-152.2,219.3c0.2-0.2,0.4-0.4,0.6-0.6c0.4-0.4,0.7-0.6,1.1-0.6c0,0.7,0,1.1,0,1.9c-0.1-0.1-0.3-0.1-0.4-0.1
			c-0.2,0-0.5,0.1-0.8,0.4c-0.2,0.1-0.2,0.2-0.4,0.4c0,1.6,0,2.5,0,4.1c-0.6,0-0.9,0-1.5,0c0-1.9,0-2.8,0-4.7c0-0.8,0-1.4-0.1-1.8
			c0.4,0,0.5,0,0.9,0C-152.5,218.4-152.3,218.8-152.2,219.3z"/>
		<path class="st5" d="M-144.9,222.8c0-1.9,0-2.8,0-4.7c0.6,0,0.9,0,1.5,0c0,1.9,0,2.8,0,4.7c0,0.8,0,1.4,0.1,1.8
			c-0.4,0-0.5,0-0.9,0c-0.2-0.1-0.4-0.4-0.5-0.7c-0.1,0.1-0.1,0.1-0.2,0.2c-0.4,0.4-0.9,0.6-1.3,0.6c-0.5,0-0.8-0.2-1-0.5
			s-0.3-0.8-0.3-1.4c0-1.9,0-2.8,0-4.7c0.6,0,0.9,0,1.5,0c0,1.9,0,2.8,0,4.7c0,0.4,0.1,0.6,0.3,0.6s0.4-0.1,0.6-0.4
			C-145,222.9-145,222.9-144.9,222.8z"/>
		<path class="st5" d="M-138.9,218.3c0,0.5,0,0.8,0,1.3c-0.6-0.3-1.1-0.5-1.6-0.5c-0.4,0-0.6,0.2-0.6,0.7c0,0.4,0.2,0.7,0.6,0.7
			c1.4,0,2,0.7,2,2.1c0,1.4-0.7,2.1-2.1,2.1c-0.6,0-1.1-0.1-1.6-0.3c0-0.5,0-0.8,0-1.3c0.6,0.3,1.1,0.4,1.6,0.4s0.8-0.3,0.8-0.8
			s-0.3-0.7-0.8-0.7c-0.6,0-1-0.1-1.3-0.4c-0.4-0.3-0.6-0.9-0.6-1.7c0-1.3,0.6-1.9,1.9-1.9C-140,218-139.5,218.1-138.9,218.3z"/>
		<path class="st5" d="M-135.8,218.1c0,2.6,0,3.9,0,6.5c-0.6,0-0.9,0-1.5,0c0-2.1,0-3.2,0-5.3c-0.3,0-0.4,0-0.7,0c0-0.5,0-0.7,0-1.2
			C-137.1,218.1-136.7,218.1-135.8,218.1z M-136.6,215.5c0.2,0,0.5,0.1,0.6,0.3c0.2,0.2,0.3,0.4,0.3,0.6c0,0.2-0.1,0.5-0.3,0.6
			s-0.4,0.3-0.6,0.3c-0.2,0-0.4-0.1-0.6-0.3c-0.2-0.2-0.3-0.4-0.3-0.6c0-0.3,0.1-0.5,0.3-0.6C-137,215.6-136.8,215.5-136.6,215.5z"
			/>
		<path class="st5" d="M-133,218.9c0.1-0.1,0.2-0.1,0.3-0.2c0.4-0.4,0.9-0.6,1.3-0.6c0.5,0,0.8,0.2,1,0.5s0.3,0.8,0.3,1.4
			c0,1.9,0,2.8,0,4.7c-0.6,0-0.9,0-1.5,0c0-1.9,0-2.8,0-4.7c0-0.4-0.1-0.6-0.3-0.6s-0.4,0.1-0.6,0.4c-0.1,0.1-0.2,0.2-0.3,0.3
			c0,1.8,0,2.7,0,4.6c-0.6,0-0.9,0-1.5,0c0-1.9,0-2.8,0-4.7c0-0.8,0-1.4-0.1-1.8c0.4,0,0.5,0,0.9,0
			C-133.3,218.3-133.1,218.5-133,218.9z"/>
		<path class="st5" d="M-124.7,225.3c0,0.7-0.2,1.3-0.5,1.6s-0.9,0.5-1.5,0.5c-0.5,0-1.1-0.2-1.8-0.4c0-0.5,0-0.8,0-1.4
			c0.6,0.4,1.1,0.6,1.6,0.6s0.8-0.3,0.8-0.8c0-0.4,0-0.6,0-1c-0.4,0.4-0.8,0.5-1.2,0.5c-0.5,0-0.9-0.3-1.2-0.7
			c-0.3-0.5-0.4-1.4-0.4-2.7c0-1.2,0.1-2.1,0.4-2.7c0.2-0.5,0.6-0.7,1.2-0.7c0.4,0,0.9,0.3,1.4,0.8c0.1-0.3,0.3-0.5,0.5-0.6
			c0.4,0,0.5,0,0.9,0c-0.1,0.4-0.1,1-0.1,1.8C-124.7,222.2-124.7,223.2-124.7,225.3z M-126.2,219.9c-0.1-0.1-0.1-0.1-0.2-0.2
			c-0.2-0.3-0.4-0.4-0.6-0.4s-0.3,0.1-0.3,0.3c-0.1,0.3-0.2,0.9-0.2,1.9s0.1,1.6,0.2,1.8s0.2,0.3,0.3,0.3c0.2,0,0.4-0.1,0.6-0.4
			c0.1-0.1,0.1-0.1,0.2-0.2C-126.2,221.8-126.2,221.2-126.2,219.9z"/>
		<path class="st5" d="M-118.1,224.6c-0.3,0.2-0.7,0.2-1.3,0.2c-0.5,0-0.9-0.1-1.1-0.4c-0.2-0.2-0.2-0.7-0.2-1.4c0-1.5,0-2.2,0-3.6
			c-0.3,0-0.5,0-0.9,0c0-0.5,0-0.7,0-1.2c0.3,0,0.5,0,0.9,0c0-0.6,0-0.9,0-1.5c0.6,0,0.9,0,1.5,0c0,0.6,0,0.9,0,1.5
			c0.5,0,0.7,0,1.1,0c0,0.5,0,0.7,0,1.2c-0.5,0-0.7,0-1.1,0c0,1.5,0,2.2,0,3.6c0,0.2,0,0.4,0.1,0.4c0.1,0.1,0.2,0.1,0.5,0.1
			c0.2,0,0.4,0,0.6-0.1C-118.1,224.1-118.1,224.3-118.1,224.6z"/>
		<path class="st5" d="M-115.8,219c0.4-0.4,0.9-0.6,1.3-0.6c0.5,0,0.8,0.2,1,0.5s0.3,0.8,0.3,1.4c0,1.9,0,2.8,0,4.7
			c-0.6,0-0.9,0-1.5-0.1c0-1.9,0-2.8,0-4.7c0-0.4-0.1-0.6-0.3-0.6c-0.2,0-0.4,0.1-0.6,0.4c-0.1,0.1-0.1,0.1-0.2,0.2
			c0,1.9,0,2.8,0,4.7c-0.6,0-0.9,0-1.5,0c0-3.6,0-5.4,0-9c0.6,0,0.9,0,1.5,0C-115.8,217.2-115.8,217.8-115.8,219z"/>
		<path class="st5" d="M-110.1,218.6c0,2.6,0,3.9,0,6.5c-0.6,0-0.9,0-1.5-0.1c0-2.1,0-3.2,0-5.3c-0.3,0-0.4,0-0.7,0
			c0-0.5,0-0.7,0-1.2C-111.4,218.6-111,218.6-110.1,218.6z M-110.9,216.1c0.2,0,0.5,0.1,0.6,0.3c0.2,0.2,0.3,0.4,0.3,0.6
			c0,0.2-0.1,0.4-0.3,0.6c-0.2,0.2-0.4,0.2-0.6,0.2s-0.4-0.1-0.6-0.3s-0.3-0.4-0.3-0.6c0-0.3,0.1-0.5,0.3-0.6
			C-111.3,216.1-111.1,216.1-110.9,216.1z"/>
		<path class="st5" d="M-105.5,219.1c0,0.5,0,0.8,0,1.3c-0.6-0.3-1.1-0.5-1.6-0.5c-0.4,0-0.6,0.2-0.6,0.7c0,0.4,0.2,0.7,0.6,0.7
			c1.4,0.1,2,0.8,2,2.2s-0.7,2-2.1,2c-0.6,0-1.1-0.1-1.6-0.4c0-0.5,0-0.8,0-1.3c0.6,0.3,1.1,0.4,1.6,0.5c0.5,0,0.8-0.2,0.8-0.8
			c0-0.5-0.3-0.7-0.8-0.7c-0.6,0-1-0.2-1.3-0.4c-0.4-0.3-0.6-0.9-0.6-1.7c0-1.3,0.6-1.9,1.9-1.8
			C-106.6,218.6-106.1,218.8-105.5,219.1z"/>
		<path class="st5" d="M-99.6,221c0-0.4-0.2-0.7-0.7-0.7s-1.1,0.1-1.7,0.5c0-0.6,0-0.8,0-1.4c0.7-0.2,1.3-0.3,1.9-0.3
			c0.7,0,1.2,0.2,1.5,0.6c0.3,0.3,0.5,0.9,0.5,1.6c0,1.1,0,1.6,0,2.7c0,0.9,0,1.5,0.1,1.8c-0.4,0-0.5,0-0.9,0
			c-0.2-0.1-0.3-0.3-0.5-0.6l-0.1,0.1c-0.3,0.4-0.7,0.5-1.3,0.5c-1-0.1-1.5-0.7-1.5-2c0-0.7,0.2-1.2,0.5-1.6
			c0.4-0.4,0.9-0.6,1.6-0.5c0.2,0,0.3,0,0.5,0C-99.6,221.4-99.6,221.3-99.6,221z M-99.6,224.2c0-0.5,0-0.8,0-1.3c-0.1,0-0.2,0-0.4,0
			c-0.6,0-0.9,0.3-0.9,1c0,0.5,0.2,0.8,0.5,0.8c0.2,0,0.4-0.1,0.6-0.4C-99.6,224.2-99.6,224.2-99.6,224.2z"/>
		<path class="st5" d="M-95.2,225.5c0,1.2,0,1.7,0,2.9c-0.6,0-0.9-0.1-1.5-0.1c0-2.9,0-4.3,0-7.2c0-0.8,0-1.4-0.1-1.8
			c0.4,0,0.5,0,0.9,0.1c0.2,0.1,0.4,0.4,0.5,0.7c0.5-0.5,1-0.7,1.4-0.7c0.5,0,0.9,0.3,1.2,0.8c0.3,0.6,0.4,1.5,0.4,2.7
			s-0.1,2.1-0.4,2.6c-0.2,0.5-0.6,0.7-1.2,0.6C-94.4,226.1-94.8,225.9-95.2,225.5z M-95.2,224.2c0.1,0.1,0.1,0.1,0.2,0.2
			c0.2,0.3,0.4,0.4,0.6,0.4s0.3-0.1,0.3-0.3c0.1-0.3,0.2-0.9,0.2-1.8s-0.1-1.6-0.2-1.9c-0.1-0.2-0.2-0.3-0.3-0.3
			c-0.2,0-0.4,0.1-0.6,0.3c-0.1,0.1-0.1,0.1-0.2,0.2C-95.2,222.4-95.2,223-95.2,224.2z"/>
		<path class="st5" d="M-89.7,225.9c0,1.2,0,1.7,0,2.9c-0.6,0-0.9-0.1-1.5-0.1c0-2.9,0-4.3,0-7.2c0-0.8,0-1.4-0.1-1.8
			c0.4,0,0.5,0,0.9,0.1c0.2,0.1,0.4,0.4,0.5,0.7c0.5-0.5,1-0.7,1.4-0.7c0.5,0,0.9,0.3,1.2,0.8c0.3,0.6,0.4,1.5,0.4,2.7
			s-0.1,2.1-0.4,2.6c-0.2,0.5-0.6,0.7-1.2,0.6C-88.9,226.5-89.3,226.3-89.7,225.9z M-89.7,224.6c0.1,0.1,0.1,0.1,0.2,0.2
			c0.2,0.3,0.4,0.4,0.6,0.4s0.3-0.1,0.3-0.3c0.1-0.3,0.2-0.9,0.2-1.8c0-0.9-0.1-1.6-0.2-1.9c-0.1-0.2-0.2-0.3-0.3-0.3
			c-0.2,0-0.4,0.1-0.6,0.3c-0.1,0.1-0.1,0.1-0.2,0.2C-89.7,222.6-89.7,223.3-89.7,224.6z"/>
		<path class="st5" d="M-84.9,224.6c0.3,0,0.5,0.1,0.7,0.4c0.2,0.2,0.3,0.5,0.3,0.7s-0.1,0.5-0.3,0.7s-0.4,0.3-0.7,0.2
			c-0.3,0-0.5-0.1-0.7-0.4c-0.2-0.2-0.3-0.5-0.3-0.7s0.1-0.5,0.3-0.7C-85.4,224.8-85.2,224.6-84.9,224.6z"/>
		<path class="st5" d="M-207.5,239.3c0,1.6,0,2.4,0,4c-0.6,0.1-0.9,0.1-1.5,0.1c0-3.6,0-5.4,0-9c0.6-0.1,0.9-0.1,1.5-0.1
			c0,1.4,0,2.1,0,3.5c0.6-0.1,0.9-0.1,1.6-0.1c0-1.4,0-2.1,0-3.5c0.6-0.1,0.9-0.1,1.5-0.1c0,3.6,0,5.4,0,9c-0.6,0.1-0.9,0.1-1.5,0.1
			c0-1.6,0-2.4,0-4C-206.6,239.2-206.9,239.2-207.5,239.3z"/>
		<path class="st5" d="M-198.6,239.3c0,1.2-0.2,2.1-0.5,2.7c-0.3,0.5-0.9,0.8-1.6,0.9c-0.8,0.1-1.3-0.1-1.7-0.6
			c-0.3-0.5-0.5-1.3-0.5-2.6c0-1.2,0.2-2.1,0.5-2.7c0.3-0.5,0.9-0.8,1.7-0.9c0.8-0.1,1.3,0.1,1.6,0.6S-198.6,238-198.6,239.3z
			 M-200.8,237.2c-0.4,0-0.6,0.4-0.6,1c0,0.1,0,0.5,0,1.3s0,1.3,0,1.3c0.1,0.6,0.3,0.9,0.6,0.9c0.4,0,0.6-0.4,0.6-1
			c0-0.1,0-0.5,0-1.3s0-1.3,0-1.3C-200.2,237.5-200.4,237.2-200.8,237.2z"/>
		<path class="st5" d="M-195.9,241.9c0,1.2,0,1.7,0,2.9c-0.6,0-0.9,0.1-1.5,0.1c0-2.9,0-4.3,0-7.2c0-0.8,0-1.4-0.1-1.8
			c0.4,0,0.5,0,0.9-0.1c0.2,0.1,0.4,0.3,0.5,0.6c0.5-0.5,1-0.8,1.4-0.9c0.5,0,0.9,0.2,1.2,0.6c0.3,0.5,0.4,1.4,0.4,2.6
			s-0.1,2.1-0.4,2.7c-0.2,0.5-0.6,0.8-1.2,0.8C-195.1,242.4-195.5,242.2-195.9,241.9z M-195.9,240.6c0.1,0.1,0.1,0.1,0.2,0.2
			c0.2,0.2,0.4,0.3,0.6,0.3c0.2,0,0.3-0.1,0.3-0.3c0.1-0.3,0.2-0.9,0.2-1.9s-0.1-1.6-0.2-1.8c-0.1-0.2-0.2-0.3-0.3-0.3
			c-0.2,0-0.4,0.2-0.6,0.4c-0.1,0.1-0.1,0.1-0.2,0.2C-195.9,238.8-195.9,239.4-195.9,240.6z"/>
		<path class="st5" d="M-188.1,240.2c0,0.5,0,0.8,0,1.3c-0.7,0.3-1.3,0.5-1.8,0.5c-0.7,0-1.2-0.1-1.5-0.5c-0.4-0.5-0.6-1.4-0.6-2.7
			c0-1.2,0.2-2.1,0.5-2.7c0.3-0.5,0.9-0.8,1.7-0.9c0.6,0,1.1,0.1,1.4,0.4s0.4,0.8,0.4,1.6c0,0.6,0,0.9,0,1.4c-1,0.1-1.5,0.1-2.6,0.2
			c0,0.5,0,0.9,0,1c0.1,0.4,0.2,0.7,0.4,0.8c0.1,0.1,0.3,0.1,0.5,0.1C-189.1,240.6-188.6,240.5-188.1,240.2z M-189.3,237.6
			c0-0.4,0-0.7,0-0.8c-0.1-0.3-0.2-0.4-0.5-0.4c-0.2,0-0.4,0.1-0.5,0.3s-0.1,0.5-0.2,1C-190.1,237.6-189.8,237.6-189.3,237.6
			L-189.3,237.6z"/>
		<path class="st5" d="M-181.5,241.2c-0.3,0.2-0.7,0.3-1.3,0.3c-0.5,0-0.9-0.1-1.1-0.3c-0.2-0.2-0.2-0.7-0.2-1.4c0-1.5,0-2.2,0-3.6
			c-0.3,0-0.5,0-0.9,0.1c0-0.5,0-0.7,0-1.2c0.3,0,0.5,0,0.9-0.1c0-0.6,0-0.9,0-1.5c0.6,0,0.9-0.1,1.5-0.1c0,0.6,0,0.9,0,1.5
			c0.5,0,0.7,0,1.1-0.1c0,0.5,0,0.7,0,1.2c-0.5,0-0.7,0-1.1,0.1c0,1.5,0,2.2,0,3.6c0,0.2,0,0.3,0.1,0.4c0.1,0.1,0.2,0.1,0.4,0.1
			s0.4-0.1,0.6-0.1C-181.5,240.5-181.5,240.6-181.5,241.2z"/>
		<path class="st5" d="M-179.2,235.2c0.4-0.4,0.9-0.7,1.3-0.7c0.5,0,0.8,0.1,1,0.5c0.2,0.3,0.3,0.8,0.3,1.4c0,1.9,0,2.8,0,4.7
			c-0.6,0-0.9,0-1.5,0.1c0-1.9,0-2.8,0-4.7c0-0.4-0.1-0.6-0.3-0.6s-0.4,0.2-0.6,0.5c-0.1,0.1-0.1,0.1-0.2,0.2c0,1.9,0,2.8,0,4.7
			c-0.6,0-0.9,0-1.5,0.1c0-3.6,0-5.4,0-9c0.6,0,0.9,0,1.5-0.1C-179.2,233.5-179.2,234.1-179.2,235.2z"/>
		<path class="st5" d="M-173.5,234.5c0,2.6,0,3.9,0,6.5c-0.6,0-0.9,0-1.5,0.1c0-2.1,0-3.2,0-5.3c-0.3,0-0.4,0-0.7,0
			c0-0.5,0-0.7,0-1.2C-174.8,234.5-174.4,234.5-173.5,234.5z M-174.3,231.9c0.2,0,0.5,0.1,0.6,0.2c0.2,0.2,0.3,0.4,0.3,0.6
			c0,0.2-0.1,0.5-0.3,0.6c-0.2,0.2-0.4,0.3-0.6,0.3c-0.2,0-0.4-0.1-0.6-0.2c-0.2-0.2-0.3-0.4-0.3-0.6c0-0.3,0.1-0.5,0.3-0.6
			C-174.8,232-174.6,231.9-174.3,231.9z"/>
		<path class="st5" d="M-168.9,234.5c0,0.5,0,0.8,0,1.3c-0.6-0.3-1.1-0.4-1.6-0.4c-0.4,0-0.6,0.3-0.6,0.7s0.2,0.7,0.6,0.6
			c1.4-0.1,2,0.6,2,2s-0.7,2.1-2.1,2.1c-0.6,0-1.1-0.1-1.6-0.2c0-0.5,0-0.8,0-1.3c0.6,0.2,1.1,0.3,1.6,0.3s0.8-0.3,0.8-0.9
			c0-0.5-0.3-0.7-0.8-0.7c-0.6,0-1-0.1-1.3-0.3c-0.4-0.3-0.6-0.9-0.6-1.7c0-1.3,0.6-1.9,1.9-2C-170,234.2-169.5,234.3-168.9,234.5z"
			/>
		<path class="st5" d="M-163.5,234.1c0,2.6,0,3.9,0,6.5c-0.6,0-0.9,0-1.5,0c0-2.1,0-3.2,0-5.3c-0.3,0-0.4,0-0.7,0c0-0.5,0-0.7,0-1.2
			C-164.8,234.1-164.4,234.1-163.5,234.1z M-164.3,231.5c0.2,0,0.5,0.1,0.6,0.2c0.2,0.2,0.3,0.4,0.3,0.6c0,0.2-0.1,0.5-0.3,0.6
			s-0.4,0.3-0.6,0.3c-0.2,0-0.4-0.1-0.6-0.2c-0.2-0.2-0.3-0.4-0.3-0.6c0-0.3,0.1-0.5,0.3-0.6C-164.7,231.6-164.5,231.5-164.3,231.5z
			"/>
		<path class="st5" d="M-160.7,234.6c0.1-0.1,0.2-0.2,0.3-0.3c0.4-0.4,0.9-0.6,1.3-0.7c0.5,0,0.8,0.2,1,0.5s0.3,0.8,0.3,1.4
			c0,1.9,0,2.8,0,4.7c-0.6,0-0.9,0-1.5,0c0-1.9,0-2.8,0-4.7c0-0.4-0.1-0.6-0.3-0.6s-0.4,0.2-0.6,0.4c-0.1,0.1-0.2,0.2-0.3,0.3
			c0,1.8,0,2.7,0,4.6c-0.6,0-0.9,0-1.5,0c0-1.9,0-2.8,0-4.7c0-0.8,0-1.4-0.1-1.8c0.4,0,0.5,0,0.9,0
			C-161,234.2-160.8,234.4-160.7,234.6z"/>
		<path class="st5" d="M-154.7,233.9c0.6,0,0.9,0,1.5,0c0,0.5,0,0.7,0,1.2c-0.6,0-0.9,0-1.5,0c0,2.1,0,3.2,0,5.3c-0.6,0-0.9,0-1.5,0
			c0-2.1,0-3.2,0-5.3c-0.3,0-0.5,0-0.9,0c0-0.5,0-0.7,0-1.2c0.3,0,0.5,0,0.9,0c0-0.3,0-0.4,0-0.7c0-0.7,0.2-1.2,0.5-1.5
			c0.3-0.2,0.8-0.4,1.5-0.4c0.4,0,0.8,0,1.1,0.1c0,0.5,0,0.7,0,1.2c-0.3-0.1-0.6-0.1-0.9-0.1c-0.4,0-0.6,0.2-0.6,0.7
			C-154.7,233.5-154.7,233.6-154.7,233.9z"/>
		<path class="st5" d="M-148.5,237c0,1.2-0.2,2.1-0.5,2.6s-0.9,0.8-1.7,0.8s-1.3-0.2-1.7-0.7c-0.3-0.5-0.5-1.4-0.5-2.6
			s0.2-2.1,0.5-2.6s0.9-0.8,1.7-0.8s1.3,0.2,1.7,0.7C-148.7,234.9-148.5,235.8-148.5,237z M-150.7,234.8c-0.4,0-0.6,0.3-0.6,0.9
			c0,0.1,0,0.5,0,1.3s0,1.3,0,1.3c0.1,0.6,0.3,0.9,0.6,0.9s0.6-0.3,0.6-0.9c0-0.1,0-0.5,0-1.3s0-1.3,0-1.3
			C-150.1,235.1-150.3,234.8-150.7,234.8z"/>
		<path class="st5" d="M-145.9,234.8c0.2-0.2,0.4-0.4,0.6-0.6c0.4-0.4,0.7-0.6,1.1-0.6c0,0.7,0,1.1,0,1.9c-0.1-0.1-0.3-0.1-0.4-0.1
			c-0.2,0-0.5,0.1-0.8,0.4c-0.2,0.1-0.2,0.2-0.4,0.4c0,1.6,0,2.5,0,4.1c-0.6,0-0.9,0-1.5,0c0-1.9,0-2.8,0-4.7c0-0.8,0-1.4-0.1-1.8
			c0.4,0,0.5,0,0.9,0C-146.2,233.9-146,234.3-145.9,234.8z"/>
		<path class="st5" d="M-139.6,234.4l0.1-0.1c0.5-0.5,0.9-0.7,1.3-0.7c0.5,0,0.8,0.2,1,0.5s0.3,0.8,0.3,1.4c0,1.9,0,2.8,0,4.7
			c-0.6,0-0.9,0-1.5,0c0-1.9,0-2.8,0-4.7c0-0.4-0.1-0.6-0.3-0.6s-0.4,0.1-0.6,0.4c-0.1,0.1-0.1,0.1-0.1,0.2c0,1.9,0,2.8,0,4.7
			c-0.6,0-0.9,0-1.5,0c0-1.9,0-2.8,0-4.7c0-0.4-0.1-0.6-0.3-0.6s-0.4,0.1-0.6,0.4c-0.1,0.1-0.1,0.1-0.1,0.2c0,1.9,0,2.8,0,4.7
			c-0.6,0-0.9,0-1.5,0c0-1.9,0-2.8,0-4.7c0-0.8,0-1.4-0.1-1.8c0.4,0,0.5,0,0.9,0c0.2,0.1,0.4,0.4,0.5,0.7c0.1-0.1,0.1-0.1,0.1-0.1
			c0.5-0.5,0.9-0.7,1.3-0.7C-140.1,233.6-139.7,233.8-139.6,234.4z"/>
		<path class="st5" d="M-133.3,235.5c0-0.4-0.2-0.7-0.7-0.7s-1.1,0.2-1.7,0.6c0-0.6,0-0.8,0-1.4c0.7-0.3,1.3-0.4,1.9-0.4
			c0.7,0,1.2,0.2,1.5,0.5s0.5,0.9,0.5,1.6c0,1.1,0,1.6,0,2.7c0,0.9,0,1.5,0.1,1.8c-0.4,0-0.5,0-0.9,0c-0.2-0.1-0.3-0.3-0.5-0.6
			c0,0.1-0.1,0.1-0.1,0.1c-0.3,0.4-0.7,0.6-1.3,0.6c-1,0-1.5-0.6-1.5-1.9c0-0.7,0.2-1.2,0.5-1.6c0.4-0.4,0.9-0.6,1.6-0.6
			c0.2,0,0.3,0,0.5,0C-133.3,236-133.3,235.8-133.3,235.5z M-133.3,238.6c0-0.5,0-0.8,0-1.3c-0.1,0-0.2,0-0.4,0
			c-0.6,0-0.9,0.3-0.9,1c0,0.5,0.2,0.8,0.5,0.8c0.2,0,0.4-0.1,0.6-0.4C-133.4,238.8-133.3,238.8-133.3,238.6z"/>
		<path class="st5" d="M-127.5,240.1c-0.3,0.2-0.7,0.2-1.3,0.2c-0.5,0-0.9-0.1-1.1-0.4c-0.2-0.2-0.2-0.7-0.2-1.4c0-1.5,0-2.2,0-3.6
			c-0.3,0-0.5,0-0.9,0c0-0.5,0-0.7,0-1.2c0.3,0,0.5,0,0.9,0c0-0.6,0-0.9,0-1.5c0.6,0,0.9,0,1.5,0c0,0.6,0,0.9,0,1.5
			c0.5,0,0.7,0,1.1,0c0,0.5,0,0.7,0,1.2c-0.5,0-0.7,0-1.1,0c0,1.5,0,2.2,0,3.6c0,0.2,0,0.4,0.1,0.4c0.1,0.1,0.2,0.1,0.5,0.1
			c0.2,0,0.4,0,0.6-0.1C-127.5,239.5-127.5,239.6-127.5,240.1z"/>
		<path class="st5" d="M-125,233.9c0,2.6,0,3.9,0,6.5c-0.6,0-0.9,0-1.5,0c0-2.1,0-3.2,0-5.3c-0.3,0-0.4,0-0.7,0c0-0.5,0-0.7,0-1.2
			C-126.3,233.8-125.9,233.8-125,233.9z M-125.8,231.2c0.2,0,0.5,0.1,0.6,0.3c0.2,0.2,0.3,0.4,0.3,0.6c0,0.2-0.1,0.4-0.3,0.6
			c-0.2,0.2-0.4,0.3-0.6,0.2c-0.2,0-0.4-0.1-0.6-0.3s-0.3-0.4-0.3-0.6c0-0.3,0.1-0.5,0.3-0.6S-126,231.2-125.8,231.2z"/>
		<path class="st5" d="M-119.4,237.2c0,1.2-0.2,2.1-0.5,2.6s-0.9,0.7-1.7,0.7c-0.8,0-1.3-0.3-1.7-0.8c-0.3-0.5-0.5-1.4-0.5-2.6
			s0.2-2.1,0.5-2.6s0.9-0.7,1.7-0.7c0.8,0,1.3,0.3,1.7,0.8C-119.5,235.1-119.4,236-119.4,237.2z M-121.5,234.9
			c-0.4,0-0.6,0.3-0.6,0.9c0,0.1,0,0.5,0,1.3s0,1.3,0,1.3c0.1,0.6,0.3,0.9,0.6,1c0.4,0,0.6-0.3,0.6-0.9c0-0.1,0-0.5,0-1.3
			s0-1.3,0-1.3C-120.9,235.2-121.2,234.9-121.5,234.9z"/>
		<path class="st5" d="M-116.8,234.8c0.1-0.1,0.2-0.1,0.3-0.2c0.4-0.4,0.9-0.6,1.3-0.6c0.5,0,0.8,0.2,1,0.5s0.3,0.8,0.3,1.4
			c0,1.9,0,2.8,0,4.7c-0.6,0-0.9,0-1.5-0.1c0-1.9,0-2.8,0-4.7c0-0.4-0.1-0.6-0.3-0.6c-0.2,0-0.4,0.1-0.6,0.4
			c-0.1,0.1-0.2,0.2-0.3,0.3c0,1.8,0,2.7,0,4.6c-0.6,0-0.9,0-1.5,0c0-1.9,0-2.8,0-4.7c0-0.8,0-1.4-0.1-1.8c0.4,0,0.5,0,0.9,0
			C-117.1,234.2-116.9,234.4-116.8,234.8z"/>
		<path class="st5" d="M-106.9,234.6c0,0.6,0,0.9,0,1.5c-0.4-0.3-0.8-0.5-1.2-0.5c-0.3,0-0.5,0.1-0.6,0.3c-0.2,0.3-0.2,0.8-0.2,1.7
			c0,0.8,0.1,1.4,0.2,1.7c0.1,0.2,0.3,0.3,0.6,0.3c0.4,0,0.8-0.1,1.2-0.4c0,0.6,0,0.9,0,1.5c-0.5,0.2-1.1,0.3-1.6,0.2
			c-0.7,0-1.1-0.2-1.4-0.6c-0.4-0.5-0.5-1.4-0.5-2.8c0-1.4,0.2-2.3,0.6-2.7c0.3-0.4,0.7-0.5,1.4-0.5
			C-108,234.3-107.5,234.4-106.9,234.6z"/>
		<path class="st5" d="M-104.4,232.1c0,3.6,0,5.4,0,9c-0.6,0-0.9,0-1.5-0.1c0-3.1,0-4.7,0-7.8c-0.3,0-0.4,0-0.7,0c0-0.5,0-0.7,0-1.2
			C-105.6,232-105.2,232-104.4,232.1z"/>
		<path class="st5" d="M-100.6,236.5c0-0.4-0.2-0.7-0.7-0.7s-1.1,0.1-1.7,0.5c0-0.6,0-0.8,0-1.4c0.7-0.2,1.3-0.4,1.9-0.3
			c0.7,0,1.2,0.2,1.5,0.6c0.3,0.3,0.5,0.9,0.5,1.6c0,1.1,0,1.6,0,2.7c0,0.9,0,1.5,0.1,1.8c-0.4,0-0.5,0-0.9,0
			c-0.2-0.1-0.3-0.3-0.5-0.6l-0.1,0.1c-0.3,0.4-0.7,0.5-1.3,0.5c-1-0.1-1.5-0.7-1.5-2c0-0.7,0.2-1.2,0.5-1.6
			c0.4-0.4,0.9-0.6,1.6-0.5c0.2,0,0.3,0,0.5,0C-100.6,237-100.6,236.8-100.6,236.5z M-100.6,239.6c0-0.5,0-0.8,0-1.3
			c-0.1,0-0.2,0-0.4,0c-0.6,0-0.9,0.3-0.9,1c0,0.5,0.2,0.8,0.5,0.8c0.2,0,0.4-0.1,0.6-0.4C-100.7,239.8-100.7,239.8-100.6,239.6z"/>
		<path class="st5" d="M-96.3,236c0.2-0.2,0.4-0.3,0.6-0.6c0.4-0.4,0.7-0.5,1.1-0.5c0,0.7,0,1.1,0,1.9c-0.1-0.1-0.3-0.1-0.4-0.1
			c-0.2,0-0.5,0.1-0.8,0.3c-0.2,0.1-0.2,0.2-0.4,0.3c0,1.6,0,2.5,0,4.1c-0.6,0-0.9-0.1-1.5-0.1c0-1.9,0-2.8,0-4.7
			c0-0.8,0-1.4-0.1-1.8c0.4,0,0.5,0,0.9,0.1C-96.7,235.1-96.4,235.5-96.3,236z"/>
		<path class="st5" d="M-92.2,235.2c0,2.6,0,3.9,0,6.5c-0.6,0-0.9-0.1-1.5-0.1c0-2.1,0-3.2,0-5.3c-0.3,0-0.4,0-0.7,0
			c0-0.5,0-0.7,0-1.2C-93.5,235.1-93.1,235.2-92.2,235.2z M-93,232.6c0.2,0,0.5,0.1,0.6,0.3c0.2,0.2,0.3,0.4,0.3,0.6
			c0,0.2-0.1,0.4-0.3,0.6c-0.2,0.2-0.4,0.2-0.6,0.2s-0.4-0.1-0.6-0.3s-0.3-0.4-0.3-0.6c0-0.3,0.1-0.5,0.3-0.6
			C-93.4,232.6-93.2,232.6-93,232.6z"/>
		<path class="st5" d="M-88.9,235.4c0.6,0,0.9,0.1,1.5,0.1c0,0.5,0,0.7,0,1.2c-0.6,0-0.9-0.1-1.5-0.1c0,2.1,0,3.2,0,5.3
			c-0.6,0-0.9-0.1-1.5-0.1c0-2.1,0-3.2,0-5.3c-0.3,0-0.5,0-0.9-0.1c0-0.5,0-0.7,0-1.2c0.3,0,0.5,0,0.9,0.1c0-0.3,0-0.4,0-0.7
			c0-0.7,0.2-1.2,0.5-1.5c0.3-0.2,0.8-0.3,1.5-0.2c0.4,0,0.7,0.1,1.1,0.2c0,0.5,0,0.7,0,1.2c-0.3-0.1-0.6-0.2-0.9-0.2
			s-0.6,0.2-0.6,0.6C-88.9,235-88.9,235.2-88.9,235.4z"/>
		<path class="st5" d="M-85.3,235.6c0,2.6,0,3.9,0,6.5c-0.6,0-0.9-0.1-1.5-0.1c0-2.1,0-3.2,0-5.3c-0.3,0-0.4,0-0.7,0
			c0-0.5,0-0.7,0-1.2C-86.7,235.6-86.2,235.6-85.3,235.6z M-86.1,233c0.2,0,0.5,0.1,0.6,0.3c0.2,0.2,0.3,0.4,0.3,0.6
			c0,0.2-0.1,0.4-0.3,0.6c-0.2,0.2-0.4,0.2-0.6,0.2s-0.4-0.1-0.6-0.3s-0.3-0.4-0.3-0.6c0-0.3,0.1-0.5,0.3-0.6
			C-86.6,233.1-86.4,233-86.1,233z"/>
		<path class="st5" d="M-80.1,241c0,0.5,0,0.8,0,1.3c-0.7,0.2-1.3,0.3-1.8,0.3c-0.7-0.1-1.2-0.3-1.5-0.7c-0.4-0.5-0.6-1.5-0.6-2.8
			c0-1.2,0.2-2.1,0.5-2.6s0.9-0.7,1.7-0.6c0.6,0,1.1,0.2,1.4,0.6s0.4,0.9,0.4,1.6c0,0.6,0,0.9,0,1.4c-1-0.1-1.5-0.1-2.6-0.2
			c0,0.5,0,0.9,0,1c0.1,0.4,0.2,0.7,0.4,0.9c0.1,0.1,0.3,0.2,0.5,0.2C-81.1,241.4-80.6,241.3-80.1,241z M-81.3,238.2
			c0-0.4,0-0.7,0-0.8c-0.1-0.3-0.2-0.5-0.5-0.5c-0.2,0-0.4,0.1-0.5,0.2c-0.1,0.2-0.1,0.5-0.2,1C-82,238.2-81.8,238.2-81.3,238.2
			L-81.3,238.2z"/>
		<path class="st5" d="M-76.1,236.8c0-1.2,0-1.7,0-2.9c0.6,0.1,0.9,0.1,1.5,0.1c0,2.9,0,4.3,0,7.2c0,0.8,0,1.4,0.1,1.8
			c-0.4,0-0.5,0-0.9-0.1c-0.2-0.1-0.4-0.4-0.5-0.7c-0.5,0.5-1,0.7-1.4,0.6c-0.5,0-0.9-0.3-1.2-0.8c-0.3-0.6-0.4-1.5-0.4-2.7
			s0.1-2.1,0.4-2.6c0.2-0.5,0.6-0.7,1.2-0.6C-76.9,236.2-76.5,236.4-76.1,236.8z M-76.1,241.2c0-1.2,0-1.9,0-3.1
			c-0.1-0.1-0.1-0.1-0.2-0.2c-0.2-0.3-0.4-0.4-0.6-0.4s-0.3,0.1-0.3,0.3c-0.1,0.3-0.2,0.9-0.2,1.8s0.1,1.6,0.2,1.9
			c0.1,0.2,0.2,0.3,0.3,0.3c0.2,0,0.4-0.1,0.6-0.3C-76.2,241.3-76.2,241.3-76.1,241.2z"/>
		<path class="st5" d="M-205.9,252.5c0,0.6,0,0.9,0,1.5c-0.4-0.2-0.8-0.4-1.2-0.3c-0.3,0-0.5,0.1-0.6,0.3c-0.2,0.3-0.2,0.9-0.2,1.7
			c0,0.8,0.1,1.4,0.2,1.7c0.1,0.2,0.3,0.3,0.6,0.2c0.4,0,0.8-0.2,1.2-0.5c0,0.6,0,0.9,0,1.5c-0.5,0.3-1.1,0.4-1.6,0.5
			c-0.7,0.1-1.1-0.1-1.4-0.4c-0.4-0.5-0.5-1.4-0.5-2.7c0-1.4,0.2-2.3,0.6-2.8c0.3-0.4,0.7-0.6,1.4-0.7
			C-207,252.3-206.5,252.3-205.9,252.5z"/>
		<path class="st5" d="M-200.9,255c0,1.2-0.2,2.1-0.5,2.7c-0.3,0.5-0.9,0.8-1.6,0.9c-0.8,0.1-1.3-0.1-1.7-0.6
			c-0.3-0.5-0.5-1.3-0.5-2.6s0.2-2.1,0.5-2.7c0.3-0.5,0.9-0.8,1.7-0.9s1.3,0.1,1.6,0.6C-201,253-200.9,253.8-200.9,255z M-203,253
			c-0.4,0-0.6,0.4-0.6,1c0,0.1,0,0.5,0,1.3c0,0.8,0,1.3,0,1.3c0.1,0.6,0.3,0.9,0.6,0.9s0.6-0.4,0.6-1c0-0.1,0-0.5,0-1.3s0-1.3,0-1.3
			C-202.4,253.2-202.6,252.9-203,253z"/>
		<path class="st5" d="M-195.7,252.1l0.1-0.1c0.4-0.5,0.9-0.7,1.3-0.8c0.5,0,0.8,0.1,1,0.4s0.3,0.8,0.3,1.4c0,1.9,0,2.8,0,4.7
			c-0.6,0-0.9,0.1-1.5,0.1c0-1.9,0-2.8,0-4.7c0-0.4-0.1-0.6-0.3-0.6s-0.4,0.2-0.6,0.5c-0.1,0.1-0.1,0.1-0.1,0.2c0,1.9,0,2.8,0,4.7
			c-0.6,0-0.9,0.1-1.5,0.1c0-1.9,0-2.8,0-4.7c0-0.4-0.1-0.6-0.3-0.6s-0.4,0.2-0.6,0.5c-0.1,0.1-0.1,0.1-0.1,0.2c0,1.9,0,2.8,0,4.7
			c-0.6,0-0.9,0.1-1.5,0.1c0-1.9,0-2.8,0-4.7c0-0.8,0-1.4-0.1-1.8c0.4,0,0.5,0,0.9-0.1c0.2,0.1,0.4,0.3,0.5,0.6
			c0.1-0.1,0.1-0.1,0.1-0.2c0.5-0.5,0.9-0.7,1.3-0.8C-196.2,251.3-195.9,251.6-195.7,252.1z"/>
		<path class="st5" d="M-187.8,251.5l0.1-0.1c0.5-0.5,0.9-0.7,1.3-0.8c0.5,0,0.8,0.1,1,0.4s0.3,0.8,0.3,1.4c0,1.9,0,2.8,0,4.7
			c-0.6,0-0.9,0.1-1.5,0.1c0-1.9,0-2.8,0-4.7c0-0.4-0.1-0.6-0.3-0.6s-0.4,0.2-0.6,0.5c-0.1,0.1-0.1,0.1-0.1,0.2c0,1.9,0,2.8,0,4.7
			c-0.6,0-0.9,0.1-1.5,0.1c0-1.9,0-2.8,0-4.7c0-0.4-0.1-0.6-0.3-0.6s-0.4,0.2-0.6,0.5c-0.1,0.1-0.1,0.1-0.1,0.2c0,1.9,0,2.8,0,4.7
			c-0.6,0-0.9,0.1-1.5,0.1c0-1.9,0-2.8,0-4.7c0-0.8,0-1.4-0.1-1.8c0.4,0,0.5,0,0.9-0.1c0.2,0.1,0.4,0.3,0.5,0.7
			c0.1-0.1,0.1-0.1,0.1-0.2c0.5-0.5,0.9-0.7,1.3-0.8C-188.3,250.8-187.9,251-187.8,251.5z"/>
		<path class="st5" d="M-179.6,253.6c0,1.2-0.2,2.1-0.5,2.7c-0.3,0.5-0.9,0.8-1.7,0.8s-1.3-0.2-1.7-0.7c-0.3-0.5-0.5-1.3-0.5-2.6
			s0.2-2.1,0.5-2.7c0.3-0.5,0.9-0.8,1.7-0.8s1.3,0.2,1.7,0.7C-179.8,251.5-179.6,252.4-179.6,253.6z M-181.7,251.5
			c-0.4,0-0.6,0.3-0.6,1c0,0.1,0,0.5,0,1.3s0,1.3,0,1.3c0.1,0.6,0.3,0.9,0.6,0.9c0.4,0,0.6-0.3,0.6-1c0-0.1,0-0.5,0-1.3s0-1.3,0-1.3
			C-181.2,251.8-181.4,251.5-181.7,251.5z"/>
		<path class="st5" d="M-177,251c0.1-0.1,0.2-0.2,0.3-0.3c0.4-0.4,0.9-0.7,1.3-0.7c0.5,0,0.8,0.1,1,0.5c0.2,0.3,0.3,0.8,0.3,1.4
			c0,1.9,0,2.8,0,4.7c-0.6,0-0.9,0-1.5,0.1c0-1.9,0-2.8,0-4.7c0-0.4-0.1-0.6-0.3-0.6s-0.4,0.2-0.6,0.5c-0.1,0.1-0.2,0.2-0.3,0.3
			c0,1.8,0,2.7,0,4.6c-0.6,0-0.9,0-1.5,0.1c0-1.9,0-2.8,0-4.7c0-0.8,0-1.4-0.1-1.8c0.4,0,0.5,0,0.9,0
			C-177.4,250.4-177.2,250.6-177,251z"/>
		<path class="st5" d="M-167.9,250.3c0-1.2,0-1.7,0-2.9c0.6,0,0.9,0,1.5-0.1c0,2.9,0,4.3,0,7.2c0,0.8,0,1.4,0.1,1.8
			c-0.4,0-0.5,0-0.9,0c-0.2-0.1-0.4-0.3-0.5-0.6c-0.5,0.5-1,0.8-1.4,0.8c-0.5,0-0.9-0.2-1.2-0.7c-0.3-0.5-0.4-1.4-0.4-2.6
			s0.1-2.1,0.4-2.7c0.2-0.5,0.6-0.7,1.2-0.8C-168.7,249.6-168.3,249.9-167.9,250.3z M-167.9,254.6c0-1.2,0-1.9,0-3.1
			c-0.1-0.1-0.1-0.1-0.2-0.2c-0.2-0.2-0.4-0.4-0.6-0.4c-0.2,0-0.3,0.1-0.3,0.3c-0.1,0.3-0.2,0.9-0.2,1.9s0.1,1.6,0.2,1.8
			c0.1,0.2,0.2,0.3,0.3,0.3c0.2,0,0.4-0.1,0.6-0.4C-168,254.8-168,254.6-167.9,254.6z"/>
		<path class="st5" d="M-163.3,249.6c0,2.6,0,3.9,0,6.5c-0.6,0-0.9,0-1.5,0c0-2.1,0-3.2,0-5.3c-0.3,0-0.4,0-0.7,0c0-0.5,0-0.7,0-1.2
			C-164.6,249.6-164.2,249.6-163.3,249.6z M-164.1,247.1c0.2,0,0.5,0.1,0.6,0.2s0.3,0.4,0.3,0.6c0,0.2-0.1,0.5-0.3,0.6
			s-0.4,0.3-0.6,0.3c-0.2,0-0.4-0.1-0.6-0.2c-0.2-0.2-0.3-0.4-0.3-0.6c0-0.3,0.1-0.5,0.3-0.6C-164.5,247.2-164.3,247.1-164.1,247.1z
			"/>
		<path class="st5" d="M-158,254.4c0,0.5,0,0.8,0,1.3c-0.7,0.3-1.3,0.5-1.8,0.5c-0.7,0-1.2-0.2-1.5-0.6c-0.4-0.5-0.6-1.4-0.6-2.7
			c0-1.2,0.2-2.1,0.5-2.6s0.9-0.8,1.7-0.8c0.6,0,1.1,0.1,1.4,0.4s0.4,0.8,0.4,1.6c0,0.6,0,0.9,0,1.4c-1,0-1.5,0-2.6,0.1
			c0,0.5,0,0.9,0,1c0.1,0.4,0.2,0.7,0.4,0.8c0.1,0.1,0.3,0.1,0.5,0.1C-159,255-158.5,254.8-158,254.4z M-159.3,251.8
			c0-0.4,0-0.7,0-0.8c-0.1-0.3-0.2-0.4-0.5-0.4c-0.2,0-0.4,0.1-0.5,0.3s-0.1,0.5-0.2,1C-160,251.9-159.7,251.9-159.3,251.8
			L-159.3,251.8z"/>
		<path class="st5" d="M-153.8,255.8c-0.3,0.2-0.7,0.3-1.3,0.3c-0.5,0-0.9-0.1-1.1-0.3c-0.2-0.2-0.2-0.7-0.2-1.4c0-1.5,0-2.2,0-3.6
			c-0.3,0-0.5,0-0.9,0c0-0.5,0-0.7,0-1.2c0.3,0,0.5,0,0.9,0c0-0.6,0-0.9,0-1.5c0.6,0,0.9,0,1.5,0c0,0.6,0,0.9,0,1.5
			c0.5,0,0.7,0,1.1,0c0,0.5,0,0.7,0,1.2c-0.5,0-0.7,0-1.1,0c0,1.5,0,2.2,0,3.6c0,0.2,0,0.3,0.1,0.4s0.2,0.1,0.5,0.1
			c0.2,0,0.4,0,0.6-0.1C-153.8,255-153.8,255.3-153.8,255.8z"/>
		<path class="st5" d="M-151.2,249.4c0,2.6,0,3.9,0,6.5c-0.6,0-0.9,0-1.5,0c0-2.1,0-3.2,0-5.3c-0.3,0-0.4,0-0.7,0c0-0.5,0-0.7,0-1.2
			C-152.5,249.4-152.1,249.4-151.2,249.4z M-152,246.8c0.2,0,0.5,0.1,0.6,0.2c0.2,0.2,0.3,0.4,0.3,0.6c0,0.2-0.1,0.5-0.3,0.6
			c-0.2,0.2-0.4,0.3-0.6,0.3c-0.2,0-0.4-0.1-0.6-0.2c-0.2-0.2-0.3-0.4-0.3-0.6c0-0.3,0.1-0.5,0.3-0.6
			C-152.5,246.9-152.2,246.8-152,246.8z"/>
		<path class="st5" d="M-148.4,250.1c0.1-0.1,0.2-0.2,0.3-0.3c0.4-0.4,0.9-0.6,1.3-0.6c0.5,0,0.8,0.2,1,0.5s0.3,0.8,0.3,1.4
			c0,1.9,0,2.8,0,4.7c-0.6,0-0.9,0-1.5,0c0-1.9,0-2.8,0-4.7c0-0.4-0.1-0.6-0.3-0.6s-0.4,0.1-0.6,0.4c-0.1,0.1-0.2,0.2-0.3,0.3
			c0,1.8,0,2.7,0,4.6c-0.6,0-0.9,0-1.5,0c0-1.9,0-2.8,0-4.7c0-0.8,0-1.4-0.1-1.8c0.4,0,0.5,0,0.9,0
			C-148.7,249.5-148.6,249.6-148.4,250.1z"/>
		<path class="st5" d="M-140.1,256.2c0,0.7-0.2,1.3-0.5,1.6c-0.3,0.3-0.9,0.5-1.5,0.5c-0.5,0-1.1-0.1-1.8-0.4c0-0.5,0-0.8,0-1.4
			c0.6,0.4,1.1,0.6,1.6,0.6s0.8-0.3,0.8-0.8c0-0.4,0-0.6,0-1c-0.4,0.4-0.8,0.6-1.2,0.6c-0.5,0-0.9-0.2-1.2-0.7s-0.4-1.4-0.4-2.7
			s0.1-2.1,0.4-2.7c0.2-0.5,0.6-0.7,1.2-0.7c0.4,0,0.9,0.3,1.4,0.8c0.1-0.3,0.3-0.5,0.5-0.6c0.4,0,0.5,0,0.9,0
			c-0.1,0.4-0.1,1-0.1,1.8C-140.1,253.2-140.1,254.2-140.1,256.2z M-141.6,251c-0.1-0.1-0.1-0.1-0.2-0.2c-0.2-0.3-0.4-0.4-0.6-0.4
			c-0.2,0-0.3,0.1-0.3,0.3c-0.1,0.3-0.2,0.9-0.2,1.9s0.1,1.6,0.2,1.8c0.1,0.2,0.2,0.3,0.3,0.3c0.2,0,0.4-0.1,0.6-0.4
			c0.1-0.1,0.1-0.1,0.2-0.2C-141.6,252.9-141.6,252.3-141.6,251z"/>
		<path class="st5" d="M-132.5,250l0.1-0.1c0.5-0.4,0.9-0.7,1.3-0.7c0.5,0,0.8,0.2,1,0.5s0.3,0.8,0.3,1.4c0,1.9,0,2.8,0,4.7
			c-0.6,0-0.9,0-1.5,0c0-1.9,0-2.8,0-4.7c0-0.4-0.1-0.6-0.3-0.6s-0.4,0.1-0.6,0.4c-0.1,0.1-0.1,0.1-0.1,0.2c0,1.9,0,2.8,0,4.7
			c-0.6,0-0.9,0-1.5,0c0-1.9,0-2.8,0-4.7c0-0.4-0.1-0.6-0.3-0.6s-0.4,0.1-0.6,0.4c-0.1,0.1-0.1,0.1-0.1,0.2c0,1.9,0,2.8,0,4.7
			c-0.6,0-0.9,0-1.5,0c0-1.9,0-2.8,0-4.7c0-0.8,0-1.4-0.1-1.8c0.4,0,0.5,0,0.9,0c0.2,0.1,0.4,0.4,0.5,0.7c0.1-0.1,0.1-0.1,0.1-0.1
			c0.5-0.4,0.9-0.7,1.3-0.7C-133,249.2-132.6,249.5-132.5,250z"/>
		<path class="st5" d="M-126.7,249.4c0,2.6,0,3.9,0,6.5c-0.6,0-0.9,0-1.5,0c0-2.1,0-3.2,0-5.3c-0.3,0-0.4,0-0.7,0c0-0.5,0-0.7,0-1.2
			C-128,249.4-127.6,249.4-126.7,249.4z M-127.5,246.8c0.2,0,0.5,0.1,0.6,0.3s0.3,0.4,0.3,0.6c0,0.2-0.1,0.4-0.3,0.6
			c-0.2,0.2-0.4,0.3-0.6,0.2c-0.2,0-0.4-0.1-0.6-0.3c-0.2-0.2-0.3-0.4-0.3-0.6c0-0.3,0.1-0.5,0.3-0.6
			C-127.9,246.9-127.7,246.8-127.5,246.8z"/>
		<path class="st5" d="M-122.1,249.6c0,0.5,0,0.8,0,1.3c-0.6-0.3-1.1-0.5-1.6-0.5c-0.4,0-0.6,0.2-0.6,0.7c0,0.4,0.2,0.7,0.6,0.7
			c1.4,0,2,0.8,2,2.2c0,1.4-0.7,2-2.1,2c-0.6,0-1.1-0.1-1.6-0.3c0-0.5,0-0.8,0-1.3c0.6,0.3,1.1,0.4,1.6,0.4s0.8-0.3,0.8-0.8
			c0-0.5-0.3-0.7-0.8-0.7c-0.6,0-1-0.2-1.3-0.4c-0.4-0.3-0.6-0.9-0.6-1.7c0-1.3,0.6-1.9,1.9-1.9
			C-123.2,249.4-122.7,249.5-122.1,249.6z"/>
		<path class="st5" d="M-117.4,249.9c0,0.6,0,0.9,0,1.5c-0.4-0.3-0.8-0.5-1.2-0.5c-0.3,0-0.5,0.1-0.6,0.3c-0.2,0.3-0.2,0.8-0.2,1.7
			c0,0.8,0.1,1.4,0.2,1.7c0.1,0.2,0.3,0.3,0.6,0.3c0.4,0,0.8-0.1,1.2-0.4c0,0.6,0,0.9,0,1.5c-0.5,0.2-1.1,0.3-1.6,0.3
			c-0.7,0-1.1-0.2-1.4-0.6c-0.4-0.5-0.5-1.4-0.5-2.8s0.2-2.3,0.6-2.8c0.3-0.4,0.7-0.5,1.4-0.5C-118.5,249.5-117.9,249.6-117.4,249.9
			z"/>
		<path class="st5" d="M-112.3,253.1c0,1.2-0.2,2.1-0.5,2.6c-0.3,0.5-0.9,0.7-1.7,0.7c-0.8,0-1.3-0.3-1.7-0.8
			c-0.3-0.5-0.5-1.4-0.5-2.6s0.2-2.1,0.5-2.6s0.9-0.7,1.7-0.7c0.8,0,1.3,0.3,1.7,0.8C-112.5,250.9-112.3,251.8-112.3,253.1z
			 M-114.4,250.6c-0.4,0-0.6,0.3-0.6,0.9c0,0.1,0,0.5,0,1.3s0,1.3,0,1.3c0.1,0.6,0.3,0.9,0.6,1c0.3,0.1,0.6-0.3,0.6-0.9
			c0-0.1,0-0.5,0-1.3s0-1.3,0-1.3C-113.9,251.1-114.1,250.6-114.4,250.6z"/>
		<path class="st5" d="M-109.7,250.6c0.1-0.1,0.2-0.1,0.3-0.2c0.4-0.4,0.9-0.6,1.3-0.6c0.5,0,0.8,0.2,1,0.6c0.2,0.3,0.3,0.8,0.3,1.4
			c0,1.9,0,2.8,0,4.7c-0.6,0-0.9,0-1.5-0.1c0-1.9,0-2.8,0-4.7c0-0.4-0.1-0.6-0.3-0.6c-0.2,0-0.4,0.1-0.6,0.4
			c-0.1,0.1-0.2,0.2-0.3,0.3c0,1.8,0,2.7,0,4.6c-0.6,0-0.9,0-1.5-0.1c0-1.9,0-2.8,0-4.7c0-0.8,0-1.4-0.1-1.8c0.4,0,0.5,0,0.9,0
			C-110.1,250-109.9,250.3-109.7,250.6z"/>
		<path class="st5" d="M-102.2,250.5c0,0.6,0,0.9,0,1.5c-0.4-0.3-0.8-0.5-1.2-0.5c-0.3,0-0.5,0.1-0.6,0.3c-0.2,0.3-0.2,0.8-0.2,1.7
			c0,0.8,0.1,1.4,0.2,1.7c0.1,0.2,0.3,0.3,0.6,0.3c0.4,0,0.8-0.1,1.2-0.4c0,0.6,0,0.9,0,1.5c-0.5,0.2-1.1,0.3-1.6,0.2
			c-0.7,0-1.1-0.2-1.4-0.6c-0.4-0.5-0.5-1.4-0.5-2.8c0-1.4,0.2-2.3,0.6-2.7c0.3-0.4,0.7-0.5,1.4-0.5
			C-103.3,250.1-102.8,250.3-102.2,250.5z"/>
		<path class="st5" d="M-97.5,255.4c0,0.5,0,0.8,0,1.3c-0.7,0.2-1.3,0.3-1.8,0.3c-0.7,0-1.2-0.3-1.5-0.7c-0.4-0.5-0.6-1.5-0.6-2.8
			c0-1.2,0.2-2.1,0.5-2.6s0.9-0.7,1.7-0.7c0.6,0,1.1,0.2,1.4,0.6c0.3,0.3,0.4,0.9,0.4,1.6c0,0.6,0,0.9,0,1.4c-1-0.1-1.5-0.1-2.6-0.1
			c0,0.5,0,0.9,0,1c0.1,0.4,0.2,0.7,0.4,0.9c0.1,0.1,0.3,0.1,0.5,0.2C-98.5,255.8-98,255.8-97.5,255.4z M-98.7,252.6
			c0-0.4,0-0.7,0-0.8c-0.1-0.3-0.2-0.5-0.5-0.5c-0.2,0-0.4,0.1-0.5,0.2c-0.1,0.2-0.1,0.5-0.2,1C-99.4,252.6-99.2,252.6-98.7,252.6
			L-98.7,252.6z"/>
		<path class="st5" d="M-94.6,256.8c0,1.2,0,1.7,0,2.9c-0.6,0-0.9-0.1-1.5-0.1c0-2.9,0-4.3,0-7.2c0-0.8,0-1.4-0.1-1.8
			c0.4,0,0.5,0,0.9,0.1c0.2,0.1,0.4,0.4,0.5,0.7c0.5-0.5,1-0.7,1.4-0.7c0.5,0,0.9,0.3,1.2,0.8c0.3,0.6,0.4,1.5,0.4,2.7
			c0,1.2-0.1,2.1-0.4,2.6c-0.2,0.5-0.6,0.7-1.2,0.6C-93.8,257.2-94.2,257-94.6,256.8z M-94.6,255.5c0.1,0.1,0.1,0.1,0.2,0.2
			c0.2,0.3,0.4,0.4,0.6,0.4s0.3-0.1,0.3-0.3c0.1-0.3,0.2-0.9,0.2-1.8c0-0.9-0.1-1.6-0.2-1.9c-0.1-0.2-0.2-0.3-0.3-0.3
			c-0.2,0-0.4,0.1-0.6,0.3c-0.1,0.1-0.1,0.1-0.2,0.2C-94.6,253.6-94.6,254.2-94.6,255.5z"/>
		<path class="st5" d="M-87.7,257.4c-0.3,0.2-0.7,0.2-1.3,0.2c-0.5,0-0.9-0.2-1.1-0.4s-0.2-0.7-0.2-1.5c0-1.5,0-2.2,0-3.6
			c-0.3,0-0.5,0-0.9-0.1c0-0.5,0-0.7,0-1.2c0.3,0,0.5,0,0.9,0.1c0-0.6,0-0.9,0-1.5c0.6,0,0.9,0.1,1.5,0.1c0,0.6,0,0.9,0,1.5
			c0.5,0,0.7,0,1.1,0.1c0,0.5,0,0.7,0,1.2c-0.5,0-0.7,0-1.1-0.1c0,1.5,0,2.2,0,3.6c0,0.2,0,0.4,0.1,0.4c0.1,0.1,0.2,0.1,0.4,0.1
			c0.2,0,0.4,0,0.6-0.1C-87.7,256.8-87.7,257-87.7,257.4z"/>
		<path class="st5" d="M-85.2,251.3c0,2.6,0,3.9,0,6.5c-0.6,0-0.9-0.1-1.5-0.1c0-2.1,0-3.2,0-5.3c-0.3,0-0.4,0-0.7,0
			c0-0.5,0-0.7,0-1.2C-86.5,251.2-86.1,251.2-85.2,251.3z M-86,248.6c0.2,0,0.5,0.1,0.6,0.3c0.2,0.2,0.3,0.4,0.3,0.6
			c0,0.2-0.1,0.4-0.3,0.6c-0.2,0.2-0.4,0.2-0.6,0.2s-0.4-0.1-0.6-0.3s-0.3-0.4-0.3-0.6c0-0.3,0.1-0.5,0.3-0.6S-86.2,248.6-86,248.6z
			"/>
		<path class="st5" d="M-79.6,255c0,1.2-0.2,2.1-0.5,2.6s-0.9,0.7-1.6,0.6c-0.8-0.1-1.3-0.4-1.7-0.9c-0.3-0.5-0.5-1.4-0.5-2.7
			c0-1.3,0.2-2.1,0.5-2.6s0.9-0.7,1.7-0.6c0.8,0.1,1.3,0.4,1.6,0.9C-79.7,252.8-79.6,253.6-79.6,255z M-81.7,252.5
			c-0.4,0-0.6,0.3-0.6,0.9c0,0.1,0,0.5,0,1.3s0,1.3,0,1.3c0.1,0.6,0.3,1,0.6,1s0.6-0.3,0.6-0.9c0-0.1,0-0.5,0-1.3c0-0.8,0-1.3,0-1.3
			C-81.1,252.9-81.4,252.6-81.7,252.5z"/>
		<path class="st5" d="M-77,252.6c0.1-0.1,0.2-0.1,0.3-0.2c0.4-0.4,0.9-0.5,1.3-0.5c0.5,0,0.8,0.2,1,0.6c0.2,0.3,0.3,0.8,0.3,1.4
			c0,1.9,0,2.8,0,4.7c-0.6-0.1-0.9-0.1-1.5-0.1c0-1.9,0-2.8,0-4.7c0-0.4-0.1-0.6-0.3-0.6c-0.2,0-0.4,0.1-0.6,0.4
			c-0.1,0.1-0.2,0.2-0.3,0.3c0,1.8,0,2.7,0,4.6c-0.6-0.1-0.9-0.1-1.5-0.1c0-1.9,0-2.8,0-4.7c0-0.8,0-1.4-0.1-1.8
			c0.4,0,0.5,0,0.9,0.1C-77.3,252.1-77.1,252.3-77,252.6z"/>
		<path class="st5" d="M-69.7,252.8c0,0.5,0,0.8,0,1.3c-0.6-0.4-1.1-0.6-1.6-0.6c-0.4,0-0.6,0.2-0.6,0.6s0.2,0.7,0.6,0.7
			c1.3,0.1,2,0.9,2,2.3c0,1.4-0.7,2-2,1.9c-0.6-0.1-1.1-0.2-1.6-0.4c0-0.5,0-0.8,0-1.3c0.6,0.3,1.1,0.5,1.6,0.5s0.8-0.2,0.8-0.8
			c0-0.5-0.3-0.7-0.8-0.8c-0.6-0.1-1-0.2-1.3-0.5c-0.4-0.4-0.6-0.9-0.6-1.7c0-1.3,0.6-1.9,1.9-1.7
			C-70.8,252.4-70.3,252.5-69.7,252.8z"/>
		<path class="st5" d="M-207,269.8c0-0.4-0.2-0.6-0.7-0.6s-1.1,0.3-1.7,0.7c0-0.6,0-0.8,0-1.4c0.7-0.3,1.3-0.5,1.9-0.6
			c0.7-0.1,1.2,0.1,1.5,0.3c0.3,0.3,0.5,0.8,0.5,1.6c0,1.1,0,1.6,0,2.7c0,0.9,0,1.5,0.1,1.8c-0.4,0-0.5,0-0.9,0.1
			c-0.2-0.1-0.3-0.3-0.5-0.5c0,0.1-0.1,0.1-0.1,0.1c-0.3,0.4-0.7,0.7-1.3,0.7c-1,0.1-1.5-0.5-1.5-1.8c0-0.7,0.2-1.2,0.5-1.6
			c0.4-0.4,0.9-0.7,1.6-0.8c0.2,0,0.3,0,0.5,0C-207,270.2-207,270-207,269.8z M-207,272.9c0-0.5,0-0.8,0-1.3c-0.1,0-0.2,0-0.4,0
			c-0.6,0.1-0.9,0.4-0.9,1.1c0,0.5,0.2,0.8,0.5,0.8c0.2,0,0.4-0.2,0.6-0.5C-207.1,273-207.1,273-207,272.9z"/>
		<path class="st5" d="M-202.8,268.2c0.1-0.1,0.2-0.2,0.3-0.3c0.4-0.5,0.9-0.7,1.3-0.7c0.5,0,0.8,0.1,1,0.4s0.3,0.8,0.3,1.4
			c0,1.9,0,2.8,0,4.7c-0.6,0-0.9,0.1-1.5,0.1c0-1.9,0-2.8,0-4.7c0-0.4-0.1-0.6-0.3-0.6s-0.4,0.2-0.6,0.5c-0.1,0.1-0.2,0.2-0.3,0.3
			c0,1.8,0,2.7,0,4.6c-0.6,0.1-0.9,0.1-1.5,0.1c0-1.9,0-2.8,0-4.7c0-0.8,0-1.4-0.1-1.8c0.4,0,0.5,0,0.9-0.1
			C-203.2,267.8-203,268-202.8,268.2z"/>
		<path class="st5" d="M-196.1,267.5c0-1.2,0-1.7,0-2.9c0.6,0,0.9-0.1,1.5-0.1c0,2.9,0,4.3,0,7.2c0,0.8,0,1.4,0.1,1.8
			c-0.4,0-0.5,0-0.9,0.1c-0.2-0.1-0.4-0.3-0.5-0.6c-0.5,0.5-1,0.8-1.4,0.9c-0.5,0-0.9-0.2-1.2-0.6c-0.3-0.5-0.4-1.4-0.4-2.6
			s0.1-2.1,0.4-2.7c0.2-0.5,0.6-0.8,1.2-0.8C-196.9,267-196.5,267-196.1,267.5z M-196.1,271.8c0-1.2,0-1.9,0-3.1
			c-0.1-0.1-0.1-0.1-0.2-0.2c-0.2-0.2-0.4-0.3-0.6-0.3c-0.2,0-0.3,0.1-0.3,0.3c-0.1,0.3-0.2,0.9-0.2,1.9s0.1,1.6,0.2,1.8
			c0.1,0.2,0.2,0.3,0.3,0.3c0.2,0,0.4-0.2,0.6-0.4C-196.2,272-196.1,271.9-196.1,271.8z"/>
		<path class="st5" d="M-186.9,267l0.1-0.1c0.5-0.5,0.9-0.7,1.3-0.8c0.5,0,0.8,0.1,1,0.4s0.3,0.8,0.3,1.4c0,1.9,0,2.8,0,4.7
			c-0.6,0-0.9,0.1-1.5,0.1c0-1.9,0-2.8,0-4.7c0-0.4-0.1-0.6-0.3-0.6s-0.4,0.2-0.6,0.5c-0.1,0.1-0.1,0.1-0.1,0.2c0,1.9,0,2.8,0,4.7
			c-0.6,0-0.9,0.1-1.5,0.1c0-1.9,0-2.8,0-4.7c0-0.4-0.1-0.6-0.3-0.6s-0.4,0.2-0.6,0.5c-0.1,0.1-0.1,0.1-0.1,0.2c0,1.9,0,2.8,0,4.7
			c-0.6,0-0.9,0.1-1.5,0.1c0-1.9,0-2.8,0-4.7c0-0.8,0-1.4-0.1-1.8c0.4,0,0.5,0,0.9-0.1c0.2,0.1,0.4,0.3,0.5,0.7
			c0.1-0.1,0.1-0.1,0.1-0.2c0.5-0.5,0.9-0.7,1.3-0.8C-187.5,266.2-187.1,266.5-186.9,267z"/>
		<path class="st5" d="M-180.7,267.8c0-0.4-0.2-0.7-0.7-0.6c-0.5,0-1.1,0.3-1.7,0.7c0-0.6,0-0.8,0-1.4c0.7-0.3,1.3-0.5,1.9-0.5
			c0.7,0,1.2,0.1,1.5,0.4s0.5,0.8,0.5,1.6c0,1.1,0,1.6,0,2.7c0,0.9,0,1.5,0.1,1.8c-0.4,0-0.5,0-0.9,0c-0.2-0.1-0.3-0.3-0.5-0.6
			c0,0.1-0.1,0.1-0.1,0.1c-0.3,0.4-0.7,0.6-1.3,0.7c-1,0.1-1.5-0.5-1.5-1.8c0-0.7,0.2-1.2,0.5-1.6c0.4-0.4,0.9-0.7,1.6-0.7
			c0.2,0,0.3,0,0.5,0C-180.7,268.2-180.7,268-180.7,267.8z M-180.7,271c0-0.5,0-0.8,0-1.3c-0.1,0-0.2,0-0.4,0
			c-0.6,0-0.9,0.4-0.9,1.1c0,0.5,0.2,0.8,0.5,0.8c0.2,0,0.4-0.2,0.6-0.4C-180.8,271-180.7,271-180.7,271z"/>
		<path class="st5" d="M-175.2,266.2c0-1.2,0-1.7,0-2.9c0.6,0,0.9,0,1.5-0.1c0,2.9,0,4.3,0,7.2c0,0.8,0,1.4,0.1,1.8
			c-0.4,0-0.5,0-0.9,0c-0.2-0.1-0.4-0.3-0.5-0.6c-0.5,0.5-1,0.8-1.4,0.8c-0.5,0-0.9-0.2-1.2-0.7s-0.4-1.4-0.4-2.6s0.1-2.1,0.4-2.7
			c0.2-0.5,0.6-0.7,1.2-0.8C-176,265.8-175.6,265.8-175.2,266.2z M-175.2,270.5c0-1.2,0-1.9,0-3.1c-0.1-0.1-0.1-0.1-0.2-0.2
			c-0.2-0.2-0.4-0.4-0.6-0.3c-0.2,0-0.3,0.1-0.3,0.3c-0.1,0.3-0.2,0.9-0.2,1.9s0.1,1.6,0.2,1.8c0.1,0.2,0.2,0.3,0.3,0.3
			c0.2,0,0.4-0.1,0.6-0.4C-175.3,270.8-175.3,270.5-175.2,270.5z"/>
		<path class="st5" d="M-168.5,270.4c0,0.5,0,0.8,0,1.3c-0.7,0.3-1.3,0.5-1.8,0.5c-0.7,0-1.2-0.2-1.5-0.6c-0.4-0.5-0.6-1.4-0.6-2.7
			c0-1.2,0.2-2.1,0.5-2.6s0.9-0.8,1.7-0.8c0.6,0,1.1,0.1,1.4,0.4c0.3,0.3,0.4,0.8,0.4,1.6c0,0.6,0,0.9,0,1.4c-1,0-1.5,0.1-2.6,0.1
			c0,0.5,0,0.9,0,1c0.1,0.4,0.2,0.7,0.4,0.8c0.1,0.1,0.3,0.1,0.5,0.1C-169.5,270.9-169,270.8-168.5,270.4z M-169.8,267.8
			c0-0.4,0-0.7,0-0.8c-0.1-0.3-0.2-0.4-0.5-0.4c-0.2,0-0.4,0.1-0.5,0.3s-0.1,0.5-0.2,1C-170.5,267.8-170.2,267.8-169.8,267.8
			L-169.8,267.8z"/>
		<path class="st5" d="M-162.2,269.9c0-1.9,0-2.8,0-4.7c0.6,0,0.9,0,1.5,0c0,2.8,0,4.2,0,7c0,0.7-0.2,1.3-0.5,1.6s-0.9,0.5-1.5,0.5
			c-0.5,0-1.1-0.1-1.8-0.4c0-0.5,0-0.8,0-1.4c0.6,0.4,1.1,0.5,1.6,0.5s0.8-0.3,0.8-0.8c0-0.4,0-0.7,0-1.1l0,0
			c-0.4,0.4-0.9,0.7-1.3,0.7c-0.5,0-0.8-0.1-1-0.5c-0.2-0.3-0.3-0.8-0.3-1.4c0-1.9,0-2.8,0-4.7c0.6,0,0.9,0,1.5,0c0,1.9,0,2.8,0,4.7
			c0,0.4,0.1,0.6,0.3,0.6s0.4-0.2,0.6-0.4C-162.4,270-162.3,270-162.2,269.9z"/>
		<path class="st5" d="M-155.2,268.2c0,1.2-0.2,2.1-0.5,2.6s-0.9,0.8-1.7,0.8s-1.3-0.2-1.7-0.7c-0.3-0.5-0.5-1.4-0.5-2.6
			s0.2-2.1,0.5-2.6s0.9-0.8,1.7-0.8s1.3,0.2,1.7,0.7C-155.4,266.2-155.2,267-155.2,268.2z M-157.4,266c-0.4,0-0.6,0.3-0.6,1
			c0,0.1,0,0.5,0,1.3s0,1.3,0,1.3c0.1,0.6,0.3,0.9,0.6,0.9c0.4,0,0.6-0.3,0.6-1c0-0.1,0-0.5,0-1.3s0-1.3,0-1.3
			C-156.8,266.4-157,266-157.4,266z"/>
		<path class="st5" d="M-151.4,269.8c0-1.9,0-2.8,0-4.7c0.6,0,0.9,0,1.5,0c0,1.9,0,2.8,0,4.7c0,0.8,0,1.4,0.1,1.8
			c-0.4,0-0.5,0-0.9,0c-0.2-0.1-0.4-0.4-0.5-0.7c-0.1,0.1-0.1,0.1-0.2,0.2c-0.4,0.4-0.9,0.6-1.3,0.6c-0.5,0-0.8-0.2-1-0.5
			s-0.3-0.8-0.3-1.4c0-1.9,0-2.8,0-4.7c0.6,0,0.9,0,1.5,0c0,1.9,0,2.8,0,4.7c0,0.4,0.1,0.6,0.3,0.6s0.4-0.1,0.6-0.4
			C-151.5,269.8-151.5,269.8-151.4,269.8z"/>
		<path class="st5" d="M-142.3,265.5l0.1-0.1c0.5-0.5,0.9-0.7,1.3-0.7c0.5,0,0.8,0.2,1,0.5s0.3,0.8,0.3,1.4c0,1.9,0,2.8,0,4.7
			c-0.6,0-0.9,0-1.5,0c0-1.9,0-2.8,0-4.7c0-0.4-0.1-0.6-0.3-0.6s-0.4,0.1-0.6,0.4c-0.1,0.1-0.1,0.1-0.1,0.2c0,1.9,0,2.8,0,4.7
			c-0.6,0-0.9,0-1.5,0c0-1.9,0-2.8,0-4.7c0-0.4-0.1-0.6-0.3-0.6s-0.4,0.1-0.6,0.4c-0.1,0.1-0.1,0.1-0.1,0.2c0,1.9,0,2.8,0,4.7
			c-0.6,0-0.9,0-1.5,0c0-1.9,0-2.8,0-4.7c0-0.8,0-1.4-0.1-1.8c0.4,0,0.5,0,0.9,0c0.2,0.1,0.4,0.4,0.5,0.7c0.1-0.1,0.1-0.1,0.1-0.1
			c0.5-0.5,0.9-0.7,1.3-0.7C-142.8,264.8-142.5,265-142.3,265.5z"/>
		<path class="st5" d="M-134.1,268.2c0,1.2-0.2,2.1-0.5,2.6s-0.9,0.7-1.7,0.7s-1.3-0.3-1.7-0.8c-0.3-0.5-0.5-1.4-0.5-2.6
			s0.2-2.1,0.5-2.6s0.9-0.8,1.7-0.7c0.8,0,1.3,0.3,1.7,0.8C-134.3,266-134.1,266.9-134.1,268.2z M-136.3,265.9
			c-0.4,0-0.6,0.3-0.6,0.9c0,0.1,0,0.5,0,1.3s0,1.3,0,1.3c0.1,0.6,0.3,0.9,0.6,0.9s0.6-0.3,0.6-0.9c0-0.1,0-0.5,0-1.3s0-1.3,0-1.3
			C-135.7,266.2-135.9,265.9-136.3,265.9z"/>
		<path class="st5" d="M-131.5,266c0.2-0.2,0.4-0.4,0.6-0.6c0.4-0.4,0.7-0.6,1.1-0.6c0,0.7,0,1.1,0,1.9c-0.1-0.1-0.3-0.1-0.4-0.1
			c-0.2,0-0.5,0.1-0.8,0.4c-0.2,0.1-0.2,0.2-0.4,0.3c0,1.6,0,2.5,0,4.1c-0.6,0-0.9,0-1.5,0c0-1.9,0-2.8,0-4.7c0-0.8,0-1.4-0.1-1.8
			c0.4,0,0.5,0,0.9,0C-131.8,265-131.6,265.5-131.5,266z"/>
		<path class="st5" d="M-125.3,270c0,0.5,0,0.8,0,1.3c-0.7,0.3-1.3,0.4-1.8,0.4c-0.7,0-1.2-0.2-1.5-0.6c-0.4-0.5-0.6-1.4-0.6-2.8
			c0-1.2,0.2-2.1,0.5-2.6s0.9-0.7,1.7-0.7c0.6,0,1.1,0.2,1.4,0.5s0.4,0.9,0.4,1.6c0,0.6,0,0.9,0,1.4c-1,0-1.5,0-2.6,0
			c0,0.5,0,0.9,0,1c0.1,0.4,0.2,0.7,0.4,0.9c0.1,0.1,0.3,0.1,0.5,0.1C-126.3,270.4-125.8,270.2-125.3,270z M-126.5,267.2
			c0-0.4,0-0.7,0-0.8c-0.1-0.3-0.2-0.4-0.5-0.5c-0.2,0-0.4,0.1-0.5,0.3c-0.1,0.2-0.1,0.5-0.2,1C-127.2,267.2-127,267.2-126.5,267.2
			L-126.5,267.2z"/>
		<path class="st5" d="M-119.3,267c0-0.4-0.2-0.7-0.7-0.7s-1.1,0.2-1.7,0.5c0-0.6,0-0.8,0-1.4c0.7-0.3,1.3-0.4,1.9-0.4
			c0.7,0,1.2,0.2,1.5,0.5s0.5,0.9,0.5,1.6c0,1.1,0,1.6,0,2.7c0,0.9,0,1.5,0.1,1.8c-0.4,0-0.5,0-0.9,0c-0.2-0.1-0.3-0.3-0.5-0.6
			c0,0.1-0.1,0.1-0.1,0.1c-0.3,0.4-0.7,0.6-1.3,0.6c-1,0-1.5-0.7-1.5-1.9c0-0.7,0.2-1.2,0.5-1.6c0.4-0.4,0.9-0.6,1.6-0.6
			c0.2,0,0.3,0,0.5,0C-119.3,267.4-119.3,267.2-119.3,267z M-119.3,270.2c0-0.5,0-0.8,0-1.3c-0.1,0-0.2,0-0.4,0
			c-0.6,0-0.9,0.3-0.9,1c0,0.5,0.2,0.8,0.5,0.8c0.2,0,0.4-0.1,0.6-0.4C-119.4,270.2-119.4,270.2-119.3,270.2z"/>
		<path class="st5" d="M-112,270c0-0.3,0.1-0.9,0.2-1.6c0.3-1.2,0.4-1.7,0.6-2.9c0.5,0,0.7,0,1.2,0c-0.6,2.6-0.9,3.9-1.6,6.4
			c-0.5,0-0.7,0-1.1,0c-0.2-1-0.3-1.5-0.5-2.5c-0.1-0.6-0.2-1.3-0.3-2c0,0.3-0.1,1-0.3,2c-0.2,1-0.3,1.5-0.6,2.5c-0.5,0-0.7,0-1.1,0
			c-0.6-2.6-0.9-3.9-1.6-6.5c0.5,0,0.8,0,1.4,0c0.3,1.2,0.4,1.8,0.6,2.9c0.1,0.4,0.2,0.9,0.2,1.6c0-0.3,0.1-0.9,0.2-1.6
			c0.3-1.1,0.4-1.7,0.6-2.9c0.4,0,0.7,0,1.1,0c0.3,1.2,0.4,1.7,0.6,2.9C-112.2,268.8-112.1,269.2-112,270z"/>
		<path class="st5" d="M-107,267.4c0-0.4-0.2-0.7-0.7-0.7s-1.1,0.1-1.7,0.5c0-0.6,0-0.8,0-1.4c0.7-0.2,1.3-0.4,1.9-0.3
			c0.7,0,1.2,0.2,1.5,0.5s0.5,0.9,0.5,1.6c0,1.1,0,1.6,0,2.7c0,0.9,0,1.5,0.1,1.8c-0.4,0-0.5,0-0.9,0c-0.2-0.1-0.3-0.3-0.5-0.6
			c0,0.1-0.1,0.1-0.1,0.1c-0.3,0.4-0.7,0.6-1.3,0.5c-1,0-1.5-0.7-1.5-2c0-0.7,0.2-1.2,0.5-1.6c0.4-0.4,0.9-0.6,1.6-0.5
			c0.2,0,0.3,0,0.5,0C-107,267.9-107,267.8-107,267.4z M-107,270.5c0-0.5,0-0.8,0-1.3c-0.1,0-0.2,0-0.4,0c-0.6,0-0.9,0.3-0.9,1
			c0,0.5,0.2,0.8,0.5,0.8c0.2,0,0.4-0.1,0.6-0.4C-107,270.8-107,270.8-107,270.5z"/>
		<path class="st5" d="M-102.7,266.9c0.2-0.2,0.4-0.3,0.6-0.6c0.4-0.4,0.7-0.5,1.1-0.5c0,0.7,0,1.1,0,1.9c-0.1-0.1-0.3-0.1-0.4-0.1
			c-0.2,0-0.5,0.1-0.8,0.3c-0.2,0.1-0.2,0.2-0.4,0.3c0,1.6,0,2.5,0,4.1c-0.6,0-0.9,0-1.5-0.1c0-1.9,0-2.8,0-4.7c0-0.8,0-1.4-0.1-1.8
			c0.4,0,0.5,0,0.9,0C-103,266-102.8,266.4-102.7,266.9z"/>
		<path class="st5" d="M-96.5,271c0,0.5,0,0.8,0,1.3c-0.7,0.2-1.3,0.3-1.8,0.3c-0.7,0-1.2-0.3-1.5-0.7c-0.4-0.5-0.6-1.5-0.6-2.8
			c0-1.2,0.2-2.1,0.5-2.6s0.9-0.7,1.7-0.7c0.6,0,1.1,0.2,1.4,0.6c0.3,0.3,0.4,0.9,0.4,1.6c0,0.6,0,0.9,0,1.4c-1-0.1-1.5-0.1-2.6-0.1
			c0,0.5,0,0.9,0,1c0.1,0.4,0.2,0.7,0.4,0.9c0.1,0.1,0.3,0.1,0.5,0.2C-97.5,271.5-97,271.4-96.5,271z M-97.7,268.2
			c0-0.4,0-0.7,0-0.8c-0.1-0.3-0.2-0.5-0.5-0.5c-0.2,0-0.4,0.1-0.5,0.2c-0.1,0.2-0.1,0.5-0.2,1C-98.5,268.2-98.2,268.2-97.7,268.2
			L-97.7,268.2z"/>
		<path class="st5" d="M-88.6,269.9c0,1.2-0.2,2.1-0.5,2.6s-0.9,0.7-1.6,0.6c-0.8-0.1-1.3-0.3-1.7-0.9c-0.3-0.5-0.5-1.4-0.5-2.7
			c0-1.3,0.2-2.1,0.5-2.6s0.9-0.7,1.7-0.6c0.8,0.1,1.3,0.3,1.6,0.9C-88.8,267.8-88.6,268.8-88.6,269.9z M-90.8,267.5
			c-0.4,0-0.6,0.3-0.6,0.9c0,0.1,0,0.5,0,1.3s0,1.3,0,1.3c0.1,0.6,0.3,1,0.6,1s0.6-0.3,0.6-0.9c0-0.1,0-0.5,0-1.3s0-1.3,0-1.3
			C-90.2,267.8-90.4,267.5-90.8,267.5z"/>
		<path class="st5" d="M-85.6,266.9c0.6,0,0.9,0.1,1.5,0.1c0,0.5,0,0.7,0,1.2c-0.6,0-0.9-0.1-1.5-0.1c0,2.1,0,3.2,0,5.3
			c-0.6,0-0.9-0.1-1.5-0.1c0-2.1,0-3.2,0-5.3c-0.3,0-0.5,0-0.9-0.1c0-0.5,0-0.7,0-1.2c0.3,0,0.5,0,0.9,0.1c0-0.3,0-0.4,0-0.7
			c0-0.7,0.2-1.2,0.5-1.4c0.3-0.2,0.8-0.3,1.5-0.2c0.4,0,0.7,0.1,1.1,0.2c0,0.5,0,0.7,0,1.2c-0.3-0.1-0.6-0.2-0.9-0.2
			s-0.6,0.2-0.6,0.6C-85.6,266.5-85.6,266.5-85.6,266.9z"/>
		<path class="st5" d="M-206.7,288.2c0-1.9,0-2.8,0-4.7c0.6-0.1,0.9-0.1,1.5-0.1c0,2.8,0,4.2,0,7c0,0.7-0.2,1.3-0.5,1.6
			c-0.3,0.4-0.8,0.6-1.5,0.6c-0.5,0-1.1,0-1.8-0.2c0-0.5,0-0.8,0-1.4c0.6,0.3,1.1,0.5,1.6,0.4c0.5,0,0.8-0.3,0.8-0.9
			c0-0.4,0-0.7,0-1.1l0,0c-0.4,0.5-0.9,0.7-1.3,0.7c-0.5,0-0.8-0.1-1-0.4s-0.3-0.7-0.3-1.4c0-1.9,0-2.8,0-4.7
			c0.6-0.1,0.9-0.1,1.5-0.1c0,1.9,0,2.8,0,4.7c0,0.4,0.1,0.6,0.3,0.6S-207,288.5-206.7,288.2C-206.8,288.2-206.8,288.2-206.7,288.2z
			"/>
		<path class="st5" d="M-199.7,286.2c0,1.2-0.2,2.1-0.5,2.7c-0.3,0.5-0.9,0.8-1.6,0.9c-0.8,0.1-1.3-0.1-1.7-0.6
			c-0.3-0.5-0.5-1.3-0.5-2.6s0.2-2.1,0.5-2.7c0.3-0.5,0.9-0.8,1.7-0.9c0.8-0.1,1.3,0.1,1.6,0.6S-199.7,284.9-199.7,286.2z
			 M-201.9,284c-0.4,0-0.6,0.4-0.6,1c0,0.1,0,0.5,0,1.3s0,1.3,0,1.3c0.1,0.6,0.3,0.9,0.6,0.9s0.6-0.4,0.6-1c0-0.1,0-0.5,0-1.3
			s0-1.3,0-1.3C-201.3,284.2-201.5,284-201.9,284z"/>
		<path class="st5" d="M-195.9,287.2c0-1.9,0-2.8,0-4.7c0.6,0,0.9-0.1,1.5-0.1c0,1.9,0,2.8,0,4.7c0,0.8,0,1.4,0.1,1.8
			c-0.4,0-0.5,0-0.9,0.1c-0.2-0.1-0.4-0.3-0.5-0.6c-0.1,0.1-0.1,0.1-0.2,0.2c-0.4,0.4-0.9,0.7-1.3,0.7c-0.5,0-0.8-0.1-1-0.4
			s-0.3-0.8-0.3-1.4c0-1.9,0-2.8,0-4.7c0.6,0,0.9-0.1,1.5-0.1c0,1.9,0,2.8,0,4.7c0,0.4,0.1,0.6,0.3,0.6s0.4-0.2,0.6-0.5
			C-196,287.4-196,287.4-195.9,287.2z"/>
		<path class="st5" d="M-191.6,283.4c0.2-0.3,0.4-0.4,0.6-0.7c0.4-0.4,0.7-0.6,1.1-0.6c0,0.7,0,1.1,0,1.9c-0.1,0-0.3-0.1-0.4-0.1
			c-0.2,0-0.5,0.2-0.8,0.4c-0.2,0.2-0.2,0.2-0.4,0.4c0,1.6,0,2.5,0,4.1c-0.6,0-0.9,0.1-1.5,0.1c0-1.9,0-2.8,0-4.7
			c0-0.8,0-1.4-0.1-1.8c0.4,0,0.5,0,0.9-0.1C-192,282.5-191.7,282.9-191.6,283.4z"/>
		<path class="st5" d="M-185.1,281.9c0.6,0,0.9-0.1,1.5-0.1c0,0.5,0,0.7,0,1.2c-0.6,0-0.9,0.1-1.5,0.1c0,2.1,0,3.2,0,5.3
			c-0.6,0-0.9,0.1-1.5,0.1c0-2.1,0-3.2,0-5.3c-0.3,0-0.5,0-0.9,0.1c0-0.5,0-0.7,0-1.2c0.3,0,0.5,0,0.9-0.1c0-0.3,0-0.4,0-0.7
			c0-0.7,0.2-1.2,0.5-1.5c0.3-0.2,0.8-0.4,1.5-0.4c0.4,0,0.7,0,1.1,0.1c0,0.5,0,0.7,0,1.2c-0.3-0.1-0.6-0.1-0.9-0.1
			c-0.4,0-0.6,0.3-0.6,0.7C-185.1,281.5-185.1,281.5-185.1,281.9z"/>
		<path class="st5" d="M-178.9,284.8c0,1.2-0.2,2.1-0.5,2.7c-0.3,0.5-0.9,0.8-1.7,0.8s-1.3-0.2-1.7-0.7c-0.3-0.5-0.5-1.3-0.5-2.6
			c0-1.3,0.2-2.1,0.5-2.7c0.3-0.5,0.9-0.8,1.7-0.8s1.3,0.2,1.7,0.7C-179.1,282.8-178.9,283.5-178.9,284.8z M-181.1,282.5
			c-0.4,0-0.6,0.3-0.6,1c0,0.1,0,0.5,0,1.3s0,1.3,0,1.3c0.1,0.6,0.3,0.9,0.6,0.9c0.4,0,0.6-0.3,0.6-1c0-0.1,0-0.5,0-1.3s0-1.3,0-1.3
			C-180.5,282.9-180.7,282.5-181.1,282.5z"/>
		<path class="st5" d="M-173.6,284.5c0,1.2-0.2,2.1-0.5,2.6s-0.9,0.8-1.7,0.8s-1.3-0.2-1.7-0.7c-0.3-0.5-0.5-1.4-0.5-2.6
			s0.2-2.1,0.5-2.7c0.3-0.5,0.9-0.8,1.7-0.8s1.3,0.2,1.7,0.7C-173.7,282.4-173.6,283.2-173.6,284.5z M-175.7,282.4
			c-0.4,0-0.6,0.3-0.6,1c0,0.1,0,0.5,0,1.3s0,1.3,0,1.3c0.1,0.6,0.3,0.9,0.6,0.9c0.4,0,0.6-0.3,0.6-1c0-0.1,0-0.5,0-1.3s0-1.3,0-1.3
			C-175.1,282.5-175.4,282.2-175.7,282.4z"/>
		<path class="st5" d="M-169.7,281.5c0-1.2,0-1.7,0-2.9c0.6,0,0.9,0,1.5-0.1c0,2.9,0,4.3,0,7.1c0,0.8,0,1.4,0.1,1.8
			c-0.4,0-0.5,0-0.9,0c-0.2-0.1-0.4-0.3-0.5-0.6c-0.5,0.5-1,0.8-1.4,0.8c-0.5,0-0.9-0.2-1.2-0.7s-0.4-1.4-0.4-2.6s0.1-2.1,0.4-2.7
			c0.2-0.5,0.6-0.7,1.2-0.8C-170.5,281-170.1,281.2-169.7,281.5z M-169.7,285.9c0-1.2,0-1.9,0-3.1c-0.1-0.1-0.1-0.1-0.2-0.2
			c-0.2-0.2-0.4-0.4-0.6-0.4c-0.2,0-0.3,0.1-0.3,0.3c-0.1,0.3-0.2,0.9-0.2,1.9c0,0.9,0.1,1.6,0.2,1.8c0.1,0.2,0.2,0.3,0.3,0.3
			c0.2,0,0.4-0.1,0.6-0.4C-169.8,286-169.8,286-169.7,285.9z"/>
		<path class="st5" d="M-161.1,281c0,0.6,0,0.9,0,1.5c-0.4-0.3-0.8-0.4-1.2-0.4c-0.3,0-0.5,0.1-0.6,0.3c-0.2,0.3-0.2,0.8-0.2,1.7
			c0,0.8,0.1,1.4,0.2,1.7c0.1,0.2,0.3,0.3,0.6,0.3c0.4,0,0.8-0.2,1.2-0.5c0,0.6,0,0.9,0,1.5c-0.5,0.2-1.1,0.3-1.6,0.4
			c-0.7,0-1.1-0.2-1.4-0.5c-0.4-0.5-0.5-1.4-0.5-2.7c0-1.4,0.2-2.3,0.6-2.8c0.3-0.4,0.7-0.6,1.4-0.6
			C-162.2,280.8-161.7,280.9-161.1,281z"/>
		<path class="st5" d="M-158.7,281.2c0.4-0.4,0.9-0.6,1.3-0.7c0.5,0,0.8,0.2,1,0.5s0.3,0.8,0.3,1.4c0,1.9,0,2.8,0,4.7
			c-0.6,0-0.9,0-1.5,0c0-1.9,0-2.8,0-4.7c0-0.4-0.1-0.6-0.3-0.6s-0.4,0.2-0.6,0.4c-0.1,0.1-0.1,0.1-0.2,0.2c0,1.9,0,2.8,0,4.7
			c-0.6,0-0.9,0-1.5,0c0-3.6,0-5.4,0-9c0.6,0,0.9,0,1.5,0C-158.7,279.5-158.7,280-158.7,281.2z"/>
		<path class="st5" d="M-150.6,283.8c0,1.2-0.2,2.1-0.5,2.6s-0.9,0.8-1.7,0.8s-1.3-0.2-1.7-0.7c-0.3-0.5-0.5-1.4-0.5-2.6
			s0.2-2.1,0.5-2.6s0.9-0.8,1.7-0.8s1.3,0.2,1.7,0.7C-150.8,281.8-150.6,282.5-150.6,283.8z M-152.8,281.5c-0.4,0-0.6,0.3-0.6,0.9
			c0,0.1,0,0.5,0,1.3s0,1.3,0,1.3c0.1,0.6,0.3,0.9,0.6,0.9c0.4,0,0.6-0.3,0.6-0.9c0-0.1,0-0.5,0-1.3s0-1.3,0-1.3
			C-152.2,281.9-152.4,281.5-152.8,281.5z"/>
		<path class="st5" d="M-147.7,280.5c0,2.6,0,3.9,0,6.5c-0.6,0-0.9,0-1.5,0c0-2.1,0-3.2,0-5.3c-0.3,0-0.4,0-0.7,0c0-0.5,0-0.7,0-1.2
			C-149,280.5-148.5,280.5-147.7,280.5z M-148.4,278c0.2,0,0.5,0.1,0.6,0.2c0.2,0.2,0.3,0.4,0.3,0.6s-0.1,0.5-0.3,0.6
			c-0.2,0.2-0.4,0.3-0.6,0.3c-0.2,0-0.4-0.1-0.6-0.3c-0.2-0.2-0.3-0.4-0.3-0.6c0-0.3,0.1-0.5,0.3-0.6
			C-148.9,278-148.7,278-148.4,278z"/>
		<path class="st5" d="M-142.8,280.8c0,0.6,0,0.9,0,1.5c-0.4-0.3-0.8-0.4-1.2-0.4c-0.3,0-0.5,0.1-0.6,0.3c-0.2,0.3-0.2,0.8-0.2,1.7
			c0,0.8,0.1,1.4,0.2,1.7c0.1,0.2,0.3,0.3,0.6,0.3c0.4,0,0.8-0.1,1.2-0.4c0,0.6,0,0.9,0,1.5c-0.5,0.2-1.1,0.3-1.6,0.3
			c-0.7,0-1.1-0.2-1.4-0.6c-0.4-0.5-0.5-1.4-0.5-2.7c0-1.4,0.2-2.3,0.6-2.8c0.3-0.4,0.7-0.6,1.4-0.6
			C-143.9,280.5-143.4,280.5-142.8,280.8z"/>
		<path class="st5" d="M-138.1,285.4c0,0.5,0,0.8,0,1.3c-0.7,0.3-1.3,0.4-1.8,0.4c-0.7,0-1.2-0.2-1.5-0.6c-0.4-0.5-0.6-1.4-0.6-2.8
			c0-1.2,0.2-2.1,0.5-2.6s0.9-0.8,1.7-0.8c0.6,0,1.1,0.2,1.4,0.5c0.3,0.3,0.4,0.9,0.4,1.6c0,0.6,0,0.9,0,1.4c-1,0-1.5,0-2.6,0
			c0,0.5,0,0.9,0,1c0.1,0.4,0.2,0.7,0.4,0.8c0.1,0.1,0.3,0.1,0.5,0.1C-139.1,285.9-138.6,285.8-138.1,285.4z M-139.3,282.8
			c0-0.4,0-0.7,0-0.8c-0.1-0.3-0.2-0.4-0.5-0.4c-0.2,0-0.4,0.1-0.5,0.3s-0.1,0.5-0.2,1C-140,282.8-139.8,282.8-139.3,282.8
			L-139.3,282.8z"/>
		<path class="st5" d="M-133.6,280.8c0,0.5,0,0.8,0,1.3c-0.6-0.3-1.1-0.5-1.6-0.5c-0.4,0-0.6,0.2-0.6,0.7c0,0.4,0.2,0.7,0.6,0.7
			c1.4,0,2,0.7,2,2.1c0,1.4-0.7,2.1-2.1,2.1c-0.6,0-1.1-0.1-1.6-0.3c0-0.5,0-0.8,0-1.3c0.6,0.3,1.1,0.4,1.6,0.4s0.8-0.3,0.8-0.8
			s-0.3-0.7-0.8-0.7c-0.6,0-1-0.1-1.3-0.4c-0.4-0.3-0.6-0.9-0.6-1.7c0-1.3,0.6-1.9,1.9-1.9C-134.7,280.4-134.1,280.5-133.6,280.8z"
			/>
		<path class="st5" d="M-131.1,287.2c-0.3,0-0.5-0.1-0.7-0.3s-0.3-0.4-0.3-0.7c0-0.3,0.1-0.5,0.3-0.7s0.4-0.3,0.7-0.3
			s0.5,0.1,0.7,0.3c0.2,0.2,0.3,0.4,0.3,0.7s-0.1,0.5-0.3,0.7C-130.6,287-130.8,287.2-131.1,287.2z M-131.9,278c0.6,0,0.9,0,1.5,0
			c0,2.5,0,3.7,0,6.2c-0.6,0-0.9,0-1.5,0C-131.9,281.8-131.9,280.5-131.9,278z"/>
	</g>
</g>
<text transform="matrix(1 0 0 1 -205.1 370.0805)" class="st6 st7">Application was created by Mindaugas Uzubalis</text>
<text transform="matrix(1 0 0 1 -205.1 379.6805)" class="st6 st7">also known as MD. Graphics *designed by Freepik*.</text>
<text transform="matrix(1 0 0 1 -27.815 301.578)"><tspan x="0" y="0" class="st6 st8">[1] - Nhs.uk. (2016). Britain: &apos;the fat man of Europe&apos; - Live Well - NHS Choices. [online] Available at: </tspan><tspan x="0" y="4.8" class="st6 st8">http://www.nhs.uk/Livewell/loseweight/Pages/statistics-and-causes-of-the-obesity-epidemic-in-the-UK.aspx </tspan><tspan x="0" y="9.6" class="st6 st8">[Accessed 12 Apr. 2016].</tspan><tspan x="0" y="19.2" class="st6 st8">[2] - Baker, C. and Bate, A. (2016). Obesity Statistic. 1st ed. [ebook] </tspan><tspan x="0" y="24" class="st6 st8">UK: House of Commons Library, pp.5-7,14-17. </tspan><tspan x="0" y="28.8" class="st6 st8">Available at: http://researchbriefings.files.parliament.uk/documents/SN03336/SN03336.pdf [Accessed 5 Feb. 2016]. </tspan><tspan x="0" y="38.4" class="st6 st8">[3] - Marian, J. (2015). Percentage of Obese People in Europe. [online] </tspan><tspan x="0" y="43.2" class="st6 st8">OneEurope. Available at: http://one-europe.info/eurographics/percentage-of-obese-people-in-europe </tspan><tspan x="0" y="48" class="st6 st8">[Accessed 12 Feb. 2016].</tspan><tspan x="0" y="57.6" class="st6 st8">[4] - Manore, M. (2016). Exercise and the Institute of Medicine recommendations for nutrition.  - PubMed - NCBI. [online] </tspan><tspan x="0" y="62.4" class="st6 st8">Ncbi.nlm.nih.gov. Available at: http://www.ncbi.nlm.nih.gov/pubmed/16004827 </tspan><tspan x="0" y="67.2" class="st6 st8">[Accessed 25 Mar. 2016].</tspan><tspan x="0" y="76.8" class="st6 st8">[5] - Bolton, D. (2016). What is Flexible Dieting? Here&apos;s How to Get Started. [online] </tspan><tspan x="0" y="81.6" class="st6 st8">Healthyeater.com. Available at: https://healthyeater.com/flexible-dieting </tspan><tspan x="0" y="86.4" class="st6 st8">[Accessed 13 Apr. 2016].</tspan></text>
<text transform="matrix(1 0 0 1 36.0421 288.4502)" class="st5 st9 st10">References</text>
</svg>
