<?xml version="1.0" encoding="utf-8"?>
<!-- Generator: Adobe Illustrator 19.0.0, SVG Export Plug-In . SVG Version: 6.00 Build 0)  -->
<svg version="1.1" id="Layer_1" xmlns="http://www.w3.org/2000/svg" xmlns:xlink="http://www.w3.org/1999/xlink" x="0px" y="0px"
	 viewBox="-258 125.4 441.4 311.6" style="enable-background:new -258 125.4 441.4 311.6;" xml:space="preserve">
<style type="text/css">
	.st0{fill:#31234C;}
	.st1{fill:#62528E;}
	.st2{fill:#AEB0B2;}
	.st3{clip-path:url(#SVGID_2_);fill:#554789;}
	.st4{fill:#FFFFFF;}
	.st5{fill:#525354;}
	.st6{font-family:'SolexRegular';}
	.st7{font-size:7px;}
</style>
<path id="XMLID_55_" class="st0" d="M171.8,410.4c0,6.2-5.1,11.3-11.4,11.3H-235c-6.3,0-11.4-5-11.4-11.3V161.5
	c0-6.2,5.1-11.3,11.4-11.3h395.4c6.3,0,11.4,5,11.4,11.3L171.8,410.4L171.8,410.4z"/>
<path id="XMLID_54_" class="st1" d="M171.3,401c0,6.2-5.1,11.3-11.4,11.3h-394.4c-6.3,0-11.4-5-11.4-11.3V152.1
	c0-6.2,5.1-11.3,11.4-11.3h394.4c6.3,0,11.4,5,11.4,11.3V401z"/>
<rect id="XMLID_53_" x="-221.6" y="148.4" class="st2" width="182.2" height="250.6"/>
<rect id="XMLID_52_" x="-39.4" y="148.4" class="st2" width="182.2" height="250.6"/>
<g id="XMLID_114_">
	<g>
		<g>
			<g>
				<g>
					<defs>
						<path id="SVGID_1_" d="M171.3,401.4c0,6.2-5.1,11.3-11.4,11.3h-394.4c-6.3,0-11.4-5-11.4-11.3V152.5c0-6.2,5.1-11.3,11.4-11.3
							h394.4c6.3,0,11.4,5,11.4,11.3V401.4z"/>
					</defs>
					<clipPath id="SVGID_2_">
						<use xlink:href="#SVGID_1_"  style="overflow:visible;"/>
					</clipPath>
					<rect id="XMLID_51_" x="-39.8" y="137.4" class="st3" width="248.5" height="296.8"/>
				</g>
			</g>
		</g>
	</g>
</g>
<rect id="XMLID_49_" x="-225.6" y="148.4" class="st2" width="186.8" height="250.6"/>
<g id="XMLID_2_">
	<g id="XMLID_82_">
		<path id="XMLID_124_" d="M-165.5,157.8c0.8-2.4,1.2-3.6,2-6c0.9-0.1,1.3-0.1,2.2-0.1c-1.8,4.8-2.7,7.2-4.4,12
			c-0.8,0.1-1.3,0.1-2.1,0.2c-0.1-2.2-0.1-3.3-0.2-5.4c0-0.4,0-1.1,0.1-2.2c-0.1,0.5-0.3,1.2-0.6,2.2c-0.8,2.2-1.2,3.4-2.1,5.6
			c-0.9,0.1-1.4,0.1-2.3,0.2c-0.1-4.7-0.2-7-0.3-11.7c1-0.1,1.5-0.1,2.5-0.2c0,2.3,0,3.5,0,5.8c0,0.4-0.1,1.1-0.2,2.3
			c0.1-0.6,0.3-1.4,0.6-2.4c0.9-2.4,1.3-3.6,2.2-6c0.7-0.1,1.1-0.1,1.8-0.1c0.1,2.3,0.1,3.5,0.2,5.8c0,0.4,0,1.1-0.2,2.3
			C-166,159.5-165.8,158.8-165.5,157.8z"/>
		<path id="XMLID_121_" d="M-156.4,159.8c-1.5,0.1-2.2,0.1-3.7,0.2c0,0.2,0,0.3,0,0.4c0,0.6,0.3,0.9,1,0.9c0.6,0,1.4-0.3,2.4-0.7
			c-0.2,0.9-0.2,1.4-0.4,2.3c-1.1,0.4-2.1,0.6-3,0.6s-1.5-0.1-1.9-0.4c-0.5-0.4-0.8-1.1-0.8-2.1c0-0.5,0.1-1.1,0.2-1.7
			c0.3-1.7,0.7-2.8,1.3-3.5s1.5-1.1,2.8-1.1c1.8-0.1,2.7,0.5,2.7,1.9c0,0.2,0,0.5-0.1,0.7C-156.1,158.2-156.2,158.8-156.4,159.8z
			 M-158.5,158.1c0.1-0.6,0.2-1,0.2-1.2c0-0.3-0.1-0.5-0.4-0.4c-0.2,0-0.4,0.1-0.5,0.3s-0.2,0.7-0.4,1.4
			C-159.2,158.2-159,158.2-158.5,158.1z"/>
		<path id="XMLID_119_" d="M-152.3,160.9c0.4,0,0.6,0,1,0c-0.1,0.9-0.2,1.3-0.4,2.1c-1.5,0-2.2,0.1-3.7,0.1c0.7-3.9,1-5.8,1.7-9.7
			c-0.4,0-0.6,0-1,0c0.1-0.9,0.2-1.3,0.4-2.1c1.5-0.1,2.2-0.1,3.7-0.1C-151.3,155.1-151.6,157-152.3,160.9z"/>
		<path id="XMLID_117_" d="M-144.1,154.7c-0.2,0.9-0.2,1.4-0.4,2.3c-0.5-0.3-1-0.4-1.5-0.4c-0.4,0-0.7,0.1-0.9,0.3
			c-0.2,0.3-0.5,0.9-0.6,1.7c-0.1,0.5-0.1,0.8-0.1,1.1c0,0.4,0.1,0.7,0.2,0.8c0.1,0.1,0.3,0.1,0.6,0.1c0.5,0,1-0.2,1.6-0.5
			c-0.2,0.9-0.3,1.4-0.4,2.3c-0.7,0.3-1.5,0.4-2.4,0.4s-1.5-0.1-1.8-0.4c-0.5-0.4-0.7-1.1-0.7-2c0-0.5,0.1-1.1,0.2-1.8
			c0.3-1.8,0.8-3,1.5-3.7c0.5-0.5,1.2-0.7,2.2-0.7C-145.7,154.2-144.9,154.4-144.1,154.7z"/>
		<path id="XMLID_113_" d="M-137.2,158.6c-0.3,1.6-0.7,2.8-1.3,3.4c-0.6,0.6-1.5,1-2.7,0.9c-1,0-1.7-0.2-2.2-0.6
			c-0.5-0.4-0.7-1.1-0.7-2.1c0-0.5,0.1-1,0.2-1.7c0.3-1.7,0.7-2.8,1.3-3.5c0.6-0.6,1.5-1,2.7-1c1,0,1.7,0.2,2.2,0.6s0.7,1.2,0.7,2.2
			C-137,157.5-137.1,158-137.2,158.6z M-140.1,156.2c-0.2,0-0.4,0.1-0.5,0.4c-0.1,0.3-0.3,1-0.5,2s-0.3,1.6-0.3,1.9s0.1,0.5,0.4,0.5
			c0.2,0,0.4-0.1,0.5-0.4s0.3-0.9,0.5-2c0.2-1,0.3-1.6,0.3-1.9S-139.8,156.2-140.1,156.2z"/>
		<path id="XMLID_111_" d="M-129.2,163.1c0.4-2.3,0.6-3.4,1-5.7c0.1-0.3,0-0.5-0.2-0.5c-0.1,0-0.3,0.1-0.6,0.3
			c-0.1,0.1-0.1,0.1-0.2,0.1c-0.4,2.3-0.6,3.5-1,5.8c-1.1,0-1.6-0.1-2.7-0.1c0.4-2.3,0.6-3.4,1-5.7c0.1-0.3,0-0.5-0.2-0.5
			c-0.1,0-0.4,0.1-0.6,0.3c-0.1,0.1-0.1,0.1-0.2,0.2c-0.4,2.3-0.6,3.5-1,5.8c-1.1,0-1.6,0-2.7-0.1c0.4-2.4,0.6-3.7,1.1-6.1
			c0.2-1.1,0.3-1.9,0.2-2.4c0.6,0,0.9,0,1.4,0c0.3,0.2,0.6,0.5,0.8,1c1-0.7,1.9-1,2.5-1c0.8,0,1.3,0.4,1.4,1
			c0.9-0.6,1.6-0.8,2.2-0.8c1,0,1.5,0.6,1.5,1.6c0,0.3,0,0.7-0.1,1.1c-0.3,1.5-0.4,2.3-0.7,3.8c0.4,0,0.6,0,1,0.1
			c-0.1,0.8-0.2,1.3-0.4,2.1C-127,163.2-127.8,163.2-129.2,163.1z"/>
		<path id="XMLID_108_" d="M-118.1,160.5c-1.5-0.1-2.2-0.2-3.7-0.3c0,0.2,0,0.3,0,0.4c0,0.6,0.3,1,1,1c0.6,0,1.4-0.1,2.4-0.5
			c-0.2,0.9-0.2,1.3-0.4,2.2c-1.1,0.2-2.1,0.3-3,0.3c-0.9-0.1-1.5-0.3-1.9-0.6c-0.5-0.5-0.8-1.2-0.8-2.2c0-0.5,0.1-1.1,0.2-1.7
			c0.3-1.6,0.7-2.7,1.3-3.4c0.6-0.6,1.5-0.9,2.8-0.8c1.8,0.1,2.7,0.9,2.7,2.2c0,0.2,0,0.5-0.1,0.7
			C-117.9,158.9-118,159.4-118.1,160.5z M-120.3,158.5c0.1-0.6,0.2-1,0.2-1.2c0-0.3-0.1-0.5-0.4-0.5c-0.2,0-0.4,0.1-0.5,0.3
			s-0.2,0.6-0.4,1.4C-121,158.5-120.7,158.5-120.3,158.5z"/>
		<path id="XMLID_105_" d="M-115.1,161.4c0.4,0,0.6,0.2,0.9,0.4c0.2,0.2,0.3,0.5,0.3,0.9s-0.2,0.8-0.5,1.1s-0.7,0.4-1.2,0.4
			c-0.4,0-0.6-0.2-0.9-0.4c-0.2-0.2-0.3-0.5-0.3-0.9s0.2-0.8,0.5-1.1C-115.9,161.5-115.5,161.2-115.1,161.4z M-114.9,152.2
			c1.1,0.1,1.6,0.1,2.7,0.2c-0.6,3.1-1,4.7-1.6,7.9c-1-0.1-1.4-0.1-2.4-0.2C-115.6,157.1-115.4,155.5-114.9,152.2z"/>
	</g>
</g>
<path id="XMLID_48_" class="st4" d="M-37.6,148.4l5.6,250.3c-117.8-4-196-2.6-196-2.6l-3.9-252.3C-232,143.8-169.6,142.2-37.6,148.4
	z"/>
<path id="XMLID_1_" class="st4" d="M-44,147.9l5.5,248.4c-117.8-3.9-196-2.6-196-2.6l-3.9-250.3C-238.4,143.4-176,141.8-44,147.9z"
	/>
<rect id="XMLID_45_" x="-39.9" y="148.4" class="st2" width="186.8" height="250.6"/>
<g>
	<g>
		<path class="st5" d="M-163.3,173.5c0,4,0,5.9,0,9.9c-0.8,0.1-1.2,0.1-2,0.2c0-4,0-5.9,0-9.9c-0.8,0.1-1.2,0.1-2.1,0.2
			c0-0.7,0-1.1,0-1.8c2.4-0.2,3.7-0.3,6.1-0.5c0,0.7,0,1.1,0,1.8C-162.1,173.4-162.5,173.4-163.3,173.5z"/>
		<path class="st5" d="M-158.6,175.2c0.5-0.6,1.1-0.9,1.8-0.9c0.6,0,1.1,0.2,1.3,0.6c0.2,0.4,0.3,1,0.3,1.8c0,2.5,0,3.7,0,6.2
			c-0.8,0-1.2,0-2,0.1c0-2.5,0-3.7,0-6.2c0-0.5-0.1-0.8-0.4-0.8c-0.2,0-0.5,0.2-0.8,0.6c-0.1,0.1-0.2,0.2-0.3,0.3c0,2.4,0,3.7,0,6.1
			c-0.8,0-1.2,0.1-2,0.1c0-4.7,0-7,0-11.7c0.8-0.1,1.2-0.1,2-0.1C-158.6,172.9-158.6,173.7-158.6,175.2z"/>
		<path class="st5" d="M-148.5,180.7c0,0.7,0,1,0,1.7c-1,0.4-1.8,0.6-2.4,0.6c-0.9,0-1.6-0.2-2-0.8c-0.5-0.7-0.7-1.8-0.7-3.6
			c0-1.6,0.2-2.8,0.7-3.5c0.4-0.7,1.2-1,2.2-1c0.8,0,1.5,0.2,1.8,0.6c0.4,0.4,0.6,1.1,0.6,2.1c0,0.7,0,1.1,0,1.9c-1.3,0-2,0-3.4,0.1
			c0,0.7,0,1.1,0.1,1.4c0.1,0.6,0.3,0.9,0.6,1.1c0.2,0.1,0.4,0.2,0.7,0.2C-149.8,181.2-149.1,181.1-148.5,180.7z M-150.1,177.2
			c0-0.5,0-0.9-0.1-1c-0.1-0.4-0.3-0.6-0.7-0.6c-0.3,0-0.5,0.1-0.7,0.4c-0.1,0.2-0.2,0.7-0.2,1.3
			C-151,177.2-150.7,177.2-150.1,177.2L-150.1,177.2z"/>
		<path class="st5" d="M-141.3,180.9c1.1,0,1.6,0,2.7,0.1c0,0.7,0,1.1,0,1.8c-1.9-0.1-2.8-0.1-4.7-0.1c0-4.7,0-7,0-11.7
			c1.8,0,2.7,0,4.6,0.1c0,0.7,0,1.1,0,1.8c-1,0-1.5,0-2.6-0.1c0,1.1,0,1.7,0,2.8c1,0,1.4,0,2.4,0.1c0,0.7,0,1.1,0,1.8
			c-1,0-1.4,0-2.4-0.1C-141.3,178.9-141.3,179.6-141.3,180.9z"/>
		<path class="st5" d="M-135.1,175.4c0.1-0.1,0.2-0.2,0.3-0.3c0.6-0.5,1.2-0.8,1.8-0.7c0.6,0,1.1,0.3,1.3,0.7s0.3,1,0.3,1.9
			c0,2.5,0,3.7,0,6.2c-0.8,0-1.2-0.1-2-0.1c0-2.5,0-3.7,0-6.2c0-0.5-0.1-0.8-0.4-0.8c-0.2,0-0.5,0.2-0.8,0.5
			c-0.1,0.2-0.2,0.2-0.4,0.4c0,2.4,0,3.6,0,6c-0.8,0-1.2-0.1-2-0.1c0-2.4,0-3.7,0-6.1c0-1.1-0.1-1.9-0.2-2.4c0.5,0,0.7,0,1.2,0
			C-135.6,174.6-135.3,175-135.1,175.4z"/>
		<path class="st5" d="M-126.2,175.6c0-1.5,0-2.3,0-3.8c0.8,0.1,1.2,0.1,2,0.2c0,3.7,0,5.6,0,9.4c0,1.1,0.1,1.9,0.2,2.4
			c-0.5,0-0.7-0.1-1.2-0.1c-0.3-0.2-0.5-0.5-0.7-0.9c-0.6,0.6-1.3,0.9-1.8,0.9c-0.7-0.1-1.2-0.4-1.5-1c-0.4-0.7-0.5-1.9-0.5-3.5
			s0.2-2.8,0.5-3.4c0.3-0.6,0.8-0.9,1.5-0.8C-127.3,174.8-126.8,175.1-126.2,175.6z M-126.2,181.2c0-1.6,0-2.4,0-4
			c-0.1-0.1-0.1-0.2-0.2-0.3c-0.3-0.4-0.5-0.5-0.7-0.6c-0.2,0-0.4,0.1-0.4,0.3c-0.1,0.4-0.2,1.2-0.2,2.4s0.1,2,0.2,2.4
			c0.1,0.3,0.2,0.4,0.4,0.4s0.5-0.1,0.7-0.4C-126.4,181.5-126.3,181.4-126.2,181.2z"/>
	</g>
</g>
<g>
	<g>
		<path class="st5" d="M-207,221.7c0,3,0,4.5,0,7.6c-0.6,0.1-0.9,0.1-1.5,0.1c0-3,0-4.5,0-7.6c-0.6,0.1-0.9,0.1-1.6,0.1
			c0-0.6,0-0.8,0-1.4c1.9-0.2,2.8-0.3,4.7-0.4c0,0.6,0,0.8,0,1.4C-206,221.6-206.3,221.6-207,221.7z"/>
		<path class="st5" d="M-203.3,222.9c0.4-0.5,0.9-0.7,1.3-0.7c0.5,0,0.8,0.1,1,0.4c0.2,0.3,0.3,0.8,0.3,1.4c0,1.9,0,2.8,0,4.7
			c-0.6,0-0.9,0.1-1.5,0.1c0-1.9,0-2.8,0-4.7c0-0.4-0.1-0.6-0.3-0.6s-0.4,0.2-0.6,0.5c-0.1,0.1-0.1,0.2-0.2,0.3c0,1.9,0,2.8,0,4.7
			c-0.6,0.1-0.9,0.1-1.5,0.1c0-3.6,0-5.4,0-9c0.6-0.1,0.9-0.1,1.5-0.1C-203.3,221.1-203.3,221.7-203.3,222.9z"/>
		<path class="st5" d="M-197.2,223.7c0-0.4-0.2-0.7-0.7-0.6c-0.5,0-1.1,0.3-1.7,0.7c0-0.6,0-0.8,0-1.4c0.7-0.3,1.3-0.5,1.9-0.6
			c0.7-0.1,1.2,0.1,1.5,0.4c0.3,0.3,0.5,0.8,0.5,1.6c0,1.1,0,1.6,0,2.7c0,0.9,0,1.5,0.1,1.8c-0.4,0-0.5,0-0.9,0.1
			c-0.2-0.1-0.3-0.3-0.5-0.5c0,0.1-0.1,0.1-0.1,0.1c-0.3,0.4-0.7,0.6-1.3,0.7c-1,0.1-1.5-0.5-1.5-1.8c0-0.7,0.2-1.2,0.5-1.6
			c0.4-0.4,0.9-0.7,1.6-0.7c0.2,0,0.3,0,0.5,0C-197.2,224.1-197.2,224-197.2,223.7z M-197.2,226.9c0-0.5,0-0.8,0-1.3
			c-0.1,0-0.2,0-0.4,0c-0.6,0-0.9,0.4-0.9,1.1c0,0.5,0.2,0.8,0.5,0.8c0.2,0,0.4-0.2,0.6-0.5C-197.2,227-197.2,227-197.2,226.9z"/>
		<path class="st5" d="M-193,222.2c0.1-0.1,0.2-0.2,0.3-0.3c0.4-0.4,0.9-0.7,1.3-0.7c0.5,0,0.8,0.1,1,0.4c0.2,0.3,0.3,0.8,0.3,1.4
			c0,1.9,0,2.8,0,4.7c-0.6,0-0.9,0.1-1.5,0.1c0-1.9,0-2.8,0-4.7c0-0.4-0.1-0.6-0.3-0.6s-0.4,0.2-0.6,0.5c-0.1,0.1-0.2,0.2-0.3,0.3
			c0,1.8,0,2.7,0,4.6c-0.6,0-0.9,0.1-1.5,0.1c0-1.9,0-2.8,0-4.7c0-0.8,0-1.4-0.1-1.8c0.4,0,0.5,0,0.9-0.1
			C-193.3,221.8-193.1,222-193,222.2z"/>
		<path class="st5" d="M-187.4,225.6c0,0.9,0,1.3,0,2.1c-0.6,0-0.9,0.1-1.4,0.1c0-3.6,0-5.4,0-9c0.6,0,0.9-0.1,1.4-0.1
			c0,1.6,0,2.4,0,4.1c0,0.3,0,0.6,0,0.9c0.1-0.2,0.3-0.6,0.7-1.2c0.4-0.6,0.6-0.9,1-1.5c0.6,0,0.9-0.1,1.4-0.1c-0.7,1-1,1.5-1.7,2.6
			c0.6,1.6,0.9,2.4,1.5,3.9c-0.6,0-0.9,0.1-1.5,0.1c-0.4-1.1-0.6-1.6-1-2.7C-187.1,225.2-187.2,225.2-187.4,225.6z"/>
		<path class="st5" d="M-178.9,225.4c0-1.9,0-2.8,0-4.7c0.6,0,0.9,0,1.5-0.1c0,2.8,0,4.2,0,7c0,0.7-0.2,1.3-0.5,1.6
			s-0.8,0.5-1.5,0.6c-0.5,0-1.1-0.1-1.8-0.3c0-0.5,0-0.8,0-1.4c0.6,0.3,1.1,0.5,1.6,0.5s0.8-0.3,0.8-0.8c0-0.4,0-0.7,0-1.1l0,0
			c-0.4,0.4-0.9,0.7-1.3,0.7c-0.5,0-0.8-0.1-1-0.5c-0.2-0.3-0.3-0.8-0.3-1.4c0-1.9,0-2.8,0-4.7c0.6,0,0.9,0,1.5-0.1
			c0,1.9,0,2.8,0,4.7c0,0.4,0.1,0.6,0.3,0.6s0.4-0.2,0.6-0.5C-179,225.5-178.9,225.5-178.9,225.4z"/>
		<path class="st5" d="M-171.9,223.6c0,1.2-0.2,2.1-0.5,2.6s-0.9,0.8-1.7,0.8s-1.3-0.2-1.7-0.7c-0.3-0.5-0.5-1.4-0.5-2.6
			s0.2-2.1,0.5-2.6s0.9-0.8,1.7-0.8s1.3,0.2,1.7,0.7S-171.9,222.4-171.9,223.6z M-174,221.5c-0.4,0-0.6,0.3-0.6,1c0,0.1,0,0.5,0,1.3
			s0,1.3,0,1.3c0.1,0.6,0.3,0.9,0.6,0.9c0.4,0,0.6-0.3,0.6-1c0-0.1,0-0.5,0-1.3s0-1.3,0-1.3C-173.4,221.8-173.6,221.5-174,221.5z"/>
		<path class="st5" d="M-168.1,224.9c0-1.9,0-2.8,0-4.7c0.6,0,0.9,0,1.5-0.1c0,1.9,0,2.8,0,4.7c0,0.8,0,1.4,0.1,1.8
			c-0.4,0-0.5,0-0.9,0c-0.2-0.1-0.4-0.4-0.5-0.7c-0.1,0.1-0.1,0.1-0.2,0.2c-0.4,0.4-0.9,0.7-1.3,0.7c-0.5,0-0.8-0.1-1-0.5
			c-0.2-0.3-0.3-0.8-0.3-1.4c0-1.9,0-2.8,0-4.7c0.6,0,0.9,0,1.5-0.1c0,1.9,0,2.8,0,4.7c0,0.4,0.1,0.6,0.3,0.6s0.4-0.2,0.6-0.5
			C-168.2,225.1-168.1,225-168.1,224.9z"/>
		<path class="st5" d="M-161,220c0.6,0,0.9,0,1.5,0c0,0.5,0,0.7,0,1.2c-0.6,0-0.9,0-1.5,0c0,2.1,0,3.2,0,5.3c-0.6,0-0.9,0-1.5,0
			c0-2.1,0-3.2,0-5.3c-0.3,0-0.5,0-0.9,0c0-0.5,0-0.7,0-1.2c0.3,0,0.5,0,0.9,0c0-0.3,0-0.4,0-0.7c0-0.7,0.2-1.2,0.5-1.5
			c0.3-0.2,0.8-0.4,1.5-0.4c0.4,0,0.8,0,1.1,0.1c0,0.5,0,0.7,0,1.2c-0.3-0.1-0.6-0.1-0.9-0.1s-0.6,0.2-0.6,0.7
			C-161,219.6-161,219.7-161,220z"/>
		<path class="st5" d="M-154.9,223.1c0,1.2-0.2,2.1-0.5,2.6s-0.9,0.8-1.7,0.8s-1.3-0.2-1.7-0.7c-0.3-0.5-0.5-1.4-0.5-2.6
			s0.2-2.1,0.5-2.6s0.9-0.8,1.7-0.8s1.3,0.2,1.7,0.7S-154.9,221.9-154.9,223.1z M-157,220.9c-0.4,0-0.6,0.3-0.6,1c0,0.1,0,0.5,0,1.3
			s0,1.3,0,1.3c0.1,0.6,0.3,0.9,0.6,0.9c0.4,0,0.6-0.3,0.6-1c0-0.1,0-0.5,0-1.3s0-1.3,0-1.3C-156.5,221.2-156.7,220.9-157,220.9z"/>
		<path class="st5" d="M-152.2,220.9c0.2-0.2,0.4-0.4,0.6-0.6c0.4-0.4,0.7-0.6,1.1-0.6c0,0.7,0,1.1,0,1.9c-0.1-0.1-0.3-0.1-0.4-0.1
			c-0.2,0-0.5,0.1-0.8,0.4c-0.2,0.1-0.2,0.2-0.4,0.4c0,1.6,0,2.5,0,4.1c-0.6,0-0.9,0-1.5,0c0-1.9,0-2.8,0-4.7c0-0.8,0-1.4-0.1-1.8
			c0.4,0,0.5,0,0.9,0C-152.5,220-152.3,220.4-152.2,220.9z"/>
		<path class="st5" d="M-144.9,224.4c0-1.9,0-2.8,0-4.7c0.6,0,0.9,0,1.5,0c0,1.9,0,2.8,0,4.7c0,0.8,0,1.4,0.1,1.8
			c-0.4,0-0.5,0-0.9,0c-0.2-0.1-0.4-0.4-0.5-0.7c-0.1,0.1-0.1,0.1-0.2,0.2c-0.4,0.4-0.9,0.6-1.3,0.6c-0.5,0-0.8-0.2-1-0.5
			s-0.3-0.8-0.3-1.4c0-1.9,0-2.8,0-4.7c0.6,0,0.9,0,1.5,0c0,1.9,0,2.8,0,4.7c0,0.4,0.1,0.6,0.3,0.6s0.4-0.1,0.6-0.4
			C-145,224.5-145,224.5-144.9,224.4z"/>
		<path class="st5" d="M-138.9,219.9c0,0.5,0,0.8,0,1.3c-0.6-0.3-1.1-0.5-1.6-0.5c-0.4,0-0.6,0.2-0.6,0.7c0,0.4,0.2,0.7,0.6,0.7
			c1.4,0,2,0.7,2,2.1c0,1.4-0.7,2.1-2.1,2.1c-0.6,0-1.1-0.1-1.6-0.3c0-0.5,0-0.8,0-1.3c0.6,0.3,1.1,0.4,1.6,0.4s0.8-0.3,0.8-0.8
			s-0.3-0.7-0.8-0.7c-0.6,0-1-0.1-1.3-0.4c-0.4-0.3-0.6-0.9-0.6-1.7c0-1.3,0.6-1.9,1.9-1.9C-140,219.6-139.5,219.7-138.9,219.9z"/>
		<path class="st5" d="M-135.8,219.7c0,2.6,0,3.9,0,6.5c-0.6,0-0.9,0-1.5,0c0-2.1,0-3.2,0-5.3c-0.3,0-0.4,0-0.7,0c0-0.5,0-0.7,0-1.2
			C-137.1,219.7-136.7,219.7-135.8,219.7z M-136.6,217.1c0.2,0,0.5,0.1,0.6,0.3c0.2,0.2,0.3,0.4,0.3,0.6c0,0.2-0.1,0.5-0.3,0.6
			s-0.4,0.3-0.6,0.3c-0.2,0-0.4-0.1-0.6-0.3c-0.2-0.2-0.3-0.4-0.3-0.6c0-0.3,0.1-0.5,0.3-0.6C-137,217.2-136.8,217.1-136.6,217.1z"
			/>
		<path class="st5" d="M-133,220.5c0.1-0.1,0.2-0.1,0.3-0.2c0.4-0.4,0.9-0.6,1.3-0.6c0.5,0,0.8,0.2,1,0.5s0.3,0.8,0.3,1.4
			c0,1.9,0,2.8,0,4.7c-0.6,0-0.9,0-1.5,0c0-1.9,0-2.8,0-4.7c0-0.4-0.1-0.6-0.3-0.6s-0.4,0.1-0.6,0.4c-0.1,0.1-0.2,0.2-0.3,0.3
			c0,1.8,0,2.7,0,4.6c-0.6,0-0.9,0-1.5,0c0-1.9,0-2.8,0-4.7c0-0.8,0-1.4-0.1-1.8c0.4,0,0.5,0,0.9,0
			C-133.3,219.9-133.1,220.1-133,220.5z"/>
		<path class="st5" d="M-124.7,226.9c0,0.7-0.2,1.3-0.5,1.6s-0.9,0.5-1.5,0.5c-0.5,0-1.1-0.2-1.8-0.4c0-0.5,0-0.8,0-1.4
			c0.6,0.4,1.1,0.6,1.6,0.6s0.8-0.3,0.8-0.8c0-0.4,0-0.6,0-1c-0.4,0.4-0.8,0.5-1.2,0.5c-0.5,0-0.9-0.3-1.2-0.7
			c-0.3-0.5-0.4-1.4-0.4-2.7c0-1.2,0.1-2.1,0.4-2.7c0.2-0.5,0.6-0.7,1.2-0.7c0.4,0,0.9,0.3,1.4,0.8c0.1-0.3,0.3-0.5,0.5-0.6
			c0.4,0,0.5,0,0.9,0c-0.1,0.4-0.1,1-0.1,1.8C-124.7,223.8-124.7,224.8-124.7,226.9z M-126.2,221.5c-0.1-0.1-0.1-0.1-0.2-0.2
			c-0.2-0.3-0.4-0.4-0.6-0.4s-0.3,0.1-0.3,0.3c-0.1,0.3-0.2,0.9-0.2,1.9s0.1,1.6,0.2,1.8s0.2,0.3,0.3,0.3c0.2,0,0.4-0.1,0.6-0.4
			c0.1-0.1,0.1-0.1,0.2-0.2C-126.2,223.4-126.2,222.8-126.2,221.5z"/>
		<path class="st5" d="M-118.1,226.2c-0.3,0.2-0.7,0.2-1.3,0.2c-0.5,0-0.9-0.1-1.1-0.4c-0.2-0.2-0.2-0.7-0.2-1.4c0-1.5,0-2.2,0-3.6
			c-0.3,0-0.5,0-0.9,0c0-0.5,0-0.7,0-1.2c0.3,0,0.5,0,0.9,0c0-0.6,0-0.9,0-1.5c0.6,0,0.9,0,1.5,0c0,0.6,0,0.9,0,1.5
			c0.5,0,0.7,0,1.1,0c0,0.5,0,0.7,0,1.2c-0.5,0-0.7,0-1.1,0c0,1.5,0,2.2,0,3.6c0,0.2,0,0.4,0.1,0.4c0.1,0.1,0.2,0.1,0.5,0.1
			c0.2,0,0.4,0,0.6-0.1C-118.1,225.7-118.1,225.9-118.1,226.2z"/>
		<path class="st5" d="M-115.8,220.6c0.4-0.4,0.9-0.6,1.3-0.6c0.5,0,0.8,0.2,1,0.5s0.3,0.8,0.3,1.4c0,1.9,0,2.8,0,4.7
			c-0.6,0-0.9,0-1.5-0.1c0-1.9,0-2.8,0-4.7c0-0.4-0.1-0.6-0.3-0.6c-0.2,0-0.4,0.1-0.6,0.4c-0.1,0.1-0.1,0.1-0.2,0.2
			c0,1.9,0,2.8,0,4.7c-0.6,0-0.9,0-1.5,0c0-3.6,0-5.4,0-9c0.6,0,0.9,0,1.5,0C-115.8,218.8-115.8,219.4-115.8,220.6z"/>
		<path class="st5" d="M-110.1,220.2c0,2.6,0,3.9,0,6.5c-0.6,0-0.9,0-1.5-0.1c0-2.1,0-3.2,0-5.3c-0.3,0-0.4,0-0.7,0
			c0-0.5,0-0.7,0-1.2C-111.4,220.2-111,220.2-110.1,220.2z M-110.9,217.7c0.2,0,0.5,0.1,0.6,0.3c0.2,0.2,0.3,0.4,0.3,0.6
			c0,0.2-0.1,0.4-0.3,0.6c-0.2,0.2-0.4,0.2-0.6,0.2s-0.4-0.1-0.6-0.3s-0.3-0.4-0.3-0.6c0-0.3,0.1-0.5,0.3-0.6
			C-111.3,217.7-111.1,217.7-110.9,217.7z"/>
		<path class="st5" d="M-105.5,220.7c0,0.5,0,0.8,0,1.3c-0.6-0.3-1.1-0.5-1.6-0.5c-0.4,0-0.6,0.2-0.6,0.7c0,0.4,0.2,0.7,0.6,0.7
			c1.4,0.1,2,0.8,2,2.2s-0.7,2-2.1,2c-0.6,0-1.1-0.1-1.6-0.4c0-0.5,0-0.8,0-1.3c0.6,0.3,1.1,0.4,1.6,0.5c0.5,0,0.8-0.2,0.8-0.8
			c0-0.5-0.3-0.7-0.8-0.7c-0.6,0-1-0.2-1.3-0.4c-0.4-0.3-0.6-0.9-0.6-1.7c0-1.3,0.6-1.9,1.9-1.8
			C-106.6,220.2-106.1,220.4-105.5,220.7z"/>
		<path class="st5" d="M-99.6,222.6c0-0.4-0.2-0.7-0.7-0.7s-1.1,0.1-1.7,0.5c0-0.6,0-0.8,0-1.4c0.7-0.2,1.3-0.3,1.9-0.3
			c0.7,0,1.2,0.2,1.5,0.6c0.3,0.3,0.5,0.9,0.5,1.6c0,1.1,0,1.6,0,2.7c0,0.9,0,1.5,0.1,1.8c-0.4,0-0.5,0-0.9,0
			c-0.2-0.1-0.3-0.3-0.5-0.6l-0.1,0.1c-0.3,0.4-0.7,0.5-1.3,0.5c-1-0.1-1.5-0.7-1.5-2c0-0.7,0.2-1.2,0.5-1.6
			c0.4-0.4,0.9-0.6,1.6-0.5c0.2,0,0.3,0,0.5,0C-99.6,223-99.6,222.9-99.6,222.6z M-99.6,225.8c0-0.5,0-0.8,0-1.3c-0.1,0-0.2,0-0.4,0
			c-0.6,0-0.9,0.3-0.9,1c0,0.5,0.2,0.8,0.5,0.8c0.2,0,0.4-0.1,0.6-0.4C-99.6,225.8-99.6,225.8-99.6,225.8z"/>
		<path class="st5" d="M-95.2,227.1c0,1.2,0,1.7,0,2.9c-0.6,0-0.9-0.1-1.5-0.1c0-2.9,0-4.3,0-7.2c0-0.8,0-1.4-0.1-1.8
			c0.4,0,0.5,0,0.9,0.1c0.2,0.1,0.4,0.4,0.5,0.7c0.5-0.5,1-0.7,1.4-0.7c0.5,0,0.9,0.3,1.2,0.8c0.3,0.6,0.4,1.5,0.4,2.7
			s-0.1,2.1-0.4,2.6c-0.2,0.5-0.6,0.7-1.2,0.6C-94.4,227.7-94.8,227.5-95.2,227.1z M-95.2,225.8c0.1,0.1,0.1,0.1,0.2,0.2
			c0.2,0.3,0.4,0.4,0.6,0.4s0.3-0.1,0.3-0.3c0.1-0.3,0.2-0.9,0.2-1.8s-0.1-1.6-0.2-1.9c-0.1-0.2-0.2-0.3-0.3-0.3
			c-0.2,0-0.4,0.1-0.6,0.3c-0.1,0.1-0.1,0.1-0.2,0.2C-95.2,224-95.2,224.6-95.2,225.8z"/>
		<path class="st5" d="M-89.7,227.5c0,1.2,0,1.7,0,2.9c-0.6,0-0.9-0.1-1.5-0.1c0-2.9,0-4.3,0-7.2c0-0.8,0-1.4-0.1-1.8
			c0.4,0,0.5,0,0.9,0.1c0.2,0.1,0.4,0.4,0.5,0.7c0.5-0.5,1-0.7,1.4-0.7c0.5,0,0.9,0.3,1.2,0.8c0.3,0.6,0.4,1.5,0.4,2.7
			s-0.1,2.1-0.4,2.6c-0.2,0.5-0.6,0.7-1.2,0.6C-88.9,228.1-89.3,227.9-89.7,227.5z M-89.7,226.2c0.1,0.1,0.1,0.1,0.2,0.2
			c0.2,0.3,0.4,0.4,0.6,0.4s0.3-0.1,0.3-0.3c0.1-0.3,0.2-0.9,0.2-1.8c0-0.9-0.1-1.6-0.2-1.9c-0.1-0.2-0.2-0.3-0.3-0.3
			c-0.2,0-0.4,0.1-0.6,0.3c-0.1,0.1-0.1,0.1-0.2,0.2C-89.7,224.2-89.7,224.9-89.7,226.2z"/>
		<path class="st5" d="M-84.9,226.2c0.3,0,0.5,0.1,0.7,0.4c0.2,0.2,0.3,0.5,0.3,0.7s-0.1,0.5-0.3,0.7s-0.4,0.3-0.7,0.2
			c-0.3,0-0.5-0.1-0.7-0.4c-0.2-0.2-0.3-0.5-0.3-0.7s0.1-0.5,0.3-0.7C-85.4,226.4-85.2,226.2-84.9,226.2z"/>
		<path class="st5" d="M-207.5,240.9c0,1.6,0,2.4,0,4c-0.6,0.1-0.9,0.1-1.5,0.1c0-3.6,0-5.4,0-9c0.6-0.1,0.9-0.1,1.5-0.1
			c0,1.4,0,2.1,0,3.5c0.6-0.1,0.9-0.1,1.6-0.1c0-1.4,0-2.1,0-3.5c0.6-0.1,0.9-0.1,1.5-0.1c0,3.6,0,5.4,0,9c-0.6,0.1-0.9,0.1-1.5,0.1
			c0-1.6,0-2.4,0-4C-206.6,240.8-206.9,240.8-207.5,240.9z"/>
		<path class="st5" d="M-198.6,240.9c0,1.2-0.2,2.1-0.5,2.7c-0.3,0.5-0.9,0.8-1.6,0.9c-0.8,0.1-1.3-0.1-1.7-0.6
			c-0.3-0.5-0.5-1.3-0.5-2.6c0-1.2,0.2-2.1,0.5-2.7c0.3-0.5,0.9-0.8,1.7-0.9c0.8-0.1,1.3,0.1,1.6,0.6S-198.6,239.6-198.6,240.9z
			 M-200.8,238.8c-0.4,0-0.6,0.4-0.6,1c0,0.1,0,0.5,0,1.3s0,1.3,0,1.3c0.1,0.6,0.3,0.9,0.6,0.9c0.4,0,0.6-0.4,0.6-1
			c0-0.1,0-0.5,0-1.3s0-1.3,0-1.3C-200.2,239.1-200.4,238.8-200.8,238.8z"/>
		<path class="st5" d="M-195.9,243.5c0,1.2,0,1.7,0,2.9c-0.6,0-0.9,0.1-1.5,0.1c0-2.9,0-4.3,0-7.2c0-0.8,0-1.4-0.1-1.8
			c0.4,0,0.5,0,0.9-0.1c0.2,0.1,0.4,0.3,0.5,0.6c0.5-0.5,1-0.8,1.4-0.9c0.5,0,0.9,0.2,1.2,0.6c0.3,0.5,0.4,1.4,0.4,2.6
			s-0.1,2.1-0.4,2.7c-0.2,0.5-0.6,0.8-1.2,0.8C-195.1,244-195.5,243.8-195.9,243.5z M-195.9,242.2c0.1,0.1,0.1,0.1,0.2,0.2
			c0.2,0.2,0.4,0.3,0.6,0.3c0.2,0,0.3-0.1,0.3-0.3c0.1-0.3,0.2-0.9,0.2-1.9s-0.1-1.6-0.2-1.8c-0.1-0.2-0.2-0.3-0.3-0.3
			c-0.2,0-0.4,0.2-0.6,0.4c-0.1,0.1-0.1,0.1-0.2,0.2C-195.9,240.4-195.9,241-195.9,242.2z"/>
		<path class="st5" d="M-188.1,241.8c0,0.5,0,0.8,0,1.3c-0.7,0.3-1.3,0.5-1.8,0.5c-0.7,0-1.2-0.1-1.5-0.5c-0.4-0.5-0.6-1.4-0.6-2.7
			c0-1.2,0.2-2.1,0.5-2.7c0.3-0.5,0.9-0.8,1.7-0.9c0.6,0,1.1,0.1,1.4,0.4s0.4,0.8,0.4,1.6c0,0.6,0,0.9,0,1.4c-1,0.1-1.5,0.1-2.6,0.2
			c0,0.5,0,0.9,0,1c0.1,0.4,0.2,0.7,0.4,0.8c0.1,0.1,0.3,0.1,0.5,0.1C-189.1,242.2-188.6,242.1-188.1,241.8z M-189.3,239.2
			c0-0.4,0-0.7,0-0.8c-0.1-0.3-0.2-0.4-0.5-0.4c-0.2,0-0.4,0.1-0.5,0.3s-0.1,0.5-0.2,1C-190.1,239.2-189.8,239.2-189.3,239.2
			L-189.3,239.2z"/>
		<path class="st5" d="M-181.5,242.8c-0.3,0.2-0.7,0.3-1.3,0.3c-0.5,0-0.9-0.1-1.1-0.3c-0.2-0.2-0.2-0.7-0.2-1.4c0-1.5,0-2.2,0-3.6
			c-0.3,0-0.5,0-0.9,0.1c0-0.5,0-0.7,0-1.2c0.3,0,0.5,0,0.9-0.1c0-0.6,0-0.9,0-1.5c0.6,0,0.9-0.1,1.5-0.1c0,0.6,0,0.9,0,1.5
			c0.5,0,0.7,0,1.1-0.1c0,0.5,0,0.7,0,1.2c-0.5,0-0.7,0-1.1,0.1c0,1.5,0,2.2,0,3.6c0,0.2,0,0.3,0.1,0.4c0.1,0.1,0.2,0.1,0.4,0.1
			s0.4-0.1,0.6-0.1C-181.5,242.1-181.5,242.2-181.5,242.8z"/>
		<path class="st5" d="M-179.2,236.8c0.4-0.4,0.9-0.7,1.3-0.7c0.5,0,0.8,0.1,1,0.5c0.2,0.3,0.3,0.8,0.3,1.4c0,1.9,0,2.8,0,4.7
			c-0.6,0-0.9,0-1.5,0.1c0-1.9,0-2.8,0-4.7c0-0.4-0.1-0.6-0.3-0.6s-0.4,0.2-0.6,0.5c-0.1,0.1-0.1,0.1-0.2,0.2c0,1.9,0,2.8,0,4.7
			c-0.6,0-0.9,0-1.5,0.1c0-3.6,0-5.4,0-9c0.6,0,0.9,0,1.5-0.1C-179.2,235.1-179.2,235.7-179.2,236.8z"/>
		<path class="st5" d="M-173.5,236.1c0,2.6,0,3.9,0,6.5c-0.6,0-0.9,0-1.5,0.1c0-2.1,0-3.2,0-5.3c-0.3,0-0.4,0-0.7,0
			c0-0.5,0-0.7,0-1.2C-174.8,236.1-174.4,236.1-173.5,236.1z M-174.3,233.5c0.2,0,0.5,0.1,0.6,0.2c0.2,0.2,0.3,0.4,0.3,0.6
			c0,0.2-0.1,0.5-0.3,0.6c-0.2,0.2-0.4,0.3-0.6,0.3c-0.2,0-0.4-0.1-0.6-0.2c-0.2-0.2-0.3-0.4-0.3-0.6c0-0.3,0.1-0.5,0.3-0.6
			C-174.8,233.6-174.6,233.5-174.3,233.5z"/>
		<path class="st5" d="M-168.9,236.1c0,0.5,0,0.8,0,1.3c-0.6-0.3-1.1-0.4-1.6-0.4c-0.4,0-0.6,0.3-0.6,0.7s0.2,0.7,0.6,0.6
			c1.4-0.1,2,0.6,2,2s-0.7,2.1-2.1,2.1c-0.6,0-1.1-0.1-1.6-0.2c0-0.5,0-0.8,0-1.3c0.6,0.2,1.1,0.3,1.6,0.3s0.8-0.3,0.8-0.9
			c0-0.5-0.3-0.7-0.8-0.7c-0.6,0-1-0.1-1.3-0.3c-0.4-0.3-0.6-0.9-0.6-1.7c0-1.3,0.6-1.9,1.9-2C-170,235.8-169.5,235.9-168.9,236.1z"
			/>
		<path class="st5" d="M-163.5,235.7c0,2.6,0,3.9,0,6.5c-0.6,0-0.9,0-1.5,0c0-2.1,0-3.2,0-5.3c-0.3,0-0.4,0-0.7,0c0-0.5,0-0.7,0-1.2
			C-164.8,235.7-164.4,235.7-163.5,235.7z M-164.3,233.1c0.2,0,0.5,0.1,0.6,0.2c0.2,0.2,0.3,0.4,0.3,0.6c0,0.2-0.1,0.5-0.3,0.6
			s-0.4,0.3-0.6,0.3c-0.2,0-0.4-0.1-0.6-0.2c-0.2-0.2-0.3-0.4-0.3-0.6c0-0.3,0.1-0.5,0.3-0.6C-164.7,233.2-164.5,233.1-164.3,233.1z
			"/>
		<path class="st5" d="M-160.7,236.2c0.1-0.1,0.2-0.2,0.3-0.3c0.4-0.4,0.9-0.6,1.3-0.7c0.5,0,0.8,0.2,1,0.5s0.3,0.8,0.3,1.4
			c0,1.9,0,2.8,0,4.7c-0.6,0-0.9,0-1.5,0c0-1.9,0-2.8,0-4.7c0-0.4-0.1-0.6-0.3-0.6s-0.4,0.2-0.6,0.4c-0.1,0.1-0.2,0.2-0.3,0.3
			c0,1.8,0,2.7,0,4.6c-0.6,0-0.9,0-1.5,0c0-1.9,0-2.8,0-4.7c0-0.8,0-1.4-0.1-1.8c0.4,0,0.5,0,0.9,0
			C-161,235.8-160.8,236-160.7,236.2z"/>
		<path class="st5" d="M-154.7,235.5c0.6,0,0.9,0,1.5,0c0,0.5,0,0.7,0,1.2c-0.6,0-0.9,0-1.5,0c0,2.1,0,3.2,0,5.3c-0.6,0-0.9,0-1.5,0
			c0-2.1,0-3.2,0-5.3c-0.3,0-0.5,0-0.9,0c0-0.5,0-0.7,0-1.2c0.3,0,0.5,0,0.9,0c0-0.3,0-0.4,0-0.7c0-0.7,0.2-1.2,0.5-1.5
			c0.3-0.2,0.8-0.4,1.5-0.4c0.4,0,0.8,0,1.1,0.1c0,0.5,0,0.7,0,1.2c-0.3-0.1-0.6-0.1-0.9-0.1c-0.4,0-0.6,0.2-0.6,0.7
			C-154.7,235.1-154.7,235.2-154.7,235.5z"/>
		<path class="st5" d="M-148.5,238.6c0,1.2-0.2,2.1-0.5,2.6s-0.9,0.8-1.7,0.8s-1.3-0.2-1.7-0.7c-0.3-0.5-0.5-1.4-0.5-2.6
			s0.2-2.1,0.5-2.6s0.9-0.8,1.7-0.8s1.3,0.2,1.7,0.7C-148.7,236.5-148.5,237.4-148.5,238.6z M-150.7,236.4c-0.4,0-0.6,0.3-0.6,0.9
			c0,0.1,0,0.5,0,1.3s0,1.3,0,1.3c0.1,0.6,0.3,0.9,0.6,0.9s0.6-0.3,0.6-0.9c0-0.1,0-0.5,0-1.3s0-1.3,0-1.3
			C-150.1,236.7-150.3,236.4-150.7,236.4z"/>
		<path class="st5" d="M-145.9,236.4c0.2-0.2,0.4-0.4,0.6-0.6c0.4-0.4,0.7-0.6,1.1-0.6c0,0.7,0,1.1,0,1.9c-0.1-0.1-0.3-0.1-0.4-0.1
			c-0.2,0-0.5,0.1-0.8,0.4c-0.2,0.1-0.2,0.2-0.4,0.4c0,1.6,0,2.5,0,4.1c-0.6,0-0.9,0-1.5,0c0-1.9,0-2.8,0-4.7c0-0.8,0-1.4-0.1-1.8
			c0.4,0,0.5,0,0.9,0C-146.2,235.5-146,235.9-145.9,236.4z"/>
		<path class="st5" d="M-139.6,236l0.1-0.1c0.5-0.5,0.9-0.7,1.3-0.7c0.5,0,0.8,0.2,1,0.5s0.3,0.8,0.3,1.4c0,1.9,0,2.8,0,4.7
			c-0.6,0-0.9,0-1.5,0c0-1.9,0-2.8,0-4.7c0-0.4-0.1-0.6-0.3-0.6s-0.4,0.1-0.6,0.4c-0.1,0.1-0.1,0.1-0.1,0.2c0,1.9,0,2.8,0,4.7
			c-0.6,0-0.9,0-1.5,0c0-1.9,0-2.8,0-4.7c0-0.4-0.1-0.6-0.3-0.6s-0.4,0.1-0.6,0.4c-0.1,0.1-0.1,0.1-0.1,0.2c0,1.9,0,2.8,0,4.7
			c-0.6,0-0.9,0-1.5,0c0-1.9,0-2.8,0-4.7c0-0.8,0-1.4-0.1-1.8c0.4,0,0.5,0,0.9,0c0.2,0.1,0.4,0.4,0.5,0.7c0.1-0.1,0.1-0.1,0.1-0.1
			c0.5-0.5,0.9-0.7,1.3-0.7C-140.1,235.2-139.7,235.4-139.6,236z"/>
		<path class="st5" d="M-133.3,237.1c0-0.4-0.2-0.7-0.7-0.7s-1.1,0.2-1.7,0.6c0-0.6,0-0.8,0-1.4c0.7-0.3,1.3-0.4,1.9-0.4
			c0.7,0,1.2,0.2,1.5,0.5s0.5,0.9,0.5,1.6c0,1.1,0,1.6,0,2.7c0,0.9,0,1.5,0.1,1.8c-0.4,0-0.5,0-0.9,0c-0.2-0.1-0.3-0.3-0.5-0.6
			c0,0.1-0.1,0.1-0.1,0.1c-0.3,0.4-0.7,0.6-1.3,0.6c-1,0-1.5-0.6-1.5-1.9c0-0.7,0.2-1.2,0.5-1.6c0.4-0.4,0.9-0.6,1.6-0.6
			c0.2,0,0.3,0,0.5,0C-133.3,237.6-133.3,237.4-133.3,237.1z M-133.3,240.2c0-0.5,0-0.8,0-1.3c-0.1,0-0.2,0-0.4,0
			c-0.6,0-0.9,0.3-0.9,1c0,0.5,0.2,0.8,0.5,0.8c0.2,0,0.4-0.1,0.6-0.4C-133.4,240.4-133.3,240.4-133.3,240.2z"/>
		<path class="st5" d="M-127.5,241.7c-0.3,0.2-0.7,0.2-1.3,0.2c-0.5,0-0.9-0.1-1.1-0.4c-0.2-0.2-0.2-0.7-0.2-1.4c0-1.5,0-2.2,0-3.6
			c-0.3,0-0.5,0-0.9,0c0-0.5,0-0.7,0-1.2c0.3,0,0.5,0,0.9,0c0-0.6,0-0.9,0-1.5c0.6,0,0.9,0,1.5,0c0,0.6,0,0.9,0,1.5
			c0.5,0,0.7,0,1.1,0c0,0.5,0,0.7,0,1.2c-0.5,0-0.7,0-1.1,0c0,1.5,0,2.2,0,3.6c0,0.2,0,0.4,0.1,0.4c0.1,0.1,0.2,0.1,0.5,0.1
			c0.2,0,0.4,0,0.6-0.1C-127.5,241.1-127.5,241.2-127.5,241.7z"/>
		<path class="st5" d="M-125,235.5c0,2.6,0,3.9,0,6.5c-0.6,0-0.9,0-1.5,0c0-2.1,0-3.2,0-5.3c-0.3,0-0.4,0-0.7,0c0-0.5,0-0.7,0-1.2
			C-126.3,235.4-125.9,235.4-125,235.5z M-125.8,232.8c0.2,0,0.5,0.1,0.6,0.3c0.2,0.2,0.3,0.4,0.3,0.6c0,0.2-0.1,0.4-0.3,0.6
			c-0.2,0.2-0.4,0.3-0.6,0.2c-0.2,0-0.4-0.1-0.6-0.3s-0.3-0.4-0.3-0.6c0-0.3,0.1-0.5,0.3-0.6S-126,232.8-125.8,232.8z"/>
		<path class="st5" d="M-119.4,238.8c0,1.2-0.2,2.1-0.5,2.6s-0.9,0.7-1.7,0.7c-0.8,0-1.3-0.3-1.7-0.8c-0.3-0.5-0.5-1.4-0.5-2.6
			s0.2-2.1,0.5-2.6s0.9-0.7,1.7-0.7c0.8,0,1.3,0.3,1.7,0.8C-119.5,236.7-119.4,237.6-119.4,238.8z M-121.5,236.5
			c-0.4,0-0.6,0.3-0.6,0.9c0,0.1,0,0.5,0,1.3s0,1.3,0,1.3c0.1,0.6,0.3,0.9,0.6,1c0.4,0,0.6-0.3,0.6-0.9c0-0.1,0-0.5,0-1.3
			s0-1.3,0-1.3C-120.9,236.8-121.2,236.5-121.5,236.5z"/>
		<path class="st5" d="M-116.8,236.4c0.1-0.1,0.2-0.1,0.3-0.2c0.4-0.4,0.9-0.6,1.3-0.6c0.5,0,0.8,0.2,1,0.5s0.3,0.8,0.3,1.4
			c0,1.9,0,2.8,0,4.7c-0.6,0-0.9,0-1.5-0.1c0-1.9,0-2.8,0-4.7c0-0.4-0.1-0.6-0.3-0.6c-0.2,0-0.4,0.1-0.6,0.4
			c-0.1,0.1-0.2,0.2-0.3,0.3c0,1.8,0,2.7,0,4.6c-0.6,0-0.9,0-1.5,0c0-1.9,0-2.8,0-4.7c0-0.8,0-1.4-0.1-1.8c0.4,0,0.5,0,0.9,0
			C-117.1,235.8-116.9,236-116.8,236.4z"/>
		<path class="st5" d="M-106.9,236.2c0,0.6,0,0.9,0,1.5c-0.4-0.3-0.8-0.5-1.2-0.5c-0.3,0-0.5,0.1-0.6,0.3c-0.2,0.3-0.2,0.8-0.2,1.7
			c0,0.8,0.1,1.4,0.2,1.7c0.1,0.2,0.3,0.3,0.6,0.3c0.4,0,0.8-0.1,1.2-0.4c0,0.6,0,0.9,0,1.5c-0.5,0.2-1.1,0.3-1.6,0.2
			c-0.7,0-1.1-0.2-1.4-0.6c-0.4-0.5-0.5-1.4-0.5-2.8c0-1.4,0.2-2.3,0.6-2.7c0.3-0.4,0.7-0.5,1.4-0.5
			C-108,235.9-107.5,236-106.9,236.2z"/>
		<path class="st5" d="M-104.4,233.7c0,3.6,0,5.4,0,9c-0.6,0-0.9,0-1.5-0.1c0-3.1,0-4.7,0-7.8c-0.3,0-0.4,0-0.7,0c0-0.5,0-0.7,0-1.2
			C-105.6,233.6-105.2,233.6-104.4,233.7z"/>
		<path class="st5" d="M-100.6,238.1c0-0.4-0.2-0.7-0.7-0.7s-1.1,0.1-1.7,0.5c0-0.6,0-0.8,0-1.4c0.7-0.2,1.3-0.4,1.9-0.3
			c0.7,0,1.2,0.2,1.5,0.6c0.3,0.3,0.5,0.9,0.5,1.6c0,1.1,0,1.6,0,2.7c0,0.9,0,1.5,0.1,1.8c-0.4,0-0.5,0-0.9,0
			c-0.2-0.1-0.3-0.3-0.5-0.6l-0.1,0.1c-0.3,0.4-0.7,0.5-1.3,0.5c-1-0.1-1.5-0.7-1.5-2c0-0.7,0.2-1.2,0.5-1.6
			c0.4-0.4,0.9-0.6,1.6-0.5c0.2,0,0.3,0,0.5,0C-100.6,238.6-100.6,238.4-100.6,238.1z M-100.6,241.2c0-0.5,0-0.8,0-1.3
			c-0.1,0-0.2,0-0.4,0c-0.6,0-0.9,0.3-0.9,1c0,0.5,0.2,0.8,0.5,0.8c0.2,0,0.4-0.1,0.6-0.4C-100.7,241.4-100.7,241.4-100.6,241.2z"/>
		<path class="st5" d="M-96.3,237.6c0.2-0.2,0.4-0.3,0.6-0.6c0.4-0.4,0.7-0.5,1.1-0.5c0,0.7,0,1.1,0,1.9c-0.1-0.1-0.3-0.1-0.4-0.1
			c-0.2,0-0.5,0.1-0.8,0.3c-0.2,0.1-0.2,0.2-0.4,0.3c0,1.6,0,2.5,0,4.1c-0.6,0-0.9-0.1-1.5-0.1c0-1.9,0-2.8,0-4.7
			c0-0.8,0-1.4-0.1-1.8c0.4,0,0.5,0,0.9,0.1C-96.7,236.7-96.4,237.1-96.3,237.6z"/>
		<path class="st5" d="M-92.2,236.8c0,2.6,0,3.9,0,6.5c-0.6,0-0.9-0.1-1.5-0.1c0-2.1,0-3.2,0-5.3c-0.3,0-0.4,0-0.7,0
			c0-0.5,0-0.7,0-1.2C-93.5,236.7-93.1,236.8-92.2,236.8z M-93,234.2c0.2,0,0.5,0.1,0.6,0.3c0.2,0.2,0.3,0.4,0.3,0.6
			c0,0.2-0.1,0.4-0.3,0.6c-0.2,0.2-0.4,0.2-0.6,0.2s-0.4-0.1-0.6-0.3s-0.3-0.4-0.3-0.6c0-0.3,0.1-0.5,0.3-0.6
			C-93.4,234.2-93.2,234.2-93,234.2z"/>
		<path class="st5" d="M-88.9,237c0.6,0,0.9,0.1,1.5,0.1c0,0.5,0,0.7,0,1.2c-0.6,0-0.9-0.1-1.5-0.1c0,2.1,0,3.2,0,5.3
			c-0.6,0-0.9-0.1-1.5-0.1c0-2.1,0-3.2,0-5.3c-0.3,0-0.5,0-0.9-0.1c0-0.5,0-0.7,0-1.2c0.3,0,0.5,0,0.9,0.1c0-0.3,0-0.4,0-0.7
			c0-0.7,0.2-1.2,0.5-1.5c0.3-0.2,0.8-0.3,1.5-0.2c0.4,0,0.7,0.1,1.1,0.2c0,0.5,0,0.7,0,1.2c-0.3-0.1-0.6-0.2-0.9-0.2
			s-0.6,0.2-0.6,0.6C-88.9,236.6-88.9,236.8-88.9,237z"/>
		<path class="st5" d="M-85.3,237.2c0,2.6,0,3.9,0,6.5c-0.6,0-0.9-0.1-1.5-0.1c0-2.1,0-3.2,0-5.3c-0.3,0-0.4,0-0.7,0
			c0-0.5,0-0.7,0-1.2C-86.7,237.2-86.2,237.2-85.3,237.2z M-86.1,234.6c0.2,0,0.5,0.1,0.6,0.3c0.2,0.2,0.3,0.4,0.3,0.6
			c0,0.2-0.1,0.4-0.3,0.6c-0.2,0.2-0.4,0.2-0.6,0.2s-0.4-0.1-0.6-0.3s-0.3-0.4-0.3-0.6c0-0.3,0.1-0.5,0.3-0.6
			C-86.6,234.7-86.4,234.6-86.1,234.6z"/>
		<path class="st5" d="M-80.1,242.6c0,0.5,0,0.8,0,1.3c-0.7,0.2-1.3,0.3-1.8,0.3c-0.7-0.1-1.2-0.3-1.5-0.7c-0.4-0.5-0.6-1.5-0.6-2.8
			c0-1.2,0.2-2.1,0.5-2.6s0.9-0.7,1.7-0.6c0.6,0,1.1,0.2,1.4,0.6s0.4,0.9,0.4,1.6c0,0.6,0,0.9,0,1.4c-1-0.1-1.5-0.1-2.6-0.2
			c0,0.5,0,0.9,0,1c0.1,0.4,0.2,0.7,0.4,0.9c0.1,0.1,0.3,0.2,0.5,0.2C-81.1,243-80.6,242.9-80.1,242.6z M-81.3,239.8
			c0-0.4,0-0.7,0-0.8c-0.1-0.3-0.2-0.5-0.5-0.5c-0.2,0-0.4,0.1-0.5,0.2c-0.1,0.2-0.1,0.5-0.2,1C-82,239.8-81.8,239.8-81.3,239.8
			L-81.3,239.8z"/>
		<path class="st5" d="M-76.1,238.4c0-1.2,0-1.7,0-2.9c0.6,0.1,0.9,0.1,1.5,0.1c0,2.9,0,4.3,0,7.2c0,0.8,0,1.4,0.1,1.8
			c-0.4,0-0.5,0-0.9-0.1c-0.2-0.1-0.4-0.4-0.5-0.7c-0.5,0.5-1,0.7-1.4,0.6c-0.5,0-0.9-0.3-1.2-0.8c-0.3-0.6-0.4-1.5-0.4-2.7
			s0.1-2.1,0.4-2.6c0.2-0.5,0.6-0.7,1.2-0.6C-76.9,237.8-76.5,238-76.1,238.4z M-76.1,242.8c0-1.2,0-1.9,0-3.1
			c-0.1-0.1-0.1-0.1-0.2-0.2c-0.2-0.3-0.4-0.4-0.6-0.4s-0.3,0.1-0.3,0.3c-0.1,0.3-0.2,0.9-0.2,1.8s0.1,1.6,0.2,1.9
			c0.1,0.2,0.2,0.3,0.3,0.3c0.2,0,0.4-0.1,0.6-0.3C-76.2,242.9-76.2,242.9-76.1,242.8z"/>
		<path class="st5" d="M-205.9,254.1c0,0.6,0,0.9,0,1.5c-0.4-0.2-0.8-0.4-1.2-0.3c-0.3,0-0.5,0.1-0.6,0.3c-0.2,0.3-0.2,0.9-0.2,1.7
			s0.1,1.4,0.2,1.7c0.1,0.2,0.3,0.3,0.6,0.2c0.4,0,0.8-0.2,1.2-0.5c0,0.6,0,0.9,0,1.5c-0.5,0.3-1.1,0.4-1.6,0.5
			c-0.7,0.1-1.1-0.1-1.4-0.4c-0.4-0.5-0.5-1.4-0.5-2.7c0-1.4,0.2-2.3,0.6-2.8c0.3-0.4,0.7-0.6,1.4-0.7
			C-207,253.9-206.5,253.9-205.9,254.1z"/>
		<path class="st5" d="M-200.9,256.6c0,1.2-0.2,2.1-0.5,2.7c-0.3,0.5-0.9,0.8-1.6,0.9c-0.8,0.1-1.3-0.1-1.7-0.6
			c-0.3-0.5-0.5-1.3-0.5-2.6c0-1.3,0.2-2.1,0.5-2.7c0.3-0.5,0.9-0.8,1.7-0.9s1.3,0.1,1.6,0.6C-201,254.6-200.9,255.4-200.9,256.6z
			 M-203,254.6c-0.4,0-0.6,0.4-0.6,1c0,0.1,0,0.5,0,1.3c0,0.8,0,1.3,0,1.3c0.1,0.6,0.3,0.9,0.6,0.9s0.6-0.4,0.6-1c0-0.1,0-0.5,0-1.3
			s0-1.3,0-1.3C-202.4,254.8-202.6,254.5-203,254.6z"/>
		<path class="st5" d="M-195.7,253.7l0.1-0.1c0.4-0.5,0.9-0.7,1.3-0.8c0.5,0,0.8,0.1,1,0.4s0.3,0.8,0.3,1.4c0,1.9,0,2.8,0,4.7
			c-0.6,0-0.9,0.1-1.5,0.1c0-1.9,0-2.8,0-4.7c0-0.4-0.1-0.6-0.3-0.6s-0.4,0.2-0.6,0.5c-0.1,0.1-0.1,0.1-0.1,0.2c0,1.9,0,2.8,0,4.7
			c-0.6,0-0.9,0.1-1.5,0.1c0-1.9,0-2.8,0-4.7c0-0.4-0.1-0.6-0.3-0.6s-0.4,0.2-0.6,0.5c-0.1,0.1-0.1,0.1-0.1,0.2c0,1.9,0,2.8,0,4.7
			c-0.6,0-0.9,0.1-1.5,0.1c0-1.9,0-2.8,0-4.7c0-0.8,0-1.4-0.1-1.8c0.4,0,0.5,0,0.9-0.1c0.2,0.1,0.4,0.3,0.5,0.6
			c0.1-0.1,0.1-0.1,0.1-0.2c0.5-0.5,0.9-0.7,1.3-0.8C-196.2,252.9-195.9,253.2-195.7,253.7z"/>
		<path class="st5" d="M-187.8,253.1l0.1-0.1c0.5-0.5,0.9-0.7,1.3-0.8c0.5,0,0.8,0.1,1,0.4s0.3,0.8,0.3,1.4c0,1.9,0,2.8,0,4.7
			c-0.6,0-0.9,0.1-1.5,0.1c0-1.9,0-2.8,0-4.7c0-0.4-0.1-0.6-0.3-0.6s-0.4,0.2-0.6,0.5c-0.1,0.1-0.1,0.1-0.1,0.2c0,1.9,0,2.8,0,4.7
			c-0.6,0-0.9,0.1-1.5,0.1c0-1.9,0-2.8,0-4.7c0-0.4-0.1-0.6-0.3-0.6s-0.4,0.2-0.6,0.5c-0.1,0.1-0.1,0.1-0.1,0.2c0,1.9,0,2.8,0,4.7
			c-0.6,0-0.9,0.1-1.5,0.1c0-1.9,0-2.8,0-4.7c0-0.8,0-1.4-0.1-1.8c0.4,0,0.5,0,0.9-0.1c0.2,0.1,0.4,0.3,0.5,0.7
			c0.1-0.1,0.1-0.1,0.1-0.2c0.5-0.5,0.9-0.7,1.3-0.8C-188.3,252.4-187.9,252.6-187.8,253.1z"/>
		<path class="st5" d="M-179.6,255.2c0,1.2-0.2,2.1-0.5,2.7c-0.3,0.5-0.9,0.8-1.7,0.8s-1.3-0.2-1.7-0.7c-0.3-0.5-0.5-1.3-0.5-2.6
			s0.2-2.1,0.5-2.7c0.3-0.5,0.9-0.8,1.7-0.8s1.3,0.2,1.7,0.7C-179.8,253.1-179.6,254-179.6,255.2z M-181.7,253.1
			c-0.4,0-0.6,0.3-0.6,1c0,0.1,0,0.5,0,1.3c0,0.8,0,1.3,0,1.3c0.1,0.6,0.3,0.9,0.6,0.9c0.4,0,0.6-0.3,0.6-1c0-0.1,0-0.5,0-1.3
			s0-1.3,0-1.3C-181.2,253.4-181.4,253.1-181.7,253.1z"/>
		<path class="st5" d="M-177,252.6c0.1-0.1,0.2-0.2,0.3-0.3c0.4-0.4,0.9-0.7,1.3-0.7c0.5,0,0.8,0.1,1,0.5c0.2,0.3,0.3,0.8,0.3,1.4
			c0,1.9,0,2.8,0,4.7c-0.6,0-0.9,0-1.5,0.1c0-1.9,0-2.8,0-4.7c0-0.4-0.1-0.6-0.3-0.6s-0.4,0.2-0.6,0.5c-0.1,0.1-0.2,0.2-0.3,0.3
			c0,1.8,0,2.7,0,4.6c-0.6,0-0.9,0-1.5,0.1c0-1.9,0-2.8,0-4.7c0-0.8,0-1.4-0.1-1.8c0.4,0,0.5,0,0.9,0
			C-177.4,252-177.2,252.2-177,252.6z"/>
		<path class="st5" d="M-167.9,251.9c0-1.2,0-1.7,0-2.9c0.6,0,0.9,0,1.5-0.1c0,2.9,0,4.3,0,7.2c0,0.8,0,1.4,0.1,1.8
			c-0.4,0-0.5,0-0.9,0c-0.2-0.1-0.4-0.3-0.5-0.6c-0.5,0.5-1,0.8-1.4,0.8c-0.5,0-0.9-0.2-1.2-0.7s-0.4-1.4-0.4-2.6s0.1-2.1,0.4-2.7
			c0.2-0.5,0.6-0.7,1.2-0.8C-168.7,251.2-168.3,251.5-167.9,251.9z M-167.9,256.2c0-1.2,0-1.9,0-3.1c-0.1-0.1-0.1-0.1-0.2-0.2
			c-0.2-0.2-0.4-0.4-0.6-0.4c-0.2,0-0.3,0.1-0.3,0.3c-0.1,0.3-0.2,0.9-0.2,1.9s0.1,1.6,0.2,1.8c0.1,0.2,0.2,0.3,0.3,0.3
			c0.2,0,0.4-0.1,0.6-0.4C-168,256.4-168,256.2-167.9,256.2z"/>
		<path class="st5" d="M-163.3,251.2c0,2.6,0,3.9,0,6.5c-0.6,0-0.9,0-1.5,0c0-2.1,0-3.2,0-5.3c-0.3,0-0.4,0-0.7,0c0-0.5,0-0.7,0-1.2
			C-164.6,251.2-164.2,251.2-163.3,251.2z M-164.1,248.7c0.2,0,0.5,0.1,0.6,0.2s0.3,0.4,0.3,0.6c0,0.2-0.1,0.5-0.3,0.6
			s-0.4,0.3-0.6,0.3c-0.2,0-0.4-0.1-0.6-0.2c-0.2-0.2-0.3-0.4-0.3-0.6c0-0.3,0.1-0.5,0.3-0.6C-164.5,248.8-164.3,248.7-164.1,248.7z
			"/>
		<path class="st5" d="M-158,256c0,0.5,0,0.8,0,1.3c-0.7,0.3-1.3,0.5-1.8,0.5c-0.7,0-1.2-0.2-1.5-0.6c-0.4-0.5-0.6-1.4-0.6-2.7
			c0-1.2,0.2-2.1,0.5-2.6s0.9-0.8,1.7-0.8c0.6,0,1.1,0.1,1.4,0.4s0.4,0.8,0.4,1.6c0,0.6,0,0.9,0,1.4c-1,0-1.5,0-2.6,0.1
			c0,0.5,0,0.9,0,1c0.1,0.4,0.2,0.7,0.4,0.8c0.1,0.1,0.3,0.1,0.5,0.1C-159,256.6-158.5,256.4-158,256z M-159.3,253.4
			c0-0.4,0-0.7,0-0.8c-0.1-0.3-0.2-0.4-0.5-0.4c-0.2,0-0.4,0.1-0.5,0.3s-0.1,0.5-0.2,1C-160,253.5-159.7,253.5-159.3,253.4
			L-159.3,253.4z"/>
		<path class="st5" d="M-153.8,257.4c-0.3,0.2-0.7,0.3-1.3,0.3c-0.5,0-0.9-0.1-1.1-0.3c-0.2-0.2-0.2-0.7-0.2-1.4c0-1.5,0-2.2,0-3.6
			c-0.3,0-0.5,0-0.9,0c0-0.5,0-0.7,0-1.2c0.3,0,0.5,0,0.9,0c0-0.6,0-0.9,0-1.5c0.6,0,0.9,0,1.5,0c0,0.6,0,0.9,0,1.5
			c0.5,0,0.7,0,1.1,0c0,0.5,0,0.7,0,1.2c-0.5,0-0.7,0-1.1,0c0,1.5,0,2.2,0,3.6c0,0.2,0,0.3,0.1,0.4c0.1,0.1,0.2,0.1,0.5,0.1
			c0.2,0,0.4,0,0.6-0.1C-153.8,256.6-153.8,256.9-153.8,257.4z"/>
		<path class="st5" d="M-151.2,251c0,2.6,0,3.9,0,6.5c-0.6,0-0.9,0-1.5,0c0-2.1,0-3.2,0-5.3c-0.3,0-0.4,0-0.7,0c0-0.5,0-0.7,0-1.2
			C-152.5,251-152.1,251-151.2,251z M-152,248.4c0.2,0,0.5,0.1,0.6,0.2c0.2,0.2,0.3,0.4,0.3,0.6c0,0.2-0.1,0.5-0.3,0.6
			c-0.2,0.2-0.4,0.3-0.6,0.3c-0.2,0-0.4-0.1-0.6-0.2c-0.2-0.2-0.3-0.4-0.3-0.6c0-0.3,0.1-0.5,0.3-0.6
			C-152.5,248.5-152.2,248.4-152,248.4z"/>
		<path class="st5" d="M-148.4,251.7c0.1-0.1,0.2-0.2,0.3-0.3c0.4-0.4,0.9-0.6,1.3-0.6c0.5,0,0.8,0.2,1,0.5s0.3,0.8,0.3,1.4
			c0,1.9,0,2.8,0,4.7c-0.6,0-0.9,0-1.5,0c0-1.9,0-2.8,0-4.7c0-0.4-0.1-0.6-0.3-0.6s-0.4,0.1-0.6,0.4c-0.1,0.1-0.2,0.2-0.3,0.3
			c0,1.8,0,2.7,0,4.6c-0.6,0-0.9,0-1.5,0c0-1.9,0-2.8,0-4.7c0-0.8,0-1.4-0.1-1.8c0.4,0,0.5,0,0.9,0
			C-148.7,251.1-148.6,251.2-148.4,251.7z"/>
		<path class="st5" d="M-140.1,257.9c0,0.7-0.2,1.3-0.5,1.6c-0.3,0.3-0.9,0.5-1.5,0.5c-0.5,0-1.1-0.1-1.8-0.4c0-0.5,0-0.8,0-1.4
			c0.6,0.4,1.1,0.6,1.6,0.6s0.8-0.3,0.8-0.8c0-0.4,0-0.6,0-1c-0.4,0.4-0.8,0.6-1.2,0.6c-0.5,0-0.9-0.2-1.2-0.7s-0.4-1.4-0.4-2.7
			s0.1-2.1,0.4-2.7c0.2-0.5,0.6-0.7,1.2-0.7c0.4,0,0.9,0.3,1.4,0.8c0.1-0.3,0.3-0.5,0.5-0.6c0.4,0,0.5,0,0.9,0
			c-0.1,0.4-0.1,1-0.1,1.8C-140.1,254.8-140.1,255.8-140.1,257.9z M-141.6,252.6c-0.1-0.1-0.1-0.1-0.2-0.2c-0.2-0.3-0.4-0.4-0.6-0.4
			c-0.2,0-0.3,0.1-0.3,0.3c-0.1,0.3-0.2,0.9-0.2,1.9s0.1,1.6,0.2,1.8c0.1,0.2,0.2,0.3,0.3,0.3c0.2,0,0.4-0.1,0.6-0.4
			c0.1-0.1,0.1-0.1,0.2-0.2C-141.6,254.5-141.6,253.9-141.6,252.6z"/>
		<path class="st5" d="M-132.5,251.6l0.1-0.1c0.5-0.4,0.9-0.7,1.3-0.7c0.5,0,0.8,0.2,1,0.5s0.3,0.8,0.3,1.4c0,1.9,0,2.8,0,4.7
			c-0.6,0-0.9,0-1.5,0c0-1.9,0-2.8,0-4.7c0-0.4-0.1-0.6-0.3-0.6s-0.4,0.1-0.6,0.4c-0.1,0.1-0.1,0.1-0.1,0.2c0,1.9,0,2.8,0,4.7
			c-0.6,0-0.9,0-1.5,0c0-1.9,0-2.8,0-4.7c0-0.4-0.1-0.6-0.3-0.6s-0.4,0.1-0.6,0.4c-0.1,0.1-0.1,0.1-0.1,0.2c0,1.9,0,2.8,0,4.7
			c-0.6,0-0.9,0-1.5,0c0-1.9,0-2.8,0-4.7c0-0.8,0-1.4-0.1-1.8c0.4,0,0.5,0,0.9,0c0.2,0.1,0.4,0.4,0.5,0.7c0.1-0.1,0.1-0.1,0.1-0.1
			c0.5-0.4,0.9-0.7,1.3-0.7C-133,250.8-132.6,251.1-132.5,251.6z"/>
		<path class="st5" d="M-126.7,251c0,2.6,0,3.9,0,6.5c-0.6,0-0.9,0-1.5,0c0-2.1,0-3.2,0-5.3c-0.3,0-0.4,0-0.7,0c0-0.5,0-0.7,0-1.2
			C-128,251-127.6,251-126.7,251z M-127.5,248.4c0.2,0,0.5,0.1,0.6,0.3s0.3,0.4,0.3,0.6c0,0.2-0.1,0.4-0.3,0.6
			c-0.2,0.2-0.4,0.3-0.6,0.2c-0.2,0-0.4-0.1-0.6-0.3c-0.2-0.2-0.3-0.4-0.3-0.6c0-0.3,0.1-0.5,0.3-0.6
			C-127.9,248.5-127.7,248.4-127.5,248.4z"/>
		<path class="st5" d="M-122.1,251.2c0,0.5,0,0.8,0,1.3c-0.6-0.3-1.1-0.5-1.6-0.5c-0.4,0-0.6,0.2-0.6,0.7c0,0.4,0.2,0.7,0.6,0.7
			c1.4,0,2,0.8,2,2.2s-0.7,2-2.1,2c-0.6,0-1.1-0.1-1.6-0.3c0-0.5,0-0.8,0-1.3c0.6,0.3,1.1,0.4,1.6,0.4s0.8-0.3,0.8-0.8
			c0-0.5-0.3-0.7-0.8-0.7c-0.6,0-1-0.2-1.3-0.4c-0.4-0.3-0.6-0.9-0.6-1.7c0-1.3,0.6-1.9,1.9-1.9C-123.2,251-122.7,251.1-122.1,251.2
			z"/>
		<path class="st5" d="M-117.4,251.5c0,0.6,0,0.9,0,1.5c-0.4-0.3-0.8-0.5-1.2-0.5c-0.3,0-0.5,0.1-0.6,0.3c-0.2,0.3-0.2,0.8-0.2,1.7
			c0,0.8,0.1,1.4,0.2,1.7c0.1,0.2,0.3,0.3,0.6,0.3c0.4,0,0.8-0.1,1.2-0.4c0,0.6,0,0.9,0,1.5c-0.5,0.2-1.1,0.3-1.6,0.3
			c-0.7,0-1.1-0.2-1.4-0.6c-0.4-0.5-0.5-1.4-0.5-2.8s0.2-2.3,0.6-2.8c0.3-0.4,0.7-0.5,1.4-0.5C-118.5,251.1-117.9,251.2-117.4,251.5
			z"/>
		<path class="st5" d="M-112.3,254.7c0,1.2-0.2,2.1-0.5,2.6s-0.9,0.7-1.7,0.7c-0.8,0-1.3-0.3-1.7-0.8c-0.3-0.5-0.5-1.4-0.5-2.6
			s0.2-2.1,0.5-2.6s0.9-0.7,1.7-0.7c0.8,0,1.3,0.3,1.7,0.8C-112.5,252.5-112.3,253.4-112.3,254.7z M-114.4,252.2
			c-0.4,0-0.6,0.3-0.6,0.9c0,0.1,0,0.5,0,1.3s0,1.3,0,1.3c0.1,0.6,0.3,0.9,0.6,1c0.3,0.1,0.6-0.3,0.6-0.9c0-0.1,0-0.5,0-1.3
			s0-1.3,0-1.3C-113.9,252.7-114.1,252.2-114.4,252.2z"/>
		<path class="st5" d="M-109.7,252.2c0.1-0.1,0.2-0.1,0.3-0.2c0.4-0.4,0.9-0.6,1.3-0.6c0.5,0,0.8,0.2,1,0.6c0.2,0.3,0.3,0.8,0.3,1.4
			c0,1.9,0,2.8,0,4.7c-0.6,0-0.9,0-1.5-0.1c0-1.9,0-2.8,0-4.7c0-0.4-0.1-0.6-0.3-0.6c-0.2,0-0.4,0.1-0.6,0.4
			c-0.1,0.1-0.2,0.2-0.3,0.3c0,1.8,0,2.7,0,4.6c-0.6,0-0.9,0-1.5-0.1c0-1.9,0-2.8,0-4.7c0-0.8,0-1.4-0.1-1.8c0.4,0,0.5,0,0.9,0
			C-110.1,251.6-109.9,251.9-109.7,252.2z"/>
		<path class="st5" d="M-102.2,252.1c0,0.6,0,0.9,0,1.5c-0.4-0.3-0.8-0.5-1.2-0.5c-0.3,0-0.5,0.1-0.6,0.3c-0.2,0.3-0.2,0.8-0.2,1.7
			c0,0.8,0.1,1.4,0.2,1.7c0.1,0.2,0.3,0.3,0.6,0.3c0.4,0,0.8-0.1,1.2-0.4c0,0.6,0,0.9,0,1.5c-0.5,0.2-1.1,0.3-1.6,0.2
			c-0.7,0-1.1-0.2-1.4-0.6c-0.4-0.5-0.5-1.4-0.5-2.8c0-1.4,0.2-2.3,0.6-2.7c0.3-0.4,0.7-0.5,1.4-0.5
			C-103.3,251.7-102.8,251.9-102.2,252.1z"/>
		<path class="st5" d="M-97.5,257c0,0.5,0,0.8,0,1.3c-0.7,0.2-1.3,0.3-1.8,0.3c-0.7,0-1.2-0.3-1.5-0.7c-0.4-0.5-0.6-1.5-0.6-2.8
			c0-1.2,0.2-2.1,0.5-2.6s0.9-0.7,1.7-0.7c0.6,0,1.1,0.2,1.4,0.6c0.3,0.3,0.4,0.9,0.4,1.6c0,0.6,0,0.9,0,1.4c-1-0.1-1.5-0.1-2.6-0.1
			c0,0.5,0,0.9,0,1c0.1,0.4,0.2,0.7,0.4,0.9c0.1,0.1,0.3,0.1,0.5,0.2C-98.5,257.4-98,257.4-97.5,257z M-98.7,254.2
			c0-0.4,0-0.7,0-0.8c-0.1-0.3-0.2-0.5-0.5-0.5c-0.2,0-0.4,0.1-0.5,0.2c-0.1,0.2-0.1,0.5-0.2,1C-99.4,254.2-99.2,254.2-98.7,254.2
			C-98.7,254.2-98.7,254.2-98.7,254.2z"/>
		<path class="st5" d="M-94.6,258.4c0,1.2,0,1.7,0,2.9c-0.6,0-0.9-0.1-1.5-0.1c0-2.9,0-4.3,0-7.2c0-0.8,0-1.4-0.1-1.8
			c0.4,0,0.5,0,0.9,0.1c0.2,0.1,0.4,0.4,0.5,0.7c0.5-0.5,1-0.7,1.4-0.7c0.5,0,0.9,0.3,1.2,0.8c0.3,0.6,0.4,1.5,0.4,2.7
			c0,1.2-0.1,2.1-0.4,2.6c-0.2,0.5-0.6,0.7-1.2,0.6C-93.8,258.9-94.2,258.6-94.6,258.4z M-94.6,257.1c0.1,0.1,0.1,0.1,0.2,0.2
			c0.2,0.3,0.4,0.4,0.6,0.4s0.3-0.1,0.3-0.3c0.1-0.3,0.2-0.9,0.2-1.8c0-0.9-0.1-1.6-0.2-1.9c-0.1-0.2-0.2-0.3-0.3-0.3
			c-0.2,0-0.4,0.1-0.6,0.3c-0.1,0.1-0.1,0.1-0.2,0.2C-94.6,255.2-94.6,255.8-94.6,257.1z"/>
		<path class="st5" d="M-87.7,259c-0.3,0.2-0.7,0.2-1.3,0.2c-0.5,0-0.9-0.2-1.1-0.4c-0.2-0.2-0.2-0.7-0.2-1.5c0-1.5,0-2.2,0-3.6
			c-0.3,0-0.5,0-0.9-0.1c0-0.5,0-0.7,0-1.2c0.3,0,0.5,0,0.9,0.1c0-0.6,0-0.9,0-1.5c0.6,0,0.9,0.1,1.5,0.1c0,0.6,0,0.9,0,1.5
			c0.5,0,0.7,0,1.1,0.1c0,0.5,0,0.7,0,1.2c-0.5,0-0.7,0-1.1-0.1c0,1.5,0,2.2,0,3.6c0,0.2,0,0.4,0.1,0.4c0.1,0.1,0.2,0.1,0.4,0.1
			c0.2,0,0.4,0,0.6-0.1C-87.7,258.4-87.7,258.6-87.7,259z"/>
		<path class="st5" d="M-85.2,252.9c0,2.6,0,3.9,0,6.5c-0.6,0-0.9-0.1-1.5-0.1c0-2.1,0-3.2,0-5.3c-0.3,0-0.4,0-0.7,0
			c0-0.5,0-0.7,0-1.2C-86.5,252.8-86.1,252.8-85.2,252.9z M-86,250.2c0.2,0,0.5,0.1,0.6,0.3c0.2,0.2,0.3,0.4,0.3,0.6
			c0,0.2-0.1,0.4-0.3,0.6c-0.2,0.2-0.4,0.2-0.6,0.2s-0.4-0.1-0.6-0.3s-0.3-0.4-0.3-0.6c0-0.3,0.1-0.5,0.3-0.6S-86.2,250.2-86,250.2z
			"/>
		<path class="st5" d="M-79.6,256.6c0,1.2-0.2,2.1-0.5,2.6s-0.9,0.7-1.6,0.6c-0.8-0.1-1.3-0.4-1.7-0.9c-0.3-0.5-0.5-1.4-0.5-2.7
			c0-1.3,0.2-2.1,0.5-2.6s0.9-0.7,1.7-0.6c0.8,0.1,1.3,0.4,1.6,0.9C-79.7,254.4-79.6,255.2-79.6,256.6z M-81.7,254.1
			c-0.4,0-0.6,0.3-0.6,0.9c0,0.1,0,0.5,0,1.3c0,0.8,0,1.3,0,1.3c0.1,0.6,0.3,1,0.6,1s0.6-0.3,0.6-0.9c0-0.1,0-0.5,0-1.3
			c0-0.8,0-1.3,0-1.3C-81.1,254.5-81.4,254.2-81.7,254.1z"/>
		<path class="st5" d="M-77,254.2c0.1-0.1,0.2-0.1,0.3-0.2c0.4-0.4,0.9-0.5,1.3-0.5c0.5,0,0.8,0.2,1,0.6c0.2,0.3,0.3,0.8,0.3,1.4
			c0,1.9,0,2.8,0,4.7c-0.6-0.1-0.9-0.1-1.5-0.1c0-1.9,0-2.8,0-4.7c0-0.4-0.1-0.6-0.3-0.6c-0.2,0-0.4,0.1-0.6,0.4
			c-0.1,0.1-0.2,0.2-0.3,0.3c0,1.8,0,2.7,0,4.6c-0.6-0.1-0.9-0.1-1.5-0.1c0-1.9,0-2.8,0-4.7c0-0.8,0-1.4-0.1-1.8
			c0.4,0,0.5,0,0.9,0.1C-77.3,253.7-77.1,253.9-77,254.2z"/>
		<path class="st5" d="M-69.7,254.4c0,0.5,0,0.8,0,1.3c-0.6-0.4-1.1-0.6-1.6-0.6c-0.4,0-0.6,0.2-0.6,0.6s0.2,0.7,0.6,0.7
			c1.3,0.1,2,0.9,2,2.3s-0.7,2-2,1.9c-0.6-0.1-1.1-0.2-1.6-0.4c0-0.5,0-0.8,0-1.3c0.6,0.3,1.1,0.5,1.6,0.5s0.8-0.2,0.8-0.8
			c0-0.5-0.3-0.7-0.8-0.8c-0.6-0.1-1-0.2-1.3-0.5c-0.4-0.4-0.6-0.9-0.6-1.7c0-1.3,0.6-1.9,1.9-1.7C-70.8,254-70.3,254.1-69.7,254.4z
			"/>
		<path class="st5" d="M-207,271.4c0-0.4-0.2-0.6-0.7-0.6s-1.1,0.3-1.7,0.7c0-0.6,0-0.8,0-1.4c0.7-0.3,1.3-0.5,1.9-0.6
			c0.7-0.1,1.2,0.1,1.5,0.3c0.3,0.3,0.5,0.8,0.5,1.6c0,1.1,0,1.6,0,2.7c0,0.9,0,1.5,0.1,1.8c-0.4,0-0.5,0-0.9,0.1
			c-0.2-0.1-0.3-0.3-0.5-0.5c0,0.1-0.1,0.1-0.1,0.1c-0.3,0.4-0.7,0.7-1.3,0.7c-1,0.1-1.5-0.5-1.5-1.8c0-0.7,0.2-1.2,0.5-1.6
			c0.4-0.4,0.9-0.7,1.6-0.8c0.2,0,0.3,0,0.5,0C-207,271.9-207,271.6-207,271.4z M-207,274.5c0-0.5,0-0.8,0-1.3c-0.1,0-0.2,0-0.4,0
			c-0.6,0.1-0.9,0.4-0.9,1.1c0,0.5,0.2,0.8,0.5,0.8c0.2,0,0.4-0.2,0.6-0.5C-207.1,274.6-207.1,274.6-207,274.5z"/>
		<path class="st5" d="M-202.8,269.9c0.1-0.1,0.2-0.2,0.3-0.3c0.4-0.5,0.9-0.7,1.3-0.7c0.5,0,0.8,0.1,1,0.4s0.3,0.8,0.3,1.4
			c0,1.9,0,2.8,0,4.7c-0.6,0-0.9,0.1-1.5,0.1c0-1.9,0-2.8,0-4.7c0-0.4-0.1-0.6-0.3-0.6s-0.4,0.2-0.6,0.5c-0.1,0.1-0.2,0.2-0.3,0.3
			c0,1.8,0,2.7,0,4.6c-0.6,0.1-0.9,0.1-1.5,0.1c0-1.9,0-2.8,0-4.7c0-0.8,0-1.4-0.1-1.8c0.4,0,0.5,0,0.9-0.1
			C-203.2,269.4-203,269.6-202.8,269.9z"/>
		<path class="st5" d="M-196.1,269.1c0-1.2,0-1.7,0-2.9c0.6,0,0.9-0.1,1.5-0.1c0,2.9,0,4.3,0,7.2c0,0.8,0,1.4,0.1,1.8
			c-0.4,0-0.5,0-0.9,0.1c-0.2-0.1-0.4-0.3-0.5-0.6c-0.5,0.5-1,0.8-1.4,0.9c-0.5,0-0.9-0.2-1.2-0.6c-0.3-0.5-0.4-1.4-0.4-2.6
			s0.1-2.1,0.4-2.7c0.2-0.5,0.6-0.8,1.2-0.8C-196.9,268.6-196.5,268.6-196.1,269.1z M-196.1,273.4c0-1.2,0-1.9,0-3.1
			c-0.1-0.1-0.1-0.1-0.2-0.2c-0.2-0.2-0.4-0.3-0.6-0.3c-0.2,0-0.3,0.1-0.3,0.3c-0.1,0.3-0.2,0.9-0.2,1.9s0.1,1.6,0.2,1.8
			c0.1,0.2,0.2,0.3,0.3,0.3c0.2,0,0.4-0.2,0.6-0.4C-196.2,273.6-196.1,273.5-196.1,273.4z"/>
		<path class="st5" d="M-186.9,268.6l0.1-0.1c0.5-0.5,0.9-0.7,1.3-0.8c0.5,0,0.8,0.1,1,0.4s0.3,0.8,0.3,1.4c0,1.9,0,2.8,0,4.7
			c-0.6,0-0.9,0.1-1.5,0.1c0-1.9,0-2.8,0-4.7c0-0.4-0.1-0.6-0.3-0.6s-0.4,0.2-0.6,0.5c-0.1,0.1-0.1,0.1-0.1,0.2c0,1.9,0,2.8,0,4.7
			c-0.6,0-0.9,0.1-1.5,0.1c0-1.9,0-2.8,0-4.7c0-0.4-0.1-0.6-0.3-0.6s-0.4,0.2-0.6,0.5c-0.1,0.1-0.1,0.1-0.1,0.2c0,1.9,0,2.8,0,4.7
			c-0.6,0-0.9,0.1-1.5,0.1c0-1.9,0-2.8,0-4.7c0-0.8,0-1.4-0.1-1.8c0.4,0,0.5,0,0.9-0.1c0.2,0.1,0.4,0.3,0.5,0.7
			c0.1-0.1,0.1-0.1,0.1-0.2c0.5-0.5,0.9-0.7,1.3-0.8C-187.5,267.9-187.1,268.1-186.9,268.6z"/>
		<path class="st5" d="M-180.7,269.4c0-0.4-0.2-0.7-0.7-0.6c-0.5,0-1.1,0.3-1.7,0.7c0-0.6,0-0.8,0-1.4c0.7-0.3,1.3-0.5,1.9-0.5
			c0.7,0,1.2,0.1,1.5,0.4s0.5,0.8,0.5,1.6c0,1.1,0,1.6,0,2.7c0,0.9,0,1.5,0.1,1.8c-0.4,0-0.5,0-0.9,0c-0.2-0.1-0.3-0.3-0.5-0.6
			c0,0.1-0.1,0.1-0.1,0.1c-0.3,0.4-0.7,0.6-1.3,0.7c-1,0.1-1.5-0.5-1.5-1.8c0-0.7,0.2-1.2,0.5-1.6c0.4-0.4,0.9-0.7,1.6-0.7
			c0.2,0,0.3,0,0.5,0C-180.7,269.9-180.7,269.6-180.7,269.4z M-180.7,272.6c0-0.5,0-0.8,0-1.3c-0.1,0-0.2,0-0.4,0
			c-0.6,0-0.9,0.4-0.9,1.1c0,0.5,0.2,0.8,0.5,0.8c0.2,0,0.4-0.2,0.6-0.4C-180.8,272.6-180.7,272.6-180.7,272.6z"/>
		<path class="st5" d="M-175.2,267.9c0-1.2,0-1.7,0-2.9c0.6,0,0.9,0,1.5-0.1c0,2.9,0,4.3,0,7.2c0,0.8,0,1.4,0.1,1.8
			c-0.4,0-0.5,0-0.9,0c-0.2-0.1-0.4-0.3-0.5-0.6c-0.5,0.5-1,0.8-1.4,0.8c-0.5,0-0.9-0.2-1.2-0.7s-0.4-1.4-0.4-2.6s0.1-2.1,0.4-2.7
			c0.2-0.5,0.6-0.7,1.2-0.8C-176,267.4-175.6,267.4-175.2,267.9z M-175.2,272.1c0-1.2,0-1.9,0-3.1c-0.1-0.1-0.1-0.1-0.2-0.2
			c-0.2-0.2-0.4-0.4-0.6-0.3c-0.2,0-0.3,0.1-0.3,0.3c-0.1,0.3-0.2,0.9-0.2,1.9s0.1,1.6,0.2,1.8c0.1,0.2,0.2,0.3,0.3,0.3
			c0.2,0,0.4-0.1,0.6-0.4C-175.3,272.4-175.3,272.1-175.2,272.1z"/>
		<path class="st5" d="M-168.5,272c0,0.5,0,0.8,0,1.3c-0.7,0.3-1.3,0.5-1.8,0.5c-0.7,0-1.2-0.2-1.5-0.6c-0.4-0.5-0.6-1.4-0.6-2.7
			c0-1.2,0.2-2.1,0.5-2.6s0.9-0.8,1.7-0.8c0.6,0,1.1,0.1,1.4,0.4c0.3,0.3,0.4,0.8,0.4,1.6c0,0.6,0,0.9,0,1.4c-1,0-1.5,0.1-2.6,0.1
			c0,0.5,0,0.9,0,1c0.1,0.4,0.2,0.7,0.4,0.8c0.1,0.1,0.3,0.1,0.5,0.1C-169.5,272.5-169,272.4-168.5,272z M-169.8,269.4
			c0-0.4,0-0.7,0-0.8c-0.1-0.3-0.2-0.4-0.5-0.4c-0.2,0-0.4,0.1-0.5,0.3c-0.1,0.2-0.1,0.5-0.2,1
			C-170.5,269.4-170.2,269.4-169.8,269.4L-169.8,269.4z"/>
		<path class="st5" d="M-162.2,271.5c0-1.9,0-2.8,0-4.7c0.6,0,0.9,0,1.5,0c0,2.8,0,4.2,0,7c0,0.7-0.2,1.3-0.5,1.6
			c-0.3,0.3-0.9,0.5-1.5,0.5c-0.5,0-1.1-0.1-1.8-0.4c0-0.5,0-0.8,0-1.4c0.6,0.4,1.1,0.5,1.6,0.5s0.8-0.3,0.8-0.8c0-0.4,0-0.7,0-1.1
			l0,0c-0.4,0.4-0.9,0.7-1.3,0.7c-0.5,0-0.8-0.1-1-0.5c-0.2-0.3-0.3-0.8-0.3-1.4c0-1.9,0-2.8,0-4.7c0.6,0,0.9,0,1.5,0
			c0,1.9,0,2.8,0,4.7c0,0.4,0.1,0.6,0.3,0.6s0.4-0.2,0.6-0.4C-162.4,271.6-162.3,271.6-162.2,271.5z"/>
		<path class="st5" d="M-155.2,269.9c0,1.2-0.2,2.1-0.5,2.6s-0.9,0.8-1.7,0.8s-1.3-0.2-1.7-0.7c-0.3-0.5-0.5-1.4-0.5-2.6
			s0.2-2.1,0.5-2.6s0.9-0.8,1.7-0.8s1.3,0.2,1.7,0.7C-155.4,267.9-155.2,268.6-155.2,269.9z M-157.4,267.6c-0.4,0-0.6,0.3-0.6,1
			c0,0.1,0,0.5,0,1.3s0,1.3,0,1.3c0.1,0.6,0.3,0.9,0.6,0.9c0.4,0,0.6-0.3,0.6-1c0-0.1,0-0.5,0-1.3s0-1.3,0-1.3
			C-156.8,268-157,267.6-157.4,267.6z"/>
		<path class="st5" d="M-151.4,271.4c0-1.9,0-2.8,0-4.7c0.6,0,0.9,0,1.5,0c0,1.9,0,2.8,0,4.7c0,0.8,0,1.4,0.1,1.8
			c-0.4,0-0.5,0-0.9,0c-0.2-0.1-0.4-0.4-0.5-0.7c-0.1,0.1-0.1,0.1-0.2,0.2c-0.4,0.4-0.9,0.6-1.3,0.6c-0.5,0-0.8-0.2-1-0.5
			s-0.3-0.8-0.3-1.4c0-1.9,0-2.8,0-4.7c0.6,0,0.9,0,1.5,0c0,1.9,0,2.8,0,4.7c0,0.4,0.1,0.6,0.3,0.6s0.4-0.1,0.6-0.4
			C-151.5,271.4-151.5,271.4-151.4,271.4z"/>
		<path class="st5" d="M-142.3,267.1l0.1-0.1c0.5-0.5,0.9-0.7,1.3-0.7c0.5,0,0.8,0.2,1,0.5s0.3,0.8,0.3,1.4c0,1.9,0,2.8,0,4.7
			c-0.6,0-0.9,0-1.5,0c0-1.9,0-2.8,0-4.7c0-0.4-0.1-0.6-0.3-0.6s-0.4,0.1-0.6,0.4c-0.1,0.1-0.1,0.1-0.1,0.2c0,1.9,0,2.8,0,4.7
			c-0.6,0-0.9,0-1.5,0c0-1.9,0-2.8,0-4.7c0-0.4-0.1-0.6-0.3-0.6s-0.4,0.1-0.6,0.4c-0.1,0.1-0.1,0.1-0.1,0.2c0,1.9,0,2.8,0,4.7
			c-0.6,0-0.9,0-1.5,0c0-1.9,0-2.8,0-4.7c0-0.8,0-1.4-0.1-1.8c0.4,0,0.5,0,0.9,0c0.2,0.1,0.4,0.4,0.5,0.7c0.1-0.1,0.1-0.1,0.1-0.1
			c0.5-0.5,0.9-0.7,1.3-0.7C-142.8,266.4-142.5,266.6-142.3,267.1z"/>
		<path class="st5" d="M-134.1,269.9c0,1.2-0.2,2.1-0.5,2.6s-0.9,0.7-1.7,0.7s-1.3-0.3-1.7-0.8c-0.3-0.5-0.5-1.4-0.5-2.6
			s0.2-2.1,0.5-2.6s0.9-0.8,1.7-0.7c0.8,0,1.3,0.3,1.7,0.8C-134.3,267.6-134.1,268.5-134.1,269.9z M-136.3,267.5
			c-0.4,0-0.6,0.3-0.6,0.9c0,0.1,0,0.5,0,1.3s0,1.3,0,1.3c0.1,0.6,0.3,0.9,0.6,0.9s0.6-0.3,0.6-0.9c0-0.1,0-0.5,0-1.3s0-1.3,0-1.3
			C-135.7,267.9-135.9,267.5-136.3,267.5z"/>
		<path class="st5" d="M-131.5,267.6c0.2-0.2,0.4-0.4,0.6-0.6c0.4-0.4,0.7-0.6,1.1-0.6c0,0.7,0,1.1,0,1.9c-0.1-0.1-0.3-0.1-0.4-0.1
			c-0.2,0-0.5,0.1-0.8,0.4c-0.2,0.1-0.2,0.2-0.4,0.3c0,1.6,0,2.5,0,4.1c-0.6,0-0.9,0-1.5,0c0-1.9,0-2.8,0-4.7c0-0.8,0-1.4-0.1-1.8
			c0.4,0,0.5,0,0.9,0C-131.8,266.6-131.6,267.1-131.5,267.6z"/>
		<path class="st5" d="M-125.3,271.6c0,0.5,0,0.8,0,1.3c-0.7,0.3-1.3,0.4-1.8,0.4c-0.7,0-1.2-0.2-1.5-0.6c-0.4-0.5-0.6-1.4-0.6-2.8
			c0-1.2,0.2-2.1,0.5-2.6s0.9-0.7,1.7-0.7c0.6,0,1.1,0.2,1.4,0.5s0.4,0.9,0.4,1.6c0,0.6,0,0.9,0,1.4c-1,0-1.5,0-2.6,0
			c0,0.5,0,0.9,0,1c0.1,0.4,0.2,0.7,0.4,0.9c0.1,0.1,0.3,0.1,0.5,0.1C-126.3,272-125.8,271.9-125.3,271.6z M-126.5,268.9
			c0-0.4,0-0.7,0-0.8c-0.1-0.3-0.2-0.4-0.5-0.5c-0.2,0-0.4,0.1-0.5,0.3c-0.1,0.2-0.1,0.5-0.2,1C-127.2,268.9-127,268.9-126.5,268.9
			L-126.5,268.9z"/>
		<path class="st5" d="M-119.3,268.6c0-0.4-0.2-0.7-0.7-0.7s-1.1,0.2-1.7,0.5c0-0.6,0-0.8,0-1.4c0.7-0.3,1.3-0.4,1.9-0.4
			c0.7,0,1.2,0.2,1.5,0.5s0.5,0.9,0.5,1.6c0,1.1,0,1.6,0,2.7c0,0.9,0,1.5,0.1,1.8c-0.4,0-0.5,0-0.9,0c-0.2-0.1-0.3-0.3-0.5-0.6
			c0,0.1-0.1,0.1-0.1,0.1c-0.3,0.4-0.7,0.6-1.3,0.6c-1,0-1.5-0.7-1.5-1.9c0-0.7,0.2-1.2,0.5-1.6c0.4-0.4,0.9-0.6,1.6-0.6
			c0.2,0,0.3,0,0.5,0C-119.3,269-119.3,268.9-119.3,268.6z M-119.3,271.9c0-0.5,0-0.8,0-1.3c-0.1,0-0.2,0-0.4,0
			c-0.6,0-0.9,0.3-0.9,1c0,0.5,0.2,0.8,0.5,0.8c0.2,0,0.4-0.1,0.6-0.4C-119.4,271.9-119.4,271.9-119.3,271.9z"/>
		<path class="st5" d="M-112,271.6c0-0.3,0.1-0.9,0.2-1.6c0.3-1.2,0.4-1.7,0.6-2.9c0.5,0,0.7,0,1.2,0c-0.6,2.6-0.9,3.9-1.6,6.4
			c-0.5,0-0.7,0-1.1,0c-0.2-1-0.3-1.5-0.5-2.5c-0.1-0.6-0.2-1.3-0.3-2c0,0.3-0.1,1-0.3,2c-0.2,1-0.3,1.5-0.6,2.5c-0.5,0-0.7,0-1.1,0
			c-0.6-2.6-0.9-3.9-1.6-6.5c0.5,0,0.8,0,1.4,0c0.3,1.2,0.4,1.8,0.6,2.9c0.1,0.4,0.2,0.9,0.2,1.6c0-0.3,0.1-0.9,0.2-1.6
			c0.3-1.1,0.4-1.7,0.6-2.9c0.4,0,0.7,0,1.1,0c0.3,1.2,0.4,1.7,0.6,2.9C-112.2,270.4-112.1,270.9-112,271.6z"/>
		<path class="st5" d="M-107,269c0-0.4-0.2-0.7-0.7-0.7s-1.1,0.1-1.7,0.5c0-0.6,0-0.8,0-1.4c0.7-0.2,1.3-0.4,1.9-0.3
			c0.7,0,1.2,0.2,1.5,0.5s0.5,0.9,0.5,1.6c0,1.1,0,1.6,0,2.7c0,0.9,0,1.5,0.1,1.8c-0.4,0-0.5,0-0.9,0c-0.2-0.1-0.3-0.3-0.5-0.6
			c0,0.1-0.1,0.1-0.1,0.1c-0.3,0.4-0.7,0.6-1.3,0.5c-1,0-1.5-0.7-1.5-2c0-0.7,0.2-1.2,0.5-1.6c0.4-0.4,0.9-0.6,1.6-0.5
			c0.2,0,0.3,0,0.5,0C-107,269.5-107,269.4-107,269z M-107,272.1c0-0.5,0-0.8,0-1.3c-0.1,0-0.2,0-0.4,0c-0.6,0-0.9,0.3-0.9,1
			c0,0.5,0.2,0.8,0.5,0.8c0.2,0,0.4-0.1,0.6-0.4C-107,272.4-107,272.4-107,272.1z"/>
		<path class="st5" d="M-102.7,268.5c0.2-0.2,0.4-0.3,0.6-0.6c0.4-0.4,0.7-0.5,1.1-0.5c0,0.7,0,1.1,0,1.9c-0.1-0.1-0.3-0.1-0.4-0.1
			c-0.2,0-0.5,0.1-0.8,0.3c-0.2,0.1-0.2,0.2-0.4,0.3c0,1.6,0,2.5,0,4.1c-0.6,0-0.9,0-1.5-0.1c0-1.9,0-2.8,0-4.7c0-0.8,0-1.4-0.1-1.8
			c0.4,0,0.5,0,0.9,0C-103,267.6-102.8,268-102.7,268.5z"/>
		<path class="st5" d="M-96.5,272.6c0,0.5,0,0.8,0,1.3c-0.7,0.2-1.3,0.3-1.8,0.3c-0.7,0-1.2-0.3-1.5-0.7c-0.4-0.5-0.6-1.5-0.6-2.8
			c0-1.2,0.2-2.1,0.5-2.6s0.9-0.7,1.7-0.7c0.6,0,1.1,0.2,1.4,0.6c0.3,0.3,0.4,0.9,0.4,1.6c0,0.6,0,0.9,0,1.4c-1-0.1-1.5-0.1-2.6-0.1
			c0,0.5,0,0.9,0,1c0.1,0.4,0.2,0.7,0.4,0.9c0.1,0.1,0.3,0.1,0.5,0.2C-97.5,273.1-97,273-96.5,272.6z M-97.7,269.9
			c0-0.4,0-0.7,0-0.8c-0.1-0.3-0.2-0.5-0.5-0.5c-0.2,0-0.4,0.1-0.5,0.2c-0.1,0.2-0.1,0.5-0.2,1C-98.5,269.9-98.2,269.9-97.7,269.9
			L-97.7,269.9z"/>
		<path class="st5" d="M-88.6,271.5c0,1.2-0.2,2.1-0.5,2.6s-0.9,0.7-1.6,0.6c-0.8-0.1-1.3-0.3-1.7-0.9c-0.3-0.5-0.5-1.4-0.5-2.7
			s0.2-2.1,0.5-2.6s0.9-0.7,1.7-0.6c0.8,0.1,1.3,0.3,1.6,0.9S-88.6,270.4-88.6,271.5z M-90.8,269.1c-0.4,0-0.6,0.3-0.6,0.9
			c0,0.1,0,0.5,0,1.3s0,1.3,0,1.3c0.1,0.6,0.3,1,0.6,1s0.6-0.3,0.6-0.9c0-0.1,0-0.5,0-1.3s0-1.3,0-1.3
			C-90.2,269.4-90.4,269.1-90.8,269.1z"/>
		<path class="st5" d="M-85.6,268.5c0.6,0,0.9,0.1,1.5,0.1c0,0.5,0,0.7,0,1.2c-0.6,0-0.9-0.1-1.5-0.1c0,2.1,0,3.2,0,5.3
			c-0.6,0-0.9-0.1-1.5-0.1c0-2.1,0-3.2,0-5.3c-0.3,0-0.5,0-0.9-0.1c0-0.5,0-0.7,0-1.2c0.3,0,0.5,0,0.9,0.1c0-0.3,0-0.4,0-0.7
			c0-0.7,0.2-1.2,0.5-1.4c0.3-0.2,0.8-0.3,1.5-0.2c0.4,0,0.7,0.1,1.1,0.2c0,0.5,0,0.7,0,1.2c-0.3-0.1-0.6-0.2-0.9-0.2
			s-0.6,0.2-0.6,0.6C-85.6,268.1-85.6,268.1-85.6,268.5z"/>
		<path class="st5" d="M-206.7,289.9c0-1.9,0-2.8,0-4.7c0.6-0.1,0.9-0.1,1.5-0.1c0,2.8,0,4.2,0,7c0,0.7-0.2,1.3-0.5,1.6
			c-0.3,0.4-0.8,0.6-1.5,0.6c-0.5,0-1.1,0-1.8-0.2c0-0.5,0-0.8,0-1.4c0.6,0.3,1.1,0.5,1.6,0.4c0.5,0,0.8-0.3,0.8-0.9
			c0-0.4,0-0.7,0-1.1l0,0c-0.4,0.5-0.9,0.7-1.3,0.7c-0.5,0-0.8-0.1-1-0.4s-0.3-0.7-0.3-1.4c0-1.9,0-2.8,0-4.7
			c0.6-0.1,0.9-0.1,1.5-0.1c0,1.9,0,2.8,0,4.7c0,0.4,0.1,0.6,0.3,0.6S-207,290.1-206.7,289.9C-206.8,289.9-206.8,289.9-206.7,289.9z
			"/>
		<path class="st5" d="M-199.7,287.9c0,1.2-0.2,2.1-0.5,2.7c-0.3,0.5-0.9,0.8-1.6,0.9c-0.8,0.1-1.3-0.1-1.7-0.6
			c-0.3-0.5-0.5-1.3-0.5-2.6c0-1.3,0.2-2.1,0.5-2.7c0.3-0.5,0.9-0.8,1.7-0.9s1.3,0.1,1.6,0.6S-199.7,286.5-199.7,287.9z
			 M-201.9,285.6c-0.4,0-0.6,0.4-0.6,1c0,0.1,0,0.5,0,1.3s0,1.3,0,1.3c0.1,0.6,0.3,0.9,0.6,0.9s0.6-0.4,0.6-1c0-0.1,0-0.5,0-1.3
			s0-1.3,0-1.3C-201.3,285.9-201.5,285.6-201.9,285.6z"/>
		<path class="st5" d="M-195.9,288.9c0-1.9,0-2.8,0-4.7c0.6,0,0.9-0.1,1.5-0.1c0,1.9,0,2.8,0,4.7c0,0.8,0,1.4,0.1,1.8
			c-0.4,0-0.5,0-0.9,0.1c-0.2-0.1-0.4-0.3-0.5-0.6c-0.1,0.1-0.1,0.1-0.2,0.2c-0.4,0.4-0.9,0.7-1.3,0.7c-0.5,0-0.8-0.1-1-0.4
			s-0.3-0.8-0.3-1.4c0-1.9,0-2.8,0-4.7c0.6,0,0.9-0.1,1.5-0.1c0,1.9,0,2.8,0,4.7c0,0.4,0.1,0.6,0.3,0.6s0.4-0.2,0.6-0.5
			C-196,289-196,289-195.9,288.9z"/>
		<path class="st5" d="M-191.6,285c0.2-0.3,0.4-0.4,0.6-0.7c0.4-0.4,0.7-0.6,1.1-0.6c0,0.7,0,1.1,0,1.9c-0.1,0-0.3-0.1-0.4-0.1
			c-0.2,0-0.5,0.2-0.8,0.4c-0.2,0.2-0.2,0.2-0.4,0.4c0,1.6,0,2.5,0,4.1c-0.6,0-0.9,0.1-1.5,0.1c0-1.9,0-2.8,0-4.7
			c0-0.8,0-1.4-0.1-1.8c0.4,0,0.5,0,0.9-0.1C-192,284.1-191.7,284.5-191.6,285z"/>
		<path class="st5" d="M-185.1,283.5c0.6,0,0.9-0.1,1.5-0.1c0,0.5,0,0.7,0,1.2c-0.6,0-0.9,0.1-1.5,0.1c0,2.1,0,3.2,0,5.3
			c-0.6,0-0.9,0.1-1.5,0.1c0-2.1,0-3.2,0-5.3c-0.3,0-0.5,0-0.9,0.1c0-0.5,0-0.7,0-1.2c0.3,0,0.5,0,0.9-0.1c0-0.3,0-0.4,0-0.7
			c0-0.7,0.2-1.2,0.5-1.5c0.3-0.2,0.8-0.4,1.5-0.4c0.4,0,0.7,0,1.1,0.1c0,0.5,0,0.7,0,1.2c-0.3-0.1-0.6-0.1-0.9-0.1
			c-0.4,0-0.6,0.3-0.6,0.7C-185.1,283.1-185.1,283.1-185.1,283.5z"/>
		<path class="st5" d="M-178.9,286.4c0,1.2-0.2,2.1-0.5,2.7c-0.3,0.5-0.9,0.8-1.7,0.8s-1.3-0.2-1.7-0.7c-0.3-0.5-0.5-1.3-0.5-2.6
			s0.2-2.1,0.5-2.7c0.3-0.5,0.9-0.8,1.7-0.8s1.3,0.2,1.7,0.7C-179.1,284.4-178.9,285.1-178.9,286.4z M-181.1,284.1
			c-0.4,0-0.6,0.3-0.6,1c0,0.1,0,0.5,0,1.3s0,1.3,0,1.3c0.1,0.6,0.3,0.9,0.6,0.9c0.4,0,0.6-0.3,0.6-1c0-0.1,0-0.5,0-1.3s0-1.3,0-1.3
			C-180.5,284.5-180.7,284.1-181.1,284.1z"/>
		<path class="st5" d="M-173.6,286.1c0,1.2-0.2,2.1-0.5,2.6s-0.9,0.8-1.7,0.8s-1.3-0.2-1.7-0.7c-0.3-0.5-0.5-1.4-0.5-2.6
			s0.2-2.1,0.5-2.7c0.3-0.5,0.9-0.8,1.7-0.8s1.3,0.2,1.7,0.7C-173.7,284-173.6,284.9-173.6,286.1z M-175.7,284c-0.4,0-0.6,0.3-0.6,1
			c0,0.1,0,0.5,0,1.3s0,1.3,0,1.3c0.1,0.6,0.3,0.9,0.6,0.9c0.4,0,0.6-0.3,0.6-1c0-0.1,0-0.5,0-1.3s0-1.3,0-1.3
			C-175.1,284.1-175.4,283.9-175.7,284z"/>
		<path class="st5" d="M-169.7,283.1c0-1.2,0-1.7,0-2.9c0.6,0,0.9,0,1.5-0.1c0,2.9,0,4.3,0,7.1c0,0.8,0,1.4,0.1,1.8
			c-0.4,0-0.5,0-0.9,0c-0.2-0.1-0.4-0.3-0.5-0.6c-0.5,0.5-1,0.8-1.4,0.8c-0.5,0-0.9-0.2-1.2-0.7s-0.4-1.4-0.4-2.6s0.1-2.1,0.4-2.7
			c0.2-0.5,0.6-0.7,1.2-0.8C-170.5,282.6-170.1,282.9-169.7,283.1z M-169.7,287.5c0-1.2,0-1.9,0-3.1c-0.1-0.1-0.1-0.1-0.2-0.2
			c-0.2-0.2-0.4-0.4-0.6-0.4c-0.2,0-0.3,0.1-0.3,0.3c-0.1,0.3-0.2,0.9-0.2,1.9c0,0.9,0.1,1.6,0.2,1.8c0.1,0.2,0.2,0.3,0.3,0.3
			c0.2,0,0.4-0.1,0.6-0.4C-169.8,287.6-169.8,287.6-169.7,287.5z"/>
		<path class="st5" d="M-161.1,282.6c0,0.6,0,0.9,0,1.5c-0.4-0.3-0.8-0.4-1.2-0.4c-0.3,0-0.5,0.1-0.6,0.3c-0.2,0.3-0.2,0.8-0.2,1.7
			c0,0.8,0.1,1.4,0.2,1.7c0.1,0.2,0.3,0.3,0.6,0.3c0.4,0,0.8-0.2,1.2-0.5c0,0.6,0,0.9,0,1.5c-0.5,0.2-1.1,0.3-1.6,0.4
			c-0.7,0-1.1-0.2-1.4-0.5c-0.4-0.5-0.5-1.4-0.5-2.7c0-1.4,0.2-2.3,0.6-2.8c0.3-0.4,0.7-0.6,1.4-0.6
			C-162.2,282.4-161.7,282.5-161.1,282.6z"/>
		<path class="st5" d="M-158.7,282.9c0.4-0.4,0.9-0.6,1.3-0.7c0.5,0,0.8,0.2,1,0.5s0.3,0.8,0.3,1.4c0,1.9,0,2.8,0,4.7
			c-0.6,0-0.9,0-1.5,0c0-1.9,0-2.8,0-4.7c0-0.4-0.1-0.6-0.3-0.6s-0.4,0.2-0.6,0.4c-0.1,0.1-0.1,0.1-0.2,0.2c0,1.9,0,2.8,0,4.7
			c-0.6,0-0.9,0-1.5,0c0-3.6,0-5.4,0-9c0.6,0,0.9,0,1.5,0C-158.7,281.1-158.7,281.6-158.7,282.9z"/>
		<path class="st5" d="M-150.6,285.4c0,1.2-0.2,2.1-0.5,2.6s-0.9,0.8-1.7,0.8s-1.3-0.2-1.7-0.7c-0.3-0.5-0.5-1.4-0.5-2.6
			s0.2-2.1,0.5-2.6s0.9-0.8,1.7-0.8s1.3,0.2,1.7,0.7C-150.8,283.4-150.6,284.1-150.6,285.4z M-152.8,283.1c-0.4,0-0.6,0.3-0.6,0.9
			c0,0.1,0,0.5,0,1.3s0,1.3,0,1.3c0.1,0.6,0.3,0.9,0.6,0.9c0.4,0,0.6-0.3,0.6-0.9c0-0.1,0-0.5,0-1.3s0-1.3,0-1.3
			C-152.2,283.5-152.4,283.1-152.8,283.1z"/>
		<path class="st5" d="M-147.7,282.1c0,2.6,0,3.9,0,6.5c-0.6,0-0.9,0-1.5,0c0-2.1,0-3.2,0-5.3c-0.3,0-0.4,0-0.7,0c0-0.5,0-0.7,0-1.2
			C-149,282.1-148.5,282.1-147.7,282.1z M-148.4,279.6c0.2,0,0.5,0.1,0.6,0.2c0.2,0.2,0.3,0.4,0.3,0.6s-0.1,0.5-0.3,0.6
			c-0.2,0.2-0.4,0.3-0.6,0.3c-0.2,0-0.4-0.1-0.6-0.3c-0.2-0.2-0.3-0.4-0.3-0.6c0-0.3,0.1-0.5,0.3-0.6
			C-148.9,279.6-148.7,279.6-148.4,279.6z"/>
		<path class="st5" d="M-142.8,282.4c0,0.6,0,0.9,0,1.5c-0.4-0.3-0.8-0.4-1.2-0.4c-0.3,0-0.5,0.1-0.6,0.3c-0.2,0.3-0.2,0.8-0.2,1.7
			c0,0.8,0.1,1.4,0.2,1.7c0.1,0.2,0.3,0.3,0.6,0.3c0.4,0,0.8-0.1,1.2-0.4c0,0.6,0,0.9,0,1.5c-0.5,0.2-1.1,0.3-1.6,0.3
			c-0.7,0-1.1-0.2-1.4-0.6c-0.4-0.5-0.5-1.4-0.5-2.7c0-1.4,0.2-2.3,0.6-2.8c0.3-0.4,0.7-0.6,1.4-0.6
			C-143.9,282.1-143.4,282.1-142.8,282.4z"/>
		<path class="st5" d="M-138.1,287c0,0.5,0,0.8,0,1.3c-0.7,0.3-1.3,0.4-1.8,0.4c-0.7,0-1.2-0.2-1.5-0.6c-0.4-0.5-0.6-1.4-0.6-2.8
			c0-1.2,0.2-2.1,0.5-2.6s0.9-0.8,1.7-0.8c0.6,0,1.1,0.2,1.4,0.5c0.3,0.3,0.4,0.9,0.4,1.6c0,0.6,0,0.9,0,1.4c-1,0-1.5,0-2.6,0
			c0,0.5,0,0.9,0,1c0.1,0.4,0.2,0.7,0.4,0.8c0.1,0.1,0.3,0.1,0.5,0.1C-139.1,287.5-138.6,287.4-138.1,287z M-139.3,284.4
			c0-0.4,0-0.7,0-0.8c-0.1-0.3-0.2-0.4-0.5-0.4c-0.2,0-0.4,0.1-0.5,0.3c-0.1,0.2-0.1,0.5-0.2,1C-140,284.4-139.8,284.4-139.3,284.4
			L-139.3,284.4z"/>
		<path class="st5" d="M-133.6,282.4c0,0.5,0,0.8,0,1.3c-0.6-0.3-1.1-0.5-1.6-0.5c-0.4,0-0.6,0.2-0.6,0.7c0,0.4,0.2,0.7,0.6,0.7
			c1.4,0,2,0.7,2,2.1s-0.7,2.1-2.1,2.1c-0.6,0-1.1-0.1-1.6-0.3c0-0.5,0-0.8,0-1.3c0.6,0.3,1.1,0.4,1.6,0.4s0.8-0.3,0.8-0.8
			s-0.3-0.7-0.8-0.7c-0.6,0-1-0.1-1.3-0.4c-0.4-0.3-0.6-0.9-0.6-1.7c0-1.3,0.6-1.9,1.9-1.9C-134.7,282-134.1,282.1-133.6,282.4z"/>
		<path class="st5" d="M-131.1,288.9c-0.3,0-0.5-0.1-0.7-0.3c-0.2-0.2-0.3-0.4-0.3-0.7c0-0.3,0.1-0.5,0.3-0.7s0.4-0.3,0.7-0.3
			s0.5,0.1,0.7,0.3c0.2,0.2,0.3,0.4,0.3,0.7c0,0.3-0.1,0.5-0.3,0.7C-130.6,288.6-130.8,288.9-131.1,288.9z M-131.9,279.6
			c0.6,0,0.9,0,1.5,0c0,2.5,0,3.7,0,6.2c-0.6,0-0.9,0-1.5,0C-131.9,283.4-131.9,282.1-131.9,279.6z"/>
	</g>
</g>
<text transform="matrix(1 0 0 1 -205.1 371.7305)" class="st6 st7">Application was created by Mindaugas Uzubalis</text>
<text transform="matrix(1 0 0 1 -205.1 381.3305)" class="st6 st7">also known as MD. Graphics *designed by Freepik*.</text>
</svg>
