<?xml version="1.0" encoding="utf-8"?>
<!-- Generator: Adobe Illustrator 19.0.0, SVG Export Plug-In . SVG Version: 6.00 Build 0)  -->
<svg version="1.1" id="Layer_1" xmlns="http://www.w3.org/2000/svg" xmlns:xlink="http://www.w3.org/1999/xlink" x="0px" y="0px"
	 viewBox="-258 125.4 441.4 311.6" style="enable-background:new -258 125.4 441.4 311.6;" xml:space="preserve">
<style type="text/css">
	.st0{fill:#31234C;}
	.st1{fill:#62528E;}
	.st2{fill:#AEB0B2;}
	.st3{clip-path:url(#SVGID_2_);fill:#554789;}
	.st4{fill:#FFFFFF;}
	.st5{fill:#525354;}
	.st6{font-family:'SolexRegular';}
	.st7{font-size:8px;}
</style>
<path id="XMLID_55_" class="st0" d="M171.8,410c0,6.2-5.1,11.3-11.4,11.3H-235c-6.3,0-11.4-5-11.4-11.3V161.1
	c0-6.2,5.1-11.3,11.4-11.3h395.4c6.3,0,11.4,5,11.4,11.3L171.8,410L171.8,410z"/>
<path id="XMLID_54_" class="st1" d="M171.3,400.6c0,6.2-5.1,11.3-11.4,11.3h-394.4c-6.3,0-11.4-5-11.4-11.3V151.7
	c0-6.2,5.1-11.3,11.4-11.3h394.4c6.3,0,11.4,5,11.4,11.3V400.6z"/>
<rect id="XMLID_53_" x="-221.6" y="148" class="st2" width="182.2" height="250.6"/>
<rect id="XMLID_52_" x="-39.4" y="148" class="st2" width="182.2" height="250.6"/>
<g id="XMLID_114_">
	<g>
		<g>
			<g>
				<defs>
					<path id="SVGID_1_" d="M171.3,401c0,6.2-5.1,11.3-11.4,11.3h-394.4c-6.3,0-11.4-5-11.4-11.3V152.1c0-6.2,5.1-11.3,11.4-11.3
						h394.4c6.3,0,11.4,5,11.4,11.3V401z"/>
				</defs>
				<clipPath id="SVGID_2_">
					<use xlink:href="#SVGID_1_"  style="overflow:visible;"/>
				</clipPath>
				<rect id="XMLID_51_" x="-39.8" y="137" class="st3" width="248.5" height="296.8"/>
			</g>
		</g>
	</g>
</g>
<rect id="XMLID_49_" x="-225.6" y="148" class="st2" width="186.8" height="250.6"/>
<g id="XMLID_2_">
	<g id="XMLID_82_">
		<path id="XMLID_124_" d="M-165.5,157.4c0.8-2.4,1.2-3.6,2-6c0.9-0.1,1.3-0.1,2.2-0.1c-1.8,4.8-2.7,7.2-4.4,12
			c-0.8,0.1-1.3,0.1-2.1,0.2c-0.1-2.2-0.1-3.3-0.2-5.4c0-0.4,0-1.1,0.1-2.2c-0.1,0.5-0.3,1.2-0.6,2.2c-0.8,2.2-1.2,3.4-2.1,5.6
			c-0.9,0.1-1.4,0.1-2.3,0.2c-0.1-4.7-0.2-7-0.3-11.7c1-0.1,1.5-0.1,2.5-0.2c0,2.3,0,3.5,0,5.8c0,0.4-0.1,1.1-0.2,2.3
			c0.1-0.6,0.3-1.4,0.6-2.4c0.9-2.4,1.3-3.6,2.2-6c0.7-0.1,1.1-0.1,1.8-0.1c0.1,2.3,0.1,3.5,0.2,5.8c0,0.4,0,1.1-0.2,2.3
			C-166,159.1-165.8,158.4-165.5,157.4z"/>
		<path id="XMLID_121_" d="M-156.4,159.4c-1.5,0.1-2.2,0.1-3.7,0.2c0,0.2,0,0.3,0,0.4c0,0.6,0.3,0.9,1,0.9c0.6,0,1.4-0.3,2.4-0.7
			c-0.2,0.9-0.2,1.4-0.4,2.3c-1.1,0.4-2.1,0.6-3,0.6s-1.5-0.1-1.9-0.4c-0.5-0.4-0.8-1.1-0.8-2.1c0-0.5,0.1-1.1,0.2-1.7
			c0.3-1.7,0.7-2.8,1.3-3.5s1.5-1.1,2.8-1.1c1.8-0.1,2.7,0.5,2.7,1.9c0,0.2,0,0.5-0.1,0.7C-156.1,157.8-156.2,158.4-156.4,159.4z
			 M-158.5,157.7c0.1-0.6,0.2-1,0.2-1.2c0-0.3-0.1-0.5-0.4-0.4c-0.2,0-0.4,0.1-0.5,0.3s-0.2,0.7-0.4,1.4
			C-159.2,157.8-159,157.8-158.5,157.7z"/>
		<path id="XMLID_119_" d="M-152.3,160.5c0.4,0,0.6,0,1,0c-0.1,0.9-0.2,1.3-0.4,2.1c-1.5,0-2.2,0.1-3.7,0.1c0.7-3.9,1-5.8,1.7-9.7
			c-0.4,0-0.6,0-1,0c0.1-0.9,0.2-1.3,0.4-2.1c1.5-0.1,2.2-0.1,3.7-0.1C-151.3,154.7-151.6,156.6-152.3,160.5z"/>
		<path id="XMLID_117_" d="M-144.1,154.3c-0.2,0.9-0.2,1.4-0.4,2.3c-0.5-0.3-1-0.4-1.5-0.4c-0.4,0-0.7,0.1-0.9,0.3
			c-0.2,0.3-0.5,0.9-0.6,1.7c-0.1,0.5-0.1,0.8-0.1,1.1c0,0.4,0.1,0.7,0.2,0.8c0.1,0.1,0.3,0.1,0.6,0.1c0.5,0,1-0.2,1.6-0.5
			c-0.2,0.9-0.3,1.4-0.4,2.3c-0.7,0.3-1.5,0.4-2.4,0.4s-1.5-0.1-1.8-0.4c-0.5-0.4-0.7-1.1-0.7-2c0-0.5,0.1-1.1,0.2-1.8
			c0.3-1.8,0.8-3,1.5-3.7c0.5-0.5,1.2-0.7,2.2-0.7C-145.7,153.9-144.9,154-144.1,154.3z"/>
		<path id="XMLID_113_" d="M-137.2,158.2c-0.3,1.6-0.7,2.8-1.3,3.4c-0.6,0.6-1.5,1-2.7,0.9c-1,0-1.7-0.2-2.2-0.6
			c-0.5-0.4-0.7-1.1-0.7-2.1c0-0.5,0.1-1,0.2-1.7c0.3-1.7,0.7-2.8,1.3-3.5c0.6-0.6,1.5-1,2.7-1c1,0,1.7,0.2,2.2,0.6s0.7,1.2,0.7,2.2
			C-137,157.1-137.1,157.6-137.2,158.2z M-140.1,155.8c-0.2,0-0.4,0.1-0.5,0.4c-0.1,0.3-0.3,1-0.5,2s-0.3,1.6-0.3,1.9
			s0.1,0.5,0.4,0.5c0.2,0,0.4-0.1,0.5-0.4s0.3-0.9,0.5-2c0.2-1,0.3-1.6,0.3-1.9S-139.8,155.8-140.1,155.8z"/>
		<path id="XMLID_111_" d="M-129.2,162.7c0.4-2.3,0.6-3.4,1-5.7c0.1-0.3,0-0.5-0.2-0.5c-0.1,0-0.3,0.1-0.6,0.3
			c-0.1,0.1-0.1,0.1-0.2,0.1c-0.4,2.3-0.6,3.5-1,5.8c-1.1,0-1.6-0.1-2.7-0.1c0.4-2.3,0.6-3.4,1-5.7c0.1-0.3,0-0.5-0.2-0.5
			c-0.1,0-0.4,0.1-0.6,0.3c-0.1,0.1-0.1,0.1-0.2,0.2c-0.4,2.3-0.6,3.5-1,5.8c-1.1,0-1.6,0-2.7-0.1c0.4-2.4,0.6-3.7,1.1-6.1
			c0.2-1.1,0.3-1.9,0.2-2.4c0.6,0,0.9,0,1.4,0c0.3,0.2,0.6,0.5,0.8,1c1-0.7,1.9-1,2.5-1c0.8,0,1.3,0.4,1.4,1
			c0.9-0.6,1.6-0.8,2.2-0.8c1,0,1.5,0.6,1.5,1.6c0,0.3,0,0.7-0.1,1.1c-0.3,1.5-0.4,2.3-0.7,3.8c0.4,0,0.6,0,1,0.1
			c-0.1,0.8-0.2,1.3-0.4,2.1C-127,162.8-127.8,162.8-129.2,162.7z"/>
		<path id="XMLID_108_" d="M-118.1,160.1c-1.5-0.1-2.2-0.2-3.7-0.3c0,0.2,0,0.3,0,0.4c0,0.6,0.3,1,1,1c0.6,0,1.4-0.1,2.4-0.5
			c-0.2,0.9-0.2,1.3-0.4,2.2c-1.1,0.2-2.1,0.3-3,0.3c-0.9-0.1-1.5-0.3-1.9-0.6c-0.5-0.5-0.8-1.2-0.8-2.2c0-0.5,0.1-1.1,0.2-1.7
			c0.3-1.6,0.7-2.7,1.3-3.4c0.6-0.6,1.5-0.9,2.8-0.8c1.8,0.1,2.7,0.9,2.7,2.2c0,0.2,0,0.5-0.1,0.7C-117.9,158.5-118,159-118.1,160.1
			z M-120.3,158.1c0.1-0.6,0.2-1,0.2-1.2c0-0.3-0.1-0.5-0.4-0.5c-0.2,0-0.4,0.1-0.5,0.3s-0.2,0.6-0.4,1.4
			C-121,158.1-120.7,158.1-120.3,158.1z"/>
		<path id="XMLID_105_" d="M-115.1,161c0.4,0,0.6,0.2,0.9,0.4c0.2,0.2,0.3,0.5,0.3,0.9s-0.2,0.8-0.5,1.1s-0.7,0.4-1.2,0.4
			c-0.4,0-0.6-0.2-0.9-0.4c-0.2-0.2-0.3-0.5-0.3-0.9s0.2-0.8,0.5-1.1C-115.9,161.1-115.5,160.9-115.1,161z M-114.9,151.9
			c1.1,0.1,1.6,0.1,2.7,0.2c-0.6,3.1-1,4.7-1.6,7.9c-1-0.1-1.4-0.1-2.4-0.2C-115.6,156.7-115.4,155.1-114.9,151.9z"/>
	</g>
</g>
<path id="XMLID_48_" class="st4" d="M-37.6,148l5.6,250.3c-117.8-4-196-2.6-196-2.6l-3.9-252.3C-232,143.4-169.6,141.9-37.6,148z"/>
<path id="XMLID_1_" class="st4" d="M-44,147.5l5.5,248.4c-117.8-3.9-196-2.6-196-2.6l-3.9-250.3C-238.4,143-176,141.4-44,147.5z"/>
<rect id="XMLID_45_" x="-39.9" y="148" class="st2" width="186.8" height="250.6"/>
<g>
	<g>
		<path class="st5" d="M-163.3,173.1c0,4,0,5.9,0,9.9c-0.8,0.1-1.2,0.1-2,0.2c0-4,0-5.9,0-9.9c-0.8,0.1-1.2,0.1-2.1,0.2
			c0-0.7,0-1.1,0-1.8c2.4-0.2,3.7-0.3,6.1-0.5c0,0.7,0,1.1,0,1.8C-162.1,173-162.5,173-163.3,173.1z"/>
		<path class="st5" d="M-158.6,174.8c0.5-0.6,1.1-0.9,1.8-0.9c0.6,0,1.1,0.2,1.3,0.6c0.2,0.4,0.3,1,0.3,1.8c0,2.5,0,3.7,0,6.2
			c-0.8,0-1.2,0-2,0.1c0-2.5,0-3.7,0-6.2c0-0.5-0.1-0.8-0.4-0.8c-0.2,0-0.5,0.2-0.8,0.6c-0.1,0.1-0.2,0.2-0.3,0.3c0,2.4,0,3.7,0,6.1
			c-0.8,0-1.2,0.1-2,0.1c0-4.7,0-7,0-11.7c0.8-0.1,1.2-0.1,2-0.1C-158.6,172.5-158.6,173.3-158.6,174.8z"/>
		<path class="st5" d="M-148.5,180.3c0,0.7,0,1,0,1.7c-1,0.4-1.8,0.6-2.4,0.6c-0.9,0-1.6-0.2-2-0.8c-0.5-0.7-0.7-1.8-0.7-3.6
			c0-1.6,0.2-2.8,0.7-3.5c0.4-0.7,1.2-1,2.2-1c0.8,0,1.5,0.2,1.8,0.6c0.4,0.4,0.6,1.1,0.6,2.1c0,0.7,0,1.1,0,1.9c-1.3,0-2,0-3.4,0.1
			c0,0.7,0,1.1,0.1,1.4c0.1,0.6,0.3,0.9,0.6,1.1c0.2,0.1,0.4,0.2,0.7,0.2C-149.8,180.9-149.1,180.7-148.5,180.3z M-150.1,176.8
			c0-0.5,0-0.9-0.1-1c-0.1-0.4-0.3-0.6-0.7-0.6c-0.3,0-0.5,0.1-0.7,0.4c-0.1,0.2-0.2,0.7-0.2,1.3
			C-151,176.9-150.7,176.9-150.1,176.8L-150.1,176.8z"/>
		<path class="st5" d="M-141.3,180.5c1.1,0,1.6,0,2.7,0.1c0,0.7,0,1.1,0,1.8c-1.9-0.1-2.8-0.1-4.7-0.1c0-4.7,0-7,0-11.7
			c1.8,0,2.7,0,4.6,0.1c0,0.7,0,1.1,0,1.8c-1,0-1.5,0-2.6-0.1c0,1.1,0,1.7,0,2.8c1,0,1.4,0,2.4,0.1c0,0.7,0,1.1,0,1.8
			c-1,0-1.4,0-2.4-0.1C-141.3,178.5-141.3,179.2-141.3,180.5z"/>
		<path class="st5" d="M-135.1,175c0.1-0.1,0.2-0.2,0.3-0.3c0.6-0.5,1.2-0.8,1.8-0.7c0.6,0,1.1,0.3,1.3,0.7s0.3,1,0.3,1.9
			c0,2.5,0,3.7,0,6.2c-0.8,0-1.2-0.1-2-0.1c0-2.5,0-3.7,0-6.2c0-0.5-0.1-0.8-0.4-0.8c-0.2,0-0.5,0.2-0.8,0.5
			c-0.1,0.2-0.2,0.2-0.4,0.4c0,2.4,0,3.6,0,6c-0.8,0-1.2-0.1-2-0.1c0-2.4,0-3.7,0-6.1c0-1.1-0.1-1.9-0.2-2.4c0.5,0,0.7,0,1.2,0
			C-135.6,174.2-135.3,174.6-135.1,175z"/>
		<path class="st5" d="M-126.2,175.2c0-1.5,0-2.3,0-3.8c0.8,0.1,1.2,0.1,2,0.2c0,3.7,0,5.6,0,9.4c0,1.1,0.1,1.9,0.2,2.4
			c-0.5,0-0.7-0.1-1.2-0.1c-0.3-0.2-0.5-0.5-0.7-0.9c-0.6,0.6-1.3,0.9-1.8,0.9c-0.7-0.1-1.2-0.4-1.5-1c-0.4-0.7-0.5-1.9-0.5-3.5
			s0.2-2.8,0.5-3.4c0.3-0.6,0.8-0.9,1.5-0.8C-127.3,174.4-126.8,174.7-126.2,175.2z M-126.2,180.9c0-1.6,0-2.4,0-4
			c-0.1-0.1-0.1-0.2-0.2-0.3c-0.3-0.4-0.5-0.5-0.7-0.6c-0.2,0-0.4,0.1-0.4,0.3c-0.1,0.4-0.2,1.2-0.2,2.4s0.1,2,0.2,2.4
			c0.1,0.3,0.2,0.4,0.4,0.4s0.5-0.1,0.7-0.4C-126.4,181.1-126.3,181-126.2,180.9z"/>
	</g>
</g>
<g>
	<g>
		<path class="st5" d="M-207,221.3c0,3,0,4.5,0,7.6c-0.6,0.1-0.9,0.1-1.5,0.1c0-3,0-4.5,0-7.6c-0.6,0.1-0.9,0.1-1.6,0.1
			c0-0.6,0-0.8,0-1.4c1.9-0.2,2.8-0.3,4.7-0.4c0,0.6,0,0.8,0,1.4C-206,221.2-206.3,221.2-207,221.3z"/>
		<path class="st5" d="M-203.3,222.5c0.4-0.5,0.9-0.7,1.3-0.7c0.5,0,0.8,0.1,1,0.4c0.2,0.3,0.3,0.8,0.3,1.4c0,1.9,0,2.8,0,4.7
			c-0.6,0-0.9,0.1-1.5,0.1c0-1.9,0-2.8,0-4.7c0-0.4-0.1-0.6-0.3-0.6s-0.4,0.2-0.6,0.5c-0.1,0.1-0.1,0.2-0.2,0.3c0,1.9,0,2.8,0,4.7
			c-0.6,0.1-0.9,0.1-1.5,0.1c0-3.6,0-5.4,0-9c0.6-0.1,0.9-0.1,1.5-0.1C-203.3,220.7-203.3,221.3-203.3,222.5z"/>
		<path class="st5" d="M-197.2,223.3c0-0.4-0.2-0.7-0.7-0.6c-0.5,0-1.1,0.3-1.7,0.7c0-0.6,0-0.8,0-1.4c0.7-0.3,1.3-0.5,1.9-0.6
			c0.7-0.1,1.2,0.1,1.5,0.4c0.3,0.3,0.5,0.8,0.5,1.6c0,1.1,0,1.6,0,2.7c0,0.9,0,1.5,0.1,1.8c-0.4,0-0.5,0-0.9,0.1
			c-0.2-0.1-0.3-0.3-0.5-0.5c0,0.1-0.1,0.1-0.1,0.1c-0.3,0.4-0.7,0.6-1.3,0.7c-1,0.1-1.5-0.5-1.5-1.8c0-0.7,0.2-1.2,0.5-1.6
			c0.4-0.4,0.9-0.7,1.6-0.7c0.2,0,0.3,0,0.5,0C-197.2,223.7-197.2,223.6-197.2,223.3z M-197.2,226.5c0-0.5,0-0.8,0-1.3
			c-0.1,0-0.2,0-0.4,0c-0.6,0-0.9,0.4-0.9,1.1c0,0.5,0.2,0.8,0.5,0.8c0.2,0,0.4-0.2,0.6-0.5C-197.2,226.6-197.2,226.6-197.2,226.5z"
			/>
		<path class="st5" d="M-193,221.9c0.1-0.1,0.2-0.2,0.3-0.3c0.4-0.4,0.9-0.7,1.3-0.7c0.5,0,0.8,0.1,1,0.4c0.2,0.3,0.3,0.8,0.3,1.4
			c0,1.9,0,2.8,0,4.7c-0.6,0-0.9,0.1-1.5,0.1c0-1.9,0-2.8,0-4.7c0-0.4-0.1-0.6-0.3-0.6s-0.4,0.2-0.6,0.5c-0.1,0.1-0.2,0.2-0.3,0.3
			c0,1.8,0,2.7,0,4.6c-0.6,0-0.9,0.1-1.5,0.1c0-1.9,0-2.8,0-4.7c0-0.8,0-1.4-0.1-1.8c0.4,0,0.5,0,0.9-0.1
			C-193.3,221.4-193.1,221.6-193,221.9z"/>
		<path class="st5" d="M-187.4,225.2c0,0.9,0,1.3,0,2.1c-0.6,0-0.9,0.1-1.4,0.1c0-3.6,0-5.4,0-9c0.6,0,0.9-0.1,1.4-0.1
			c0,1.6,0,2.4,0,4.1c0,0.3,0,0.6,0,0.9c0.1-0.2,0.3-0.6,0.7-1.2c0.4-0.6,0.6-0.9,1-1.5c0.6,0,0.9-0.1,1.4-0.1c-0.7,1-1,1.5-1.7,2.6
			c0.6,1.6,0.9,2.4,1.5,3.9c-0.6,0-0.9,0.1-1.5,0.1c-0.4-1.1-0.6-1.6-1-2.7C-187.1,224.8-187.2,224.9-187.4,225.2z"/>
		<path class="st5" d="M-178.9,225c0-1.9,0-2.8,0-4.7c0.6,0,0.9,0,1.5-0.1c0,2.8,0,4.2,0,7c0,0.7-0.2,1.3-0.5,1.6s-0.8,0.5-1.5,0.6
			c-0.5,0-1.1-0.1-1.8-0.3c0-0.5,0-0.8,0-1.4c0.6,0.3,1.1,0.5,1.6,0.5s0.8-0.3,0.8-0.8c0-0.4,0-0.7,0-1.1l0,0
			c-0.4,0.4-0.9,0.7-1.3,0.7c-0.5,0-0.8-0.1-1-0.5c-0.2-0.3-0.3-0.8-0.3-1.4c0-1.9,0-2.8,0-4.7c0.6,0,0.9,0,1.5-0.1
			c0,1.9,0,2.8,0,4.7c0,0.4,0.1,0.6,0.3,0.6s0.4-0.2,0.6-0.5C-179,225.1-178.9,225.1-178.9,225z"/>
		<path class="st5" d="M-171.9,223.2c0,1.2-0.2,2.1-0.5,2.6s-0.9,0.8-1.7,0.8s-1.3-0.2-1.7-0.7c-0.3-0.5-0.5-1.4-0.5-2.6
			s0.2-2.1,0.5-2.6s0.9-0.8,1.7-0.8s1.3,0.2,1.7,0.7S-171.9,222-171.9,223.2z M-174,221.1c-0.4,0-0.6,0.3-0.6,1c0,0.1,0,0.5,0,1.3
			s0,1.3,0,1.3c0.1,0.6,0.3,0.9,0.6,0.9c0.4,0,0.6-0.3,0.6-1c0-0.1,0-0.5,0-1.3s0-1.3,0-1.3C-173.4,221.4-173.6,221.1-174,221.1z"/>
		<path class="st5" d="M-168.1,224.5c0-1.9,0-2.8,0-4.7c0.6,0,0.9,0,1.5-0.1c0,1.9,0,2.8,0,4.7c0,0.8,0,1.4,0.1,1.8
			c-0.4,0-0.5,0-0.9,0c-0.2-0.1-0.4-0.4-0.5-0.7c-0.1,0.1-0.1,0.1-0.2,0.2c-0.4,0.4-0.9,0.7-1.3,0.7c-0.5,0-0.8-0.1-1-0.5
			c-0.2-0.3-0.3-0.8-0.3-1.4c0-1.9,0-2.8,0-4.7c0.6,0,0.9,0,1.5-0.1c0,1.9,0,2.8,0,4.7c0,0.4,0.1,0.6,0.3,0.6s0.4-0.2,0.6-0.5
			C-168.2,224.7-168.1,224.6-168.1,224.5z"/>
		<path class="st5" d="M-161,219.6c0.6,0,0.9,0,1.5,0c0,0.5,0,0.7,0,1.2c-0.6,0-0.9,0-1.5,0c0,2.1,0,3.2,0,5.3c-0.6,0-0.9,0-1.5,0
			c0-2.1,0-3.2,0-5.3c-0.3,0-0.5,0-0.9,0c0-0.5,0-0.7,0-1.2c0.3,0,0.5,0,0.9,0c0-0.3,0-0.4,0-0.7c0-0.7,0.2-1.2,0.5-1.5
			c0.3-0.2,0.8-0.4,1.5-0.4c0.4,0,0.8,0,1.1,0.1c0,0.5,0,0.7,0,1.2c-0.3-0.1-0.6-0.1-0.9-0.1s-0.6,0.2-0.6,0.7
			C-161,219.2-161,219.3-161,219.6z"/>
		<path class="st5" d="M-154.9,222.7c0,1.2-0.2,2.1-0.5,2.6s-0.9,0.8-1.7,0.8s-1.3-0.2-1.7-0.7c-0.3-0.5-0.5-1.4-0.5-2.6
			s0.2-2.1,0.5-2.6s0.9-0.8,1.7-0.8s1.3,0.2,1.7,0.7S-154.9,221.5-154.9,222.7z M-157,220.5c-0.4,0-0.6,0.3-0.6,1c0,0.1,0,0.5,0,1.3
			s0,1.3,0,1.3c0.1,0.6,0.3,0.9,0.6,0.9c0.4,0,0.6-0.3,0.6-1c0-0.1,0-0.5,0-1.3s0-1.3,0-1.3C-156.5,220.8-156.7,220.5-157,220.5z"/>
		<path class="st5" d="M-152.2,220.5c0.2-0.2,0.4-0.4,0.6-0.6c0.4-0.4,0.7-0.6,1.1-0.6c0,0.7,0,1.1,0,1.9c-0.1-0.1-0.3-0.1-0.4-0.1
			c-0.2,0-0.5,0.1-0.8,0.4c-0.2,0.1-0.2,0.2-0.4,0.4c0,1.6,0,2.5,0,4.1c-0.6,0-0.9,0-1.5,0c0-1.9,0-2.8,0-4.7c0-0.8,0-1.4-0.1-1.8
			c0.4,0,0.5,0,0.9,0C-152.5,219.6-152.3,220-152.2,220.5z"/>
		<path class="st5" d="M-144.9,224c0-1.9,0-2.8,0-4.7c0.6,0,0.9,0,1.5,0c0,1.9,0,2.8,0,4.7c0,0.8,0,1.4,0.1,1.8c-0.4,0-0.5,0-0.9,0
			c-0.2-0.1-0.4-0.4-0.5-0.7c-0.1,0.1-0.1,0.1-0.2,0.2c-0.4,0.4-0.9,0.6-1.3,0.6c-0.5,0-0.8-0.2-1-0.5s-0.3-0.8-0.3-1.4
			c0-1.9,0-2.8,0-4.7c0.6,0,0.9,0,1.5,0c0,1.9,0,2.8,0,4.7c0,0.4,0.1,0.6,0.3,0.6s0.4-0.1,0.6-0.4C-145,224.1-145,224.1-144.9,224z"
			/>
		<path class="st5" d="M-138.9,219.5c0,0.5,0,0.8,0,1.3c-0.6-0.3-1.1-0.5-1.6-0.5c-0.4,0-0.6,0.2-0.6,0.7c0,0.4,0.2,0.7,0.6,0.7
			c1.4,0,2,0.7,2,2.1c0,1.4-0.7,2.1-2.1,2.1c-0.6,0-1.1-0.1-1.6-0.3c0-0.5,0-0.8,0-1.3c0.6,0.3,1.1,0.4,1.6,0.4s0.8-0.3,0.8-0.8
			s-0.3-0.7-0.8-0.7c-0.6,0-1-0.1-1.3-0.4c-0.4-0.3-0.6-0.9-0.6-1.7c0-1.3,0.6-1.9,1.9-1.9C-140,219.2-139.5,219.3-138.9,219.5z"/>
		<path class="st5" d="M-135.8,219.3c0,2.6,0,3.9,0,6.5c-0.6,0-0.9,0-1.5,0c0-2.1,0-3.2,0-5.3c-0.3,0-0.4,0-0.7,0c0-0.5,0-0.7,0-1.2
			C-137.1,219.3-136.7,219.3-135.8,219.3z M-136.6,216.7c0.2,0,0.5,0.1,0.6,0.3c0.2,0.2,0.3,0.4,0.3,0.6c0,0.2-0.1,0.5-0.3,0.6
			s-0.4,0.3-0.6,0.3c-0.2,0-0.4-0.1-0.6-0.3c-0.2-0.2-0.3-0.4-0.3-0.6c0-0.3,0.1-0.5,0.3-0.6C-137,216.8-136.8,216.7-136.6,216.7z"
			/>
		<path class="st5" d="M-133,220.1c0.1-0.1,0.2-0.1,0.3-0.2c0.4-0.4,0.9-0.6,1.3-0.6c0.5,0,0.8,0.2,1,0.5s0.3,0.8,0.3,1.4
			c0,1.9,0,2.8,0,4.7c-0.6,0-0.9,0-1.5,0c0-1.9,0-2.8,0-4.7c0-0.4-0.1-0.6-0.3-0.6s-0.4,0.1-0.6,0.4c-0.1,0.1-0.2,0.2-0.3,0.3
			c0,1.8,0,2.7,0,4.6c-0.6,0-0.9,0-1.5,0c0-1.9,0-2.8,0-4.7c0-0.8,0-1.4-0.1-1.8c0.4,0,0.5,0,0.9,0
			C-133.3,219.5-133.1,219.7-133,220.1z"/>
		<path class="st5" d="M-124.7,226.5c0,0.7-0.2,1.3-0.5,1.6s-0.9,0.5-1.5,0.5c-0.5,0-1.1-0.2-1.8-0.4c0-0.5,0-0.8,0-1.4
			c0.6,0.4,1.1,0.6,1.6,0.6s0.8-0.3,0.8-0.8c0-0.4,0-0.6,0-1c-0.4,0.4-0.8,0.5-1.2,0.5c-0.5,0-0.9-0.3-1.2-0.7
			c-0.3-0.5-0.4-1.4-0.4-2.7c0-1.2,0.1-2.1,0.4-2.7c0.2-0.5,0.6-0.7,1.2-0.7c0.4,0,0.9,0.3,1.4,0.8c0.1-0.3,0.3-0.5,0.5-0.6
			c0.4,0,0.5,0,0.9,0c-0.1,0.4-0.1,1-0.1,1.8C-124.7,223.4-124.7,224.4-124.7,226.5z M-126.2,221.1c-0.1-0.1-0.1-0.1-0.2-0.2
			c-0.2-0.3-0.4-0.4-0.6-0.4s-0.3,0.1-0.3,0.3c-0.1,0.3-0.2,0.9-0.2,1.9s0.1,1.6,0.2,1.8s0.2,0.3,0.3,0.3c0.2,0,0.4-0.1,0.6-0.4
			c0.1-0.1,0.1-0.1,0.2-0.2C-126.2,223-126.2,222.4-126.2,221.1z"/>
		<path class="st5" d="M-118.1,225.9c-0.3,0.2-0.7,0.2-1.3,0.2c-0.5,0-0.9-0.1-1.1-0.4c-0.2-0.2-0.2-0.7-0.2-1.4c0-1.5,0-2.2,0-3.6
			c-0.3,0-0.5,0-0.9,0c0-0.5,0-0.7,0-1.2c0.3,0,0.5,0,0.9,0c0-0.6,0-0.9,0-1.5c0.6,0,0.9,0,1.5,0c0,0.6,0,0.9,0,1.5
			c0.5,0,0.7,0,1.1,0c0,0.5,0,0.7,0,1.2c-0.5,0-0.7,0-1.1,0c0,1.5,0,2.2,0,3.6c0,0.2,0,0.4,0.1,0.4c0.1,0.1,0.2,0.1,0.5,0.1
			c0.2,0,0.4,0,0.6-0.1C-118.1,225.3-118.1,225.5-118.1,225.9z"/>
		<path class="st5" d="M-115.8,220.2c0.4-0.4,0.9-0.6,1.3-0.6c0.5,0,0.8,0.2,1,0.5s0.3,0.8,0.3,1.4c0,1.9,0,2.8,0,4.7
			c-0.6,0-0.9,0-1.5-0.1c0-1.9,0-2.8,0-4.7c0-0.4-0.1-0.6-0.3-0.6c-0.2,0-0.4,0.1-0.6,0.4c-0.1,0.1-0.1,0.1-0.2,0.2
			c0,1.9,0,2.8,0,4.7c-0.6,0-0.9,0-1.5,0c0-3.6,0-5.4,0-9c0.6,0,0.9,0,1.5,0C-115.8,218.4-115.8,219-115.8,220.2z"/>
		<path class="st5" d="M-110.1,219.9c0,2.6,0,3.9,0,6.5c-0.6,0-0.9,0-1.5-0.1c0-2.1,0-3.2,0-5.3c-0.3,0-0.4,0-0.7,0
			c0-0.5,0-0.7,0-1.2C-111.4,219.8-111,219.9-110.1,219.9z M-110.9,217.3c0.2,0,0.5,0.1,0.6,0.3c0.2,0.2,0.3,0.4,0.3,0.6
			c0,0.2-0.1,0.4-0.3,0.6c-0.2,0.2-0.4,0.2-0.6,0.2s-0.4-0.1-0.6-0.3s-0.3-0.4-0.3-0.6c0-0.3,0.1-0.5,0.3-0.6
			C-111.3,217.3-111.1,217.3-110.9,217.3z"/>
		<path class="st5" d="M-105.5,220.3c0,0.5,0,0.8,0,1.3c-0.6-0.3-1.1-0.5-1.6-0.5c-0.4,0-0.6,0.2-0.6,0.7c0,0.4,0.2,0.7,0.6,0.7
			c1.4,0.1,2,0.8,2,2.2s-0.7,2-2.1,2c-0.6,0-1.1-0.1-1.6-0.4c0-0.5,0-0.8,0-1.3c0.6,0.3,1.1,0.4,1.6,0.5c0.5,0,0.8-0.2,0.8-0.8
			c0-0.5-0.3-0.7-0.8-0.7c-0.6,0-1-0.2-1.3-0.4c-0.4-0.3-0.6-0.9-0.6-1.7c0-1.3,0.6-1.9,1.9-1.8C-106.6,219.9-106.1,220-105.5,220.3
			z"/>
		<path class="st5" d="M-99.6,222.2c0-0.4-0.2-0.7-0.7-0.7s-1.1,0.1-1.7,0.5c0-0.6,0-0.8,0-1.4c0.7-0.2,1.3-0.3,1.9-0.3
			c0.7,0,1.2,0.2,1.5,0.6c0.3,0.3,0.5,0.9,0.5,1.6c0,1.1,0,1.6,0,2.7c0,0.9,0,1.5,0.1,1.8c-0.4,0-0.5,0-0.9,0
			c-0.2-0.1-0.3-0.3-0.5-0.6l-0.1,0.1c-0.3,0.4-0.7,0.5-1.3,0.5c-1-0.1-1.5-0.7-1.5-2c0-0.7,0.2-1.2,0.5-1.6
			c0.4-0.4,0.9-0.6,1.6-0.5c0.2,0,0.3,0,0.5,0C-99.6,222.6-99.6,222.5-99.6,222.2z M-99.6,225.4c0-0.5,0-0.8,0-1.3
			c-0.1,0-0.2,0-0.4,0c-0.6,0-0.9,0.3-0.9,1c0,0.5,0.2,0.8,0.5,0.8c0.2,0,0.4-0.1,0.6-0.4C-99.6,225.4-99.6,225.4-99.6,225.4z"/>
		<path class="st5" d="M-95.2,226.7c0,1.2,0,1.7,0,2.9c-0.6,0-0.9-0.1-1.5-0.1c0-2.9,0-4.3,0-7.2c0-0.8,0-1.4-0.1-1.8
			c0.4,0,0.5,0,0.9,0.1c0.2,0.1,0.4,0.4,0.5,0.7c0.5-0.5,1-0.7,1.4-0.7c0.5,0,0.9,0.3,1.2,0.8c0.3,0.6,0.4,1.5,0.4,2.7
			s-0.1,2.1-0.4,2.6c-0.2,0.5-0.6,0.7-1.2,0.6C-94.4,227.3-94.8,227.1-95.2,226.7z M-95.2,225.4c0.1,0.1,0.1,0.1,0.2,0.2
			c0.2,0.3,0.4,0.4,0.6,0.4s0.3-0.1,0.3-0.3c0.1-0.3,0.2-0.9,0.2-1.8s-0.1-1.6-0.2-1.9c-0.1-0.2-0.2-0.3-0.3-0.3
			c-0.2,0-0.4,0.1-0.6,0.3c-0.1,0.1-0.1,0.1-0.2,0.2C-95.2,223.6-95.2,224.2-95.2,225.4z"/>
		<path class="st5" d="M-89.7,227.1c0,1.2,0,1.7,0,2.9c-0.6,0-0.9-0.1-1.5-0.1c0-2.9,0-4.3,0-7.2c0-0.8,0-1.4-0.1-1.8
			c0.4,0,0.5,0,0.9,0.1c0.2,0.1,0.4,0.4,0.5,0.7c0.5-0.5,1-0.7,1.4-0.7c0.5,0,0.9,0.3,1.2,0.8c0.3,0.6,0.4,1.5,0.4,2.7
			s-0.1,2.1-0.4,2.6c-0.2,0.5-0.6,0.7-1.2,0.6C-88.9,227.7-89.3,227.5-89.7,227.1z M-89.7,225.8c0.1,0.1,0.1,0.1,0.2,0.2
			c0.2,0.3,0.4,0.4,0.6,0.4s0.3-0.1,0.3-0.3c0.1-0.3,0.2-0.9,0.2-1.8c0-0.9-0.1-1.6-0.2-1.9c-0.1-0.2-0.2-0.3-0.3-0.3
			c-0.2,0-0.4,0.1-0.6,0.3c-0.1,0.1-0.1,0.1-0.2,0.2C-89.7,223.9-89.7,224.5-89.7,225.8z"/>
		<path class="st5" d="M-84.9,225.9c0.3,0,0.5,0.1,0.7,0.4c0.2,0.2,0.3,0.5,0.3,0.7s-0.1,0.5-0.3,0.7s-0.4,0.3-0.7,0.2
			c-0.3,0-0.5-0.1-0.7-0.4c-0.2-0.2-0.3-0.5-0.3-0.7s0.1-0.5,0.3-0.7C-85.4,226-85.2,225.9-84.9,225.9z"/>
		<path class="st5" d="M-207.5,240.5c0,1.6,0,2.4,0,4c-0.6,0.1-0.9,0.1-1.5,0.1c0-3.6,0-5.4,0-9c0.6-0.1,0.9-0.1,1.5-0.1
			c0,1.4,0,2.1,0,3.5c0.6-0.1,0.9-0.1,1.6-0.1c0-1.4,0-2.1,0-3.5c0.6-0.1,0.9-0.1,1.5-0.1c0,3.6,0,5.4,0,9c-0.6,0.1-0.9,0.1-1.5,0.1
			c0-1.6,0-2.4,0-4C-206.6,240.4-206.9,240.4-207.5,240.5z"/>
		<path class="st5" d="M-198.6,240.5c0,1.2-0.2,2.1-0.5,2.7c-0.3,0.5-0.9,0.8-1.6,0.9c-0.8,0.1-1.3-0.1-1.7-0.6
			c-0.3-0.5-0.5-1.3-0.5-2.6c0-1.2,0.2-2.1,0.5-2.7c0.3-0.5,0.9-0.8,1.7-0.9c0.8-0.1,1.3,0.1,1.6,0.6
			C-198.8,238.4-198.6,239.2-198.6,240.5z M-200.8,238.4c-0.4,0-0.6,0.4-0.6,1c0,0.1,0,0.5,0,1.3s0,1.3,0,1.3
			c0.1,0.6,0.3,0.9,0.6,0.9c0.4,0,0.6-0.4,0.6-1c0-0.1,0-0.5,0-1.3s0-1.3,0-1.3C-200.2,238.7-200.4,238.4-200.8,238.4z"/>
		<path class="st5" d="M-195.9,243.1c0,1.2,0,1.7,0,2.9c-0.6,0-0.9,0.1-1.5,0.1c0-2.9,0-4.3,0-7.2c0-0.8,0-1.4-0.1-1.8
			c0.4,0,0.5,0,0.9-0.1c0.2,0.1,0.4,0.3,0.5,0.6c0.5-0.5,1-0.8,1.4-0.9c0.5,0,0.9,0.2,1.2,0.6c0.3,0.5,0.4,1.4,0.4,2.6
			s-0.1,2.1-0.4,2.7c-0.2,0.5-0.6,0.8-1.2,0.8C-195.1,243.6-195.5,243.4-195.9,243.1z M-195.9,241.8c0.1,0.1,0.1,0.1,0.2,0.2
			c0.2,0.2,0.4,0.3,0.6,0.3c0.2,0,0.3-0.1,0.3-0.3c0.1-0.3,0.2-0.9,0.2-1.9s-0.1-1.6-0.2-1.8c-0.1-0.2-0.2-0.3-0.3-0.3
			c-0.2,0-0.4,0.2-0.6,0.4c-0.1,0.1-0.1,0.1-0.2,0.2C-195.9,240-195.9,240.6-195.9,241.8z"/>
		<path class="st5" d="M-188.1,241.4c0,0.5,0,0.8,0,1.3c-0.7,0.3-1.3,0.5-1.8,0.5c-0.7,0-1.2-0.1-1.5-0.5c-0.4-0.5-0.6-1.4-0.6-2.7
			c0-1.2,0.2-2.1,0.5-2.7c0.3-0.5,0.9-0.8,1.7-0.9c0.6,0,1.1,0.1,1.4,0.4s0.4,0.8,0.4,1.6c0,0.6,0,0.9,0,1.4c-1,0.1-1.5,0.1-2.6,0.2
			c0,0.5,0,0.9,0,1c0.1,0.4,0.2,0.7,0.4,0.8c0.1,0.1,0.3,0.1,0.5,0.1C-189.1,241.9-188.6,241.7-188.1,241.4z M-189.3,238.8
			c0-0.4,0-0.7,0-0.8c-0.1-0.3-0.2-0.4-0.5-0.4c-0.2,0-0.4,0.1-0.5,0.3s-0.1,0.5-0.2,1C-190.1,238.9-189.8,238.9-189.3,238.8
			L-189.3,238.8z"/>
		<path class="st5" d="M-181.5,242.4c-0.3,0.2-0.7,0.3-1.3,0.3c-0.5,0-0.9-0.1-1.1-0.3c-0.2-0.2-0.2-0.7-0.2-1.4c0-1.5,0-2.2,0-3.6
			c-0.3,0-0.5,0-0.9,0.1c0-0.5,0-0.7,0-1.2c0.3,0,0.5,0,0.9-0.1c0-0.6,0-0.9,0-1.5c0.6,0,0.9-0.1,1.5-0.1c0,0.6,0,0.9,0,1.5
			c0.5,0,0.7,0,1.1-0.1c0,0.5,0,0.7,0,1.2c-0.5,0-0.7,0-1.1,0.1c0,1.5,0,2.2,0,3.6c0,0.2,0,0.3,0.1,0.4c0.1,0.1,0.2,0.1,0.4,0.1
			s0.4-0.1,0.6-0.1C-181.5,241.7-181.5,241.9-181.5,242.4z"/>
		<path class="st5" d="M-179.2,236.4c0.4-0.4,0.9-0.7,1.3-0.7c0.5,0,0.8,0.1,1,0.5c0.2,0.3,0.3,0.8,0.3,1.4c0,1.9,0,2.8,0,4.7
			c-0.6,0-0.9,0-1.5,0.1c0-1.9,0-2.8,0-4.7c0-0.4-0.1-0.6-0.3-0.6s-0.4,0.2-0.6,0.5c-0.1,0.1-0.1,0.1-0.2,0.2c0,1.9,0,2.8,0,4.7
			c-0.6,0-0.9,0-1.5,0.1c0-3.6,0-5.4,0-9c0.6,0,0.9,0,1.5-0.1C-179.2,234.7-179.2,235.3-179.2,236.4z"/>
		<path class="st5" d="M-173.5,235.7c0,2.6,0,3.9,0,6.5c-0.6,0-0.9,0-1.5,0.1c0-2.1,0-3.2,0-5.3c-0.3,0-0.4,0-0.7,0
			c0-0.5,0-0.7,0-1.2C-174.8,235.7-174.4,235.7-173.5,235.7z M-174.3,233.1c0.2,0,0.5,0.1,0.6,0.2c0.2,0.2,0.3,0.4,0.3,0.6
			c0,0.2-0.1,0.5-0.3,0.6c-0.2,0.2-0.4,0.3-0.6,0.3c-0.2,0-0.4-0.1-0.6-0.2c-0.2-0.2-0.3-0.4-0.3-0.6c0-0.3,0.1-0.5,0.3-0.6
			C-174.8,233.2-174.6,233.1-174.3,233.1z"/>
		<path class="st5" d="M-168.9,235.7c0,0.5,0,0.8,0,1.3c-0.6-0.3-1.1-0.4-1.6-0.4c-0.4,0-0.6,0.3-0.6,0.7s0.2,0.7,0.6,0.6
			c1.4-0.1,2,0.6,2,2s-0.7,2.1-2.1,2.1c-0.6,0-1.1-0.1-1.6-0.2c0-0.5,0-0.8,0-1.3c0.6,0.2,1.1,0.3,1.6,0.3s0.8-0.3,0.8-0.9
			c0-0.5-0.3-0.7-0.8-0.7c-0.6,0-1-0.1-1.3-0.3c-0.4-0.3-0.6-0.9-0.6-1.7c0-1.3,0.6-1.9,1.9-2C-170,235.4-169.5,235.5-168.9,235.7z"
			/>
		<path class="st5" d="M-163.5,235.3c0,2.6,0,3.9,0,6.5c-0.6,0-0.9,0-1.5,0c0-2.1,0-3.2,0-5.3c-0.3,0-0.4,0-0.7,0c0-0.5,0-0.7,0-1.2
			C-164.8,235.3-164.4,235.3-163.5,235.3z M-164.3,232.7c0.2,0,0.5,0.1,0.6,0.2c0.2,0.2,0.3,0.4,0.3,0.6c0,0.2-0.1,0.5-0.3,0.6
			s-0.4,0.3-0.6,0.3c-0.2,0-0.4-0.1-0.6-0.2c-0.2-0.2-0.3-0.4-0.3-0.6c0-0.3,0.1-0.5,0.3-0.6C-164.7,232.8-164.5,232.7-164.3,232.7z
			"/>
		<path class="st5" d="M-160.7,235.9c0.1-0.1,0.2-0.2,0.3-0.3c0.4-0.4,0.9-0.6,1.3-0.7c0.5,0,0.8,0.2,1,0.5s0.3,0.8,0.3,1.4
			c0,1.9,0,2.8,0,4.7c-0.6,0-0.9,0-1.5,0c0-1.9,0-2.8,0-4.7c0-0.4-0.1-0.6-0.3-0.6s-0.4,0.2-0.6,0.4c-0.1,0.1-0.2,0.2-0.3,0.3
			c0,1.8,0,2.7,0,4.6c-0.6,0-0.9,0-1.5,0c0-1.9,0-2.8,0-4.7c0-0.8,0-1.4-0.1-1.8c0.4,0,0.5,0,0.9,0
			C-161,235.4-160.8,235.6-160.7,235.9z"/>
		<path class="st5" d="M-154.7,235.1c0.6,0,0.9,0,1.5,0c0,0.5,0,0.7,0,1.2c-0.6,0-0.9,0-1.5,0c0,2.1,0,3.2,0,5.3c-0.6,0-0.9,0-1.5,0
			c0-2.1,0-3.2,0-5.3c-0.3,0-0.5,0-0.9,0c0-0.5,0-0.7,0-1.2c0.3,0,0.5,0,0.9,0c0-0.3,0-0.4,0-0.7c0-0.7,0.2-1.2,0.5-1.5
			c0.3-0.2,0.8-0.4,1.5-0.4c0.4,0,0.8,0,1.1,0.1c0,0.5,0,0.7,0,1.2c-0.3-0.1-0.6-0.1-0.9-0.1c-0.4,0-0.6,0.2-0.6,0.7
			C-154.7,234.7-154.7,234.8-154.7,235.1z"/>
		<path class="st5" d="M-148.5,238.2c0,1.2-0.2,2.1-0.5,2.6s-0.9,0.8-1.7,0.8s-1.3-0.2-1.7-0.7c-0.3-0.5-0.5-1.4-0.5-2.6
			s0.2-2.1,0.5-2.6s0.9-0.8,1.7-0.8s1.3,0.2,1.7,0.7C-148.7,236.1-148.5,237-148.5,238.2z M-150.7,236c-0.4,0-0.6,0.3-0.6,0.9
			c0,0.1,0,0.5,0,1.3s0,1.3,0,1.3c0.1,0.6,0.3,0.9,0.6,0.9s0.6-0.3,0.6-0.9c0-0.1,0-0.5,0-1.3s0-1.3,0-1.3
			C-150.1,236.3-150.3,236-150.7,236z"/>
		<path class="st5" d="M-145.9,236c0.2-0.2,0.4-0.4,0.6-0.6c0.4-0.4,0.7-0.6,1.1-0.6c0,0.7,0,1.1,0,1.9c-0.1-0.1-0.3-0.1-0.4-0.1
			c-0.2,0-0.5,0.1-0.8,0.4c-0.2,0.1-0.2,0.2-0.4,0.4c0,1.6,0,2.5,0,4.1c-0.6,0-0.9,0-1.5,0c0-1.9,0-2.8,0-4.7c0-0.8,0-1.4-0.1-1.8
			c0.4,0,0.5,0,0.9,0C-146.2,235.1-146,235.5-145.9,236z"/>
		<path class="st5" d="M-139.6,235.6l0.1-0.1c0.5-0.5,0.9-0.7,1.3-0.7c0.5,0,0.8,0.2,1,0.5s0.3,0.8,0.3,1.4c0,1.9,0,2.8,0,4.7
			c-0.6,0-0.9,0-1.5,0c0-1.9,0-2.8,0-4.7c0-0.4-0.1-0.6-0.3-0.6s-0.4,0.1-0.6,0.4c-0.1,0.1-0.1,0.1-0.1,0.2c0,1.9,0,2.8,0,4.7
			c-0.6,0-0.9,0-1.5,0c0-1.9,0-2.8,0-4.7c0-0.4-0.1-0.6-0.3-0.6s-0.4,0.1-0.6,0.4c-0.1,0.1-0.1,0.1-0.1,0.2c0,1.9,0,2.8,0,4.7
			c-0.6,0-0.9,0-1.5,0c0-1.9,0-2.8,0-4.7c0-0.8,0-1.4-0.1-1.8c0.4,0,0.5,0,0.9,0c0.2,0.1,0.4,0.4,0.5,0.7c0.1-0.1,0.1-0.1,0.1-0.1
			c0.5-0.5,0.9-0.7,1.3-0.7C-140.1,234.8-139.7,235-139.6,235.6z"/>
		<path class="st5" d="M-133.3,236.7c0-0.4-0.2-0.7-0.7-0.7s-1.1,0.2-1.7,0.6c0-0.6,0-0.8,0-1.4c0.7-0.3,1.3-0.4,1.9-0.4
			c0.7,0,1.2,0.2,1.5,0.5s0.5,0.9,0.5,1.6c0,1.1,0,1.6,0,2.7c0,0.9,0,1.5,0.1,1.8c-0.4,0-0.5,0-0.9,0c-0.2-0.1-0.3-0.3-0.5-0.6
			c0,0.1-0.1,0.1-0.1,0.1c-0.3,0.4-0.7,0.6-1.3,0.6c-1,0-1.5-0.6-1.5-1.9c0-0.7,0.2-1.2,0.5-1.6c0.4-0.4,0.9-0.6,1.6-0.6
			c0.2,0,0.3,0,0.5,0C-133.3,237.2-133.3,237-133.3,236.7z M-133.3,239.9c0-0.5,0-0.8,0-1.3c-0.1,0-0.2,0-0.4,0
			c-0.6,0-0.9,0.3-0.9,1c0,0.5,0.2,0.8,0.5,0.8c0.2,0,0.4-0.1,0.6-0.4C-133.4,240-133.3,240-133.3,239.9z"/>
		<path class="st5" d="M-127.5,241.3c-0.3,0.2-0.7,0.2-1.3,0.2c-0.5,0-0.9-0.1-1.1-0.4c-0.2-0.2-0.2-0.7-0.2-1.4c0-1.5,0-2.2,0-3.6
			c-0.3,0-0.5,0-0.9,0c0-0.5,0-0.7,0-1.2c0.3,0,0.5,0,0.9,0c0-0.6,0-0.9,0-1.5c0.6,0,0.9,0,1.5,0c0,0.6,0,0.9,0,1.5
			c0.5,0,0.7,0,1.1,0c0,0.5,0,0.7,0,1.2c-0.5,0-0.7,0-1.1,0c0,1.5,0,2.2,0,3.6c0,0.2,0,0.4,0.1,0.4c0.1,0.1,0.2,0.1,0.5,0.1
			c0.2,0,0.4,0,0.6-0.1C-127.5,240.7-127.5,240.9-127.5,241.3z"/>
		<path class="st5" d="M-125,235.1c0,2.6,0,3.9,0,6.5c-0.6,0-0.9,0-1.5,0c0-2.1,0-3.2,0-5.3c-0.3,0-0.4,0-0.7,0c0-0.5,0-0.7,0-1.2
			C-126.3,235-125.9,235-125,235.1z M-125.8,232.4c0.2,0,0.5,0.1,0.6,0.3c0.2,0.2,0.3,0.4,0.3,0.6c0,0.2-0.1,0.4-0.3,0.6
			c-0.2,0.2-0.4,0.3-0.6,0.2c-0.2,0-0.4-0.1-0.6-0.3s-0.3-0.4-0.3-0.6c0-0.3,0.1-0.5,0.3-0.6S-126,232.4-125.8,232.4z"/>
		<path class="st5" d="M-119.4,238.4c0,1.2-0.2,2.1-0.5,2.6s-0.9,0.7-1.7,0.7c-0.8,0-1.3-0.3-1.7-0.8c-0.3-0.5-0.5-1.4-0.5-2.6
			s0.2-2.1,0.5-2.6s0.9-0.7,1.7-0.7c0.8,0,1.3,0.3,1.7,0.8C-119.5,236.3-119.4,237.2-119.4,238.4z M-121.5,236.1
			c-0.4,0-0.6,0.3-0.6,0.9c0,0.1,0,0.5,0,1.3s0,1.3,0,1.3c0.1,0.6,0.3,0.9,0.6,1c0.4,0,0.6-0.3,0.6-0.9c0-0.1,0-0.5,0-1.3
			s0-1.3,0-1.3C-120.9,236.4-121.2,236.1-121.5,236.1z"/>
		<path class="st5" d="M-116.8,236c0.1-0.1,0.2-0.1,0.3-0.2c0.4-0.4,0.9-0.6,1.3-0.6c0.5,0,0.8,0.2,1,0.5s0.3,0.8,0.3,1.4
			c0,1.9,0,2.8,0,4.7c-0.6,0-0.9,0-1.5-0.1c0-1.9,0-2.8,0-4.7c0-0.4-0.1-0.6-0.3-0.6c-0.2,0-0.4,0.1-0.6,0.4
			c-0.1,0.1-0.2,0.2-0.3,0.3c0,1.8,0,2.7,0,4.6c-0.6,0-0.9,0-1.5,0c0-1.9,0-2.8,0-4.7c0-0.8,0-1.4-0.1-1.8c0.4,0,0.5,0,0.9,0
			C-117.1,235.4-116.9,235.6-116.8,236z"/>
		<path class="st5" d="M-106.9,235.9c0,0.6,0,0.9,0,1.5c-0.4-0.3-0.8-0.5-1.2-0.5c-0.3,0-0.5,0.1-0.6,0.3c-0.2,0.3-0.2,0.8-0.2,1.7
			c0,0.8,0.1,1.4,0.2,1.7c0.1,0.2,0.3,0.3,0.6,0.3c0.4,0,0.8-0.1,1.2-0.4c0,0.6,0,0.9,0,1.5c-0.5,0.2-1.1,0.3-1.6,0.2
			c-0.7,0-1.1-0.2-1.4-0.6c-0.4-0.5-0.5-1.4-0.5-2.8c0-1.4,0.2-2.3,0.6-2.7c0.3-0.4,0.7-0.5,1.4-0.5
			C-108,235.5-107.5,235.6-106.9,235.9z"/>
		<path class="st5" d="M-104.4,233.3c0,3.6,0,5.4,0,9c-0.6,0-0.9,0-1.5-0.1c0-3.1,0-4.7,0-7.8c-0.3,0-0.4,0-0.7,0c0-0.5,0-0.7,0-1.2
			C-105.6,233.2-105.2,233.2-104.4,233.3z"/>
		<path class="st5" d="M-100.6,237.7c0-0.4-0.2-0.7-0.7-0.7s-1.1,0.1-1.7,0.5c0-0.6,0-0.8,0-1.4c0.7-0.2,1.3-0.4,1.9-0.3
			c0.7,0,1.2,0.2,1.5,0.6c0.3,0.3,0.5,0.9,0.5,1.6c0,1.1,0,1.6,0,2.7c0,0.9,0,1.5,0.1,1.8c-0.4,0-0.5,0-0.9,0
			c-0.2-0.1-0.3-0.3-0.5-0.6l-0.1,0.1c-0.3,0.4-0.7,0.5-1.3,0.5c-1-0.1-1.5-0.7-1.5-2c0-0.7,0.2-1.2,0.5-1.6
			c0.4-0.4,0.9-0.6,1.6-0.5c0.2,0,0.3,0,0.5,0C-100.6,238.2-100.6,238-100.6,237.7z M-100.6,240.9c0-0.5,0-0.8,0-1.3
			c-0.1,0-0.2,0-0.4,0c-0.6,0-0.9,0.3-0.9,1c0,0.5,0.2,0.8,0.5,0.8c0.2,0,0.4-0.1,0.6-0.4C-100.7,241-100.7,241-100.6,240.9z"/>
		<path class="st5" d="M-96.3,237.2c0.2-0.2,0.4-0.3,0.6-0.6c0.4-0.4,0.7-0.5,1.1-0.5c0,0.7,0,1.1,0,1.9c-0.1-0.1-0.3-0.1-0.4-0.1
			c-0.2,0-0.5,0.1-0.8,0.3c-0.2,0.1-0.2,0.2-0.4,0.3c0,1.6,0,2.5,0,4.1c-0.6,0-0.9-0.1-1.5-0.1c0-1.9,0-2.8,0-4.7
			c0-0.8,0-1.4-0.1-1.8c0.4,0,0.5,0,0.9,0.1C-96.7,236.3-96.4,236.7-96.3,237.2z"/>
		<path class="st5" d="M-92.2,236.4c0,2.6,0,3.9,0,6.5c-0.6,0-0.9-0.1-1.5-0.1c0-2.1,0-3.2,0-5.3c-0.3,0-0.4,0-0.7,0
			c0-0.5,0-0.7,0-1.2C-93.5,236.3-93.1,236.4-92.2,236.4z M-93,233.8c0.2,0,0.5,0.1,0.6,0.3c0.2,0.2,0.3,0.4,0.3,0.6
			c0,0.2-0.1,0.4-0.3,0.6c-0.2,0.2-0.4,0.2-0.6,0.2s-0.4-0.1-0.6-0.3s-0.3-0.4-0.3-0.6c0-0.3,0.1-0.5,0.3-0.6
			C-93.4,233.8-93.2,233.8-93,233.8z"/>
		<path class="st5" d="M-88.9,236.6c0.6,0,0.9,0.1,1.5,0.1c0,0.5,0,0.7,0,1.2c-0.6,0-0.9-0.1-1.5-0.1c0,2.1,0,3.2,0,5.3
			c-0.6,0-0.9-0.1-1.5-0.1c0-2.1,0-3.2,0-5.3c-0.3,0-0.5,0-0.9-0.1c0-0.5,0-0.7,0-1.2c0.3,0,0.5,0,0.9,0.1c0-0.3,0-0.4,0-0.7
			c0-0.7,0.2-1.2,0.5-1.5c0.3-0.2,0.8-0.3,1.5-0.2c0.4,0,0.7,0.1,1.1,0.2c0,0.5,0,0.7,0,1.2c-0.3-0.1-0.6-0.2-0.9-0.2
			s-0.6,0.2-0.6,0.6C-88.9,236.2-88.9,236.4-88.9,236.6z"/>
		<path class="st5" d="M-85.3,236.9c0,2.6,0,3.9,0,6.5c-0.6,0-0.9-0.1-1.5-0.1c0-2.1,0-3.2,0-5.3c-0.3,0-0.4,0-0.7,0
			c0-0.5,0-0.7,0-1.2C-86.7,236.8-86.2,236.8-85.3,236.9z M-86.1,234.2c0.2,0,0.5,0.1,0.6,0.3c0.2,0.2,0.3,0.4,0.3,0.6
			c0,0.2-0.1,0.4-0.3,0.6c-0.2,0.2-0.4,0.2-0.6,0.2s-0.4-0.1-0.6-0.3s-0.3-0.4-0.3-0.6c0-0.3,0.1-0.5,0.3-0.6
			C-86.6,234.3-86.4,234.2-86.1,234.2z"/>
		<path class="st5" d="M-80.1,242.2c0,0.5,0,0.8,0,1.3c-0.7,0.2-1.3,0.3-1.8,0.3c-0.7-0.1-1.2-0.3-1.5-0.7c-0.4-0.5-0.6-1.5-0.6-2.8
			c0-1.2,0.2-2.1,0.5-2.6s0.9-0.7,1.7-0.6c0.6,0,1.1,0.2,1.4,0.6s0.4,0.9,0.4,1.6c0,0.6,0,0.9,0,1.4c-1-0.1-1.5-0.1-2.6-0.2
			c0,0.5,0,0.9,0,1c0.1,0.4,0.2,0.7,0.4,0.9c0.1,0.1,0.3,0.2,0.5,0.2C-81.1,242.6-80.6,242.5-80.1,242.2z M-81.3,239.4
			c0-0.4,0-0.7,0-0.8c-0.1-0.3-0.2-0.5-0.5-0.5c-0.2,0-0.4,0.1-0.5,0.2c-0.1,0.2-0.1,0.5-0.2,1C-82,239.4-81.8,239.4-81.3,239.4
			L-81.3,239.4z"/>
		<path class="st5" d="M-76.1,238c0-1.2,0-1.7,0-2.9c0.6,0.1,0.9,0.1,1.5,0.1c0,2.9,0,4.3,0,7.2c0,0.8,0,1.4,0.1,1.8
			c-0.4,0-0.5,0-0.9-0.1c-0.2-0.1-0.4-0.4-0.5-0.7c-0.5,0.5-1,0.7-1.4,0.6c-0.5,0-0.9-0.3-1.2-0.8c-0.3-0.6-0.4-1.5-0.4-2.7
			s0.1-2.1,0.4-2.6c0.2-0.5,0.6-0.7,1.2-0.6C-76.9,237.4-76.5,237.6-76.1,238z M-76.1,242.4c0-1.2,0-1.9,0-3.1
			c-0.1-0.1-0.1-0.1-0.2-0.2c-0.2-0.3-0.4-0.4-0.6-0.4s-0.3,0.1-0.3,0.3c-0.1,0.3-0.2,0.9-0.2,1.8s0.1,1.6,0.2,1.9
			c0.1,0.2,0.2,0.3,0.3,0.3c0.2,0,0.4-0.1,0.6-0.3C-76.2,242.5-76.2,242.5-76.1,242.4z"/>
		<path class="st5" d="M-205.9,253.7c0,0.6,0,0.9,0,1.5c-0.4-0.2-0.8-0.4-1.2-0.3c-0.3,0-0.5,0.1-0.6,0.3c-0.2,0.3-0.2,0.9-0.2,1.7
			c0,0.8,0.1,1.4,0.2,1.7c0.1,0.2,0.3,0.3,0.6,0.2c0.4,0,0.8-0.2,1.2-0.5c0,0.6,0,0.9,0,1.5c-0.5,0.3-1.1,0.4-1.6,0.5
			c-0.7,0.1-1.1-0.1-1.4-0.4c-0.4-0.5-0.5-1.4-0.5-2.7c0-1.4,0.2-2.3,0.6-2.8c0.3-0.4,0.7-0.6,1.4-0.7
			C-207,253.5-206.5,253.5-205.9,253.7z"/>
		<path class="st5" d="M-200.9,256.3c0,1.2-0.2,2.1-0.5,2.7c-0.3,0.5-0.9,0.8-1.6,0.9c-0.8,0.1-1.3-0.1-1.7-0.6
			c-0.3-0.5-0.5-1.3-0.5-2.6c0-1.3,0.2-2.1,0.5-2.7c0.3-0.5,0.9-0.8,1.7-0.9s1.3,0.1,1.6,0.6C-201,254.2-200.9,255-200.9,256.3z
			 M-203,254.2c-0.4,0-0.6,0.4-0.6,1c0,0.1,0,0.5,0,1.3c0,0.8,0,1.3,0,1.3c0.1,0.6,0.3,0.9,0.6,0.9s0.6-0.4,0.6-1c0-0.1,0-0.5,0-1.3
			s0-1.3,0-1.3C-202.4,254.4-202.6,254.1-203,254.2z"/>
		<path class="st5" d="M-195.7,253.3l0.1-0.1c0.4-0.5,0.9-0.7,1.3-0.8c0.5,0,0.8,0.1,1,0.4s0.3,0.8,0.3,1.4c0,1.9,0,2.8,0,4.7
			c-0.6,0-0.9,0.1-1.5,0.1c0-1.9,0-2.8,0-4.7c0-0.4-0.1-0.6-0.3-0.6s-0.4,0.2-0.6,0.5c-0.1,0.1-0.1,0.1-0.1,0.2c0,1.9,0,2.8,0,4.7
			c-0.6,0-0.9,0.1-1.5,0.1c0-1.9,0-2.8,0-4.7c0-0.4-0.1-0.6-0.3-0.6s-0.4,0.2-0.6,0.5c-0.1,0.1-0.1,0.1-0.1,0.2c0,1.9,0,2.8,0,4.7
			c-0.6,0-0.9,0.1-1.5,0.1c0-1.9,0-2.8,0-4.7c0-0.8,0-1.4-0.1-1.8c0.4,0,0.5,0,0.9-0.1c0.2,0.1,0.4,0.3,0.5,0.6
			c0.1-0.1,0.1-0.1,0.1-0.2c0.5-0.5,0.9-0.7,1.3-0.8C-196.2,252.5-195.9,252.8-195.7,253.3z"/>
		<path class="st5" d="M-187.8,252.7l0.1-0.1c0.5-0.5,0.9-0.7,1.3-0.8c0.5,0,0.8,0.1,1,0.4s0.3,0.8,0.3,1.4c0,1.9,0,2.8,0,4.7
			c-0.6,0-0.9,0.1-1.5,0.1c0-1.9,0-2.8,0-4.7c0-0.4-0.1-0.6-0.3-0.6s-0.4,0.2-0.6,0.5c-0.1,0.1-0.1,0.1-0.1,0.2c0,1.9,0,2.8,0,4.7
			c-0.6,0-0.9,0.1-1.5,0.1c0-1.9,0-2.8,0-4.7c0-0.4-0.1-0.6-0.3-0.6s-0.4,0.2-0.6,0.5c-0.1,0.1-0.1,0.1-0.1,0.2c0,1.9,0,2.8,0,4.7
			c-0.6,0-0.9,0.1-1.5,0.1c0-1.9,0-2.8,0-4.7c0-0.8,0-1.4-0.1-1.8c0.4,0,0.5,0,0.9-0.1c0.2,0.1,0.4,0.3,0.5,0.7
			c0.1-0.1,0.1-0.1,0.1-0.2c0.5-0.5,0.9-0.7,1.3-0.8C-188.3,252-187.9,252.2-187.8,252.7z"/>
		<path class="st5" d="M-179.6,254.8c0,1.2-0.2,2.1-0.5,2.7c-0.3,0.5-0.9,0.8-1.7,0.8s-1.3-0.2-1.7-0.7c-0.3-0.5-0.5-1.3-0.5-2.6
			s0.2-2.1,0.5-2.7c0.3-0.5,0.9-0.8,1.7-0.8s1.3,0.2,1.7,0.7C-179.8,252.7-179.6,253.6-179.6,254.8z M-181.7,252.7
			c-0.4,0-0.6,0.3-0.6,1c0,0.1,0,0.5,0,1.3s0,1.3,0,1.3c0.1,0.6,0.3,0.9,0.6,0.9c0.4,0,0.6-0.3,0.6-1c0-0.1,0-0.5,0-1.3s0-1.3,0-1.3
			C-181.2,253-181.4,252.7-181.7,252.7z"/>
		<path class="st5" d="M-177,252.2c0.1-0.1,0.2-0.2,0.3-0.3c0.4-0.4,0.9-0.7,1.3-0.7c0.5,0,0.8,0.1,1,0.5c0.2,0.3,0.3,0.8,0.3,1.4
			c0,1.9,0,2.8,0,4.7c-0.6,0-0.9,0-1.5,0.1c0-1.9,0-2.8,0-4.7c0-0.4-0.1-0.6-0.3-0.6s-0.4,0.2-0.6,0.5c-0.1,0.1-0.2,0.2-0.3,0.3
			c0,1.8,0,2.7,0,4.6c-0.6,0-0.9,0-1.5,0.1c0-1.9,0-2.8,0-4.7c0-0.8,0-1.4-0.1-1.8c0.4,0,0.5,0,0.9,0
			C-177.4,251.6-177.2,251.8-177,252.2z"/>
		<path class="st5" d="M-167.9,251.5c0-1.2,0-1.7,0-2.9c0.6,0,0.9,0,1.5-0.1c0,2.9,0,4.3,0,7.2c0,0.8,0,1.4,0.1,1.8
			c-0.4,0-0.5,0-0.9,0c-0.2-0.1-0.4-0.3-0.5-0.6c-0.5,0.5-1,0.8-1.4,0.8c-0.5,0-0.9-0.2-1.2-0.7s-0.4-1.4-0.4-2.6s0.1-2.1,0.4-2.7
			c0.2-0.5,0.6-0.7,1.2-0.8C-168.7,250.9-168.3,251.1-167.9,251.5z M-167.9,255.8c0-1.2,0-1.9,0-3.1c-0.1-0.1-0.1-0.1-0.2-0.2
			c-0.2-0.2-0.4-0.4-0.6-0.4c-0.2,0-0.3,0.1-0.3,0.3c-0.1,0.3-0.2,0.9-0.2,1.9s0.1,1.6,0.2,1.8c0.1,0.2,0.2,0.3,0.3,0.3
			c0.2,0,0.4-0.1,0.6-0.4C-168,256-168,255.9-167.9,255.8z"/>
		<path class="st5" d="M-163.3,250.9c0,2.6,0,3.9,0,6.5c-0.6,0-0.9,0-1.5,0c0-2.1,0-3.2,0-5.3c-0.3,0-0.4,0-0.7,0c0-0.5,0-0.7,0-1.2
			C-164.6,250.9-164.2,250.9-163.3,250.9z M-164.1,248.3c0.2,0,0.5,0.1,0.6,0.2s0.3,0.4,0.3,0.6c0,0.2-0.1,0.5-0.3,0.6
			s-0.4,0.3-0.6,0.3c-0.2,0-0.4-0.1-0.6-0.2c-0.2-0.2-0.3-0.4-0.3-0.6c0-0.3,0.1-0.5,0.3-0.6C-164.5,248.4-164.3,248.3-164.1,248.3z
			"/>
		<path class="st5" d="M-158,255.6c0,0.5,0,0.8,0,1.3c-0.7,0.3-1.3,0.5-1.8,0.5c-0.7,0-1.2-0.2-1.5-0.6c-0.4-0.5-0.6-1.4-0.6-2.7
			c0-1.2,0.2-2.1,0.5-2.6s0.9-0.8,1.7-0.8c0.6,0,1.1,0.1,1.4,0.4s0.4,0.8,0.4,1.6c0,0.6,0,0.9,0,1.4c-1,0-1.5,0-2.6,0.1
			c0,0.5,0,0.9,0,1c0.1,0.4,0.2,0.7,0.4,0.8c0.1,0.1,0.3,0.1,0.5,0.1C-159,256.2-158.5,256-158,255.6z M-159.3,253
			c0-0.4,0-0.7,0-0.8c-0.1-0.3-0.2-0.4-0.5-0.4c-0.2,0-0.4,0.1-0.5,0.3s-0.1,0.5-0.2,1C-160,253.1-159.7,253.1-159.3,253L-159.3,253
			z"/>
		<path class="st5" d="M-153.8,257c-0.3,0.2-0.7,0.3-1.3,0.3c-0.5,0-0.9-0.1-1.1-0.3c-0.2-0.2-0.2-0.7-0.2-1.4c0-1.5,0-2.2,0-3.6
			c-0.3,0-0.5,0-0.9,0c0-0.5,0-0.7,0-1.2c0.3,0,0.5,0,0.9,0c0-0.6,0-0.9,0-1.5c0.6,0,0.9,0,1.5,0c0,0.6,0,0.9,0,1.5
			c0.5,0,0.7,0,1.1,0c0,0.5,0,0.7,0,1.2c-0.5,0-0.7,0-1.1,0c0,1.5,0,2.2,0,3.6c0,0.2,0,0.3,0.1,0.4s0.2,0.1,0.5,0.1
			c0.2,0,0.4,0,0.6-0.1C-153.8,256.3-153.8,256.5-153.8,257z"/>
		<path class="st5" d="M-151.2,250.6c0,2.6,0,3.9,0,6.5c-0.6,0-0.9,0-1.5,0c0-2.1,0-3.2,0-5.3c-0.3,0-0.4,0-0.7,0c0-0.5,0-0.7,0-1.2
			C-152.5,250.6-152.1,250.6-151.2,250.6z M-152,248c0.2,0,0.5,0.1,0.6,0.2c0.2,0.2,0.3,0.4,0.3,0.6c0,0.2-0.1,0.5-0.3,0.6
			c-0.2,0.2-0.4,0.3-0.6,0.3c-0.2,0-0.4-0.1-0.6-0.2c-0.2-0.2-0.3-0.4-0.3-0.6c0-0.3,0.1-0.5,0.3-0.6
			C-152.5,248.1-152.2,248-152,248z"/>
		<path class="st5" d="M-148.4,251.3c0.1-0.1,0.2-0.2,0.3-0.3c0.4-0.4,0.9-0.6,1.3-0.6c0.5,0,0.8,0.2,1,0.5s0.3,0.8,0.3,1.4
			c0,1.9,0,2.8,0,4.7c-0.6,0-0.9,0-1.5,0c0-1.9,0-2.8,0-4.7c0-0.4-0.1-0.6-0.3-0.6s-0.4,0.1-0.6,0.4c-0.1,0.1-0.2,0.2-0.3,0.3
			c0,1.8,0,2.7,0,4.6c-0.6,0-0.9,0-1.5,0c0-1.9,0-2.8,0-4.7c0-0.8,0-1.4-0.1-1.8c0.4,0,0.5,0,0.9,0
			C-148.7,250.7-148.6,250.9-148.4,251.3z"/>
		<path class="st5" d="M-140.1,257.5c0,0.7-0.2,1.3-0.5,1.6c-0.3,0.3-0.9,0.5-1.5,0.5c-0.5,0-1.1-0.1-1.8-0.4c0-0.5,0-0.8,0-1.4
			c0.6,0.4,1.1,0.6,1.6,0.6s0.8-0.3,0.8-0.8c0-0.4,0-0.6,0-1c-0.4,0.4-0.8,0.6-1.2,0.6c-0.5,0-0.9-0.2-1.2-0.7s-0.4-1.4-0.4-2.7
			s0.1-2.1,0.4-2.7c0.2-0.5,0.6-0.7,1.2-0.7c0.4,0,0.9,0.3,1.4,0.8c0.1-0.3,0.3-0.5,0.5-0.6c0.4,0,0.5,0,0.9,0
			c-0.1,0.4-0.1,1-0.1,1.8C-140.1,254.4-140.1,255.4-140.1,257.5z M-141.6,252.2c-0.1-0.1-0.1-0.1-0.2-0.2c-0.2-0.3-0.4-0.4-0.6-0.4
			c-0.2,0-0.3,0.1-0.3,0.3c-0.1,0.3-0.2,0.9-0.2,1.9s0.1,1.6,0.2,1.8c0.1,0.2,0.2,0.3,0.3,0.3c0.2,0,0.4-0.1,0.6-0.4
			c0.1-0.1,0.1-0.1,0.2-0.2C-141.6,254.1-141.6,253.5-141.6,252.2z"/>
		<path class="st5" d="M-132.5,251.2l0.1-0.1c0.5-0.4,0.9-0.7,1.3-0.7c0.5,0,0.8,0.2,1,0.5s0.3,0.8,0.3,1.4c0,1.9,0,2.8,0,4.7
			c-0.6,0-0.9,0-1.5,0c0-1.9,0-2.8,0-4.7c0-0.4-0.1-0.6-0.3-0.6s-0.4,0.1-0.6,0.4c-0.1,0.1-0.1,0.1-0.1,0.2c0,1.9,0,2.8,0,4.7
			c-0.6,0-0.9,0-1.5,0c0-1.9,0-2.8,0-4.7c0-0.4-0.1-0.6-0.3-0.6s-0.4,0.1-0.6,0.4c-0.1,0.1-0.1,0.1-0.1,0.2c0,1.9,0,2.8,0,4.7
			c-0.6,0-0.9,0-1.5,0c0-1.9,0-2.8,0-4.7c0-0.8,0-1.4-0.1-1.8c0.4,0,0.5,0,0.9,0c0.2,0.1,0.4,0.4,0.5,0.7c0.1-0.1,0.1-0.1,0.1-0.1
			c0.5-0.4,0.9-0.7,1.3-0.7C-133,250.4-132.6,250.7-132.5,251.2z"/>
		<path class="st5" d="M-126.7,250.6c0,2.6,0,3.9,0,6.5c-0.6,0-0.9,0-1.5,0c0-2.1,0-3.2,0-5.3c-0.3,0-0.4,0-0.7,0c0-0.5,0-0.7,0-1.2
			C-128,250.6-127.6,250.6-126.7,250.6z M-127.5,248c0.2,0,0.5,0.1,0.6,0.3s0.3,0.4,0.3,0.6c0,0.2-0.1,0.4-0.3,0.6
			c-0.2,0.2-0.4,0.3-0.6,0.2c-0.2,0-0.4-0.1-0.6-0.3c-0.2-0.2-0.3-0.4-0.3-0.6c0-0.3,0.1-0.5,0.3-0.6
			C-127.9,248.1-127.7,248-127.5,248z"/>
		<path class="st5" d="M-122.1,250.9c0,0.5,0,0.8,0,1.3c-0.6-0.3-1.1-0.5-1.6-0.5c-0.4,0-0.6,0.2-0.6,0.7c0,0.4,0.2,0.7,0.6,0.7
			c1.4,0,2,0.8,2,2.2c0,1.4-0.7,2-2.1,2c-0.6,0-1.1-0.1-1.6-0.3c0-0.5,0-0.8,0-1.3c0.6,0.3,1.1,0.4,1.6,0.4s0.8-0.3,0.8-0.8
			s-0.3-0.7-0.8-0.7c-0.6,0-1-0.2-1.3-0.4c-0.4-0.3-0.6-0.9-0.6-1.7c0-1.3,0.6-1.9,1.9-1.9C-123.2,250.6-122.7,250.7-122.1,250.9z"
			/>
		<path class="st5" d="M-117.4,251.1c0,0.6,0,0.9,0,1.5c-0.4-0.3-0.8-0.5-1.2-0.5c-0.3,0-0.5,0.1-0.6,0.3c-0.2,0.3-0.2,0.8-0.2,1.7
			c0,0.8,0.1,1.4,0.2,1.7c0.1,0.2,0.3,0.3,0.6,0.3c0.4,0,0.8-0.1,1.2-0.4c0,0.6,0,0.9,0,1.5c-0.5,0.2-1.1,0.3-1.6,0.3
			c-0.7,0-1.1-0.2-1.4-0.6c-0.4-0.5-0.5-1.4-0.5-2.8s0.2-2.3,0.6-2.8c0.3-0.4,0.7-0.5,1.4-0.5C-118.5,250.7-117.9,250.9-117.4,251.1
			z"/>
		<path class="st5" d="M-112.3,254.3c0,1.2-0.2,2.1-0.5,2.6s-0.9,0.7-1.7,0.7c-0.8,0-1.3-0.3-1.7-0.8c-0.3-0.5-0.5-1.4-0.5-2.6
			s0.2-2.1,0.5-2.6s0.9-0.7,1.7-0.7c0.8,0,1.3,0.3,1.7,0.8C-112.5,252.1-112.3,253-112.3,254.3z M-114.4,251.9
			c-0.4,0-0.6,0.3-0.6,0.9c0,0.1,0,0.5,0,1.3s0,1.3,0,1.3c0.1,0.6,0.3,0.9,0.6,1c0.3,0.1,0.6-0.3,0.6-0.9c0-0.1,0-0.5,0-1.3
			s0-1.3,0-1.3C-113.9,252.3-114.1,251.9-114.4,251.9z"/>
		<path class="st5" d="M-109.7,251.9c0.1-0.1,0.2-0.1,0.3-0.2c0.4-0.4,0.9-0.6,1.3-0.6c0.5,0,0.8,0.2,1,0.6c0.2,0.3,0.3,0.8,0.3,1.4
			c0,1.9,0,2.8,0,4.7c-0.6,0-0.9,0-1.5-0.1c0-1.9,0-2.8,0-4.7c0-0.4-0.1-0.6-0.3-0.6c-0.2,0-0.4,0.1-0.6,0.4
			c-0.1,0.1-0.2,0.2-0.3,0.3c0,1.8,0,2.7,0,4.6c-0.6,0-0.9,0-1.5-0.1c0-1.9,0-2.8,0-4.7c0-0.8,0-1.4-0.1-1.8c0.4,0,0.5,0,0.9,0
			C-110.1,251.2-109.9,251.5-109.7,251.9z"/>
		<path class="st5" d="M-102.2,251.7c0,0.6,0,0.9,0,1.5c-0.4-0.3-0.8-0.5-1.2-0.5c-0.3,0-0.5,0.1-0.6,0.3c-0.2,0.3-0.2,0.8-0.2,1.7
			c0,0.8,0.1,1.4,0.2,1.7c0.1,0.2,0.3,0.3,0.6,0.3c0.4,0,0.8-0.1,1.2-0.4c0,0.6,0,0.9,0,1.5c-0.5,0.2-1.1,0.3-1.6,0.2
			c-0.7,0-1.1-0.2-1.4-0.6c-0.4-0.5-0.5-1.4-0.5-2.8c0-1.4,0.2-2.3,0.6-2.7c0.3-0.4,0.7-0.5,1.4-0.5
			C-103.3,251.3-102.8,251.5-102.2,251.7z"/>
		<path class="st5" d="M-97.5,256.6c0,0.5,0,0.8,0,1.3c-0.7,0.2-1.3,0.3-1.8,0.3c-0.7,0-1.2-0.3-1.5-0.7c-0.4-0.5-0.6-1.5-0.6-2.8
			c0-1.2,0.2-2.1,0.5-2.6s0.9-0.7,1.7-0.7c0.6,0,1.1,0.2,1.4,0.6c0.3,0.3,0.4,0.9,0.4,1.6c0,0.6,0,0.9,0,1.4c-1-0.1-1.5-0.1-2.6-0.1
			c0,0.5,0,0.9,0,1c0.1,0.4,0.2,0.7,0.4,0.9c0.1,0.1,0.3,0.1,0.5,0.2C-98.5,257-98,257-97.5,256.6z M-98.7,253.8c0-0.4,0-0.7,0-0.8
			c-0.1-0.3-0.2-0.5-0.5-0.5c-0.2,0-0.4,0.1-0.5,0.2c-0.1,0.2-0.1,0.5-0.2,1C-99.4,253.9-99.2,253.9-98.7,253.8
			C-98.7,253.9-98.7,253.9-98.7,253.8z"/>
		<path class="st5" d="M-94.6,258c0,1.2,0,1.7,0,2.9c-0.6,0-0.9-0.1-1.5-0.1c0-2.9,0-4.3,0-7.2c0-0.8,0-1.4-0.1-1.8
			c0.4,0,0.5,0,0.9,0.1c0.2,0.1,0.4,0.4,0.5,0.7c0.5-0.5,1-0.7,1.4-0.7c0.5,0,0.9,0.3,1.2,0.8c0.3,0.6,0.4,1.5,0.4,2.7
			s-0.1,2.1-0.4,2.6c-0.2,0.5-0.6,0.7-1.2,0.6C-93.8,258.5-94.2,258.3-94.6,258z M-94.6,256.8c0.1,0.1,0.1,0.1,0.2,0.2
			c0.2,0.3,0.4,0.4,0.6,0.4s0.3-0.1,0.3-0.3c0.1-0.3,0.2-0.9,0.2-1.8c0-0.9-0.1-1.6-0.2-1.9c-0.1-0.2-0.2-0.3-0.3-0.3
			c-0.2,0-0.4,0.1-0.6,0.3c-0.1,0.1-0.1,0.1-0.2,0.2C-94.6,254.8-94.6,255.4-94.6,256.8z"/>
		<path class="st5" d="M-87.7,258.6c-0.3,0.2-0.7,0.2-1.3,0.2c-0.5,0-0.9-0.2-1.1-0.4c-0.2-0.2-0.2-0.7-0.2-1.5c0-1.5,0-2.2,0-3.6
			c-0.3,0-0.5,0-0.9-0.1c0-0.5,0-0.7,0-1.2c0.3,0,0.5,0,0.9,0.1c0-0.6,0-0.9,0-1.5c0.6,0,0.9,0.1,1.5,0.1c0,0.6,0,0.9,0,1.5
			c0.5,0,0.7,0,1.1,0.1c0,0.5,0,0.7,0,1.2c-0.5,0-0.7,0-1.1-0.1c0,1.5,0,2.2,0,3.6c0,0.2,0,0.4,0.1,0.4c0.1,0.1,0.2,0.1,0.4,0.1
			c0.2,0,0.4,0,0.6-0.1C-87.7,258-87.7,258.2-87.7,258.6z"/>
		<path class="st5" d="M-85.2,252.5c0,2.6,0,3.9,0,6.5c-0.6,0-0.9-0.1-1.5-0.1c0-2.1,0-3.2,0-5.3c-0.3,0-0.4,0-0.7,0
			c0-0.5,0-0.7,0-1.2C-86.5,252.4-86.1,252.4-85.2,252.5z M-86,249.8c0.2,0,0.5,0.1,0.6,0.3c0.2,0.2,0.3,0.4,0.3,0.6
			c0,0.2-0.1,0.4-0.3,0.6c-0.2,0.2-0.4,0.2-0.6,0.2s-0.4-0.1-0.6-0.3s-0.3-0.4-0.3-0.6c0-0.3,0.1-0.5,0.3-0.6S-86.2,249.8-86,249.8z
			"/>
		<path class="st5" d="M-79.6,256.2c0,1.2-0.2,2.1-0.5,2.6s-0.9,0.7-1.6,0.6c-0.8-0.1-1.3-0.4-1.7-0.9c-0.3-0.5-0.5-1.4-0.5-2.7
			c0-1.3,0.2-2.1,0.5-2.6s0.9-0.7,1.7-0.6c0.8,0.1,1.3,0.4,1.6,0.9C-79.7,254-79.6,254.9-79.6,256.2z M-81.7,253.7
			c-0.4,0-0.6,0.3-0.6,0.9c0,0.1,0,0.5,0,1.3c0,0.8,0,1.3,0,1.3c0.1,0.6,0.3,1,0.6,1s0.6-0.3,0.6-0.9c0-0.1,0-0.5,0-1.3
			c0-0.8,0-1.3,0-1.3C-81.1,254.1-81.4,253.8-81.7,253.7z"/>
		<path class="st5" d="M-77,253.9c0.1-0.1,0.2-0.1,0.3-0.2c0.4-0.4,0.9-0.5,1.3-0.5c0.5,0,0.8,0.2,1,0.6c0.2,0.3,0.3,0.8,0.3,1.4
			c0,1.9,0,2.8,0,4.7c-0.6-0.1-0.9-0.1-1.5-0.1c0-1.9,0-2.8,0-4.7c0-0.4-0.1-0.6-0.3-0.6c-0.2,0-0.4,0.1-0.6,0.4
			c-0.1,0.1-0.2,0.2-0.3,0.3c0,1.8,0,2.7,0,4.6c-0.6-0.1-0.9-0.1-1.5-0.1c0-1.9,0-2.8,0-4.7c0-0.8,0-1.4-0.1-1.8
			c0.4,0,0.5,0,0.9,0.1C-77.3,253.3-77.1,253.5-77,253.9z"/>
		<path class="st5" d="M-69.7,254c0,0.5,0,0.8,0,1.3c-0.6-0.4-1.1-0.6-1.6-0.6c-0.4,0-0.6,0.2-0.6,0.6s0.2,0.7,0.6,0.7
			c1.3,0.1,2,0.9,2,2.3c0,1.4-0.7,2-2,1.9c-0.6-0.1-1.1-0.2-1.6-0.4c0-0.5,0-0.8,0-1.3c0.6,0.3,1.1,0.5,1.6,0.5s0.8-0.2,0.8-0.8
			c0-0.5-0.3-0.7-0.8-0.8c-0.6-0.1-1-0.2-1.3-0.5c-0.4-0.4-0.6-0.9-0.6-1.7c0-1.3,0.6-1.9,1.9-1.7C-70.8,253.6-70.3,253.7-69.7,254z
			"/>
		<path class="st5" d="M-207,271c0-0.4-0.2-0.6-0.7-0.6s-1.1,0.3-1.7,0.7c0-0.6,0-0.8,0-1.4c0.7-0.3,1.3-0.5,1.9-0.6
			c0.7-0.1,1.2,0.1,1.5,0.3c0.3,0.3,0.5,0.8,0.5,1.6c0,1.1,0,1.6,0,2.7c0,0.9,0,1.5,0.1,1.8c-0.4,0-0.5,0-0.9,0.1
			c-0.2-0.1-0.3-0.3-0.5-0.5c0,0.1-0.1,0.1-0.1,0.1c-0.3,0.4-0.7,0.7-1.3,0.7c-1,0.1-1.5-0.5-1.5-1.8c0-0.7,0.2-1.2,0.5-1.6
			c0.4-0.4,0.9-0.7,1.6-0.8c0.2,0,0.3,0,0.5,0C-207,271.5-207,271.2-207,271z M-207,274.1c0-0.5,0-0.8,0-1.3c-0.1,0-0.2,0-0.4,0
			c-0.6,0.1-0.9,0.4-0.9,1.1c0,0.5,0.2,0.8,0.5,0.8c0.2,0,0.4-0.2,0.6-0.5C-207.1,274.2-207.1,274.2-207,274.1z"/>
		<path class="st5" d="M-202.8,269.5c0.1-0.1,0.2-0.2,0.3-0.3c0.4-0.5,0.9-0.7,1.3-0.7c0.5,0,0.8,0.1,1,0.4s0.3,0.8,0.3,1.4
			c0,1.9,0,2.8,0,4.7c-0.6,0-0.9,0.1-1.5,0.1c0-1.9,0-2.8,0-4.7c0-0.4-0.1-0.6-0.3-0.6s-0.4,0.2-0.6,0.5c-0.1,0.1-0.2,0.2-0.3,0.3
			c0,1.8,0,2.7,0,4.6c-0.6,0.1-0.9,0.1-1.5,0.1c0-1.9,0-2.8,0-4.7c0-0.8,0-1.4-0.1-1.8c0.4,0,0.5,0,0.9-0.1
			C-203.2,269-203,269.2-202.8,269.5z"/>
		<path class="st5" d="M-196.1,268.8c0-1.2,0-1.7,0-2.9c0.6,0,0.9-0.1,1.5-0.1c0,2.9,0,4.3,0,7.2c0,0.8,0,1.4,0.1,1.8
			c-0.4,0-0.5,0-0.9,0.1c-0.2-0.1-0.4-0.3-0.5-0.6c-0.5,0.5-1,0.8-1.4,0.9c-0.5,0-0.9-0.2-1.2-0.6c-0.3-0.5-0.4-1.4-0.4-2.6
			s0.1-2.1,0.4-2.7c0.2-0.5,0.6-0.8,1.2-0.8C-196.9,268.2-196.5,268.3-196.1,268.8z M-196.1,273c0-1.2,0-1.9,0-3.1
			c-0.1-0.1-0.1-0.1-0.2-0.2c-0.2-0.2-0.4-0.3-0.6-0.3c-0.2,0-0.3,0.1-0.3,0.3c-0.1,0.3-0.2,0.9-0.2,1.9s0.1,1.6,0.2,1.8
			c0.1,0.2,0.2,0.3,0.3,0.3c0.2,0,0.4-0.2,0.6-0.4C-196.2,273.2-196.1,273.1-196.1,273z"/>
		<path class="st5" d="M-186.9,268.3l0.1-0.1c0.5-0.5,0.9-0.7,1.3-0.8c0.5,0,0.8,0.1,1,0.4s0.3,0.8,0.3,1.4c0,1.9,0,2.8,0,4.7
			c-0.6,0-0.9,0.1-1.5,0.1c0-1.9,0-2.8,0-4.7c0-0.4-0.1-0.6-0.3-0.6s-0.4,0.2-0.6,0.5c-0.1,0.1-0.1,0.1-0.1,0.2c0,1.9,0,2.8,0,4.7
			c-0.6,0-0.9,0.1-1.5,0.1c0-1.9,0-2.8,0-4.7c0-0.4-0.1-0.6-0.3-0.6s-0.4,0.2-0.6,0.5c-0.1,0.1-0.1,0.1-0.1,0.2c0,1.9,0,2.8,0,4.7
			c-0.6,0-0.9,0.1-1.5,0.1c0-1.9,0-2.8,0-4.7c0-0.8,0-1.4-0.1-1.8c0.4,0,0.5,0,0.9-0.1c0.2,0.1,0.4,0.3,0.5,0.7
			c0.1-0.1,0.1-0.1,0.1-0.2c0.5-0.5,0.9-0.7,1.3-0.8C-187.5,267.5-187.1,267.8-186.9,268.3z"/>
		<path class="st5" d="M-180.7,269c0-0.4-0.2-0.7-0.7-0.6c-0.5,0-1.1,0.3-1.7,0.7c0-0.6,0-0.8,0-1.4c0.7-0.3,1.3-0.5,1.9-0.5
			c0.7,0,1.2,0.1,1.5,0.4s0.5,0.8,0.5,1.6c0,1.1,0,1.6,0,2.7c0,0.9,0,1.5,0.1,1.8c-0.4,0-0.5,0-0.9,0c-0.2-0.1-0.3-0.3-0.5-0.6
			c0,0.1-0.1,0.1-0.1,0.1c-0.3,0.4-0.7,0.6-1.3,0.7c-1,0.1-1.5-0.5-1.5-1.8c0-0.7,0.2-1.2,0.5-1.6c0.4-0.4,0.9-0.7,1.6-0.7
			c0.2,0,0.3,0,0.5,0C-180.7,269.5-180.7,269.3-180.7,269z M-180.7,272.2c0-0.5,0-0.8,0-1.3c-0.1,0-0.2,0-0.4,0
			c-0.6,0-0.9,0.4-0.9,1.1c0,0.5,0.2,0.8,0.5,0.8c0.2,0,0.4-0.2,0.6-0.4C-180.8,272.3-180.7,272.3-180.7,272.2z"/>
		<path class="st5" d="M-175.2,267.5c0-1.2,0-1.7,0-2.9c0.6,0,0.9,0,1.5-0.1c0,2.9,0,4.3,0,7.2c0,0.8,0,1.4,0.1,1.8
			c-0.4,0-0.5,0-0.9,0c-0.2-0.1-0.4-0.3-0.5-0.6c-0.5,0.5-1,0.8-1.4,0.8c-0.5,0-0.9-0.2-1.2-0.7s-0.4-1.4-0.4-2.6s0.1-2.1,0.4-2.7
			c0.2-0.5,0.6-0.7,1.2-0.8C-176,267-175.6,267-175.2,267.5z M-175.2,271.8c0-1.2,0-1.9,0-3.1c-0.1-0.1-0.1-0.1-0.2-0.2
			c-0.2-0.2-0.4-0.4-0.6-0.3c-0.2,0-0.3,0.1-0.3,0.3c-0.1,0.3-0.2,0.9-0.2,1.9s0.1,1.6,0.2,1.8c0.1,0.2,0.2,0.3,0.3,0.3
			c0.2,0,0.4-0.1,0.6-0.4C-175.3,272-175.3,271.8-175.2,271.8z"/>
		<path class="st5" d="M-168.5,271.6c0,0.5,0,0.8,0,1.3c-0.7,0.3-1.3,0.5-1.8,0.5c-0.7,0-1.2-0.2-1.5-0.6c-0.4-0.5-0.6-1.4-0.6-2.7
			c0-1.2,0.2-2.1,0.5-2.6s0.9-0.8,1.7-0.8c0.6,0,1.1,0.1,1.4,0.4c0.3,0.3,0.4,0.8,0.4,1.6c0,0.6,0,0.9,0,1.4c-1,0-1.5,0.1-2.6,0.1
			c0,0.5,0,0.9,0,1c0.1,0.4,0.2,0.7,0.4,0.8c0.1,0.1,0.3,0.1,0.5,0.1C-169.5,272.1-169,272-168.5,271.6z M-169.8,269
			c0-0.4,0-0.7,0-0.8c-0.1-0.3-0.2-0.4-0.5-0.4c-0.2,0-0.4,0.1-0.5,0.3c-0.1,0.2-0.1,0.5-0.2,1C-170.5,269-170.2,269-169.8,269
			C-169.8,269-169.8,269-169.8,269z"/>
		<path class="st5" d="M-162.2,271.1c0-1.9,0-2.8,0-4.7c0.6,0,0.9,0,1.5,0c0,2.8,0,4.2,0,7c0,0.7-0.2,1.3-0.5,1.6
			c-0.3,0.3-0.9,0.5-1.5,0.5c-0.5,0-1.1-0.1-1.8-0.4c0-0.5,0-0.8,0-1.4c0.6,0.4,1.1,0.5,1.6,0.5s0.8-0.3,0.8-0.8c0-0.4,0-0.7,0-1.1
			l0,0c-0.4,0.4-0.9,0.7-1.3,0.7c-0.5,0-0.8-0.1-1-0.5c-0.2-0.3-0.3-0.8-0.3-1.4c0-1.9,0-2.8,0-4.7c0.6,0,0.9,0,1.5,0
			c0,1.9,0,2.8,0,4.7c0,0.4,0.1,0.6,0.3,0.6s0.4-0.2,0.6-0.4C-162.4,271.3-162.3,271.2-162.2,271.1z"/>
		<path class="st5" d="M-155.2,269.5c0,1.2-0.2,2.1-0.5,2.6s-0.9,0.8-1.7,0.8s-1.3-0.2-1.7-0.7c-0.3-0.5-0.5-1.4-0.5-2.6
			s0.2-2.1,0.5-2.6s0.9-0.8,1.7-0.8s1.3,0.2,1.7,0.7C-155.4,267.5-155.2,268.3-155.2,269.5z M-157.4,267.3c-0.4,0-0.6,0.3-0.6,1
			c0,0.1,0,0.5,0,1.3s0,1.3,0,1.3c0.1,0.6,0.3,0.9,0.6,0.9c0.4,0,0.6-0.3,0.6-1c0-0.1,0-0.5,0-1.3s0-1.3,0-1.3
			C-156.8,267.6-157,267.3-157.4,267.3z"/>
		<path class="st5" d="M-151.4,271c0-1.9,0-2.8,0-4.7c0.6,0,0.9,0,1.5,0c0,1.9,0,2.8,0,4.7c0,0.8,0,1.4,0.1,1.8c-0.4,0-0.5,0-0.9,0
			c-0.2-0.1-0.4-0.4-0.5-0.7c-0.1,0.1-0.1,0.1-0.2,0.2c-0.4,0.4-0.9,0.6-1.3,0.6c-0.5,0-0.8-0.2-1-0.5s-0.3-0.8-0.3-1.4
			c0-1.9,0-2.8,0-4.7c0.6,0,0.9,0,1.5,0c0,1.9,0,2.8,0,4.7c0,0.4,0.1,0.6,0.3,0.6s0.4-0.1,0.6-0.4C-151.5,271-151.5,271-151.4,271z"
			/>
		<path class="st5" d="M-142.3,266.8l0.1-0.1c0.5-0.5,0.9-0.7,1.3-0.7c0.5,0,0.8,0.2,1,0.5s0.3,0.8,0.3,1.4c0,1.9,0,2.8,0,4.7
			c-0.6,0-0.9,0-1.5,0c0-1.9,0-2.8,0-4.7c0-0.4-0.1-0.6-0.3-0.6s-0.4,0.1-0.6,0.4c-0.1,0.1-0.1,0.1-0.1,0.2c0,1.9,0,2.8,0,4.7
			c-0.6,0-0.9,0-1.5,0c0-1.9,0-2.8,0-4.7c0-0.4-0.1-0.6-0.3-0.6s-0.4,0.1-0.6,0.4c-0.1,0.1-0.1,0.1-0.1,0.2c0,1.9,0,2.8,0,4.7
			c-0.6,0-0.9,0-1.5,0c0-1.9,0-2.8,0-4.7c0-0.8,0-1.4-0.1-1.8c0.4,0,0.5,0,0.9,0c0.2,0.1,0.4,0.4,0.5,0.7c0.1-0.1,0.1-0.1,0.1-0.1
			c0.5-0.5,0.9-0.7,1.3-0.7C-142.8,266-142.5,266.2-142.3,266.8z"/>
		<path class="st5" d="M-134.1,269.5c0,1.2-0.2,2.1-0.5,2.6s-0.9,0.7-1.7,0.7s-1.3-0.3-1.7-0.8c-0.3-0.5-0.5-1.4-0.5-2.6
			s0.2-2.1,0.5-2.6s0.9-0.8,1.7-0.7c0.8,0,1.3,0.3,1.7,0.8C-134.3,267.3-134.1,268.1-134.1,269.5z M-136.3,267.1
			c-0.4,0-0.6,0.3-0.6,0.9c0,0.1,0,0.5,0,1.3s0,1.3,0,1.3c0.1,0.6,0.3,0.9,0.6,0.9s0.6-0.3,0.6-0.9c0-0.1,0-0.5,0-1.3s0-1.3,0-1.3
			C-135.7,267.5-135.9,267.1-136.3,267.1z"/>
		<path class="st5" d="M-131.5,267.2c0.2-0.2,0.4-0.4,0.6-0.6c0.4-0.4,0.7-0.6,1.1-0.6c0,0.7,0,1.1,0,1.9c-0.1-0.1-0.3-0.1-0.4-0.1
			c-0.2,0-0.5,0.1-0.8,0.4c-0.2,0.1-0.2,0.2-0.4,0.3c0,1.6,0,2.5,0,4.1c-0.6,0-0.9,0-1.5,0c0-1.9,0-2.8,0-4.7c0-0.8,0-1.4-0.1-1.8
			c0.4,0,0.5,0,0.9,0C-131.8,266.3-131.6,266.8-131.5,267.2z"/>
		<path class="st5" d="M-125.3,271.2c0,0.5,0,0.8,0,1.3c-0.7,0.3-1.3,0.4-1.8,0.4c-0.7,0-1.2-0.2-1.5-0.6c-0.4-0.5-0.6-1.4-0.6-2.8
			c0-1.2,0.2-2.1,0.5-2.6s0.9-0.7,1.7-0.7c0.6,0,1.1,0.2,1.4,0.5s0.4,0.9,0.4,1.6c0,0.6,0,0.9,0,1.4c-1,0-1.5,0-2.6,0
			c0,0.5,0,0.9,0,1c0.1,0.4,0.2,0.7,0.4,0.9c0.1,0.1,0.3,0.1,0.5,0.1C-126.3,271.6-125.8,271.5-125.3,271.2z M-126.5,268.5
			c0-0.4,0-0.7,0-0.8c-0.1-0.3-0.2-0.4-0.5-0.5c-0.2,0-0.4,0.1-0.5,0.3c-0.1,0.2-0.1,0.5-0.2,1C-127.2,268.5-127,268.5-126.5,268.5
			C-126.5,268.5-126.5,268.5-126.5,268.5z"/>
		<path class="st5" d="M-119.3,268.2c0-0.4-0.2-0.7-0.7-0.7s-1.1,0.2-1.7,0.5c0-0.6,0-0.8,0-1.4c0.7-0.3,1.3-0.4,1.9-0.4
			c0.7,0,1.2,0.2,1.5,0.5s0.5,0.9,0.5,1.6c0,1.1,0,1.6,0,2.7c0,0.9,0,1.5,0.1,1.8c-0.4,0-0.5,0-0.9,0c-0.2-0.1-0.3-0.3-0.5-0.6
			c0,0.1-0.1,0.1-0.1,0.1c-0.3,0.4-0.7,0.6-1.3,0.6c-1,0-1.5-0.7-1.5-1.9c0-0.7,0.2-1.2,0.5-1.6c0.4-0.4,0.9-0.6,1.6-0.6
			c0.2,0,0.3,0,0.5,0C-119.3,268.6-119.3,268.5-119.3,268.2z M-119.3,271.5c0-0.5,0-0.8,0-1.3c-0.1,0-0.2,0-0.4,0
			c-0.6,0-0.9,0.3-0.9,1c0,0.5,0.2,0.8,0.5,0.8c0.2,0,0.4-0.1,0.6-0.4C-119.4,271.5-119.4,271.5-119.3,271.5z"/>
		<path class="st5" d="M-112,271.2c0-0.3,0.1-0.9,0.2-1.6c0.3-1.2,0.4-1.7,0.6-2.9c0.5,0,0.7,0,1.2,0c-0.6,2.6-0.9,3.9-1.6,6.4
			c-0.5,0-0.7,0-1.1,0c-0.2-1-0.3-1.5-0.5-2.5c-0.1-0.6-0.2-1.3-0.3-2c0,0.3-0.1,1-0.3,2c-0.2,1-0.3,1.5-0.6,2.5c-0.5,0-0.7,0-1.1,0
			c-0.6-2.6-0.9-3.9-1.6-6.5c0.5,0,0.8,0,1.4,0c0.3,1.2,0.4,1.8,0.6,2.9c0.1,0.4,0.2,0.9,0.2,1.6c0-0.3,0.1-0.9,0.2-1.6
			c0.3-1.1,0.4-1.7,0.6-2.9c0.4,0,0.7,0,1.1,0c0.3,1.2,0.4,1.7,0.6,2.9C-112.2,270-112.1,270.5-112,271.2z"/>
		<path class="st5" d="M-107,268.6c0-0.4-0.2-0.7-0.7-0.7s-1.1,0.1-1.7,0.5c0-0.6,0-0.8,0-1.4c0.7-0.2,1.3-0.4,1.9-0.3
			c0.7,0,1.2,0.2,1.5,0.5s0.5,0.9,0.5,1.6c0,1.1,0,1.6,0,2.7c0,0.9,0,1.5,0.1,1.8c-0.4,0-0.5,0-0.9,0c-0.2-0.1-0.3-0.3-0.5-0.6
			c0,0.1-0.1,0.1-0.1,0.1c-0.3,0.4-0.7,0.6-1.3,0.5c-1,0-1.5-0.7-1.5-2c0-0.7,0.2-1.2,0.5-1.6c0.4-0.4,0.9-0.6,1.6-0.5
			c0.2,0,0.3,0,0.5,0C-107,269.1-107,269-107,268.6z M-107,271.8c0-0.5,0-0.8,0-1.3c-0.1,0-0.2,0-0.4,0c-0.6,0-0.9,0.3-0.9,1
			c0,0.5,0.2,0.8,0.5,0.8c0.2,0,0.4-0.1,0.6-0.4C-107,272-107,272-107,271.8z"/>
		<path class="st5" d="M-102.7,268.1c0.2-0.2,0.4-0.3,0.6-0.6c0.4-0.4,0.7-0.5,1.1-0.5c0,0.7,0,1.1,0,1.9c-0.1-0.1-0.3-0.1-0.4-0.1
			c-0.2,0-0.5,0.1-0.8,0.3c-0.2,0.1-0.2,0.2-0.4,0.3c0,1.6,0,2.5,0,4.1c-0.6,0-0.9,0-1.5-0.1c0-1.9,0-2.8,0-4.7c0-0.8,0-1.4-0.1-1.8
			c0.4,0,0.5,0,0.9,0C-103,267.2-102.8,267.6-102.7,268.1z"/>
		<path class="st5" d="M-96.5,272.3c0,0.5,0,0.8,0,1.3c-0.7,0.2-1.3,0.3-1.8,0.3c-0.7,0-1.2-0.3-1.5-0.7c-0.4-0.5-0.6-1.5-0.6-2.8
			c0-1.2,0.2-2.1,0.5-2.6s0.9-0.7,1.7-0.7c0.6,0,1.1,0.2,1.4,0.6c0.3,0.3,0.4,0.9,0.4,1.6c0,0.6,0,0.9,0,1.4c-1-0.1-1.5-0.1-2.6-0.1
			c0,0.5,0,0.9,0,1c0.1,0.4,0.2,0.7,0.4,0.9c0.1,0.1,0.3,0.1,0.5,0.2C-97.5,272.8-97,272.6-96.5,272.3z M-97.7,269.5
			c0-0.4,0-0.7,0-0.8c-0.1-0.3-0.2-0.5-0.5-0.5c-0.2,0-0.4,0.1-0.5,0.2c-0.1,0.2-0.1,0.5-0.2,1C-98.5,269.5-98.2,269.5-97.7,269.5
			L-97.7,269.5z"/>
		<path class="st5" d="M-88.6,271.1c0,1.2-0.2,2.1-0.5,2.6s-0.9,0.7-1.6,0.6c-0.8-0.1-1.3-0.3-1.7-0.9c-0.3-0.5-0.5-1.4-0.5-2.7
			s0.2-2.1,0.5-2.6s0.9-0.7,1.7-0.6c0.8,0.1,1.3,0.3,1.6,0.9C-88.8,269-88.6,270-88.6,271.1z M-90.8,268.8c-0.4,0-0.6,0.3-0.6,0.9
			c0,0.1,0,0.5,0,1.3s0,1.3,0,1.3c0.1,0.6,0.3,1,0.6,1s0.6-0.3,0.6-0.9c0-0.1,0-0.5,0-1.3s0-1.3,0-1.3
			C-90.2,269-90.4,268.8-90.8,268.8z"/>
		<path class="st5" d="M-85.6,268.1c0.6,0,0.9,0.1,1.5,0.1c0,0.5,0,0.7,0,1.2c-0.6,0-0.9-0.1-1.5-0.1c0,2.1,0,3.2,0,5.3
			c-0.6,0-0.9-0.1-1.5-0.1c0-2.1,0-3.2,0-5.3c-0.3,0-0.5,0-0.9-0.1c0-0.5,0-0.7,0-1.2c0.3,0,0.5,0,0.9,0.1c0-0.3,0-0.4,0-0.7
			c0-0.7,0.2-1.2,0.5-1.4c0.3-0.2,0.8-0.3,1.5-0.2c0.4,0,0.7,0.1,1.1,0.2c0,0.5,0,0.7,0,1.2c-0.3-0.1-0.6-0.2-0.9-0.2
			s-0.6,0.2-0.6,0.6C-85.6,267.8-85.6,267.8-85.6,268.1z"/>
		<path class="st5" d="M-206.7,289.5c0-1.9,0-2.8,0-4.7c0.6-0.1,0.9-0.1,1.5-0.1c0,2.8,0,4.2,0,7c0,0.7-0.2,1.3-0.5,1.6
			c-0.3,0.4-0.8,0.6-1.5,0.6c-0.5,0-1.1,0-1.8-0.2c0-0.5,0-0.8,0-1.4c0.6,0.3,1.1,0.5,1.6,0.4c0.5,0,0.8-0.3,0.8-0.9
			c0-0.4,0-0.7,0-1.1l0,0c-0.4,0.5-0.9,0.7-1.3,0.7c-0.5,0-0.8-0.1-1-0.4s-0.3-0.7-0.3-1.4c0-1.9,0-2.8,0-4.7
			c0.6-0.1,0.9-0.1,1.5-0.1c0,1.9,0,2.8,0,4.7c0,0.4,0.1,0.6,0.3,0.6S-207,289.8-206.7,289.5C-206.8,289.5-206.8,289.5-206.7,289.5z
			"/>
		<path class="st5" d="M-199.7,287.5c0,1.2-0.2,2.1-0.5,2.7c-0.3,0.5-0.9,0.8-1.6,0.9c-0.8,0.1-1.3-0.1-1.7-0.6
			c-0.3-0.5-0.5-1.3-0.5-2.6c0-1.3,0.2-2.1,0.5-2.7c0.3-0.5,0.9-0.8,1.7-0.9c0.8-0.1,1.3,0.1,1.6,0.6S-199.7,286.1-199.7,287.5z
			 M-201.9,285.3c-0.4,0-0.6,0.4-0.6,1c0,0.1,0,0.5,0,1.3s0,1.3,0,1.3c0.1,0.6,0.3,0.9,0.6,0.9s0.6-0.4,0.6-1c0-0.1,0-0.5,0-1.3
			s0-1.3,0-1.3C-201.3,285.5-201.5,285.3-201.9,285.3z"/>
		<path class="st5" d="M-195.9,288.5c0-1.9,0-2.8,0-4.7c0.6,0,0.9-0.1,1.5-0.1c0,1.9,0,2.8,0,4.7c0,0.8,0,1.4,0.1,1.8
			c-0.4,0-0.5,0-0.9,0.1c-0.2-0.1-0.4-0.3-0.5-0.6c-0.1,0.1-0.1,0.1-0.2,0.2c-0.4,0.4-0.9,0.7-1.3,0.7c-0.5,0-0.8-0.1-1-0.4
			s-0.3-0.8-0.3-1.4c0-1.9,0-2.8,0-4.7c0.6,0,0.9-0.1,1.5-0.1c0,1.9,0,2.8,0,4.7c0,0.4,0.1,0.6,0.3,0.6s0.4-0.2,0.6-0.5
			C-196,288.6-196,288.6-195.9,288.5z"/>
		<path class="st5" d="M-191.6,284.6c0.2-0.3,0.4-0.4,0.6-0.7c0.4-0.4,0.7-0.6,1.1-0.6c0,0.7,0,1.1,0,1.9c-0.1,0-0.3-0.1-0.4-0.1
			c-0.2,0-0.5,0.2-0.8,0.4c-0.2,0.2-0.2,0.2-0.4,0.4c0,1.6,0,2.5,0,4.1c-0.6,0-0.9,0.1-1.5,0.1c0-1.9,0-2.8,0-4.7
			c0-0.8,0-1.4-0.1-1.8c0.4,0,0.5,0,0.9-0.1C-192,283.8-191.7,284.1-191.6,284.6z"/>
		<path class="st5" d="M-185.1,283.1c0.6,0,0.9-0.1,1.5-0.1c0,0.5,0,0.7,0,1.2c-0.6,0-0.9,0.1-1.5,0.1c0,2.1,0,3.2,0,5.3
			c-0.6,0-0.9,0.1-1.5,0.1c0-2.1,0-3.2,0-5.3c-0.3,0-0.5,0-0.9,0.1c0-0.5,0-0.7,0-1.2c0.3,0,0.5,0,0.9-0.1c0-0.3,0-0.4,0-0.7
			c0-0.7,0.2-1.2,0.5-1.5c0.3-0.2,0.8-0.4,1.5-0.4c0.4,0,0.7,0,1.1,0.1c0,0.5,0,0.7,0,1.2c-0.3-0.1-0.6-0.1-0.9-0.1
			c-0.4,0-0.6,0.3-0.6,0.7C-185.1,282.8-185.1,282.8-185.1,283.1z"/>
		<path class="st5" d="M-178.9,286c0,1.2-0.2,2.1-0.5,2.7c-0.3,0.5-0.9,0.8-1.7,0.8s-1.3-0.2-1.7-0.7c-0.3-0.5-0.5-1.3-0.5-2.6
			s0.2-2.1,0.5-2.7c0.3-0.5,0.9-0.8,1.7-0.8s1.3,0.2,1.7,0.7C-179.1,284-178.9,284.8-178.9,286z M-181.1,283.8c-0.4,0-0.6,0.3-0.6,1
			c0,0.1,0,0.5,0,1.3s0,1.3,0,1.3c0.1,0.6,0.3,0.9,0.6,0.9c0.4,0,0.6-0.3,0.6-1c0-0.1,0-0.5,0-1.3s0-1.3,0-1.3
			C-180.5,284.1-180.7,283.8-181.1,283.8z"/>
		<path class="st5" d="M-173.6,285.8c0,1.2-0.2,2.1-0.5,2.6s-0.9,0.8-1.7,0.8s-1.3-0.2-1.7-0.7c-0.3-0.5-0.5-1.4-0.5-2.6
			s0.2-2.1,0.5-2.7c0.3-0.5,0.9-0.8,1.7-0.8s1.3,0.2,1.7,0.7C-173.7,283.6-173.6,284.5-173.6,285.8z M-175.7,283.6
			c-0.4,0-0.6,0.3-0.6,1c0,0.1,0,0.5,0,1.3s0,1.3,0,1.3c0.1,0.6,0.3,0.9,0.6,0.9c0.4,0,0.6-0.3,0.6-1c0-0.1,0-0.5,0-1.3s0-1.3,0-1.3
			C-175.1,283.8-175.4,283.5-175.7,283.6z"/>
		<path class="st5" d="M-169.7,282.8c0-1.2,0-1.7,0-2.9c0.6,0,0.9,0,1.5-0.1c0,2.9,0,4.3,0,7.1c0,0.8,0,1.4,0.1,1.8
			c-0.4,0-0.5,0-0.9,0c-0.2-0.1-0.4-0.3-0.5-0.6c-0.5,0.5-1,0.8-1.4,0.8c-0.5,0-0.9-0.2-1.2-0.7s-0.4-1.4-0.4-2.6s0.1-2.1,0.4-2.7
			c0.2-0.5,0.6-0.7,1.2-0.8C-170.5,282.2-170.1,282.5-169.7,282.8z M-169.7,287.1c0-1.2,0-1.9,0-3.1c-0.1-0.1-0.1-0.1-0.2-0.2
			c-0.2-0.2-0.4-0.4-0.6-0.4c-0.2,0-0.3,0.1-0.3,0.3c-0.1,0.3-0.2,0.9-0.2,1.9c0,0.9,0.1,1.6,0.2,1.8c0.1,0.2,0.2,0.3,0.3,0.3
			c0.2,0,0.4-0.1,0.6-0.4C-169.8,287.2-169.8,287.2-169.7,287.1z"/>
		<path class="st5" d="M-161.1,282.3c0,0.6,0,0.9,0,1.5c-0.4-0.3-0.8-0.4-1.2-0.4c-0.3,0-0.5,0.1-0.6,0.3c-0.2,0.3-0.2,0.8-0.2,1.7
			c0,0.8,0.1,1.4,0.2,1.7c0.1,0.2,0.3,0.3,0.6,0.3c0.4,0,0.8-0.2,1.2-0.5c0,0.6,0,0.9,0,1.5c-0.5,0.2-1.1,0.3-1.6,0.4
			c-0.7,0-1.1-0.2-1.4-0.5c-0.4-0.5-0.5-1.4-0.5-2.7c0-1.4,0.2-2.3,0.6-2.8c0.3-0.4,0.7-0.6,1.4-0.6
			C-162.2,282-161.7,282.1-161.1,282.3z"/>
		<path class="st5" d="M-158.7,282.5c0.4-0.4,0.9-0.6,1.3-0.7c0.5,0,0.8,0.2,1,0.5s0.3,0.8,0.3,1.4c0,1.9,0,2.8,0,4.7
			c-0.6,0-0.9,0-1.5,0c0-1.9,0-2.8,0-4.7c0-0.4-0.1-0.6-0.3-0.6s-0.4,0.2-0.6,0.4c-0.1,0.1-0.1,0.1-0.2,0.2c0,1.9,0,2.8,0,4.7
			c-0.6,0-0.9,0-1.5,0c0-3.6,0-5.4,0-9c0.6,0,0.9,0,1.5,0C-158.7,280.8-158.7,281.3-158.7,282.5z"/>
		<path class="st5" d="M-150.6,285c0,1.2-0.2,2.1-0.5,2.6s-0.9,0.8-1.7,0.8s-1.3-0.2-1.7-0.7c-0.3-0.5-0.5-1.4-0.5-2.6
			s0.2-2.1,0.5-2.6s0.9-0.8,1.7-0.8s1.3,0.2,1.7,0.7C-150.8,283-150.6,283.8-150.6,285z M-152.8,282.8c-0.4,0-0.6,0.3-0.6,0.9
			c0,0.1,0,0.5,0,1.3s0,1.3,0,1.3c0.1,0.6,0.3,0.9,0.6,0.9c0.4,0,0.6-0.3,0.6-0.9c0-0.1,0-0.5,0-1.3s0-1.3,0-1.3
			C-152.2,283.1-152.4,282.8-152.8,282.8z"/>
		<path class="st5" d="M-147.7,281.8c0,2.6,0,3.9,0,6.5c-0.6,0-0.9,0-1.5,0c0-2.1,0-3.2,0-5.3c-0.3,0-0.4,0-0.7,0c0-0.5,0-0.7,0-1.2
			C-149,281.8-148.5,281.8-147.7,281.8z M-148.4,279.2c0.2,0,0.5,0.1,0.6,0.2c0.2,0.2,0.3,0.4,0.3,0.6s-0.1,0.5-0.3,0.6
			c-0.2,0.2-0.4,0.3-0.6,0.3c-0.2,0-0.4-0.1-0.6-0.3c-0.2-0.2-0.3-0.4-0.3-0.6c0-0.3,0.1-0.5,0.3-0.6
			C-148.9,279.2-148.7,279.2-148.4,279.2z"/>
		<path class="st5" d="M-142.8,282c0,0.6,0,0.9,0,1.5c-0.4-0.3-0.8-0.4-1.2-0.4c-0.3,0-0.5,0.1-0.6,0.3c-0.2,0.3-0.2,0.8-0.2,1.7
			c0,0.8,0.1,1.4,0.2,1.7c0.1,0.2,0.3,0.3,0.6,0.3c0.4,0,0.8-0.1,1.2-0.4c0,0.6,0,0.9,0,1.5c-0.5,0.2-1.1,0.3-1.6,0.3
			c-0.7,0-1.1-0.2-1.4-0.6c-0.4-0.5-0.5-1.4-0.5-2.7c0-1.4,0.2-2.3,0.6-2.8c0.3-0.4,0.7-0.6,1.4-0.6
			C-143.9,281.8-143.4,281.8-142.8,282z"/>
		<path class="st5" d="M-138.1,286.6c0,0.5,0,0.8,0,1.3c-0.7,0.3-1.3,0.4-1.8,0.4c-0.7,0-1.2-0.2-1.5-0.6c-0.4-0.5-0.6-1.4-0.6-2.8
			c0-1.2,0.2-2.1,0.5-2.6s0.9-0.8,1.7-0.8c0.6,0,1.1,0.2,1.4,0.5c0.3,0.3,0.4,0.9,0.4,1.6c0,0.6,0,0.9,0,1.4c-1,0-1.5,0-2.6,0
			c0,0.5,0,0.9,0,1c0.1,0.4,0.2,0.7,0.4,0.8c0.1,0.1,0.3,0.1,0.5,0.1C-139.1,287.1-138.6,287-138.1,286.6z M-139.3,284
			c0-0.4,0-0.7,0-0.8c-0.1-0.3-0.2-0.4-0.5-0.4c-0.2,0-0.4,0.1-0.5,0.3c-0.1,0.2-0.1,0.5-0.2,1C-140,284-139.8,284-139.3,284
			C-139.3,284-139.3,284-139.3,284z"/>
		<path class="st5" d="M-133.6,282c0,0.5,0,0.8,0,1.3c-0.6-0.3-1.1-0.5-1.6-0.5c-0.4,0-0.6,0.2-0.6,0.7c0,0.4,0.2,0.7,0.6,0.7
			c1.4,0,2,0.7,2,2.1c0,1.4-0.7,2.1-2.1,2.1c-0.6,0-1.1-0.1-1.6-0.3c0-0.5,0-0.8,0-1.3c0.6,0.3,1.1,0.4,1.6,0.4s0.8-0.3,0.8-0.8
			s-0.3-0.7-0.8-0.7c-0.6,0-1-0.1-1.3-0.4c-0.4-0.3-0.6-0.9-0.6-1.7c0-1.3,0.6-1.9,1.9-1.9C-134.7,281.6-134.1,281.8-133.6,282z"/>
		<path class="st5" d="M-131.1,288.5c-0.3,0-0.5-0.1-0.7-0.3c-0.2-0.2-0.3-0.4-0.3-0.7c0-0.3,0.1-0.5,0.3-0.7s0.4-0.3,0.7-0.3
			s0.5,0.1,0.7,0.3c0.2,0.2,0.3,0.4,0.3,0.7c0,0.3-0.1,0.5-0.3,0.7C-130.6,288.3-130.8,288.5-131.1,288.5z M-131.9,279.3
			c0.6,0,0.9,0,1.5,0c0,2.5,0,3.7,0,6.2c-0.6,0-0.9,0-1.5,0C-131.9,283-131.9,281.8-131.9,279.3z"/>
	</g>
</g>
<text transform="matrix(1 0 0 1 -210.1 371.3805)"><tspan x="0" y="0" class="st6 st7">Application was created by Mindaugas Uzubalis</tspan><tspan x="0" y="9.6" class="st6 st7">also known as MD. Graphics created by freepik.com.</tspan></text>
</svg>
