<?xml version="1.0" encoding="utf-8"?>
<!-- Generator: Adobe Illustrator 19.0.0, SVG Export Plug-In . SVG Version: 6.00 Build 0)  -->
<svg version="1.1" id="Layer_1" xmlns="http://www.w3.org/2000/svg" xmlns:xlink="http://www.w3.org/1999/xlink" x="0px" y="0px"
	 viewBox="-575 354.4 128 93.1" style="enable-background:new -575 354.4 128 93.1;" xml:space="preserve">
<style type="text/css">
	.st0{fill:#8CC63F;}
	.st1{fill:#009245;}
	.st2{fill:#C1272D;}
	.st3{fill:#26537C;}
	.st4{fill:#F2F2F2;}
</style>
<g id="XMLID_2_">
	<path id="XMLID_13_" class="st0" d="M-459.8,380.8c0-2.4,0.2-4.4-0.2-6.9c-0.2-1.2,0.5-2.9-0.5-3.8c-0.2-0.3-0.8-0.2-0.9,0.2
		c-0.3,0.5-0.3,0.8-0.5,1.2c-0.2,1.4-1.4,2-2.1,2.9c-1.4,1.8-2.7,4-3.8,5.9c-0.3,0.5-0.2,1.2-0.2,1.7c0,1.1-0.2,1.8-0.3,2.9
		c-0.2,1.1-0.3,2-0.6,2.9c-1.4,1.4-2.3,1.2-2.7-0.2c0,0-0.9-2-1.1-2.3c-0.6-1.4-1.4-1.7-0.8-3.5c0.2-0.3,0.2-1.1,0-1.4
		c-0.3-1.2-0.3-3.2-1.5-4.1c-1.8-1.4-2-4.4-2.4-6.6c-0.3-1.1,0-3.2-1.2-3.8c-0.2-0.2-0.5-0.2-0.6,0c-0.9,0.5-2.4,1.4-2.7,2.4
		c-0.3,0.9-0.2,1.7-0.3,2.6c-0.5,1.8-2,2-3.2,2.9c-3.7,3-8.8,4-11,8.7c-1.4,3-5.5,0-7.5-0.8c-2.7-1.1-5.5-1.8-8.1-2.9
		c-2.6-1.1-5-2.1-7.5-3.5c-1.4-0.8-2.7-1.5-3.8-2.6c-2-1.8-0.3-3.7-0.5-5.5c-0.2-1.1-2.1-1.7-2.9-2.1c-2.4-1.4-4.1-4.3-5.2-6.6
		c-1.4-2.7-3.8,0.9-4.3,2.4c-0.3,0.9-0.3,2.1-0.5,3c-0.5,2-2.1,2.4-3.5,3.5c-1.5,1.2-3.5,2.1-4.3,4.1c-0.9,2.3-0.8,5-1.4,7.5
		c-0.9,3.2-2.3,6.7-4.6,9.1c-0.3,0.3-0.2,0.6,0,0.8c0,0.2,0.2,0.2,0.2,0.2c3.8,1.8,8.1,3.2,12.2,3.8c4.9,0.6,9.8,1.8,14.8,2.3
		c2.4,0.2,4.9,0.2,7.3-0.2c2.7-0.2,5.3,0,7.9,0c5.8,0.2,11.6-0.8,17.2-0.6c5.5,0.2,10.7,0.2,16-0.9c2.6-0.5,5.3-0.6,7.9-1.1
		c1.2-0.2,2.4-0.6,3.7-0.6c0.6,0,1.5-0.2,2-0.5c0.9-0.8,1.2-1.4,1.2-2.6C-459.6,386.6-459.8,383.7-459.8,380.8z"/>
	<path id="XMLID_11_" class="st1" d="M-498.5,383.9c0.2-1.5,0.2-2.1,1.4-3.4c0.8-0.8,1.4-1.4,1.5-2.4c0-0.6-0.9-1.2-1.2-1.5
		c-2-2-1.8-4.1-1.2-6.6c0.8-3-3-5-1.8-7.8c1.4-3,1.4-7.2-3-4.7c-2.1,1.1-6.1-0.2-7.8,2.1c-1.2,1.7-2.7,2.4-4.6,3.7
		c-1.2,0.8-2.7,0.6-4,1.4c-2.1,1.4,2.3,4.7-1.5,5.5c-2.3,0.5-5.3,0-6.7,2.3c-0.8,1.2-0.5,2.9-1.2,4.3s-2.3,2-3.4,3.2
		c-0.5,0.5-0.5,1.1-0.3,1.7c0.6,2,2.7,6.6,0,7.9c-1.7,0.9-3.8,0.5-5.6,0.8c-1.7,0.2-2.6,1.2-3.7-0.8c-0.9-1.7-2.6-2.6-3-4.4
		c-0.5-1.7-0.3-3.4-1.2-5c-1.5-2.7-4.4-2-7.2-3.2c-1.2-0.6-1.2-3-2-4.1c-0.5-0.6-2-1.2-2.6-1.4c-1.1-0.3-1.7-0.5-2.7-0.6
		c-1.2-0.2-1.7-2.9-2.1-4c-0.6-1.4-2.3-1.4-3.5-1.4c-1.7,0-3.7,0.5-5,1.4c-1.7,1.2-0.9,2.6-0.3,4.1c1.1,2.6-1.4,4.7-0.6,7.3
		c0.6,1.8,0.2,3-0.5,4.9c-0.3,0.9-0.3,0.9,0,1.7c0.6,1.2,2.6,2.7,0.5,4c-0.3,0.2-0.6,0.6-0.6,0.9c-0.2,1.2,0.3,2.4,1.4,3.2
		c0,0.3,0.2,0.6,0.6,0.6c2.7,0,5.6,0.8,8.4,0.8h8.7c2.4,0,5,0,7.3-0.5c1.5-0.3,3-1.1,4.6-1.4c1.8-0.5,3.8,0,5.6,0.3
		c6.7,0.8,13.7,1.1,20.4,1.4c5.8,0.3,11.3,1.4,17.1,0.6c0.2,0,0.3-0.2,0.3-0.2c0.3-0.2,0.6-0.5,0.3-0.8c-1.5-1.8-2.1-3.5-1.7-5.9
		C-499.7,386.6-498.7,385.4-498.5,383.9z"/>
	<path id="XMLID_9_" class="st1" d="M-449,370.6c-0.5-1.5-3.7,0.5-4.4,0.8c-1.2,0.6-2.3,2.3-2.9,3.5c-0.9,1.5-3.4,1.8-4.7,3
		c-1.1,1.1-4.9,3-4.3,5c0.6,2.3,3.5,4.1,1.1,6.6c-1.2,1.2-2.7,2.3-3.7,3.8c-0.3,0.6,0.5,1.1,0.9,0.6c3.8-0.3,7.8,0.2,11.4,1.2
		c2.3,0.8,3.5-1.8,4-3.5c0.5-1.5-0.3-3.5-0.5-4.9c-0.2-2.1-0.2-4.3,0.6-6.3c0.8-2,1.1-4,1.4-5.9C-449.7,373.5-448.7,371.8-449,370.6
		z"/>
	
		<ellipse id="XMLID_8_" transform="matrix(0.1103 -0.9939 0.9939 0.1103 -870.3167 -184.9303)" class="st2" cx="-538.5" cy="393.7" rx="13.9" ry="18"/>
	
		<ellipse id="XMLID_7_" transform="matrix(-0.4713 -0.882 0.882 -0.4713 -1062.4265 154.9911)" class="st2" cx="-484.8" cy="395.9" rx="12.8" ry="18"/>
	<g id="XMLID_3_">
		<path id="XMLID_6_" class="st3" d="M-573.1,391.1v22.9c0,17.2,14,31.3,31.3,31.3h60.4c17.2,0,31.3-14,31.3-31.3v-22.9H-573.1z"/>
		<rect id="XMLID_5_" x="-573.1" y="397.9" class="st4" width="123" height="4.9"/>
		<rect id="XMLID_4_" x="-573.1" y="404.6" class="st4" width="123" height="7.8"/>
	</g>
</g>
</svg>
