<?xml version="1.0" encoding="utf-8"?>
<!-- Generator: Adobe Illustrator 19.0.0, SVG Export Plug-In . SVG Version: 6.00 Build 0)  -->
<svg version="1.1" id="Layer_1" xmlns="http://www.w3.org/2000/svg" xmlns:xlink="http://www.w3.org/1999/xlink" x="0px" y="0px"
	 viewBox="-344 217 130 128" style="enable-background:new -344 217 130 128;" xml:space="preserve">
<style type="text/css">
	.st0{fill:#A1B963;}
	.st1{fill:#FFFFFF;}
	.st2{font-family:'SolexBlack';}
	.st3{font-size:44px;}
	.st4{font-family:'SolexBold';}
	.st5{font-size:14px;}
</style>
<g>
	<path class="st0" d="M-335.8,236.3c0-6.9,5.6-12.5,12.5-12.5h89.5c6.9,0,12.5,5.6,12.5,12.5v89.5c0,6.9-5.6,12.5-12.5,12.5h-89.5
		c-6.9,0-12.5-5.6-12.5-12.5V236.3z"/>
	<path class="st0" d="M-323.3,222.2h89.5c7.7,0,14,6.3,14,14v89.5c0,7.7-6.3,14-14,14h-89.5c-7.7,0-14-6.3-14-14v-89.5
		C-337.4,228.5-331.1,222.2-323.3,222.2L-323.3,222.2z M-233.9,336.8c6,0,10.9-4.9,10.9-10.9v-89.5c0-6-4.9-10.9-10.9-10.9h-89.5
		c-6,0-10.9,4.9-10.9,10.9v89.5c0,6,4.9,10.9,10.9,10.9H-233.9L-233.9,336.8z"/>
</g>
<text transform="matrix(1 0 0 1 -316.2555 274.415)" class="st1 st2 st3">&gt;65% </text>
<text transform="matrix(1 0 0 1 -316.2555 291.215)" class="st1 st4 st5">        of adults</text>
<text transform="matrix(1 0 0 1 -316.2555 308.015)" class="st1 st4 st5">        in Scotland</text>
<text transform="matrix(1 0 0 1 -316.2555 324.815)" class="st1 st4 st5">        are overweight</text>
</svg>
