<?xml version="1.0" encoding="utf-8"?>
<!-- Generator: Adobe Illustrator 19.0.0, SVG Export Plug-In . SVG Version: 6.00 Build 0)  -->
<svg version="1.1" id="Layer_1" xmlns="http://www.w3.org/2000/svg" xmlns:xlink="http://www.w3.org/1999/xlink" x="0px" y="0px"
	 viewBox="-575 354.4 128 93.1" style="enable-background:new -575 354.4 128 93.1;" xml:space="preserve">
<style type="text/css">
	.st0{fill:#ED765D;}
	.st1{fill:#D14751;}
	.st2{fill:#FBB03B;}
	.st3{fill:#F7931E;}
	.st4{fill:#8CC63F;}
</style>
<g id="XMLID_3_">
	<path id="XMLID_22_" class="st0" d="M-450.8,407c0,2.4-1.7,4.3-4,4.3H-567c-2.1,0-4-2-4-4.3l0,0c0-2.4,1.7-4.3,4-4.3h112.2
		C-452.5,402.6-450.8,404.6-450.8,407L-450.8,407z"/>
	<path id="XMLID_21_" class="st1" d="M-450.8,418c0,3.7-1.7,6.7-4,6.7H-567c-2.1,0-4-3-4-6.7l0,0c0-3.7,1.7-6.7,4-6.7h112.2
		C-452.5,411.3-450.8,414.3-450.8,418L-450.8,418z"/>
	<path id="XMLID_20_" class="st2" d="M-529.6,403.3c0,0,30.3-3.1,43.2,17.8c0,0,24.2-4.3,24.5-19.1
		C-461.5,387.3-529.6,403.3-529.6,403.3z"/>
	<path id="XMLID_19_" class="st3" d="M-568,424.7c0.3,10.2,8.5,18.6,18.5,18.6h76.9c10.1,0,18.2-8.2,18.5-18.6H-568z"/>
	<path id="XMLID_17_" class="st4" d="M-452.7,396.2c0-0.1-0.1-0.1-0.1-0.3c-0.1-0.4-0.4-0.7-1-0.7h-114.3c-0.1,0-0.3,0-0.4,0.1
		c-0.4-0.1-0.9,0-1.1,0.4c-1.1,1.6-2,3.1-3.3,4.6c-1,1-0.7,2.1-0.4,3.3c0.6,2,3,3,4.7,2.1c2.3-1.1,4.4-2.8,7-1.4
		c1.4,0.7,2.1,2.7,3.6,3c1.3,0.3,2.6,0.4,3.8,0.1c2-0.6,7.5-5,9.4-2c1.4,2.3,3.7,4.1,6.5,2.8c2.8-1.4,5.3-3.3,7.7-0.4
		c0.4,0.6,1.4,1.1,2.1,1c1.6-0.3,2.1-1,3.3-2.3c0.7-0.7,1.1-1.6,1.7-2.4c2-2.7,4.3,0,5.8,1.1c0.9,0.7,1.1,1.3,2.4,1.3
		c2.8,0,4.6-5.5,8.2-0.9c1.6,2.1,3.4,3.1,6.1,1.3c5.7-4,5.4,2.4,10.2,2.7c0.9,0,1.4,0,2.1-0.7c3-2.6,4.8-4.3,8.5-1.7
		c1,0.7,5.7,5,7.4,3.3c1.4-1.4,1.1-5.1,4.4-4.6c2,0.3,3.8,1.4,5.7,2c1.1,0.4,1.8,0.4,3-0.3c0.6-0.4,1.3-1.1,1.7-1.6
		c2.4-2.3,2.3-0.6,3.6,0.6c1.6,1.6,4.6,1.1,5.5-0.7C-447,402.1-451.2,399.6-452.7,396.2z"/>
	<path id="XMLID_16_" class="st3" d="M-452.2,395.8c-1.1-20.8-18.3-37.1-39.2-37.1h-39.1c-21,0-38.1,16.5-39.2,37.1H-452.2z"/>
	<g id="XMLID_4_">
		<path id="XMLID_15_" class="st2" d="M-555.5,372.8c-1.3,0-1.3,2,0,2S-554.2,372.8-555.5,372.8z"/>
		<path id="XMLID_14_" class="st2" d="M-546.1,368.2c-1.3,0-1.3,2,0,2S-544.8,368.2-546.1,368.2z"/>
		<path id="XMLID_13_" class="st2" d="M-536.1,373.8c-1.3,0-1.3,2,0,2C-534.8,375.9-534.8,373.8-536.1,373.8z"/>
		<path id="XMLID_12_" class="st2" d="M-525.9,363.5c-1.3,0-1.3,2,0,2C-524.6,365.7-524.6,363.5-525.9,363.5z"/>
		<path id="XMLID_11_" class="st2" d="M-516.6,369.2c-1.3,0-1.3,2,0,2S-515.4,369.2-516.6,369.2z"/>
		<path id="XMLID_10_" class="st2" d="M-503.6,365.2c-1.3,0-1.3,2,0,2S-502.3,365.2-503.6,365.2z"/>
		<path id="XMLID_9_" class="st2" d="M-501.9,373.6c-1.3,0-1.3,2,0,2C-500.4,375.8-500.4,373.6-501.9,373.6z"/>
		<path id="XMLID_8_" class="st2" d="M-490.6,367.5c-1.3,0-1.3,2,0,2C-489.3,369.6-489.3,367.5-490.6,367.5z"/>
		<path id="XMLID_7_" class="st2" d="M-480.4,372.8c-1.3,0-1.3,2,0,2C-479,374.8-479,372.8-480.4,372.8z"/>
		<path id="XMLID_6_" class="st2" d="M-473.6,366.4c-1.3,0-1.3,2,0,2C-472.3,368.4-472.3,366.4-473.6,366.4z"/>
		<path id="XMLID_5_" class="st2" d="M-466.7,374.6c-1.3,0-1.3,2,0,2C-465.3,376.6-465.3,374.6-466.7,374.6z"/>
	</g>
</g>
</svg>
