<?xml version="1.0" encoding="utf-8"?>
<!-- Generator: Adobe Illustrator 19.0.0, SVG Export Plug-In . SVG Version: 6.00 Build 0)  -->
<svg version="1.1" id="Layer_1" xmlns="http://www.w3.org/2000/svg" xmlns:xlink="http://www.w3.org/1999/xlink" x="0px" y="0px"
	 viewBox="-223 185.4 179 190.6" style="enable-background:new -223 185.4 179 190.6;" xml:space="preserve">
<style type="text/css">
	.st0{fill:#A1B963;}
	.st1{fill:#FFFFFF;}
	.st2{font-family:'SolexBlack';}
	.st3{font-size:61.5713px;}
	.st4{font-family:'SolexBold';}
	.st5{font-size:19.5908px;}
</style>
<g>
	<path class="st0" d="M-213,218.8c0-9.7,7.8-17.5,17.5-17.5h125.2c9.7,0,17.5,7.8,17.5,17.5V344c0,9.7-7.8,17.5-17.5,17.5h-125.2
		c-9.7,0-17.5-7.8-17.5-17.5V218.8z"/>
	<path class="st0" d="M-195.5,199h125.2c10.7,0,19.6,8.8,19.6,19.6v125.2c0,10.7-8.8,19.6-19.6,19.6h-125.2
		c-10.7,0-19.6-8.8-19.6-19.6V218.5C-215.3,207.8-206.4,199-195.5,199L-195.5,199z M-70.5,359.2c8.4,0,15.2-6.8,15.2-15.2V218.8
		c0-8.4-6.8-15.2-15.2-15.2h-125.2c-8.4,0-15.2,6.8-15.2,15.2V344c0,8.4,6.8,15.2,15.2,15.2L-70.5,359.2L-70.5,359.2z"/>
</g>
<text transform="matrix(1 0 0 1 -200.4212 271.9338)" class="st1 st2 st3">&gt;58% </text>
<text transform="matrix(1 0 0 1 -200.4212 295.4431)" class="st1 st4 st5">        of adults</text>
<text transform="matrix(1 0 0 1 -200.4212 318.9508)" class="st1 st4 st5">        in Wales</text>
<text transform="matrix(1 0 0 1 -200.4212 342.4608)" class="st1 st4 st5">        are overweight</text>
</svg>
